<svg width="16" height="17" viewBox="0 0 16 17" fill="none" xmlns="http://www.w3.org/2000/svg">
<path d="M11.3239 7.83523C11.6063 7.83523 11.8352 7.60628 11.8352 7.32386C11.8352 7.04145 11.6063 6.8125 11.3239 6.8125C11.0414 6.8125 10.8125 7.04145 10.8125 7.32386C10.8125 7.60628 11.0414 7.83523 11.3239 7.83523Z" fill="white"/>
<path d="M12.4986 2.97585H11.8338V2.46449C11.8338 2.18206 11.6049 1.95312 11.3224 1.95312C11.04 1.95312 10.8111 2.18206 10.8111 2.46449V2.97585H8.48437V2.46449C8.48437 2.18206 8.25544 1.95312 7.97301 1.95312C7.69059 1.95312 7.46165 2.18206 7.46165 2.46449V2.97585H5.16051V2.46449C5.16051 2.18206 4.93157 1.95312 4.64915 1.95312C4.36672 1.95312 4.13778 2.18206 4.13778 2.46449V2.97585H3.49858C2.37072 2.97585 1.45312 3.89344 1.45312 5.02131V12.9986C1.45312 14.1264 2.37072 15.044 3.49858 15.044H7.41051C7.69294 15.044 7.92187 14.8151 7.92187 14.5327C7.92187 14.2502 7.69294 14.0213 7.41051 14.0213H3.49858C2.93465 14.0213 2.47585 13.5625 2.47585 12.9986V5.02131C2.47585 4.45737 2.93465 3.99858 3.49858 3.99858H4.13778V4.50994C4.13778 4.79237 4.36672 5.02131 4.64915 5.02131C4.93157 5.02131 5.16051 4.79237 5.16051 4.50994V3.99858H7.46165V4.50994C7.46165 4.79237 7.69059 5.02131 7.97301 5.02131C8.25544 5.02131 8.48437 4.79237 8.48437 4.50994V3.99858H10.8111V4.50994C10.8111 4.79237 11.04 5.02131 11.3224 5.02131C11.6049 5.02131 11.8338 4.79237 11.8338 4.50994V3.99858H12.4986C13.0625 3.99858 13.5213 4.45737 13.5213 5.02131V7.93608C13.5213 8.21851 13.7502 8.44744 14.0327 8.44744C14.3151 8.44744 14.544 8.21851 14.544 7.93608V5.02131C14.544 3.89344 13.6264 2.97585 12.4986 2.97585Z" fill="white"/>
<path d="M11.4492 8.85547C9.74331 8.85547 8.35547 10.2433 8.35547 11.9492C8.35547 13.6551 9.74331 15.043 11.4492 15.043C13.1551 15.043 14.543 13.6551 14.543 11.9492C14.543 10.2433 13.1551 8.85547 11.4492 8.85547ZM11.4492 14.0202C10.3073 14.0202 9.3782 13.0912 9.3782 11.9492C9.3782 10.8072 10.3073 9.8782 11.4492 9.8782C12.5912 9.8782 13.5202 10.8072 13.5202 11.9492C13.5202 13.0912 12.5912 14.0202 11.4492 14.0202Z" fill="white"/>
<path d="M12.1903 11.4389H11.9602V10.902C11.9602 10.6196 11.7313 10.3906 11.4489 10.3906C11.1664 10.3906 10.9375 10.6196 10.9375 10.902V11.9503C10.9375 12.2327 11.1664 12.4616 11.4489 12.4616H12.1903C12.4728 12.4616 12.7017 12.2327 12.7017 11.9503C12.7017 11.6679 12.4728 11.4389 12.1903 11.4389Z" fill="white"/>
<path d="M9.0973 7.83523C9.37972 7.83523 9.60866 7.60628 9.60866 7.32386C9.60866 7.04145 9.37972 6.8125 9.0973 6.8125C8.81488 6.8125 8.58594 7.04145 8.58594 7.32386C8.58594 7.60628 8.81488 7.83523 9.0973 7.83523Z" fill="white"/>
<path d="M6.87074 10.0579C7.15316 10.0579 7.3821 9.82894 7.3821 9.54652C7.3821 9.2641 7.15316 9.03516 6.87074 9.03516C6.58832 9.03516 6.35938 9.2641 6.35938 9.54652C6.35938 9.82894 6.58832 10.0579 6.87074 10.0579Z" fill="white"/>
<path d="M4.65199 7.83523C4.93441 7.83523 5.16335 7.60628 5.16335 7.32386C5.16335 7.04145 4.93441 6.8125 4.65199 6.8125C4.36957 6.8125 4.14062 7.04145 4.14062 7.32386C4.14062 7.60628 4.36957 7.83523 4.65199 7.83523Z" fill="white"/>
<path d="M4.64808 10.0579C4.9305 10.0579 5.15945 9.82894 5.15945 9.54652C5.15945 9.2641 4.9305 9.03516 4.64808 9.03516C4.36566 9.03516 4.13672 9.2641 4.13672 9.54652C4.13672 9.82894 4.36566 10.0579 4.64808 10.0579Z" fill="white"/>
<path d="M4.65199 12.2825C4.93441 12.2825 5.16335 12.0535 5.16335 11.7711C5.16335 11.4887 4.93441 11.2598 4.65199 11.2598C4.36957 11.2598 4.14062 11.4887 4.14062 11.7711C4.14062 12.0535 4.36957 12.2825 4.65199 12.2825Z" fill="white"/>
<path d="M6.87074 12.2825C7.15316 12.2825 7.3821 12.0535 7.3821 11.7711C7.3821 11.4887 7.15316 11.2598 6.87074 11.2598C6.58832 11.2598 6.35938 11.4887 6.35938 11.7711C6.35938 12.0535 6.58832 12.2825 6.87074 12.2825Z" fill="white"/>
<path d="M6.87074 7.83523C7.15316 7.83523 7.3821 7.60628 7.3821 7.32386C7.3821 7.04145 7.15316 6.8125 6.87074 6.8125C6.58832 6.8125 6.35938 7.04145 6.35938 7.32386C6.35938 7.60628 6.58832 7.83523 6.87074 7.83523Z" fill="white"/>
</svg>
