<svg width="20" height="14" viewBox="0 0 20 14" fill="none" xmlns="http://www.w3.org/2000/svg">
<path d="M18.589 13.7536H6.1517C5.6391 13.7536 5.22363 13.3381 5.22363 12.8255C5.22363 12.3129 5.6391 11.8975 6.1517 11.8975H18.5887C19.1013 11.8975 19.5167 12.3129 19.5167 12.8255C19.5167 13.3381 19.1016 13.7536 18.589 13.7536Z" fill="white"/>
<path d="M18.589 7.92741H6.1517C5.6391 7.92741 5.22363 7.51195 5.22363 6.99935C5.22363 6.48675 5.6391 6.07129 6.1517 6.07129H18.5887C19.1013 6.07129 19.5167 6.48675 19.5167 6.99935C19.517 7.51195 19.1016 7.92741 18.589 7.92741Z" fill="white"/>
<path d="M18.589 2.10222H6.1517C5.6391 2.10222 5.22363 1.68676 5.22363 1.17416C5.22363 0.661556 5.6391 0.246094 6.1517 0.246094H18.5887C19.1013 0.246094 19.5167 0.661556 19.5167 1.17416C19.5167 1.68676 19.1016 2.10222 18.589 2.10222Z" fill="white"/>
<path d="M2.16436 2.49278C2.85272 2.49278 3.41074 1.93475 3.41074 1.24639C3.41074 0.558027 2.85272 0 2.16436 0C1.476 0 0.917969 0.558027 0.917969 1.24639C0.917969 1.93475 1.476 2.49278 2.16436 2.49278Z" fill="white"/>
<path d="M2.16436 8.24668C2.85272 8.24668 3.41074 7.68865 3.41074 7.00029C3.41074 6.31193 2.85272 5.75391 2.16436 5.75391C1.476 5.75391 0.917969 6.31193 0.917969 7.00029C0.917969 7.68865 1.476 8.24668 2.16436 8.24668Z" fill="white"/>
<path d="M2.16436 14.0006C2.85272 14.0006 3.41074 13.4426 3.41074 12.7542C3.41074 12.0658 2.85272 11.5078 2.16436 11.5078C1.476 11.5078 0.917969 12.0658 0.917969 12.7542C0.917969 13.4426 1.476 14.0006 2.16436 14.0006Z" fill="white"/>
</svg>
