<svg width="16" height="16" viewBox="0 0 16 16" fill="none" xmlns="http://www.w3.org/2000/svg">
<path d="M10.4624 11.8862L8.72449 10.9207L4.37965 12.8276L0.517578 10.9207V1.24138L4.37965 3.14828L8.72449 1L13.0693 3.14828V8.04828M8.72449 10.9207V1V10.9207ZM4.37965 12.8276V3.14828V12.8276Z" fill="#23524E"/>
<path d="M10.4624 11.8862L8.72449 10.9207M8.72449 10.9207L4.37965 12.8276M8.72449 10.9207V1M4.37965 12.8276L0.517578 10.9207V1.24138L4.37965 3.14828M4.37965 12.8276V3.14828M4.37965 3.14828L8.72449 1M8.72449 1L13.0693 3.14828V8.04828" stroke="white" stroke-width="0.945906" stroke-miterlimit="10" stroke-linecap="round" stroke-linejoin="round"/>
<path d="M12.5866 8C11.9465 8 11.3325 8.25431 10.8798 8.70698C10.4272 9.15966 10.1729 9.77362 10.1729 10.4138C10.1729 12.5862 12.5866 15 12.5866 15C12.5866 15 15.0004 12.5862 15.0004 10.4138C15.0004 9.77362 14.7461 9.15966 14.2935 8.70698C13.8408 8.25431 13.2268 8 12.5866 8Z" fill="#23524E" stroke="white" stroke-width="0.945906" stroke-miterlimit="10" stroke-linecap="round" stroke-linejoin="round"/>
<path d="M12.5864 11.1377C12.9864 11.1377 13.3106 10.8135 13.3106 10.4136C13.3106 10.0137 12.9864 9.68945 12.5864 9.68945C12.1865 9.68945 11.8623 10.0137 11.8623 10.4136C11.8623 10.8135 12.1865 11.1377 12.5864 11.1377Z" fill="#23524E" stroke="white" stroke-width="0.945906" stroke-miterlimit="10" stroke-linecap="round" stroke-linejoin="round"/>
</svg>
