<svg width="16" height="16" viewBox="0 0 16 16" fill="none" xmlns="http://www.w3.org/2000/svg">
<g clip-path="url(#clip0_3227_57574)">
<path d="M15.8206 6.11517L13.2506 3.97517V2.25017C13.2506 2.11756 13.1979 1.99039 13.1042 1.89662C13.0104 1.80285 12.8832 1.75017 12.7506 1.75017C12.618 1.75017 12.4908 1.80285 12.3971 1.89662C12.3033 1.99039 12.2506 2.11756 12.2506 2.25017V3.14017L8.96063 0.400172C8.69109 0.175672 8.35141 0.0527344 8.00063 0.0527344C7.64984 0.0527344 7.31016 0.175672 7.04063 0.400172L0.180626 6.11517C0.0785177 6.20004 0.0143056 6.322 0.00211575 6.45421C-0.0100741 6.58642 0.0307568 6.71806 0.115626 6.82017C0.200495 6.92228 0.322451 6.98649 0.454664 6.99868C0.586877 7.01087 0.718518 6.97004 0.820626 6.88517L7.68063 1.16767C7.77047 1.09284 7.8837 1.05186 8.00063 1.05186C8.11755 1.05186 8.23078 1.09284 8.32063 1.16767L14.0006 5.90017V14.5002C14.0006 14.6328 13.9479 14.76 13.8542 14.8537C13.7604 14.9475 13.6332 15.0002 13.5006 15.0002H11.0006V9.50017C11.0006 9.10235 10.8426 8.72082 10.5613 8.43951C10.28 8.15821 9.89845 8.00017 9.50063 8.00017H6.50063C6.1028 8.00017 5.72127 8.15821 5.43997 8.43951C5.15866 8.72082 5.00063 9.10235 5.00063 9.50017V15.0002H2.50063C2.36802 15.0002 2.24084 14.9475 2.14707 14.8537C2.0533 14.76 2.00063 14.6328 2.00063 14.5002V8.50017C2.00063 8.36756 1.94795 8.24039 1.85418 8.14662C1.76041 8.05285 1.63323 8.00017 1.50063 8.00017C1.36802 8.00017 1.24084 8.05285 1.14707 8.14662C1.0533 8.24039 1.00063 8.36756 1.00063 8.50017V14.5002C1.00063 14.898 1.15866 15.2795 1.43997 15.5608C1.72127 15.8421 2.1028 16.0002 2.50063 16.0002H13.5006C13.8984 16.0002 14.28 15.8421 14.5613 15.5608C14.8426 15.2795 15.0006 14.898 15.0006 14.5002V6.73517L15.1806 6.88517C15.2706 6.95971 15.3838 7.0004 15.5006 7.00017C15.6036 7.00037 15.7041 6.96879 15.7884 6.90973C15.8728 6.85067 15.9368 6.76701 15.9718 6.67019C16.0068 6.57337 16.0111 6.4681 15.984 6.36876C15.957 6.26943 15.8999 6.18086 15.8206 6.11517ZM6.00063 15.0002V9.50017C6.00063 9.36756 6.0533 9.24039 6.14707 9.14662C6.24084 9.05285 6.36802 9.00017 6.50063 9.00017H9.50063C9.63323 9.00017 9.76041 9.05285 9.85418 9.14662C9.94795 9.24039 10.0006 9.36756 10.0006 9.50017V15.0002H6.00063Z" fill="white"/>
<path d="M7.5 12.5C7.77614 12.5 8 12.2761 8 12C8 11.7239 7.77614 11.5 7.5 11.5C7.22386 11.5 7 11.7239 7 12C7 12.2761 7.22386 12.5 7.5 12.5Z" fill="white"/>
</g>
<defs>
<clipPath id="clip0_3227_57574">
<rect width="16" height="16" fill="white"/>
</clipPath>
</defs>
</svg>
