<svg width="30" height="30" viewBox="0 0 30 30" fill="none" xmlns="http://www.w3.org/2000/svg">
<path d="M23.6473 14.9999C23.6473 15.3531 23.5413 15.7059 23.3471 15.9706L14.5238 29.2059C14.2061 29.6825 13.6765 30.0001 13.059 30.0001H7.76492C6.79425 30.0001 6 29.2059 6 28.2352C6 27.8823 6.10599 27.5295 6.30019 27.2648L14.4708 14.9999L6.30019 2.73527C6.10599 2.47063 6 2.11778 6 1.7646C6 0.794247 6.79425 0 7.76492 0H13.059C13.6765 0 14.2061 0.317634 14.5238 0.794247L23.3471 14.0295C23.5413 14.2942 23.6473 14.647 23.6473 14.9999Z" fill="url(#paint0_linear_859_15864)"/>
<defs>
<linearGradient id="paint0_linear_859_15864" x1="7.96641" y1="3.68932e-06" x2="22.0952" y2="0.184395" gradientUnits="userSpaceOnUse">
<stop stop-color="#4AC0B4"/>
<stop offset="1" stop-color="#3BB1A5"/>
</linearGradient>
</defs>
</svg>
