<svg width="20" height="20" viewBox="0 0 20 20" fill="none" xmlns="http://www.w3.org/2000/svg">
<path d="M14.5893 11.9228L14.5818 11.9853C12.7493 11.072 12.5576 10.9503 12.3209 11.3053C12.1568 11.5511 11.6784 12.1086 11.5343 12.2736C11.3884 12.4361 11.2434 12.4486 10.9959 12.3361C10.7459 12.2111 9.94345 11.9486 8.99345 11.0986C8.25345 10.4361 7.75678 9.62364 7.61011 9.37364C7.36595 8.95197 7.87678 8.89197 8.34178 8.01197C8.42511 7.83697 8.38261 7.69947 8.32095 7.5753C8.25845 7.4503 7.76095 6.2253 7.55261 5.73697C7.35261 5.2503 7.14678 5.31197 6.99261 5.31197C6.51261 5.2703 6.16178 5.27697 5.85261 5.59864C4.50761 7.07697 4.84678 8.60197 5.99761 10.2236C8.25928 13.1836 9.46428 13.7286 11.6676 14.4853C12.2626 14.6745 12.8051 14.6478 13.2343 14.5861C13.7126 14.5103 14.7068 13.9853 14.9143 13.3978C15.1268 12.8103 15.1268 12.3228 15.0643 12.2103C15.0026 12.0978 14.8393 12.0353 14.5893 11.9228Z" fill="#4AC0B4"/>
<path d="M17.1 2.87453C10.6925 -3.31964 0.0883333 1.17286 0.0841667 9.91119C0.0841667 11.6579 0.541667 13.3612 1.41333 14.8654L0 20.0004L5.27917 18.6237C11.8667 22.182 19.9967 17.457 20 9.91619C20 7.26953 18.9667 4.77869 17.0875 2.90703L17.1 2.87453ZM18.335 9.88869C18.33 16.2495 11.3475 20.222 5.825 16.9754L5.525 16.797L2.4 17.6095L3.2375 14.572L3.03833 14.2595C-0.398333 8.78869 3.55 1.63869 10.06 1.63869C12.2717 1.63869 14.3475 2.50119 15.9108 4.06369C17.4733 5.61286 18.335 7.68869 18.335 9.88869Z" fill="#4AC0B4"/>
</svg>
