<svg width="30" height="30" viewBox="0 0 30 30" fill="none" xmlns="http://www.w3.org/2000/svg">
<g clip-path="url(#clip0_1373_73449)">
<path fill-rule="evenodd" clip-rule="evenodd" d="M18.8215 10.4882C19.4723 9.83728 20.5277 9.83728 21.1785 10.4882L29.5118 18.8215C30.1627 19.4723 30.1627 20.5277 29.5118 21.1785L21.1785 29.5118C20.5277 30.1627 19.4723 30.1627 18.8215 29.5118C18.1707 28.861 18.1707 27.8057 18.8215 27.1548L25.9763 20L18.8215 12.8452C18.1707 12.1943 18.1707 11.139 18.8215 10.4882Z" fill="#C7C7C7"/>
<path fill-rule="evenodd" clip-rule="evenodd" d="M1.66667 0C2.58713 0 3.33333 0.7462 3.33333 1.66667V13.3333C3.33333 14.6593 3.86012 15.9312 4.7978 16.8688C5.73548 17.8065 7.00725 18.3333 8.33333 18.3333H28.3333C29.2538 18.3333 30 19.0795 30 20C30 20.9205 29.2538 21.6667 28.3333 21.6667H8.33333C6.1232 21.6667 4.00358 20.7887 2.44078 19.2258C0.877966 17.6632 0 15.5435 0 13.3333V1.66667C0 0.7462 0.7462 0 1.66667 0Z" fill="#C7C7C7"/>
</g>
<defs>
<clipPath id="clip0_1373_73449">
<rect width="30" height="30" fill="white"/>
</clipPath>
</defs>
</svg>
