<svg xmlns="http://www.w3.org/2000/svg" width="30" height="30" fill="none" viewBox="0 0 30 30">
  <g clip-path="url(#a)">
    <path fill="#4AC0B4" stroke="#4AC0B4" stroke-width=".25" d="M22.087 11.431c.241-.19.584-.306.913-.306h.009c.28 0 .541-.107.737-.3v-.001c.06-.06.11-.128.154-.199H25c.621 0 1.125-.505 1.125-1.125V7c0-.62-.504-1.125-1.125-1.125h-1.069c-.2-.3-.54-.5-.93-.5-1.252 0-2.424.542-3.296 1.522-.858.964-1.33 2.244-1.33 3.603v13.25a3.129 3.129 0 0 1-3.124 3.125 3.129 3.129 0 0 1-3.125-3.125v-3.625H14A3.128 3.128 0 0 0 17.125 17V2A2.128 2.128 0 0 0 15-.125H6A2.127 2.127 0 0 0 3.875 2v15A3.128 3.128 0 0 0 7 20.125h1.875v3.625a6.382 6.382 0 0 0 6.375 6.375 6.382 6.382 0 0 0 6.375-6.375V12.5c0-.482.159-.835.462-1.069Zm-1.449-3.703c.606-.68 1.396-1.066 2.237-1.103v3.098c0 .066-.005.117-.01.156a2.76 2.76 0 0 0-1.548.567 2.39 2.39 0 0 0-.875 1.429h-.817V10.5c0-1.057.361-2.04 1.013-2.772ZM10.221 10.06a.628.628 0 0 0 .838-.28l1-2a.624.624 0 0 0-.559-.904h-.989l.548-1.096a.626.626 0 0 0-1.118-.56l-1 2a.624.624 0 0 0 .559.906h.989L9.94 9.221a.625.625 0 0 0 .28.838Zm4.904 6.441v-4c0-.896-.729-1.625-1.625-1.625h-6c-.896 0-1.625.729-1.625 1.625v4c0 .896.729 1.625 1.625 1.625h6c.896 0 1.625-.729 1.625-1.625Zm-1.25 0a.375.375 0 0 1-.375.375h-6a.375.375 0 0 1-.375-.375v-4c0-.207.168-.375.375-.375h6c.207 0 .375.168.375.375v4Zm11-7.125h-.75v-2.25h.75v2.25Zm-9.625 18.75a4.38 4.38 0 0 0 4.375-4.375V13.125h.75V23.75a5.13 5.13 0 0 1-5.125 5.125 5.13 5.13 0 0 1-5.125-5.125v-3.625h.75v3.625a4.38 4.38 0 0 0 4.375 4.375ZM6 1.125h9c.385 0 .713.252.829.6-.55.358-2.128 1.15-5.329 1.15-3.201 0-4.779-.792-5.329-1.15a.875.875 0 0 1 .829-.6ZM5.125 17V3.127c.97.467 2.667.998 5.375.998s4.405-.531 5.375-.998V17A1.877 1.877 0 0 1 14 18.875H7A1.877 1.877 0 0 1 5.125 17Z"/>
  </g>
  <defs>
    <clipPath id="a">
      <path fill="#fff" d="M0 0h30v30H0z"/>
    </clipPath>
  </defs>
</svg>
