<svg xmlns="http://www.w3.org/2000/svg" width="30" height="30" fill="none" viewBox="0 0 30 30">
  <g clip-path="url(#a)">
    <mask id="b" width="32" height="32" x="-1" y="-.992" fill="#000" maskUnits="userSpaceOnUse">
      <path fill="#fff" d="M-1-.992h32v32H-1z"/>
      <path d="M29.635 14.246c-4.826-.894-9.74-1.46-14.647-1.46-1.792 0-3.588.067-5.379.197l-.546-3.95 6.482-.896c.262-.062.387-.227.375-.496-.563-4.07-4.32-6.927-8.373-6.366a7.402 7.402 0 0 0-4.56 2.463c-.374.428.288 1.006.662.578a6.524 6.524 0 0 1 1.057-.97 6.6 6.6 0 0 0-.34.649c-.636 1.39-.88 3.114-.701 4.898l-1.625.224a6.582 6.582 0 0 1 .497-3.021c.22-.524-.59-.865-.81-.342a7.468 7.468 0 0 0-.512 3.921c.03.218.277.405.496.375l6.481-.896.54 3.898a74.332 74.332 0 0 0-8.376 1.19c-.557.113-.378.973.16.865a73.456 73.456 0 0 1 8.336-1.183l.18 1.307c.077.551.95.448.871-.12l-.173-1.255a73.295 73.295 0 0 1 5.258-.19c4.85 0 9.72.484 14.473 1.441.57.096.78-.75.174-.861ZM7.193 4.138c.097-1.396.367-1.896.475-1.986.128.058.523.466.996 1.783.4 1.118.746 2.571.985 4.13l-2.283.316c-.194-1.565-.255-3.058-.173-4.243Zm3.483-.54c.883 1.04 1.515 2.476 1.803 4.076l-1.96.27c-.262-1.72-.65-3.308-1.102-4.508a8.075 8.075 0 0 0-.529-1.157c.623.22 1.234.666 1.788 1.319Zm4.3 3.73-1.626.225c-.312-1.765-1.015-3.359-2.004-4.524a6.55 6.55 0 0 0-.502-.53 6.586 6.586 0 0 1 4.131 4.83ZM5.164 4.36c.356-.779.823-1.374 1.363-1.754a8.01 8.01 0 0 0-.195 1.256c-.11 1.278-.052 2.912.162 4.64l-1.959.27c-.157-1.618.061-3.17.629-4.412Zm24.429 11.374c-2.899-.299-5.882.292-8.627 1.708-.495.255-.09 1.035.403.781 2.593-1.337 5.405-1.896 8.134-1.615.565.058.655-.816.09-.874ZM.54 20.156a10.02 10.02 0 0 1 3.837-.216c1.1.184 2.146.507 3.025.8 1.748.644 3.542 1.304 5.443 1.304a7.67 7.67 0 0 0 1.652-.176l.012-.003c1.764-.441 3.234-1.325 4.56-2.214.472-.317-.018-1.047-.49-.73-1.258.844-2.647 1.68-4.277 2.09-2.274.497-4.377-.278-6.603-1.098l-.013-.005c-.914-.305-2.006-.642-3.172-.837a.412.412 0 0 0-.015-.002c-1.447-.189-2.853-.11-4.181.236-.55.143-.329.994.221.85Z"/>
      <path d="M29.59 21.146c-6.665-.644-9.702.42-12.143 1.277-2.015.706-3.606 1.264-6.64.567-2.782-.64-5.85-1.29-8.72-.894-.59.082-1.216.2-1.733.51-.46.273-.061 1.023.434.762.499-.264 1.068-.36 1.632-.423 2.709-.304 5.567.299 8.19.901 1.004.231 1.905.345 2.76.345.426 0 .84-.028 1.25-.084 1.112-.151 2.087-.493 3.118-.855 2.36-.827 5.295-1.857 11.768-1.231.565.053.65-.82.084-.875Zm-8.692 7.968h-2.982c-.568 0-.568.879 0 .879h2.982c.568 0 .568-.88 0-.88ZM6.3 24.797H3.32c-.569 0-.569.878 0 .878H6.3c.569 0 .569-.878 0-.878Zm20.3 1.613h-5.65c-.568 0-.568.879 0 .879h5.65c.569 0 .569-.879 0-.879ZM4.047 16.253c-.566 0-.567.879 0 .879.565 0 .566-.88 0-.88Zm10.375 2.109c-.565 0-.566.88 0 .88s.567-.88 0-.88Zm4.478-2.343c.566 0 .567-.88 0-.88-.565 0-.566.88 0 .88Zm8.387-10.207a3.121 3.121 0 0 0-3.118-3.117 3.121 3.121 0 0 0-3.118 3.117A3.121 3.121 0 0 0 24.17 8.93a3.121 3.121 0 0 0 3.118-3.118Zm-3.118 2.24a2.242 2.242 0 0 1-2.239-2.24 2.242 2.242 0 0 1 2.24-2.239 2.242 2.242 0 0 1 2.238 2.24A2.242 2.242 0 0 1 24.17 8.05Zm.001-6.108a.44.44 0 0 0 .439-.439V.434c0-.568-.88-.568-.88 0v1.071c0 .243.198.44.44.44Zm-2.535.358c.302.523 1.033.031.761-.44L21.86.935c-.284-.493-1.045-.053-.76.439l.535.928Zm-2.344 1.202.928.535c.471.272.945-.47.44-.76l-.928-.536c-.492-.284-.932.477-.44.76Zm-.501 2.748h1.072c.568 0 .568-.879 0-.879H18.79c-.569 0-.569.879 0 .879Zm1.43 1.334-.929.535c-.505.292-.03 1.033.44.761l.928-.535c.492-.284.052-1.046-.44-.761Zm1.04 3.265c.222.115.422.062.6-.16l.536-.929c.284-.492-.477-.931-.76-.439-.185.318-.922 1.213-.376 1.528Zm2.47-.731v1.071c0 .568.879.568.879 0V10.12c0-.568-.88-.568-.88 0Zm2.748.57c.302.524 1.033.032.761-.44l-.536-.927c-.284-.492-1.045-.053-.76.44l.535.927Zm1.202-2.343.928.535c.47.272.944-.469.44-.76l-.929-.536c-.492-.285-.931.477-.44.76Zm.357-2.535c0 .243.197.44.44.44h1.071c.568 0 .568-.879 0-.879h-1.071a.44.44 0 0 0-.44.44ZM27.9 4.098a.44.44 0 0 0 .22-.059l.927-.535c.492-.284.053-1.046-.44-.761l-.927.535c-.352.203-.232.82.22.82Zm-1.797-1.635c.223.115.423.061.6-.161l.536-.928c.284-.492-.477-.932-.76-.44l-.537.928a.44.44 0 0 0 .161.6Z"/>
    </mask>
    <path fill="#4AC0B4" d="M29.635 14.246c-4.826-.894-9.74-1.46-14.647-1.46-1.792 0-3.588.067-5.379.197l-.546-3.95 6.482-.896c.262-.062.387-.227.375-.496-.563-4.07-4.32-6.927-8.373-6.366a7.402 7.402 0 0 0-4.56 2.463c-.374.428.288 1.006.662.578a6.524 6.524 0 0 1 1.057-.97 6.6 6.6 0 0 0-.34.649c-.636 1.39-.88 3.114-.701 4.898l-1.625.224a6.582 6.582 0 0 1 .497-3.021c.22-.524-.59-.865-.81-.342a7.468 7.468 0 0 0-.512 3.921c.03.218.277.405.496.375l6.481-.896.54 3.898a74.332 74.332 0 0 0-8.376 1.19c-.557.113-.378.973.16.865a73.456 73.456 0 0 1 8.336-1.183l.18 1.307c.077.551.95.448.871-.12l-.173-1.255a73.295 73.295 0 0 1 5.258-.19c4.85 0 9.72.484 14.473 1.441.57.096.78-.75.174-.861ZM7.193 4.138c.097-1.396.367-1.896.475-1.986.128.058.523.466.996 1.783.4 1.118.746 2.571.985 4.13l-2.283.316c-.194-1.565-.255-3.058-.173-4.243Zm3.483-.54c.883 1.04 1.515 2.476 1.803 4.076l-1.96.27c-.262-1.72-.65-3.308-1.102-4.508a8.075 8.075 0 0 0-.529-1.157c.623.22 1.234.666 1.788 1.319Zm4.3 3.73-1.626.225c-.312-1.765-1.015-3.359-2.004-4.524a6.55 6.55 0 0 0-.502-.53 6.586 6.586 0 0 1 4.131 4.83ZM5.164 4.36c.356-.779.823-1.374 1.363-1.754a8.01 8.01 0 0 0-.195 1.256c-.11 1.278-.052 2.912.162 4.64l-1.959.27c-.157-1.618.061-3.17.629-4.412Zm24.429 11.374c-2.899-.299-5.882.292-8.627 1.708-.495.255-.09 1.035.403.781 2.593-1.337 5.405-1.896 8.134-1.615.565.058.655-.816.09-.874ZM.54 20.156a10.02 10.02 0 0 1 3.837-.216c1.1.184 2.146.507 3.025.8 1.748.644 3.542 1.304 5.443 1.304a7.67 7.67 0 0 0 1.652-.176l.012-.003c1.764-.441 3.234-1.325 4.56-2.214.472-.317-.018-1.047-.49-.73-1.258.844-2.647 1.68-4.277 2.09-2.274.497-4.377-.278-6.603-1.098l-.013-.005c-.914-.305-2.006-.642-3.172-.837a.412.412 0 0 0-.015-.002c-1.447-.189-2.853-.11-4.181.236-.55.143-.329.994.221.85Z"/>
    <path fill="#4AC0B4" d="M29.59 21.146c-6.665-.644-9.702.42-12.143 1.277-2.015.706-3.606 1.264-6.64.567-2.782-.64-5.85-1.29-8.72-.894-.59.082-1.216.2-1.733.51-.46.273-.061 1.023.434.762.499-.264 1.068-.36 1.632-.423 2.709-.304 5.567.299 8.19.901 1.004.231 1.905.345 2.76.345.426 0 .84-.028 1.25-.084 1.112-.151 2.087-.493 3.118-.855 2.36-.827 5.295-1.857 11.768-1.231.565.053.65-.82.084-.875Zm-8.692 7.968h-2.982c-.568 0-.568.879 0 .879h2.982c.568 0 .568-.88 0-.88ZM6.3 24.797H3.32c-.569 0-.569.878 0 .878H6.3c.569 0 .569-.878 0-.878Zm20.3 1.613h-5.65c-.568 0-.568.879 0 .879h5.65c.569 0 .569-.879 0-.879ZM4.047 16.253c-.566 0-.567.879 0 .879.565 0 .566-.88 0-.88Zm10.375 2.109c-.565 0-.566.88 0 .88s.567-.88 0-.88Zm4.478-2.343c.566 0 .567-.88 0-.88-.565 0-.566.88 0 .88Zm8.387-10.207a3.121 3.121 0 0 0-3.118-3.117 3.121 3.121 0 0 0-3.118 3.117A3.121 3.121 0 0 0 24.17 8.93a3.121 3.121 0 0 0 3.118-3.118Zm-3.118 2.24a2.242 2.242 0 0 1-2.239-2.24 2.242 2.242 0 0 1 2.24-2.239 2.242 2.242 0 0 1 2.238 2.24A2.242 2.242 0 0 1 24.17 8.05Zm.001-6.108a.44.44 0 0 0 .439-.439V.434c0-.568-.88-.568-.88 0v1.071c0 .243.198.44.44.44Zm-2.535.358c.302.523 1.033.031.761-.44L21.86.935c-.284-.493-1.045-.053-.76.439l.535.928Zm-2.344 1.202.928.535c.471.272.945-.47.44-.76l-.928-.536c-.492-.284-.932.477-.44.76Zm-.501 2.748h1.072c.568 0 .568-.879 0-.879H18.79c-.569 0-.569.879 0 .879Zm1.43 1.334-.929.535c-.505.292-.03 1.033.44.761l.928-.535c.492-.284.052-1.046-.44-.761Zm1.04 3.265c.222.115.422.062.6-.16l.536-.929c.284-.492-.477-.931-.76-.439-.185.318-.922 1.213-.376 1.528Zm2.47-.731v1.071c0 .568.879.568.879 0V10.12c0-.568-.88-.568-.88 0Zm2.748.57c.302.524 1.033.032.761-.44l-.536-.927c-.284-.492-1.045-.053-.76.44l.535.927Zm1.202-2.343.928.535c.47.272.944-.469.44-.76l-.929-.536c-.492-.285-.931.477-.44.76Zm.357-2.535c0 .243.197.44.44.44h1.071c.568 0 .568-.879 0-.879h-1.071a.44.44 0 0 0-.44.44ZM27.9 4.098a.44.44 0 0 0 .22-.059l.927-.535c.492-.284.053-1.046-.44-.761l-.927.535c-.352.203-.232.82.22.82Zm-1.797-1.635c.223.115.423.061.6-.161l.536-.928c.284-.492-.477-.932-.76-.44l-.537.928a.44.44 0 0 0 .161.6Z"/>
    <path stroke="#4AC0B4" stroke-width=".5" d="M29.635 14.246c-4.826-.894-9.74-1.46-14.647-1.46-1.792 0-3.588.067-5.379.197l-.546-3.95 6.482-.896c.262-.062.387-.227.375-.496-.563-4.07-4.32-6.927-8.373-6.366a7.402 7.402 0 0 0-4.56 2.463c-.374.428.288 1.006.662.578a6.524 6.524 0 0 1 1.057-.97 6.6 6.6 0 0 0-.34.649c-.636 1.39-.88 3.114-.701 4.898l-1.625.224a6.582 6.582 0 0 1 .497-3.021c.22-.524-.59-.865-.81-.342a7.468 7.468 0 0 0-.512 3.921c.03.218.277.405.496.375l6.481-.896.54 3.898a74.332 74.332 0 0 0-8.376 1.19c-.557.113-.378.973.16.865a73.456 73.456 0 0 1 8.336-1.183l.18 1.307c.077.551.95.448.871-.12l-.173-1.255a73.295 73.295 0 0 1 5.258-.19c4.85 0 9.72.484 14.473 1.441.57.096.78-.75.174-.861ZM7.193 4.138c.097-1.396.367-1.896.475-1.986.128.058.523.466.996 1.783.4 1.118.746 2.571.985 4.13l-2.283.316c-.194-1.565-.255-3.058-.173-4.243Zm3.483-.54c.883 1.04 1.515 2.476 1.803 4.076l-1.96.27c-.262-1.72-.65-3.308-1.102-4.508a8.075 8.075 0 0 0-.529-1.157c.623.22 1.234.666 1.788 1.319Zm4.3 3.73-1.626.225c-.312-1.765-1.015-3.359-2.004-4.524a6.55 6.55 0 0 0-.502-.53 6.586 6.586 0 0 1 4.131 4.83ZM5.164 4.36c.356-.779.823-1.374 1.363-1.754a8.01 8.01 0 0 0-.195 1.256c-.11 1.278-.052 2.912.162 4.64l-1.959.27c-.157-1.618.061-3.17.629-4.412Zm24.429 11.374c-2.899-.299-5.882.292-8.627 1.708-.495.255-.09 1.035.403.781 2.593-1.337 5.405-1.896 8.134-1.615.565.058.655-.816.09-.874ZM.54 20.156a10.02 10.02 0 0 1 3.837-.216c1.1.184 2.146.507 3.025.8 1.748.644 3.542 1.304 5.443 1.304a7.67 7.67 0 0 0 1.652-.176l.012-.003c1.764-.441 3.234-1.325 4.56-2.214.472-.317-.018-1.047-.49-.73-1.258.844-2.647 1.68-4.277 2.09-2.274.497-4.377-.278-6.603-1.098l-.013-.005c-.914-.305-2.006-.642-3.172-.837a.412.412 0 0 0-.015-.002c-1.447-.189-2.853-.11-4.181.236-.55.143-.329.994.221.85Z" mask="url(#b)"/>
    <path stroke="#4AC0B4" stroke-width=".5" d="M29.59 21.146c-6.665-.644-9.702.42-12.143 1.277-2.015.706-3.606 1.264-6.64.567-2.782-.64-5.85-1.29-8.72-.894-.59.082-1.216.2-1.733.51-.46.273-.061 1.023.434.762.499-.264 1.068-.36 1.632-.423 2.709-.304 5.567.299 8.19.901 1.004.231 1.905.345 2.76.345.426 0 .84-.028 1.25-.084 1.112-.151 2.087-.493 3.118-.855 2.36-.827 5.295-1.857 11.768-1.231.565.053.65-.82.084-.875Zm-8.692 7.968h-2.982c-.568 0-.568.879 0 .879h2.982c.568 0 .568-.88 0-.88ZM6.3 24.797H3.32c-.569 0-.569.878 0 .878H6.3c.569 0 .569-.878 0-.878Zm20.3 1.613h-5.65c-.568 0-.568.879 0 .879h5.65c.569 0 .569-.879 0-.879ZM4.047 16.253c-.566 0-.567.879 0 .879.565 0 .566-.88 0-.88Zm10.375 2.109c-.565 0-.566.88 0 .88s.567-.88 0-.88Zm4.478-2.343c.566 0 .567-.88 0-.88-.565 0-.566.88 0 .88Zm8.387-10.207a3.121 3.121 0 0 0-3.118-3.117 3.121 3.121 0 0 0-3.118 3.117A3.121 3.121 0 0 0 24.17 8.93a3.121 3.121 0 0 0 3.118-3.118Zm-3.118 2.24a2.242 2.242 0 0 1-2.239-2.24 2.242 2.242 0 0 1 2.24-2.239 2.242 2.242 0 0 1 2.238 2.24A2.242 2.242 0 0 1 24.17 8.05Zm.001-6.108a.44.44 0 0 0 .439-.439V.434c0-.568-.88-.568-.88 0v1.071c0 .243.198.44.44.44Zm-2.535.358c.302.523 1.033.031.761-.44L21.86.935c-.284-.493-1.045-.053-.76.439l.535.928Zm-2.344 1.202.928.535c.471.272.945-.47.44-.76l-.928-.536c-.492-.284-.932.477-.44.76Zm-.501 2.748h1.072c.568 0 .568-.879 0-.879H18.79c-.569 0-.569.879 0 .879Zm1.43 1.334-.929.535c-.505.292-.03 1.033.44.761l.928-.535c.492-.284.052-1.046-.44-.761Zm1.04 3.265c.222.115.422.062.6-.16l.536-.929c.284-.492-.477-.931-.76-.439-.185.318-.922 1.213-.376 1.528Zm2.47-.731v1.071c0 .568.879.568.879 0V10.12c0-.568-.88-.568-.88 0Zm2.748.57c.302.524 1.033.032.761-.44l-.536-.927c-.284-.492-1.045-.053-.76.44l.535.927Zm1.202-2.343.928.535c.47.272.944-.469.44-.76l-.929-.536c-.492-.285-.931.477-.44.76Zm.357-2.535c0 .243.197.44.44.44h1.071c.568 0 .568-.879 0-.879h-1.071a.44.44 0 0 0-.44.44ZM27.9 4.098a.44.44 0 0 0 .22-.059l.927-.535c.492-.284.053-1.046-.44-.761l-.927.535c-.352.203-.232.82.22.82Zm-1.797-1.635c.223.115.423.061.6-.161l.536-.928c.284-.492-.477-.932-.76-.44l-.537.928a.44.44 0 0 0 .161.6Z" mask="url(#b)"/>
  </g>
  <defs>
    <clipPath id="a">
      <path fill="#fff" d="M0 0h30v30H0z"/>
    </clipPath>
  </defs>
</svg>
