<svg width="31" height="31" viewBox="0 0 31 31" fill="none" xmlns="http://www.w3.org/2000/svg">
<mask id="path-1-outside-1_686_29711" maskUnits="userSpaceOnUse" x="-0.500244" y="-1" width="32" height="32" fill="black">
<rect fill="white" x="-0.500244" y="-1" width="32" height="32"/>
<path d="M30.0155 29.0323H29.383L28.08 25.5572V23.7654L29.5195 17.5283C29.5524 17.3846 29.5185 17.2341 29.4266 17.1184C29.3351 17.0028 29.1953 16.9355 29.0482 16.9355H23.7256C23.5001 16.9355 23.3046 17.0908 23.2538 17.3105L21.8888 23.2259H20.3385C19.5382 23.2259 18.8869 23.8771 18.8869 24.6775V25.5867L18.0256 29.0323H17.4353V28.0646C17.4353 27.6722 17.2393 27.3431 16.9514 27.1902V22.2581H20.3385C21.1388 22.2581 21.7901 21.6068 21.7901 20.8065C21.7901 20.0062 21.1388 19.3549 20.3385 19.3549H15.9837V8.7126C20.8412 8.74066 23.1237 9.17954 23.1474 9.18437C23.1784 9.19067 23.2103 9.19405 23.2413 9.19405H23.2427C23.2974 9.19405 23.3506 9.18147 23.4014 9.16357C23.4082 9.16115 23.415 9.16212 23.4217 9.1597C25.2987 8.4097 29.8887 9.17905 29.9351 9.18728C30.1301 9.22066 30.3309 9.12921 30.433 8.95599C30.5351 8.78276 30.5197 8.56453 30.3943 8.40776C26.8374 3.96194 17.9917 1.94613 15.9841 1.53775V0.483872C15.9841 0.216291 15.7679 0 15.5003 0C15.2327 0 15.0164 0.216291 15.0164 0.483872V1.53726C13.0088 1.94565 4.16315 3.96146 0.606208 8.40728C0.480885 8.56405 0.465401 8.78228 0.567498 8.9555C0.669595 9.12873 0.869918 9.22115 1.0654 9.18679C1.11185 9.17857 5.70138 8.40921 7.5788 9.15921C7.58267 9.16067 7.58703 9.16018 7.5909 9.16163C7.63784 9.17905 7.68767 9.18776 7.73848 9.19018C7.74525 9.19018 7.75155 9.19405 7.75832 9.19405C7.77477 9.19405 7.79025 9.18873 7.80622 9.18679C7.82171 9.18534 7.83719 9.18776 7.85267 9.18437C7.8759 9.18002 10.1583 8.74115 15.0164 8.7126V19.3549H10.6616C9.86123 19.3549 9.20994 20.0062 9.20994 20.8065C9.20994 21.6068 9.86123 22.2581 10.6616 22.2581H14.0487V27.1902C13.7608 27.3431 13.5648 27.6717 13.5648 28.0646V29.0323H12.9745L12.1132 25.5867V24.6775C12.1132 23.8771 11.4619 23.2259 10.6616 23.2259H9.11123L7.74622 17.3105C7.6959 17.0908 7.49993 16.9355 7.27445 16.9355H1.95089C1.80331 16.9355 1.66395 17.0028 1.5725 17.1184C1.48056 17.2336 1.44621 17.3846 1.4796 17.5283L2.91912 23.7654V25.5572L1.61605 29.0323H0.983628C0.716047 29.0323 0.499756 29.2486 0.499756 29.5162C0.499756 29.7838 0.716047 30.0001 0.983628 30.0001H30.0155C30.283 30.0001 30.4993 29.7838 30.4993 29.5162C30.4993 29.2486 30.283 29.0323 30.0155 29.0323ZM23.445 8.13389C22.0171 5.88195 20.2146 4.27259 18.7011 3.20565C21.7209 4.0563 26.1111 5.62017 28.7298 8.04389C27.2564 7.8755 24.9319 7.71534 23.445 8.13389ZM2.26831 8.04389C4.88702 5.62066 9.27719 4.0563 12.297 3.20565C10.7835 4.27259 8.98106 5.88243 7.55316 8.13389C6.06573 7.71534 3.7417 7.8755 2.26831 8.0434V8.04389ZM15.4993 2.46339C16.3219 2.83646 19.7835 4.55759 22.2517 8.07534C21.0585 7.93115 18.8545 7.74244 15.4993 7.74244C12.1441 7.74244 9.9401 7.93163 8.74687 8.07534C11.2156 4.55759 14.6767 2.83694 15.4993 2.46339ZM26.4798 29.0323L25.3911 26.1291H27.2603L28.349 29.0323H26.4798ZM24.3571 26.1291L25.4458 29.0323H21.9251L22.6509 26.1291H24.3571ZM24.1098 17.9033H28.439L27.2105 23.2259H22.8813L24.1098 17.9033ZM19.8537 24.6775C19.8537 24.4104 20.0704 24.1936 20.3375 24.1936H27.1117V25.1613H19.8537V24.6775ZM19.7472 26.1291H21.6532L20.9274 29.0323H19.0214L19.7472 26.1291ZM10.1762 20.8065C10.1762 20.5394 10.393 20.3226 10.6601 20.3226H20.3375C20.6046 20.3226 20.8214 20.5394 20.8214 20.8065C20.8214 21.0736 20.6046 21.2904 20.3375 21.2904H10.6606C10.3935 21.2904 10.1762 21.0736 10.1762 20.8065ZM15.9827 22.2581V27.0968H15.0149V22.2581H15.9827ZM14.5311 28.0646H16.4666V29.0323H14.5311V28.0646ZM10.0698 29.0323L9.34397 26.1291H11.2499L11.9757 29.0323H10.0698ZM8.34671 26.1291L9.07252 29.0323H5.55186L6.64057 26.1291H8.34671ZM11.1435 24.6775V25.1613H3.88638V24.1936H10.6606C10.9277 24.1936 11.1445 24.4104 11.1445 24.6775H11.1435ZM6.88735 17.9033L8.1159 23.2259H3.78767L2.55911 17.9033H6.88832H6.88735ZM3.73686 26.1291H5.60606L4.51734 29.0323H2.64815L3.73686 26.1291Z"/>
</mask>
<path d="M30.0155 29.0323H29.383L28.08 25.5572V23.7654L29.5195 17.5283C29.5524 17.3846 29.5185 17.2341 29.4266 17.1184C29.3351 17.0028 29.1953 16.9355 29.0482 16.9355H23.7256C23.5001 16.9355 23.3046 17.0908 23.2538 17.3105L21.8888 23.2259H20.3385C19.5382 23.2259 18.8869 23.8771 18.8869 24.6775V25.5867L18.0256 29.0323H17.4353V28.0646C17.4353 27.6722 17.2393 27.3431 16.9514 27.1902V22.2581H20.3385C21.1388 22.2581 21.7901 21.6068 21.7901 20.8065C21.7901 20.0062 21.1388 19.3549 20.3385 19.3549H15.9837V8.7126C20.8412 8.74066 23.1237 9.17954 23.1474 9.18437C23.1784 9.19067 23.2103 9.19405 23.2413 9.19405H23.2427C23.2974 9.19405 23.3506 9.18147 23.4014 9.16357C23.4082 9.16115 23.415 9.16212 23.4217 9.1597C25.2987 8.4097 29.8887 9.17905 29.9351 9.18728C30.1301 9.22066 30.3309 9.12921 30.433 8.95599C30.5351 8.78276 30.5197 8.56453 30.3943 8.40776C26.8374 3.96194 17.9917 1.94613 15.9841 1.53775V0.483872C15.9841 0.216291 15.7679 0 15.5003 0C15.2327 0 15.0164 0.216291 15.0164 0.483872V1.53726C13.0088 1.94565 4.16315 3.96146 0.606208 8.40728C0.480885 8.56405 0.465401 8.78228 0.567498 8.9555C0.669595 9.12873 0.869918 9.22115 1.0654 9.18679C1.11185 9.17857 5.70138 8.40921 7.5788 9.15921C7.58267 9.16067 7.58703 9.16018 7.5909 9.16163C7.63784 9.17905 7.68767 9.18776 7.73848 9.19018C7.74525 9.19018 7.75155 9.19405 7.75832 9.19405C7.77477 9.19405 7.79025 9.18873 7.80622 9.18679C7.82171 9.18534 7.83719 9.18776 7.85267 9.18437C7.8759 9.18002 10.1583 8.74115 15.0164 8.7126V19.3549H10.6616C9.86123 19.3549 9.20994 20.0062 9.20994 20.8065C9.20994 21.6068 9.86123 22.2581 10.6616 22.2581H14.0487V27.1902C13.7608 27.3431 13.5648 27.6717 13.5648 28.0646V29.0323H12.9745L12.1132 25.5867V24.6775C12.1132 23.8771 11.4619 23.2259 10.6616 23.2259H9.11123L7.74622 17.3105C7.6959 17.0908 7.49993 16.9355 7.27445 16.9355H1.95089C1.80331 16.9355 1.66395 17.0028 1.5725 17.1184C1.48056 17.2336 1.44621 17.3846 1.4796 17.5283L2.91912 23.7654V25.5572L1.61605 29.0323H0.983628C0.716047 29.0323 0.499756 29.2486 0.499756 29.5162C0.499756 29.7838 0.716047 30.0001 0.983628 30.0001H30.0155C30.283 30.0001 30.4993 29.7838 30.4993 29.5162C30.4993 29.2486 30.283 29.0323 30.0155 29.0323ZM23.445 8.13389C22.0171 5.88195 20.2146 4.27259 18.7011 3.20565C21.7209 4.0563 26.1111 5.62017 28.7298 8.04389C27.2564 7.8755 24.9319 7.71534 23.445 8.13389ZM2.26831 8.04389C4.88702 5.62066 9.27719 4.0563 12.297 3.20565C10.7835 4.27259 8.98106 5.88243 7.55316 8.13389C6.06573 7.71534 3.7417 7.8755 2.26831 8.0434V8.04389ZM15.4993 2.46339C16.3219 2.83646 19.7835 4.55759 22.2517 8.07534C21.0585 7.93115 18.8545 7.74244 15.4993 7.74244C12.1441 7.74244 9.9401 7.93163 8.74687 8.07534C11.2156 4.55759 14.6767 2.83694 15.4993 2.46339ZM26.4798 29.0323L25.3911 26.1291H27.2603L28.349 29.0323H26.4798ZM24.3571 26.1291L25.4458 29.0323H21.9251L22.6509 26.1291H24.3571ZM24.1098 17.9033H28.439L27.2105 23.2259H22.8813L24.1098 17.9033ZM19.8537 24.6775C19.8537 24.4104 20.0704 24.1936 20.3375 24.1936H27.1117V25.1613H19.8537V24.6775ZM19.7472 26.1291H21.6532L20.9274 29.0323H19.0214L19.7472 26.1291ZM10.1762 20.8065C10.1762 20.5394 10.393 20.3226 10.6601 20.3226H20.3375C20.6046 20.3226 20.8214 20.5394 20.8214 20.8065C20.8214 21.0736 20.6046 21.2904 20.3375 21.2904H10.6606C10.3935 21.2904 10.1762 21.0736 10.1762 20.8065ZM15.9827 22.2581V27.0968H15.0149V22.2581H15.9827ZM14.5311 28.0646H16.4666V29.0323H14.5311V28.0646ZM10.0698 29.0323L9.34397 26.1291H11.2499L11.9757 29.0323H10.0698ZM8.34671 26.1291L9.07252 29.0323H5.55186L6.64057 26.1291H8.34671ZM11.1435 24.6775V25.1613H3.88638V24.1936H10.6606C10.9277 24.1936 11.1445 24.4104 11.1445 24.6775H11.1435ZM6.88735 17.9033L8.1159 23.2259H3.78767L2.55911 17.9033H6.88832H6.88735ZM3.73686 26.1291H5.60606L4.51734 29.0323H2.64815L3.73686 26.1291Z" fill="url(#paint0_linear_686_29711)"/>
<path d="M30.0155 29.0323H29.383L28.08 25.5572V23.7654L29.5195 17.5283C29.5524 17.3846 29.5185 17.2341 29.4266 17.1184C29.3351 17.0028 29.1953 16.9355 29.0482 16.9355H23.7256C23.5001 16.9355 23.3046 17.0908 23.2538 17.3105L21.8888 23.2259H20.3385C19.5382 23.2259 18.8869 23.8771 18.8869 24.6775V25.5867L18.0256 29.0323H17.4353V28.0646C17.4353 27.6722 17.2393 27.3431 16.9514 27.1902V22.2581H20.3385C21.1388 22.2581 21.7901 21.6068 21.7901 20.8065C21.7901 20.0062 21.1388 19.3549 20.3385 19.3549H15.9837V8.7126C20.8412 8.74066 23.1237 9.17954 23.1474 9.18437C23.1784 9.19067 23.2103 9.19405 23.2413 9.19405H23.2427C23.2974 9.19405 23.3506 9.18147 23.4014 9.16357C23.4082 9.16115 23.415 9.16212 23.4217 9.1597C25.2987 8.4097 29.8887 9.17905 29.9351 9.18728C30.1301 9.22066 30.3309 9.12921 30.433 8.95599C30.5351 8.78276 30.5197 8.56453 30.3943 8.40776C26.8374 3.96194 17.9917 1.94613 15.9841 1.53775V0.483872C15.9841 0.216291 15.7679 0 15.5003 0C15.2327 0 15.0164 0.216291 15.0164 0.483872V1.53726C13.0088 1.94565 4.16315 3.96146 0.606208 8.40728C0.480885 8.56405 0.465401 8.78228 0.567498 8.9555C0.669595 9.12873 0.869918 9.22115 1.0654 9.18679C1.11185 9.17857 5.70138 8.40921 7.5788 9.15921C7.58267 9.16067 7.58703 9.16018 7.5909 9.16163C7.63784 9.17905 7.68767 9.18776 7.73848 9.19018C7.74525 9.19018 7.75155 9.19405 7.75832 9.19405C7.77477 9.19405 7.79025 9.18873 7.80622 9.18679C7.82171 9.18534 7.83719 9.18776 7.85267 9.18437C7.8759 9.18002 10.1583 8.74115 15.0164 8.7126V19.3549H10.6616C9.86123 19.3549 9.20994 20.0062 9.20994 20.8065C9.20994 21.6068 9.86123 22.2581 10.6616 22.2581H14.0487V27.1902C13.7608 27.3431 13.5648 27.6717 13.5648 28.0646V29.0323H12.9745L12.1132 25.5867V24.6775C12.1132 23.8771 11.4619 23.2259 10.6616 23.2259H9.11123L7.74622 17.3105C7.6959 17.0908 7.49993 16.9355 7.27445 16.9355H1.95089C1.80331 16.9355 1.66395 17.0028 1.5725 17.1184C1.48056 17.2336 1.44621 17.3846 1.4796 17.5283L2.91912 23.7654V25.5572L1.61605 29.0323H0.983628C0.716047 29.0323 0.499756 29.2486 0.499756 29.5162C0.499756 29.7838 0.716047 30.0001 0.983628 30.0001H30.0155C30.283 30.0001 30.4993 29.7838 30.4993 29.5162C30.4993 29.2486 30.283 29.0323 30.0155 29.0323ZM23.445 8.13389C22.0171 5.88195 20.2146 4.27259 18.7011 3.20565C21.7209 4.0563 26.1111 5.62017 28.7298 8.04389C27.2564 7.8755 24.9319 7.71534 23.445 8.13389ZM2.26831 8.04389C4.88702 5.62066 9.27719 4.0563 12.297 3.20565C10.7835 4.27259 8.98106 5.88243 7.55316 8.13389C6.06573 7.71534 3.7417 7.8755 2.26831 8.0434V8.04389ZM15.4993 2.46339C16.3219 2.83646 19.7835 4.55759 22.2517 8.07534C21.0585 7.93115 18.8545 7.74244 15.4993 7.74244C12.1441 7.74244 9.9401 7.93163 8.74687 8.07534C11.2156 4.55759 14.6767 2.83694 15.4993 2.46339ZM26.4798 29.0323L25.3911 26.1291H27.2603L28.349 29.0323H26.4798ZM24.3571 26.1291L25.4458 29.0323H21.9251L22.6509 26.1291H24.3571ZM24.1098 17.9033H28.439L27.2105 23.2259H22.8813L24.1098 17.9033ZM19.8537 24.6775C19.8537 24.4104 20.0704 24.1936 20.3375 24.1936H27.1117V25.1613H19.8537V24.6775ZM19.7472 26.1291H21.6532L20.9274 29.0323H19.0214L19.7472 26.1291ZM10.1762 20.8065C10.1762 20.5394 10.393 20.3226 10.6601 20.3226H20.3375C20.6046 20.3226 20.8214 20.5394 20.8214 20.8065C20.8214 21.0736 20.6046 21.2904 20.3375 21.2904H10.6606C10.3935 21.2904 10.1762 21.0736 10.1762 20.8065ZM15.9827 22.2581V27.0968H15.0149V22.2581H15.9827ZM14.5311 28.0646H16.4666V29.0323H14.5311V28.0646ZM10.0698 29.0323L9.34397 26.1291H11.2499L11.9757 29.0323H10.0698ZM8.34671 26.1291L9.07252 29.0323H5.55186L6.64057 26.1291H8.34671ZM11.1435 24.6775V25.1613H3.88638V24.1936H10.6606C10.9277 24.1936 11.1445 24.4104 11.1445 24.6775H11.1435ZM6.88735 17.9033L8.1159 23.2259H3.78767L2.55911 17.9033H6.88832H6.88735ZM3.73686 26.1291H5.60606L4.51734 29.0323H2.64815L3.73686 26.1291Z" stroke="url(#paint1_linear_686_29711)" stroke-width="0.3" mask="url(#path-1-outside-1_686_29711)"/>
<defs>
<linearGradient id="paint0_linear_686_29711" x1="3.84266" y1="3.68931e-06" x2="27.8539" y2="0.532726" gradientUnits="userSpaceOnUse">
<stop stop-color="#4AC0B4"/>
<stop offset="1" stop-color="#3BB1A5"/>
</linearGradient>
<linearGradient id="paint1_linear_686_29711" x1="3.84266" y1="3.68931e-06" x2="27.8539" y2="0.532726" gradientUnits="userSpaceOnUse">
<stop stop-color="#4AC0B4"/>
<stop offset="1" stop-color="#3BB1A5"/>
</linearGradient>
</defs>
</svg>
