<svg xmlns="http://www.w3.org/2000/svg" width="30" height="30" fill="none" viewBox="0 0 30 30">
  <g clip-path="url(#a)">
    <mask id="b" width="29" height="32" x=".514" y="-1" fill="#000" maskUnits="userSpaceOnUse">
      <path fill="#fff" d="M.514-1h29v32h-29z"/>
      <path d="M27.155 14.778V5.01A5.016 5.016 0 0 0 22.145 0H7.718a5.016 5.016 0 0 0-5.01 5.01v9.953a6.4 6.4 0 0 0-1.194 3.73v8.959A2.35 2.35 0 0 0 3.862 30a2.35 2.35 0 0 0 2.349-2.348v-1.345h17.578v1.345A2.35 2.35 0 0 0 26.137 30a2.35 2.35 0 0 0 2.349-2.348v-8.96a6.402 6.402 0 0 0-1.331-3.914ZM2.686 25.135V23.38h14.699a.586.586 0 0 0 0-1.172H2.686v-1.891c.086.029.166.063.255.102.29.126.65.283 1.309.283.66 0 1.02-.157 1.309-.283.247-.108.425-.185.84-.185.416 0 .594.077.841.185.29.126.65.283 1.31.283s1.02-.157 1.309-.283c.247-.108.425-.185.84-.185.416 0 .594.077.841.185.29.126.65.283 1.31.283.659 0 1.019-.157 1.308-.283.247-.108.426-.185.841-.185s.594.077.84.185c.29.126.65.283 1.31.283s1.02-.157 1.31-.283c.246-.108.425-.185.84-.185s.594.077.84.185c.29.126.65.283 1.31.283s1.02-.157 1.31-.283a1.74 1.74 0 0 1 .84-.185c.416 0 .594.077.841.185.29.126.65.283 1.31.283s1.02-.157 1.309-.283c.09-.039.17-.073.255-.102v1.89h-4.07a.586.586 0 0 0 0 1.173h4.07v1.755H2.686ZM7.718 1.172h14.427a3.843 3.843 0 0 1 3.838 3.838v8.592a6.4 6.4 0 0 0-3.324-1.316v-.899A3.833 3.833 0 0 0 18.83 7.56h-7.66a3.833 3.833 0 0 0-3.829 3.828v.9A6.405 6.405 0 0 0 3.88 13.71v-8.7a3.843 3.843 0 0 1 3.838-3.84Zm13.769 11.085H8.513v-.87a2.66 2.66 0 0 1 2.656-2.656h7.661a2.66 2.66 0 0 1 2.657 2.656v.87ZM7.949 13.43h14.102a5.269 5.269 0 0 1 5.263 5.263v.418a3.025 3.025 0 0 0-.724.235 1.743 1.743 0 0 1-.84.185c-.416 0-.595-.077-.842-.185a2.905 2.905 0 0 0-1.309-.283c-.66 0-1.02.157-1.31.283-.246.108-.425.185-.84.185s-.594-.077-.84-.185c-.29-.126-.65-.283-1.31-.283s-1.02.157-1.31.283a1.743 1.743 0 0 1-.84.185c-.416 0-.594-.077-.841-.185-.29-.126-.65-.283-1.31-.283-.659 0-1.019.157-1.308.283a1.746 1.746 0 0 1-.84.185c-.416 0-.595-.077-.841-.185-.29-.126-.65-.283-1.31-.283s-1.02.157-1.309.283a1.743 1.743 0 0 1-.84.185c-.416 0-.594-.077-.841-.185-.29-.126-.65-.283-1.31-.283s-1.02.157-1.309.283a1.743 1.743 0 0 1-.84.185c-.416 0-.594-.077-.841-.185a3.023 3.023 0 0 0-.723-.235v-.418a5.27 5.27 0 0 1 5.263-5.263Zm-2.91 14.223a1.178 1.178 0 0 1-2.353 0v-1.345H5.04v1.345Zm21.099 1.176a1.178 1.178 0 0 1-1.177-1.176v-1.345h2.353v1.345c0 .648-.528 1.176-1.177 1.176Z"/>
      <path d="M20.314 23.38a.586.586 0 1 0 0-1.172.586.586 0 0 0 0 1.172Z"/>
    </mask>
    <path fill="#4AC0B4" d="M27.155 14.778V5.01A5.016 5.016 0 0 0 22.145 0H7.718a5.016 5.016 0 0 0-5.01 5.01v9.953a6.4 6.4 0 0 0-1.194 3.73v8.959A2.35 2.35 0 0 0 3.862 30a2.35 2.35 0 0 0 2.349-2.348v-1.345h17.578v1.345A2.35 2.35 0 0 0 26.137 30a2.35 2.35 0 0 0 2.349-2.348v-8.96a6.402 6.402 0 0 0-1.331-3.914ZM2.686 25.135V23.38h14.699a.586.586 0 0 0 0-1.172H2.686v-1.891c.086.029.166.063.255.102.29.126.65.283 1.309.283.66 0 1.02-.157 1.309-.283.247-.108.425-.185.84-.185.416 0 .594.077.841.185.29.126.65.283 1.31.283s1.02-.157 1.309-.283c.247-.108.425-.185.84-.185.416 0 .594.077.841.185.29.126.65.283 1.31.283.659 0 1.019-.157 1.308-.283.247-.108.426-.185.841-.185s.594.077.84.185c.29.126.65.283 1.31.283s1.02-.157 1.31-.283c.246-.108.425-.185.84-.185s.594.077.84.185c.29.126.65.283 1.31.283s1.02-.157 1.31-.283a1.74 1.74 0 0 1 .84-.185c.416 0 .594.077.841.185.29.126.65.283 1.31.283s1.02-.157 1.309-.283c.09-.039.17-.073.255-.102v1.89h-4.07a.586.586 0 0 0 0 1.173h4.07v1.755H2.686ZM7.718 1.172h14.427a3.843 3.843 0 0 1 3.838 3.838v8.592a6.4 6.4 0 0 0-3.324-1.316v-.899A3.833 3.833 0 0 0 18.83 7.56h-7.66a3.833 3.833 0 0 0-3.829 3.828v.9A6.405 6.405 0 0 0 3.88 13.71v-8.7a3.843 3.843 0 0 1 3.838-3.84Zm13.769 11.085H8.513v-.87a2.66 2.66 0 0 1 2.656-2.656h7.661a2.66 2.66 0 0 1 2.657 2.656v.87ZM7.949 13.43h14.102a5.269 5.269 0 0 1 5.263 5.263v.418a3.025 3.025 0 0 0-.724.235 1.743 1.743 0 0 1-.84.185c-.416 0-.595-.077-.842-.185a2.905 2.905 0 0 0-1.309-.283c-.66 0-1.02.157-1.31.283-.246.108-.425.185-.84.185s-.594-.077-.84-.185c-.29-.126-.65-.283-1.31-.283s-1.02.157-1.31.283a1.743 1.743 0 0 1-.84.185c-.416 0-.594-.077-.841-.185-.29-.126-.65-.283-1.31-.283-.659 0-1.019.157-1.308.283a1.746 1.746 0 0 1-.84.185c-.416 0-.595-.077-.841-.185-.29-.126-.65-.283-1.31-.283s-1.02.157-1.309.283a1.743 1.743 0 0 1-.84.185c-.416 0-.594-.077-.841-.185-.29-.126-.65-.283-1.31-.283s-1.02.157-1.309.283a1.743 1.743 0 0 1-.84.185c-.416 0-.594-.077-.841-.185a3.023 3.023 0 0 0-.723-.235v-.418a5.27 5.27 0 0 1 5.263-5.263Zm-2.91 14.223a1.178 1.178 0 0 1-2.353 0v-1.345H5.04v1.345Zm21.099 1.176a1.178 1.178 0 0 1-1.177-1.176v-1.345h2.353v1.345c0 .648-.528 1.176-1.177 1.176Z"/>
    <path fill="#4AC0B4" d="M20.314 23.38a.586.586 0 1 0 0-1.172.586.586 0 0 0 0 1.172Z"/>
    <path stroke="#4AC0B4" stroke-width=".5" d="M27.155 14.778V5.01A5.016 5.016 0 0 0 22.145 0H7.718a5.016 5.016 0 0 0-5.01 5.01v9.953a6.4 6.4 0 0 0-1.194 3.73v8.959A2.35 2.35 0 0 0 3.862 30a2.35 2.35 0 0 0 2.349-2.348v-1.345h17.578v1.345A2.35 2.35 0 0 0 26.137 30a2.35 2.35 0 0 0 2.349-2.348v-8.96a6.402 6.402 0 0 0-1.331-3.914ZM2.686 25.135V23.38h14.699a.586.586 0 0 0 0-1.172H2.686v-1.891c.086.029.166.063.255.102.29.126.65.283 1.309.283.66 0 1.02-.157 1.309-.283.247-.108.425-.185.84-.185.416 0 .594.077.841.185.29.126.65.283 1.31.283s1.02-.157 1.309-.283c.247-.108.425-.185.84-.185.416 0 .594.077.841.185.29.126.65.283 1.31.283.659 0 1.019-.157 1.308-.283.247-.108.426-.185.841-.185s.594.077.84.185c.29.126.65.283 1.31.283s1.02-.157 1.31-.283c.246-.108.425-.185.84-.185s.594.077.84.185c.29.126.65.283 1.31.283s1.02-.157 1.31-.283a1.74 1.74 0 0 1 .84-.185c.416 0 .594.077.841.185.29.126.65.283 1.31.283s1.02-.157 1.309-.283c.09-.039.17-.073.255-.102v1.89h-4.07a.586.586 0 0 0 0 1.173h4.07v1.755H2.686ZM7.718 1.172h14.427a3.843 3.843 0 0 1 3.838 3.838v8.592a6.4 6.4 0 0 0-3.324-1.316v-.899A3.833 3.833 0 0 0 18.83 7.56h-7.66a3.833 3.833 0 0 0-3.829 3.828v.9A6.405 6.405 0 0 0 3.88 13.71v-8.7a3.843 3.843 0 0 1 3.838-3.84Zm13.769 11.085H8.513v-.87a2.66 2.66 0 0 1 2.656-2.656h7.661a2.66 2.66 0 0 1 2.657 2.656v.87ZM7.949 13.43h14.102a5.269 5.269 0 0 1 5.263 5.263v.418a3.025 3.025 0 0 0-.724.235 1.743 1.743 0 0 1-.84.185c-.416 0-.595-.077-.842-.185a2.905 2.905 0 0 0-1.309-.283c-.66 0-1.02.157-1.31.283-.246.108-.425.185-.84.185s-.594-.077-.84-.185c-.29-.126-.65-.283-1.31-.283s-1.02.157-1.31.283a1.743 1.743 0 0 1-.84.185c-.416 0-.594-.077-.841-.185-.29-.126-.65-.283-1.31-.283-.659 0-1.019.157-1.308.283a1.746 1.746 0 0 1-.84.185c-.416 0-.595-.077-.841-.185-.29-.126-.65-.283-1.31-.283s-1.02.157-1.309.283a1.743 1.743 0 0 1-.84.185c-.416 0-.594-.077-.841-.185-.29-.126-.65-.283-1.31-.283s-1.02.157-1.309.283a1.743 1.743 0 0 1-.84.185c-.416 0-.594-.077-.841-.185a3.023 3.023 0 0 0-.723-.235v-.418a5.27 5.27 0 0 1 5.263-5.263Zm-2.91 14.223a1.178 1.178 0 0 1-2.353 0v-1.345H5.04v1.345Zm21.099 1.176a1.178 1.178 0 0 1-1.177-1.176v-1.345h2.353v1.345c0 .648-.528 1.176-1.177 1.176Z" mask="url(#b)"/>
    <path stroke="#4AC0B4" stroke-width=".5" d="M20.314 23.38a.586.586 0 1 0 0-1.172.586.586 0 0 0 0 1.172Z" mask="url(#b)"/>
  </g>
  <defs>
    <clipPath id="a">
      <path fill="#fff" d="M0 0h30v30H0z"/>
    </clipPath>
  </defs>
</svg>
