<svg width="14" height="15" viewBox="0 0 14 15" fill="none" xmlns="http://www.w3.org/2000/svg">
<path d="M13.2999 12.54H11.8299C13.1599 11.21 13.9999 9.46 13.9999 7.5C13.9999 3.65 10.8499 0.5 6.99993 0.5C6.57993 0.5 6.29993 0.78 6.29993 1.2C6.29993 1.62 6.57993 1.9 6.99993 1.9C10.0799 1.9 12.5999 4.42 12.5999 7.5C12.5999 9.32 11.7599 11 10.2899 11.98V9.53C10.2899 9.11 10.0099 8.83 9.58993 8.83C9.16993 8.83 8.88993 9.11 8.88993 9.53V13.24C8.88993 13.66 9.16993 13.94 9.58993 13.94H13.2999C13.7199 13.94 13.9999 13.66 13.9999 13.24C13.9999 12.82 13.7199 12.54 13.2999 12.54Z" fill="#777777"/>
<path d="M7 13.0996C3.92 13.0996 1.4 10.5796 1.4 7.49957C1.4 5.67957 2.24 3.99957 3.71 3.01957V5.46957C3.71 5.88957 3.99 6.16957 4.41 6.16957C4.83 6.16957 5.11 5.88957 5.11 5.46957V1.75957C5.11 1.33957 4.83 1.05957 4.41 1.05957H0.7C0.28 1.05957 0 1.33957 0 1.75957C0 2.17957 0.28 2.45957 0.7 2.45957H2.17C0.77 3.78957 0 5.53957 0 7.49957C0 11.3496 3.15 14.4996 7 14.4996C7.42 14.4996 7.7 14.2196 7.7 13.7996C7.7 13.3796 7.42 13.0996 7 13.0996Z" fill="#777777"/>
</svg>
