<svg width="22" height="22" viewBox="0 0 22 22" fill="none" xmlns="http://www.w3.org/2000/svg">
<path d="M19.9073 18.7174H14.6635C14.4328 18.7174 14.2454 18.5302 14.2454 18.2993C14.2454 18.0687 14.4328 17.8813 14.6635 17.8813H19.9075C20.049 17.8813 20.1641 17.7694 20.1641 17.6318V16.2644C20.1641 13.9258 18.2393 12.0236 15.8733 12.0236C14.8851 12.0236 13.9205 12.3639 13.1568 12.9819C12.9776 13.1271 12.7145 13.0995 12.569 12.9201C12.4238 12.7407 12.4512 12.4773 12.631 12.332C13.5428 11.5941 14.6943 11.1875 15.8733 11.1875C18.7002 11.1875 21 13.4649 21 16.2644V17.6318C21 18.2303 20.5099 18.7174 19.9073 18.7174Z" fill="#4AC0B4" stroke="#4AC0B4" stroke-width="0.454546"/>
<path d="M15.8727 10.5787C14.2148 10.5787 12.8662 9.24234 12.8662 7.59977C12.8662 5.9572 14.2148 4.62061 15.8727 4.62061C17.5308 4.62061 18.8796 5.95699 18.8796 7.59977C18.8796 9.24254 17.5306 10.5787 15.8727 10.5787ZM15.8727 5.45669C14.676 5.45669 13.7023 6.4181 13.7023 7.59977C13.7023 8.78143 14.676 9.74264 15.8727 9.74264C17.0699 9.74264 18.0436 8.78143 18.0436 7.59977C18.0436 6.4181 17.0697 5.45669 15.8727 5.45669Z" fill="#4AC0B4" stroke="#4AC0B4" stroke-width="0.454546"/>
<path d="M13.7145 20.3939H2.367C1.61318 20.3939 1 19.7852 1 19.0369V17.1136C1 13.27 4.15817 10.1431 8.04077 10.1431C11.9234 10.1431 15.0815 13.27 15.0815 17.1136V19.0369C15.0815 19.7852 14.4684 20.3939 13.7145 20.3939ZM8.04077 10.9794C4.61948 10.9794 1.83608 13.7313 1.83608 17.1138V19.0371C1.83608 19.3243 2.07429 19.558 2.367 19.558H13.7143C14.007 19.558 14.2452 19.3243 14.2452 19.0371V17.1138C14.2455 13.7313 11.462 10.9794 8.04077 10.9794Z" fill="#4AC0B4" stroke="#4AC0B4" stroke-width="0.454546"/>
<path d="M7.89584 9.65458C5.76563 9.65458 4.03223 7.93771 4.03223 5.82708C4.03223 3.71667 5.76542 2 7.89584 2C10.0265 2 11.7597 3.71687 11.7597 5.82729C11.7597 7.93791 10.0263 9.65458 7.89584 9.65458ZM7.89584 2.83608C6.22653 2.83608 4.86831 4.17798 4.86831 5.82729C4.86831 7.4768 6.22653 8.8187 7.89584 8.8187C9.56535 8.8187 10.9236 7.4768 10.9236 5.82729C10.9236 4.17798 9.56535 2.83608 7.89584 2.83608Z" fill="#4AC0B4" stroke="#4AC0B4" stroke-width="0.454546"/>
</svg>
