<svg width="32" height="23" viewBox="0 0 32 23" fill="none" xmlns="http://www.w3.org/2000/svg">
<g clip-path="url(#clip0_1922_6360)">
<path fill-rule="evenodd" clip-rule="evenodd" d="M9.28799 4.4601C8.94064 5.80956 7.71566 6.80672 6.25773 6.80672C4.52971 6.80672 3.12891 5.40591 3.12891 3.6779C3.12891 1.94988 4.52971 0.549072 6.25773 0.549072C7.71566 0.549072 8.94064 1.54623 9.28799 2.89569H30.5066C30.9385 2.89569 31.2888 3.24585 31.2888 3.6779C31.2888 4.10994 30.9385 4.4601 30.5066 4.4601H9.28799ZM7.82214 3.6779C7.82214 4.54199 7.12166 5.24231 6.25773 5.24231C5.3938 5.24231 4.69332 4.54182 4.69332 3.6779C4.69332 2.81397 5.3938 2.11348 6.25773 2.11348C7.12166 2.11348 7.82214 2.8138 7.82214 3.6779Z" fill="#4AC0B4"/>
<path d="M0.782206 4.46016H3.22738C3.163 4.21021 3.12882 3.94805 3.12882 3.67796C3.12882 3.40787 3.163 3.1457 3.22738 2.89575H0.782206C0.35016 2.89575 0 3.24591 0 3.67796C0 4.11 0.35016 4.46016 0.782206 4.46016Z" fill="#4AC0B4"/>
<path fill-rule="evenodd" clip-rule="evenodd" d="M18.6747 18.54C18.3274 17.1905 17.1022 16.1934 15.6444 16.1934C14.1867 16.1934 12.9614 17.1905 12.6142 18.54H0.782206C0.35016 18.54 0 18.8903 0 19.3222C0 19.7541 0.35016 20.1044 0.782206 20.1044H12.614C12.9614 21.4538 14.1865 22.451 15.6443 22.451C17.102 22.451 18.3274 21.4538 18.6745 20.1044H30.5064C30.9382 20.1044 31.2886 19.7541 31.2886 19.3222C31.2886 18.8903 30.9382 18.54 30.5064 18.54H18.6747ZM15.6444 20.8866C16.5085 20.8866 17.2089 20.1863 17.2089 19.3222C17.2089 18.4581 16.5085 17.7578 15.6444 17.7578C14.7804 17.7578 14.08 18.4581 14.08 19.3222C14.08 20.1863 14.7804 20.8866 15.6444 20.8866Z" fill="#4AC0B4"/>
<path fill-rule="evenodd" clip-rule="evenodd" d="M28.0613 10.7177C27.714 9.36825 26.4888 8.37109 25.0311 8.37109C23.5733 8.37109 22.348 9.36825 22.0008 10.7177H0.782206C0.35016 10.7177 0 11.068 0 11.4999C0 11.9318 0.35016 12.2821 0.782206 12.2821H22.0008C22.3482 13.6316 23.5733 14.6287 25.0311 14.6287C26.4888 14.6287 27.7142 13.6316 28.0613 12.2821H30.5065C30.9384 12.2821 31.2887 11.9318 31.2887 11.4999C31.2887 11.068 30.9384 10.7177 30.5065 10.7177H28.0613ZM25.0311 13.0643C25.8952 13.0643 26.5955 12.364 26.5955 11.4999C26.5955 10.6358 25.895 9.93551 25.0311 9.93551C24.167 9.93551 23.4667 10.6358 23.4667 11.4999C23.4667 12.364 24.167 13.0643 25.0311 13.0643Z" fill="#4AC0B4"/>
</g>
<defs>
<clipPath id="clip0_1922_6360">
<rect width="31.2889" height="22" fill="white" transform="translate(0 0.5)"/>
</clipPath>
</defs>
</svg>
