<svg width="39" height="34" viewBox="0 0 39 34" fill="none" xmlns="http://www.w3.org/2000/svg">
<path d="M17.6013 9.30273C16.1312 9.48509 14.7051 9.92697 13.3894 10.6078C8.70284 13.0993 7.93164 17.1331 7.93164 20.2771C7.93164 23.4211 9.29607 28.0481 14.3385 32.1412H18.6691V29.7684L23.9489 30.065C24.3302 30.8027 24.7875 31.4985 25.3133 32.1412H29.288V28.582C30.5532 27.6918 31.7436 26.6999 32.8474 25.6159C34.5678 25.7939 36.3475 24.4295 37 20.455C37 19.8618 36.7034 19.6839 36.4068 19.6839C35.7752 19.6287 35.1655 19.4255 34.6271 19.0907C34.3898 18.7941 33.6779 16.3026 32.3728 14.345C32.8696 13.104 33.7142 12.0329 34.8051 11.2603C33.144 10.4298 31.4236 9.83662 28.0422 10.1925C27.1524 10.0146 25.6693 9.65866 24.2455 9.42138" stroke="white" stroke-width="2.11335" stroke-miterlimit="10" stroke-linecap="round" stroke-linejoin="round"/>
<path d="M20.9822 10.7853C23.6033 10.7853 25.728 8.66056 25.728 6.03961C25.728 3.41865 23.6033 1.29395 20.9822 1.29395C18.3611 1.29395 16.2363 3.41865 16.2363 6.03961C16.2363 8.66056 18.3611 10.7853 20.9822 10.7853Z" stroke="white" stroke-width="2.11335" stroke-miterlimit="10" stroke-linecap="round" stroke-linejoin="round"/>
<path d="M7.93232 20.2765C6.21195 20.0985 2 19.446 2 21.4629C2 23.4798 3.12714 23.4798 4.25428 23.0052C5.38142 22.5307 6.80518 19.7426 2 17.9036M17.2461 12.6241C19.685 11.7906 22.3284 11.7698 24.7801 12.5648" stroke="white" stroke-width="2.11335" stroke-miterlimit="10" stroke-linecap="round" stroke-linejoin="round"/>
<path d="M29.2885 18.497C29.6162 18.497 29.8818 18.2314 29.8818 17.9038C29.8818 17.5761 29.6162 17.3105 29.2885 17.3105C28.9609 17.3105 28.6953 17.5761 28.6953 17.9038C28.6953 18.2314 28.9609 18.497 29.2885 18.497Z" stroke="white" stroke-width="2.11335" stroke-miterlimit="10" stroke-linecap="round" stroke-linejoin="round"/>
</svg>
