<svg xmlns="http://www.w3.org/2000/svg" width="31" height="30" fill="none" viewBox="0 0 31 30">
  <g clip-path="url(#a)">
    <mask id="b" width="32" height="32" x="-.217" y="-1" fill="#000" maskUnits="userSpaceOnUse">
      <path fill="#fff" d="M-.217-1h32v32h-32z"/>
      <path d="M1.088 17.704a5.003 5.003 0 0 0 4.636 3.293l-.938 8.448a.5.5 0 0 0 .497.555h6a.5.5 0 0 0 .497-.555l-.939-8.448A5.004 5.004 0 0 0 15.783 16v-.5a.5.5 0 0 0-.5-.5h-3.619a8.238 8.238 0 0 0 3.619-7c0-4.411-3.14-8-7-8s-7 3.589-7 8A8.238 8.238 0 0 0 4.9 15H1.283a.5.5 0 0 0-.5.5v.5c0 .572.1 1.14.295 1.677l.01.027ZM5.841 29l.89-8h3.104l.89 8H5.84ZM2.283 8c0-3.86 2.691-7 6-7 3.308 0 6 3.14 6 7s-2.692 7-6 7a5.168 5.168 0 0 1-1-.105V12.5a.5.5 0 0 1 .5-.5h.5a.5.5 0 0 1 .5.5.5.5 0 1 0 1 0 1.502 1.502 0 0 0-1.5-1.5h-.5c-.828.001-1.5.672-1.5 1.5v2.092c-2.327-.964-4-3.551-4-6.592Zm12.5 8a4.004 4.004 0 0 1-4 4h-5a3.999 3.999 0 0 1-3.459-2h1.959a.5.5 0 0 0 0-1H1.914a3.986 3.986 0 0 1-.131-1h13Z"/>
      <path d="M6.283 18h.5a.5.5 0 1 0 0-1h-.5a.5.5 0 1 0 0 1Zm-1.5-12.5c.132 0 .26-.053.353-.146l2-2a.5.5 0 1 0-.707-.707l-2 2a.5.5 0 0 0 .354.853Zm5.353-2.146a.5.5 0 1 0-.707-.707l-5.5 5.5a.5.5 0 1 0 .707.707l5.5-5.5ZM30.283 17.5h-.5V17a.5.5 0 0 0-1 0v.5h-1V17a1.502 1.502 0 0 0-1.5-1.5h-5c-.828.001-1.5.672-1.5 1.5v.5h-1V17a.5.5 0 0 0-1 0v.5h-.5a.5.5 0 1 0 0 1h.5v.5a.5.5 0 1 0 1 0v-.5h1v7a1 1 0 0 0 1 1h4a1 1 0 0 0 1-1V25h1a1 1 0 0 0 1-1v-5.5h1v.5a.5.5 0 1 0 1 0v-.5h.5a.5.5 0 1 0 0-1Zm-4.5-.5a.5.5 0 1 1 1 0v.5h-1V17Zm-1 8.5h-4V17a.5.5 0 0 1 .5-.5h3.592c-.06.16-.09.33-.092.5v8.5Zm2-1.5h-1v-5.5h1V24Zm3-24h-11a1 1 0 0 0-1 1v12a1 1 0 0 0 1 1h11c.552 0 .999-.448 1-1V1c-.001-.552-.448-1-1-1Zm0 10h-5V1h5v9Zm-6-9v9h-5V1h5Zm-5 12v-2h11v2h-11Z"/>
      <path d="M22.283 6h.5a.5.5 0 1 0 0-1h-.5a.5.5 0 1 0 0 1Zm3.5 0h.5a.5.5 0 1 0 0-1h-.5a.5.5 0 1 0 0 1Z"/>
    </mask>
    <path fill="#4AC0B4" d="M1.088 17.704a5.003 5.003 0 0 0 4.636 3.293l-.938 8.448a.5.5 0 0 0 .497.555h6a.5.5 0 0 0 .497-.555l-.939-8.448A5.004 5.004 0 0 0 15.783 16v-.5a.5.5 0 0 0-.5-.5h-3.619a8.238 8.238 0 0 0 3.619-7c0-4.411-3.14-8-7-8s-7 3.589-7 8A8.238 8.238 0 0 0 4.9 15H1.283a.5.5 0 0 0-.5.5v.5c0 .572.1 1.14.295 1.677l.01.027ZM5.841 29l.89-8h3.104l.89 8H5.84ZM2.283 8c0-3.86 2.691-7 6-7 3.308 0 6 3.14 6 7s-2.692 7-6 7a5.168 5.168 0 0 1-1-.105V12.5a.5.5 0 0 1 .5-.5h.5a.5.5 0 0 1 .5.5.5.5 0 1 0 1 0 1.502 1.502 0 0 0-1.5-1.5h-.5c-.828.001-1.5.672-1.5 1.5v2.092c-2.327-.964-4-3.551-4-6.592Zm12.5 8a4.004 4.004 0 0 1-4 4h-5a3.999 3.999 0 0 1-3.459-2h1.959a.5.5 0 0 0 0-1H1.914a3.986 3.986 0 0 1-.131-1h13Z"/>
    <path fill="#4AC0B4" d="M6.283 18h.5a.5.5 0 1 0 0-1h-.5a.5.5 0 1 0 0 1Zm-1.5-12.5c.132 0 .26-.053.353-.146l2-2a.5.5 0 1 0-.707-.707l-2 2a.5.5 0 0 0 .354.853Zm5.353-2.146a.5.5 0 1 0-.707-.707l-5.5 5.5a.5.5 0 1 0 .707.707l5.5-5.5ZM30.283 17.5h-.5V17a.5.5 0 0 0-1 0v.5h-1V17a1.502 1.502 0 0 0-1.5-1.5h-5c-.828.001-1.5.672-1.5 1.5v.5h-1V17a.5.5 0 0 0-1 0v.5h-.5a.5.5 0 1 0 0 1h.5v.5a.5.5 0 1 0 1 0v-.5h1v7a1 1 0 0 0 1 1h4a1 1 0 0 0 1-1V25h1a1 1 0 0 0 1-1v-5.5h1v.5a.5.5 0 1 0 1 0v-.5h.5a.5.5 0 1 0 0-1Zm-4.5-.5a.5.5 0 1 1 1 0v.5h-1V17Zm-1 8.5h-4V17a.5.5 0 0 1 .5-.5h3.592c-.06.16-.09.33-.092.5v8.5Zm2-1.5h-1v-5.5h1V24Zm3-24h-11a1 1 0 0 0-1 1v12a1 1 0 0 0 1 1h11c.552 0 .999-.448 1-1V1c-.001-.552-.448-1-1-1Zm0 10h-5V1h5v9Zm-6-9v9h-5V1h5Zm-5 12v-2h11v2h-11Z"/>
    <path fill="#4AC0B4" d="M22.283 6h.5a.5.5 0 1 0 0-1h-.5a.5.5 0 1 0 0 1Zm3.5 0h.5a.5.5 0 1 0 0-1h-.5a.5.5 0 1 0 0 1Z"/>
    <path stroke="#4AC0B4" stroke-width=".5" d="M1.088 17.704a5.003 5.003 0 0 0 4.636 3.293l-.938 8.448a.5.5 0 0 0 .497.555h6a.5.5 0 0 0 .497-.555l-.939-8.448A5.004 5.004 0 0 0 15.783 16v-.5a.5.5 0 0 0-.5-.5h-3.619a8.238 8.238 0 0 0 3.619-7c0-4.411-3.14-8-7-8s-7 3.589-7 8A8.238 8.238 0 0 0 4.9 15H1.283a.5.5 0 0 0-.5.5v.5c0 .572.1 1.14.295 1.677l.01.027ZM5.841 29l.89-8h3.104l.89 8H5.84ZM2.283 8c0-3.86 2.691-7 6-7 3.308 0 6 3.14 6 7s-2.692 7-6 7a5.168 5.168 0 0 1-1-.105V12.5a.5.5 0 0 1 .5-.5h.5a.5.5 0 0 1 .5.5.5.5 0 1 0 1 0 1.502 1.502 0 0 0-1.5-1.5h-.5c-.828.001-1.5.672-1.5 1.5v2.092c-2.327-.964-4-3.551-4-6.592Zm12.5 8a4.004 4.004 0 0 1-4 4h-5a3.999 3.999 0 0 1-3.459-2h1.959a.5.5 0 0 0 0-1H1.914a3.986 3.986 0 0 1-.131-1h13Z" mask="url(#b)"/>
    <path stroke="#4AC0B4" stroke-width=".5" d="M6.283 18h.5a.5.5 0 1 0 0-1h-.5a.5.5 0 1 0 0 1Zm-1.5-12.5c.132 0 .26-.053.353-.146l2-2a.5.5 0 1 0-.707-.707l-2 2a.5.5 0 0 0 .354.853Zm5.353-2.146a.5.5 0 1 0-.707-.707l-5.5 5.5a.5.5 0 1 0 .707.707l5.5-5.5ZM30.283 17.5h-.5V17a.5.5 0 0 0-1 0v.5h-1V17a1.502 1.502 0 0 0-1.5-1.5h-5c-.828.001-1.5.672-1.5 1.5v.5h-1V17a.5.5 0 0 0-1 0v.5h-.5a.5.5 0 1 0 0 1h.5v.5a.5.5 0 1 0 1 0v-.5h1v7a1 1 0 0 0 1 1h4a1 1 0 0 0 1-1V25h1a1 1 0 0 0 1-1v-5.5h1v.5a.5.5 0 1 0 1 0v-.5h.5a.5.5 0 1 0 0-1Zm-4.5-.5a.5.5 0 1 1 1 0v.5h-1V17Zm-1 8.5h-4V17a.5.5 0 0 1 .5-.5h3.592c-.06.16-.09.33-.092.5v8.5Zm2-1.5h-1v-5.5h1V24Zm3-24h-11a1 1 0 0 0-1 1v12a1 1 0 0 0 1 1h11c.552 0 .999-.448 1-1V1c-.001-.552-.448-1-1-1Zm0 10h-5V1h5v9Zm-6-9v9h-5V1h5Zm-5 12v-2h11v2h-11Z" mask="url(#b)"/>
    <path stroke="#4AC0B4" stroke-width=".5" d="M22.283 6h.5a.5.5 0 1 0 0-1h-.5a.5.5 0 1 0 0 1Zm3.5 0h.5a.5.5 0 1 0 0-1h-.5a.5.5 0 1 0 0 1Z" mask="url(#b)"/>
  </g>
  <defs>
    <clipPath id="a">
      <path fill="#fff" d="M.783 0h30v30h-30z"/>
    </clipPath>
  </defs>
</svg>
