<svg xmlns="http://www.w3.org/2000/svg" width="30" height="30" fill="none" viewBox="0 0 30 30">
  <g clip-path="url(#a)">
    <mask id="b" width="32" height="23" x="-1" y="3.195" fill="#000" maskUnits="userSpaceOnUse">
      <path fill="#fff" d="M-1 3.195h32v23H-1z"/>
      <path d="M29.189 10.74a2.598 2.598 0 0 0-1.877-.755 2.65 2.65 0 0 0-2.585 2.636v1.49a2.186 2.186 0 0 0-.88-.328v-1.94c0-.651-.356-1.131-1.06-1.427-.718-.301-1.888-.448-3.577-.448s-2.86.147-3.582.448a2.082 2.082 0 0 0-.628.39 2.082 2.082 0 0 0-.628-.39c-.721-.301-1.893-.448-3.582-.448-1.689 0-2.859.147-3.577.448-.704.296-1.06.776-1.06 1.426v1.941a2.185 2.185 0 0 0-.88.327v-1.489a2.653 2.653 0 0 0-2.154-2.59v-.767c0-1.305.83-2.472 2.064-2.905a17.07 17.07 0 0 1 2.047-.56.44.44 0 0 0-.185-.86c-.804.173-1.529.372-2.153.59A3.964 3.964 0 0 0 2.24 9.265v.752a2.606 2.606 0 0 0-1.427.722A2.717 2.717 0 0 0 0 12.667v7.132a1.32 1.32 0 0 0 1.318 1.319h1.319v3.369a1.32 1.32 0 0 0 1.318 1.318h22.09a1.32 1.32 0 0 0 1.318-1.318v-3.37h1.319A1.32 1.32 0 0 0 30 19.8v-7.134c0-.718-.296-1.42-.811-1.926Zm-9.979.107c3.759 0 3.759.75 3.759.995v2.049c-.473.143-1.64.412-3.759.412-2.119 0-3.293-.27-3.77-.413v-2.048c0-.246 0-.995 3.77-.995Zm-12.179.995c0-.246 0-.995 3.759-.995 3.77 0 3.77.75 3.77.995v2.048c-.477.144-1.651.412-3.77.412-2.119 0-3.287-.268-3.759-.411v-2.049ZM.88 19.8v-7.132c0-.485.2-.96.549-1.301.34-.333.782-.512 1.245-.502.95.019 1.722.807 1.722 1.757v2.594L3.053 18.54a5.681 5.681 0 0 0-.397 1.7H1.318a.44.44 0 0 1-.44-.44Zm25.166 5.127H3.955a.44.44 0 0 1-.44-.44v-3.808c0-.623.119-1.232.352-1.81l.428-1.06a1.313 1.313 0 0 1 1.223-.825h11.54a.44.44 0 1 0 0-.878H5.517a2.2 2.2 0 0 0-.565.074l.288-.714a1.313 1.313 0 0 1 1.223-.825l.037-.002c.343.133 1.62.543 4.289.543 2.478 0 3.762-.353 4.21-.51.448.157 1.732.51 4.21.51 2.67 0 3.946-.41 4.29-.543a.449.449 0 0 0 .036.002c.54 0 1.02.323 1.223.824l.288.715a2.216 2.216 0 0 0-.565-.074h-5.667a.44.44 0 1 0 0 .878h5.667c.54 0 1.02.324 1.223.825l.428 1.06c.178.442.288.9.331 1.37H4.834a.44.44 0 1 0 0 .88h21.65v3.369a.44.44 0 0 1-.44.44ZM29.12 19.8a.44.44 0 0 1-.44.44h-1.336a5.683 5.683 0 0 0-.397-1.7l-1.343-3.324V12.62c0-.95.774-1.739 1.724-1.757.463-.01.905.17 1.244.503.349.34.548.814.548 1.298v7.134Z"/>
      <path d="M8.924 5.493c1.835-.274 3.936-.42 6.076-.42 3.91 0 7.488.47 9.817 1.286a3.063 3.063 0 0 1 2.04 2.522.44.44 0 0 0 .872-.11 3.937 3.937 0 0 0-2.62-3.241C22.688 4.68 19.004 4.195 15 4.195c-2.183 0-4.329.148-6.206.429a.44.44 0 0 0 .13.87ZM2.68 14.086a.44.44 0 0 0 .439-.44v-.878a.44.44 0 0 0-.879 0v.879c0 .243.197.44.44.44Zm24.64-1.757a.44.44 0 0 0-.439.44v.878a.44.44 0 1 0 .879 0v-.879a.44.44 0 0 0-.44-.439ZM7.778 8.814a.469.469 0 1 0 0-.937.469.469 0 0 0 0 .937Zm4.688-.586a.469.469 0 1 0 0-.937.469.469 0 0 0 0 .937Z"/>
      <path d="M22.222 8.814a.469.469 0 1 0 0-.937.469.469 0 0 0 0 .937Zm-4.687-.586a.469.469 0 1 0 0-.937.469.469 0 0 0 0 .937Z"/>
    </mask>
    <path fill="#4AC0B4" d="M29.189 10.74a2.598 2.598 0 0 0-1.877-.755 2.65 2.65 0 0 0-2.585 2.636v1.49a2.186 2.186 0 0 0-.88-.328v-1.94c0-.651-.356-1.131-1.06-1.427-.718-.301-1.888-.448-3.577-.448s-2.86.147-3.582.448a2.082 2.082 0 0 0-.628.39 2.082 2.082 0 0 0-.628-.39c-.721-.301-1.893-.448-3.582-.448-1.689 0-2.859.147-3.577.448-.704.296-1.06.776-1.06 1.426v1.941a2.185 2.185 0 0 0-.88.327v-1.489a2.653 2.653 0 0 0-2.154-2.59v-.767c0-1.305.83-2.472 2.064-2.905a17.07 17.07 0 0 1 2.047-.56.44.44 0 0 0-.185-.86c-.804.173-1.529.372-2.153.59A3.964 3.964 0 0 0 2.24 9.265v.752a2.606 2.606 0 0 0-1.427.722A2.717 2.717 0 0 0 0 12.667v7.132a1.32 1.32 0 0 0 1.318 1.319h1.319v3.369a1.32 1.32 0 0 0 1.318 1.318h22.09a1.32 1.32 0 0 0 1.318-1.318v-3.37h1.319A1.32 1.32 0 0 0 30 19.8v-7.134c0-.718-.296-1.42-.811-1.926Zm-9.979.107c3.759 0 3.759.75 3.759.995v2.049c-.473.143-1.64.412-3.759.412-2.119 0-3.293-.27-3.77-.413v-2.048c0-.246 0-.995 3.77-.995Zm-12.179.995c0-.246 0-.995 3.759-.995 3.77 0 3.77.75 3.77.995v2.048c-.477.144-1.651.412-3.77.412-2.119 0-3.287-.268-3.759-.411v-2.049ZM.88 19.8v-7.132c0-.485.2-.96.549-1.301.34-.333.782-.512 1.245-.502.95.019 1.722.807 1.722 1.757v2.594L3.053 18.54a5.681 5.681 0 0 0-.397 1.7H1.318a.44.44 0 0 1-.44-.44Zm25.166 5.127H3.955a.44.44 0 0 1-.44-.44v-3.808c0-.623.119-1.232.352-1.81l.428-1.06a1.313 1.313 0 0 1 1.223-.825h11.54a.44.44 0 1 0 0-.878H5.517a2.2 2.2 0 0 0-.565.074l.288-.714a1.313 1.313 0 0 1 1.223-.825l.037-.002c.343.133 1.62.543 4.289.543 2.478 0 3.762-.353 4.21-.51.448.157 1.732.51 4.21.51 2.67 0 3.946-.41 4.29-.543a.449.449 0 0 0 .036.002c.54 0 1.02.323 1.223.824l.288.715a2.216 2.216 0 0 0-.565-.074h-5.667a.44.44 0 1 0 0 .878h5.667c.54 0 1.02.324 1.223.825l.428 1.06c.178.442.288.9.331 1.37H4.834a.44.44 0 1 0 0 .88h21.65v3.369a.44.44 0 0 1-.44.44ZM29.12 19.8a.44.44 0 0 1-.44.44h-1.336a5.683 5.683 0 0 0-.397-1.7l-1.343-3.324V12.62c0-.95.774-1.739 1.724-1.757.463-.01.905.17 1.244.503.349.34.548.814.548 1.298v7.134Z"/>
    <path fill="#4AC0B4" d="M8.924 5.493c1.835-.274 3.936-.42 6.076-.42 3.91 0 7.488.47 9.817 1.286a3.063 3.063 0 0 1 2.04 2.522.44.44 0 0 0 .872-.11 3.937 3.937 0 0 0-2.62-3.241C22.688 4.68 19.004 4.195 15 4.195c-2.183 0-4.329.148-6.206.429a.44.44 0 0 0 .13.87ZM2.68 14.086a.44.44 0 0 0 .439-.44v-.878a.44.44 0 0 0-.879 0v.879c0 .243.197.44.44.44Zm24.64-1.757a.44.44 0 0 0-.439.44v.878a.44.44 0 1 0 .879 0v-.879a.44.44 0 0 0-.44-.439ZM7.778 8.814a.469.469 0 1 0 0-.937.469.469 0 0 0 0 .937Zm4.688-.586a.469.469 0 1 0 0-.937.469.469 0 0 0 0 .937Z"/>
    <path fill="#4AC0B4" d="M22.222 8.814a.469.469 0 1 0 0-.937.469.469 0 0 0 0 .937Zm-4.687-.586a.469.469 0 1 0 0-.937.469.469 0 0 0 0 .937Z"/>
    <path stroke="#4AC0B4" stroke-width=".5" d="M29.189 10.74a2.598 2.598 0 0 0-1.877-.755 2.65 2.65 0 0 0-2.585 2.636v1.49a2.186 2.186 0 0 0-.88-.328v-1.94c0-.651-.356-1.131-1.06-1.427-.718-.301-1.888-.448-3.577-.448s-2.86.147-3.582.448a2.082 2.082 0 0 0-.628.39 2.082 2.082 0 0 0-.628-.39c-.721-.301-1.893-.448-3.582-.448-1.689 0-2.859.147-3.577.448-.704.296-1.06.776-1.06 1.426v1.941a2.185 2.185 0 0 0-.88.327v-1.489a2.653 2.653 0 0 0-2.154-2.59v-.767c0-1.305.83-2.472 2.064-2.905a17.07 17.07 0 0 1 2.047-.56.44.44 0 0 0-.185-.86c-.804.173-1.529.372-2.153.59A3.964 3.964 0 0 0 2.24 9.265v.752a2.606 2.606 0 0 0-1.427.722A2.717 2.717 0 0 0 0 12.667v7.132a1.32 1.32 0 0 0 1.318 1.319h1.319v3.369a1.32 1.32 0 0 0 1.318 1.318h22.09a1.32 1.32 0 0 0 1.318-1.318v-3.37h1.319A1.32 1.32 0 0 0 30 19.8v-7.134c0-.718-.296-1.42-.811-1.926Zm-9.979.107c3.759 0 3.759.75 3.759.995v2.049c-.473.143-1.64.412-3.759.412-2.119 0-3.293-.27-3.77-.413v-2.048c0-.246 0-.995 3.77-.995Zm-12.179.995c0-.246 0-.995 3.759-.995 3.77 0 3.77.75 3.77.995v2.048c-.477.144-1.651.412-3.77.412-2.119 0-3.287-.268-3.759-.411v-2.049ZM.88 19.8v-7.132c0-.485.2-.96.549-1.301.34-.333.782-.512 1.245-.502.95.019 1.722.807 1.722 1.757v2.594L3.053 18.54a5.681 5.681 0 0 0-.397 1.7H1.318a.44.44 0 0 1-.44-.44Zm25.166 5.127H3.955a.44.44 0 0 1-.44-.44v-3.808c0-.623.119-1.232.352-1.81l.428-1.06a1.313 1.313 0 0 1 1.223-.825h11.54a.44.44 0 1 0 0-.878H5.517a2.2 2.2 0 0 0-.565.074l.288-.714a1.313 1.313 0 0 1 1.223-.825l.037-.002c.343.133 1.62.543 4.289.543 2.478 0 3.762-.353 4.21-.51.448.157 1.732.51 4.21.51 2.67 0 3.946-.41 4.29-.543a.449.449 0 0 0 .036.002c.54 0 1.02.323 1.223.824l.288.715a2.216 2.216 0 0 0-.565-.074h-5.667a.44.44 0 1 0 0 .878h5.667c.54 0 1.02.324 1.223.825l.428 1.06c.178.442.288.9.331 1.37H4.834a.44.44 0 1 0 0 .88h21.65v3.369a.44.44 0 0 1-.44.44ZM29.12 19.8a.44.44 0 0 1-.44.44h-1.336a5.683 5.683 0 0 0-.397-1.7l-1.343-3.324V12.62c0-.95.774-1.739 1.724-1.757.463-.01.905.17 1.244.503.349.34.548.814.548 1.298v7.134Z" mask="url(#b)"/>
    <path stroke="#4AC0B4" stroke-width=".5" d="M8.924 5.493c1.835-.274 3.936-.42 6.076-.42 3.91 0 7.488.47 9.817 1.286a3.063 3.063 0 0 1 2.04 2.522.44.44 0 0 0 .872-.11 3.937 3.937 0 0 0-2.62-3.241C22.688 4.68 19.004 4.195 15 4.195c-2.183 0-4.329.148-6.206.429a.44.44 0 0 0 .13.87ZM2.68 14.086a.44.44 0 0 0 .439-.44v-.878a.44.44 0 0 0-.879 0v.879c0 .243.197.44.44.44Zm24.64-1.757a.44.44 0 0 0-.439.44v.878a.44.44 0 1 0 .879 0v-.879a.44.44 0 0 0-.44-.439ZM7.778 8.814a.469.469 0 1 0 0-.937.469.469 0 0 0 0 .937Zm4.688-.586a.469.469 0 1 0 0-.937.469.469 0 0 0 0 .937Z" mask="url(#b)"/>
    <path stroke="#4AC0B4" stroke-width=".5" d="M22.222 8.814a.469.469 0 1 0 0-.937.469.469 0 0 0 0 .937Zm-4.687-.586a.469.469 0 1 0 0-.937.469.469 0 0 0 0 .937Z" mask="url(#b)"/>
  </g>
  <defs>
    <clipPath id="a">
      <path fill="#fff" d="M0 0h30v30H0z"/>
    </clipPath>
  </defs>
</svg>
