<svg width="17" height="17" viewBox="0 0 17 17" fill="none" xmlns="http://www.w3.org/2000/svg">
<g clip-path="url(#clip0_1472_58382)">
<path d="M9.76104 10.1052C9.92344 9.13161 9.58348 8.15502 8.85151 7.49293C8.11953 6.83084 7.11384 6.59024 6.1614 6.84926L3.86619 7.47324C3.48541 7.57673 3.15504 7.79549 2.91097 8.10557C2.66684 8.41573 2.53198 8.78818 2.52075 9.18284C2.50983 9.57741 2.62375 9.9569 2.85015 10.2803C3.07654 10.6037 3.39432 10.8405 3.76895 10.9651L3.79411 10.9734C4.73144 11.2929 5.49977 11.9928 5.90492 12.8972C6.00946 13.1304 6.15842 13.3353 6.34396 13.5032C6.44484 13.5944 6.55667 13.6747 6.67793 13.7428C7.02229 13.9358 7.41127 14.0112 7.8029 13.9608C8.19434 13.9105 8.55157 13.739 8.83588 13.4651C9.12019 13.1912 9.30475 12.8406 9.36977 12.4513L9.76104 10.1052Z" fill="#4AC0B4"/>
<path d="M5.46735 6.21828C5.84894 6.36567 6.2705 6.33207 6.65439 6.12361C7.01974 5.92529 7.30837 5.58938 7.46709 5.17761C7.62556 4.76599 7.63701 4.32331 7.49937 3.931C7.35472 3.51897 7.0649 3.21103 6.6836 3.06427C5.91698 2.76846 5.02016 3.23525 4.68419 4.10524C4.4175 4.79834 4.58618 5.54071 5.05338 5.96331C5.17267 6.07121 5.31145 6.15825 5.46735 6.21828Z" fill="#4AC0B4"/>
<path d="M8.36754 6.72552C9.07862 7.36871 10.2533 7.2329 10.9861 6.42276C11.7191 5.61242 11.7369 4.42991 11.0258 3.78672C10.3148 3.14359 9.14003 3.27959 8.40706 4.08993C7.67426 4.90007 7.65654 6.08239 8.36754 6.72552Z" fill="#4AC0B4"/>
<path d="M10.2679 9.10101L10.268 9.10107C10.3445 9.23631 10.4404 9.3546 10.5516 9.45511C11.0701 9.92417 11.9169 10.0039 12.6344 9.59823C13.0475 9.36478 13.3596 9.00512 13.513 8.58556C13.6738 8.14639 13.6438 7.69498 13.4286 7.31436C13.2133 6.93369 12.8419 6.6753 12.3828 6.5866C11.9441 6.50187 11.4751 6.58389 11.0622 6.81746C10.1909 7.31008 9.83465 8.33449 10.2679 9.10101Z" fill="#4AC0B4"/>
<path d="M13.1384 11.386L13.1383 11.3857C12.9756 10.5799 12.1002 10.0735 11.1866 10.257C10.2732 10.4411 9.66173 11.2462 9.82347 12.0516C9.88238 12.3454 10.0362 12.5995 10.2521 12.7948C10.6285 13.1353 11.1938 13.2974 11.7751 13.1809C12.6885 12.9967 13.3 12.1916 13.1384 11.386Z" fill="#4AC0B4"/>
</g>
<defs>
<clipPath id="clip0_1472_58382">
<rect width="11.8439" height="10.3699" fill="white" transform="translate(7.61035 0.682129) rotate(42.1303)"/>
</clipPath>
</defs>
</svg>
