<svg width="38" height="30" viewBox="0 0 38 30" fill="none" xmlns="http://www.w3.org/2000/svg">
<path d="M18.9322 30C20.2309 30 21.2837 28.9472 21.2837 27.6484C21.2837 26.3497 20.2309 25.2969 18.9322 25.2969C17.6334 25.2969 16.5806 26.3497 16.5806 27.6484C16.5806 28.9472 17.6334 30 18.9322 30Z" fill="url(#paint0_linear_686_29682)"/>
<path d="M36.86 7.79324C32.176 2.76779 25.8334 7.12596e-05 18.9997 0C12.1665 7.12596e-05 5.8239 2.76779 1.1399 7.79324C0.60331 8.36902 0.63502 9.27088 1.2108 9.80753C1.78666 10.3441 2.68845 10.3125 3.22511 9.73663C7.3639 5.29602 12.9661 2.85046 19.0002 2.85038C25.0338 2.85046 30.636 5.29602 34.7747 9.73663C35.0554 10.0378 35.436 10.1901 35.8176 10.1901C36.1656 10.1901 36.5144 10.0634 36.7891 9.80753C37.3648 9.27081 37.3966 8.36902 36.86 7.79324Z" fill="url(#paint1_linear_686_29682)"/>
<path d="M31.6271 13.6799C28.1648 10.1915 23.6804 8.27037 19.0001 8.27051C14.3186 8.27058 9.83424 10.1917 6.373 13.68C5.81859 14.2388 5.82209 15.1411 6.38084 15.6955C6.93959 16.2499 7.84195 16.2465 8.39636 15.6877C11.3184 12.7428 15.0842 11.121 19.0001 11.1209C22.915 11.1207 26.6808 12.7427 29.6039 15.6878C29.8825 15.9685 30.2489 16.1091 30.6155 16.1091C30.9783 16.1091 31.3415 15.9713 31.6195 15.6954C32.1781 15.1409 32.1816 14.2386 31.6271 13.6799Z" fill="url(#paint2_linear_686_29682)"/>
<path d="M25.9238 19.5806C24.0696 17.7436 21.4119 16.6025 18.9874 16.6025C18.9872 16.6025 18.9867 16.6025 18.9864 16.6025H18.8837C18.8833 16.6025 18.883 16.6025 18.8826 16.6025C16.4581 16.6025 13.8001 17.7437 11.946 19.5806C11.3869 20.1346 11.3827 21.037 11.9367 21.5961C12.2154 21.8774 12.5822 22.0183 12.9491 22.0183C13.3116 22.0183 13.6743 21.8808 13.9521 21.6055C15.2721 20.2978 17.2073 19.4529 18.8828 19.4529C18.883 19.4529 18.8833 19.4529 18.8835 19.4529H18.9866C18.9869 19.4529 18.9869 19.4529 18.9872 19.4529C20.6625 19.4529 22.5978 20.2978 23.9176 21.6055C24.4768 22.1594 25.3793 22.1554 25.9332 21.5961C26.4872 21.037 26.483 20.1346 25.9238 19.5806Z" fill="url(#paint3_linear_686_29682)"/>
<defs>
<linearGradient id="paint0_linear_686_29682" x1="17.1046" y1="25.2969" x2="20.8689" y2="25.3804" gradientUnits="userSpaceOnUse">
<stop stop-color="#4AC0B4"/>
<stop offset="1" stop-color="#3BB1A5"/>
</linearGradient>
<linearGradient id="paint1_linear_686_29682" x1="4.82282" y1="1.25315e-06" x2="33.8555" y2="2.30624" gradientUnits="userSpaceOnUse">
<stop stop-color="#4AC0B4"/>
<stop offset="1" stop-color="#3BB1A5"/>
</linearGradient>
<linearGradient id="paint2_linear_686_29682" x1="8.86567" y1="8.27051" x2="29.6372" y2="9.80386" gradientUnits="userSpaceOnUse">
<stop stop-color="#4AC0B4"/>
<stop offset="1" stop-color="#3BB1A5"/>
</linearGradient>
<linearGradient id="paint3_linear_686_29682" x1="13.1755" y1="16.6025" x2="25.0008" y2="17.3206" gradientUnits="userSpaceOnUse">
<stop stop-color="#4AC0B4"/>
<stop offset="1" stop-color="#3BB1A5"/>
</linearGradient>
</defs>
</svg>
