<svg width="16" height="20" viewBox="0 0 16 20" fill="none" xmlns="http://www.w3.org/2000/svg">
<path d="M13.3193 6.00975H11.3178C10.913 6.00975 10.5845 6.3378 10.5845 6.7431C10.5845 7.14839 10.913 7.47644 11.3178 7.47644H13.3198C13.7242 7.47644 14.0532 7.80547 14.0532 8.20979V17.8C14.0532 18.2043 13.7242 18.5333 13.3198 18.5333H2.29573C1.89142 18.5333 1.56239 18.2043 1.56239 17.8V8.20979C1.56239 7.80547 1.89142 7.47644 2.29573 7.47644H4.29776C4.70305 7.47644 5.0311 7.14839 5.0311 6.7431C5.0311 6.3378 4.70305 6.00975 4.29776 6.00975H2.29573C1.08278 6.00975 0.0957031 6.99683 0.0957031 8.20979V17.8C0.0957031 19.0129 1.08278 20 2.29573 20H13.3198C14.5328 20 15.5199 19.0129 15.5199 17.8V8.20979C15.5194 6.99635 14.5328 6.00975 13.3193 6.00975ZM5.07315 4.52938L7.09864 2.50388V12.1586C7.09864 12.5634 7.42669 12.8919 7.83199 12.8919C8.23728 12.8919 8.56533 12.5634 8.56533 12.1586V2.50388L10.5908 4.52938C10.7341 4.67262 10.9218 4.744 11.1095 4.744C11.2973 4.744 11.485 4.67262 11.6283 4.52938C11.9148 4.24337 11.9148 3.77843 11.6283 3.49243L8.35119 0.21487C8.06421 -0.0716233 7.60025 -0.0716233 7.31376 0.21487L4.0362 3.49243C3.74971 3.77843 3.74971 4.24337 4.0362 4.52938C4.32269 4.81587 4.78666 4.81587 5.07315 4.52938Z" fill="#777777"/>
</svg>
