<svg xmlns="http://www.w3.org/2000/svg" width="30" height="30" fill="none" viewBox="0 0 30 30">
  <g clip-path="url(#a)">
    <mask id="b" width="32" height="32" x="-1" y="-1" fill="#000" maskUnits="userSpaceOnUse">
      <path fill="#fff" d="M-1-1h32v32H-1z"/>
      <path d="M25 18.026V13c0-1.973-6.285-2.5-10-2.5-3.714 0-10 .527-10 2.5v5.026A5.505 5.505 0 0 0 0 23.5a2 2 0 0 0 2 2v3A1.5 1.5 0 0 0 3.5 30h1a1.5 1.5 0 0 0 1.49-1.403C6.473 28.138 9.874 27.5 15 27.5c5.125 0 8.526.638 9.01 1.096A1.5 1.5 0 0 0 25.5 30h1a1.5 1.5 0 0 0 1.5-1.5v-3a2 2 0 0 0 2-2 5.505 5.505 0 0 0-5-5.474ZM15 11.5c5.544 0 8.794.98 9 1.51V18h-1.092c.06-.16.09-.33.092-.5V15a1.5 1.5 0 0 0-1.5-1.5H17a1.5 1.5 0 0 0-1.5 1.5v2.5c.002.17.033.34.092.5h-1.184c.06-.16.09-.33.092-.5V15a1.5 1.5 0 0 0-1.5-1.5H8.5A1.5 1.5 0 0 0 7 15v2.5c.002.17.033.34.092.5H6v-4.984c.182-.529 3.437-1.516 9-1.516Zm1.5 6V15a.5.5 0 0 1 .5-.5h4.5a.5.5 0 0 1 .5.5v2.5a.5.5 0 0 1-.5.5H17a.5.5 0 0 1-.5-.5Zm-8.5 0V15a.5.5 0 0 1 .5-.5H13a.5.5 0 0 1 .5.5v2.5a.5.5 0 0 1-.5.5H8.5a.5.5 0 0 1-.5-.5ZM4.5 29h-1a.5.5 0 0 1-.5-.5v-3h2v3a.5.5 0 0 1-.5.5ZM6 27.51V25.5h18v2.01c-2.263-.95-7.688-1.01-9-1.01-1.313 0-6.737.06-9 1.01Zm21 .99a.5.5 0 0 1-.5.5h-1a.5.5 0 0 1-.5-.5v-3h2v3Zm1-4H2a1 1 0 0 1-1-1A4.505 4.505 0 0 1 5.5 19h19a4.505 4.505 0 0 1 4.5 4.5 1 1 0 0 1-1 1Z"/>
      <path d="M5.5 20a3.49 3.49 0 0 0-3.45 2.917.5.5 0 0 0 .985.166A2.492 2.492 0 0 1 5.5 21a.5.5 0 0 0 0-1Zm2 1a.5.5 0 1 0 0-1 .5.5 0 0 0 0 1ZM19.833 7.173H9.783a.228.228 0 0 1-.215-.154L8.065 2.637a.229.229 0 0 1 .253-.3c.082.005.16.055.195.136.186.422.846 1.784 1.617 1.784l.029-.001c.465-.02 1.192-.557 2.015-2.994a.228.228 0 0 1 .433 0c.281.83 1.224 2.981 2.203 2.981h.008c.464-.006 1.177-.526 1.941-2.976a.228.228 0 0 1 .218-.16h.003c.1 0 .189.067.217.164.233.804 1.062 2.91 2.077 2.999.594.049 1.252-.623 1.902-1.95a.228.228 0 0 1 .421.175L20.05 7.019a.229.229 0 0 1-.216.154Zm-9.886-.457h9.722l.895-2.614c-.432.457-.871.661-1.33.623-1.125-.098-1.897-1.72-2.256-2.672-.634 1.77-1.342 2.637-2.155 2.647h-.013c-1.137 0-2.015-1.743-2.413-2.705-.678 1.79-1.406 2.68-2.218 2.717-.416.016-.778-.191-1.09-.499l.858 2.503Z"/>
      <path d="M19.833 9H9.783a.228.228 0 0 1-.228-.228V6.944a.228.228 0 1 1 .457 0v1.6h9.592v-1.6a.228.228 0 1 1 .457 0v1.828a.228.228 0 0 1-.228.228Zm-7.348-7.437a.782.782 0 0 1 0-1.563.783.783 0 0 1 0 1.563Zm0-1.106a.325.325 0 1 0 0 .65.325.325 0 0 0 0-.65Zm4.425 1.106a.782.782 0 0 1 0-1.563.783.783 0 0 1 0 1.563Zm0-1.106a.325.325 0 1 0 0 .65.325.325 0 0 0 0-.65Zm4.425 2.213a.783.783 0 0 1 0-1.564.782.782 0 0 1 0 1.563Zm0-1.107a.325.325 0 1 0 0 .65.325.325 0 0 0 0-.65ZM8.281 2.67a.782.782 0 0 1 0-1.564.782.782 0 0 1 0 1.563Zm0-1.107a.325.325 0 1 0 0 .65.325.325 0 0 0 0-.65Z"/>
    </mask>
    <path fill="#4AC0B4" d="M25 18.026V13c0-1.973-6.285-2.5-10-2.5-3.714 0-10 .527-10 2.5v5.026A5.505 5.505 0 0 0 0 23.5a2 2 0 0 0 2 2v3A1.5 1.5 0 0 0 3.5 30h1a1.5 1.5 0 0 0 1.49-1.403C6.473 28.138 9.874 27.5 15 27.5c5.125 0 8.526.638 9.01 1.096A1.5 1.5 0 0 0 25.5 30h1a1.5 1.5 0 0 0 1.5-1.5v-3a2 2 0 0 0 2-2 5.505 5.505 0 0 0-5-5.474ZM15 11.5c5.544 0 8.794.98 9 1.51V18h-1.092c.06-.16.09-.33.092-.5V15a1.5 1.5 0 0 0-1.5-1.5H17a1.5 1.5 0 0 0-1.5 1.5v2.5c.002.17.033.34.092.5h-1.184c.06-.16.09-.33.092-.5V15a1.5 1.5 0 0 0-1.5-1.5H8.5A1.5 1.5 0 0 0 7 15v2.5c.002.17.033.34.092.5H6v-4.984c.182-.529 3.437-1.516 9-1.516Zm1.5 6V15a.5.5 0 0 1 .5-.5h4.5a.5.5 0 0 1 .5.5v2.5a.5.5 0 0 1-.5.5H17a.5.5 0 0 1-.5-.5Zm-8.5 0V15a.5.5 0 0 1 .5-.5H13a.5.5 0 0 1 .5.5v2.5a.5.5 0 0 1-.5.5H8.5a.5.5 0 0 1-.5-.5ZM4.5 29h-1a.5.5 0 0 1-.5-.5v-3h2v3a.5.5 0 0 1-.5.5ZM6 27.51V25.5h18v2.01c-2.263-.95-7.688-1.01-9-1.01-1.313 0-6.737.06-9 1.01Zm21 .99a.5.5 0 0 1-.5.5h-1a.5.5 0 0 1-.5-.5v-3h2v3Zm1-4H2a1 1 0 0 1-1-1A4.505 4.505 0 0 1 5.5 19h19a4.505 4.505 0 0 1 4.5 4.5 1 1 0 0 1-1 1Z"/>
    <path fill="#4AC0B4" d="M5.5 20a3.49 3.49 0 0 0-3.45 2.917.5.5 0 0 0 .985.166A2.492 2.492 0 0 1 5.5 21a.5.5 0 0 0 0-1Zm2 1a.5.5 0 1 0 0-1 .5.5 0 0 0 0 1ZM19.833 7.173H9.783a.228.228 0 0 1-.215-.154L8.065 2.637a.229.229 0 0 1 .253-.3c.082.005.16.055.195.136.186.422.846 1.784 1.617 1.784l.029-.001c.465-.02 1.192-.557 2.015-2.994a.228.228 0 0 1 .433 0c.281.83 1.224 2.981 2.203 2.981h.008c.464-.006 1.177-.526 1.941-2.976a.228.228 0 0 1 .218-.16h.003c.1 0 .189.067.217.164.233.804 1.062 2.91 2.077 2.999.594.049 1.252-.623 1.902-1.95a.228.228 0 0 1 .421.175L20.05 7.019a.229.229 0 0 1-.216.154Zm-9.886-.457h9.722l.895-2.614c-.432.457-.871.661-1.33.623-1.125-.098-1.897-1.72-2.256-2.672-.634 1.77-1.342 2.637-2.155 2.647h-.013c-1.137 0-2.015-1.743-2.413-2.705-.678 1.79-1.406 2.68-2.218 2.717-.416.016-.778-.191-1.09-.499l.858 2.503Z"/>
    <path fill="#4AC0B4" d="M19.833 9H9.783a.228.228 0 0 1-.228-.228V6.944a.228.228 0 1 1 .457 0v1.6h9.592v-1.6a.228.228 0 1 1 .457 0v1.828a.228.228 0 0 1-.228.228Zm-7.348-7.437a.782.782 0 0 1 0-1.563.783.783 0 0 1 0 1.563Zm0-1.106a.325.325 0 1 0 0 .65.325.325 0 0 0 0-.65Zm4.425 1.106a.782.782 0 0 1 0-1.563.783.783 0 0 1 0 1.563Zm0-1.106a.325.325 0 1 0 0 .65.325.325 0 0 0 0-.65Zm4.425 2.213a.783.783 0 0 1 0-1.564.782.782 0 0 1 0 1.563Zm0-1.107a.325.325 0 1 0 0 .65.325.325 0 0 0 0-.65ZM8.281 2.67a.782.782 0 0 1 0-1.564.782.782 0 0 1 0 1.563Zm0-1.107a.325.325 0 1 0 0 .65.325.325 0 0 0 0-.65Z"/>
    <path stroke="#4AC0B4" stroke-width=".4" d="M25 18.026V13c0-1.973-6.285-2.5-10-2.5-3.714 0-10 .527-10 2.5v5.026A5.505 5.505 0 0 0 0 23.5a2 2 0 0 0 2 2v3A1.5 1.5 0 0 0 3.5 30h1a1.5 1.5 0 0 0 1.49-1.403C6.473 28.138 9.874 27.5 15 27.5c5.125 0 8.526.638 9.01 1.096A1.5 1.5 0 0 0 25.5 30h1a1.5 1.5 0 0 0 1.5-1.5v-3a2 2 0 0 0 2-2 5.505 5.505 0 0 0-5-5.474ZM15 11.5c5.544 0 8.794.98 9 1.51V18h-1.092c.06-.16.09-.33.092-.5V15a1.5 1.5 0 0 0-1.5-1.5H17a1.5 1.5 0 0 0-1.5 1.5v2.5c.002.17.033.34.092.5h-1.184c.06-.16.09-.33.092-.5V15a1.5 1.5 0 0 0-1.5-1.5H8.5A1.5 1.5 0 0 0 7 15v2.5c.002.17.033.34.092.5H6v-4.984c.182-.529 3.437-1.516 9-1.516Zm1.5 6V15a.5.5 0 0 1 .5-.5h4.5a.5.5 0 0 1 .5.5v2.5a.5.5 0 0 1-.5.5H17a.5.5 0 0 1-.5-.5Zm-8.5 0V15a.5.5 0 0 1 .5-.5H13a.5.5 0 0 1 .5.5v2.5a.5.5 0 0 1-.5.5H8.5a.5.5 0 0 1-.5-.5ZM4.5 29h-1a.5.5 0 0 1-.5-.5v-3h2v3a.5.5 0 0 1-.5.5ZM6 27.51V25.5h18v2.01c-2.263-.95-7.688-1.01-9-1.01-1.313 0-6.737.06-9 1.01Zm21 .99a.5.5 0 0 1-.5.5h-1a.5.5 0 0 1-.5-.5v-3h2v3Zm1-4H2a1 1 0 0 1-1-1A4.505 4.505 0 0 1 5.5 19h19a4.505 4.505 0 0 1 4.5 4.5 1 1 0 0 1-1 1Z" mask="url(#b)"/>
    <path stroke="#4AC0B4" stroke-width=".4" d="M5.5 20a3.49 3.49 0 0 0-3.45 2.917.5.5 0 0 0 .985.166A2.492 2.492 0 0 1 5.5 21a.5.5 0 0 0 0-1Zm2 1a.5.5 0 1 0 0-1 .5.5 0 0 0 0 1ZM19.833 7.173H9.783a.228.228 0 0 1-.215-.154L8.065 2.637a.229.229 0 0 1 .253-.3c.082.005.16.055.195.136.186.422.846 1.784 1.617 1.784l.029-.001c.465-.02 1.192-.557 2.015-2.994a.228.228 0 0 1 .433 0c.281.83 1.224 2.981 2.203 2.981h.008c.464-.006 1.177-.526 1.941-2.976a.228.228 0 0 1 .218-.16h.003c.1 0 .189.067.217.164.233.804 1.062 2.91 2.077 2.999.594.049 1.252-.623 1.902-1.95a.228.228 0 0 1 .421.175L20.05 7.019a.229.229 0 0 1-.216.154Zm-9.886-.457h9.722l.895-2.614c-.432.457-.871.661-1.33.623-1.125-.098-1.897-1.72-2.256-2.672-.634 1.77-1.342 2.637-2.155 2.647h-.013c-1.137 0-2.015-1.743-2.413-2.705-.678 1.79-1.406 2.68-2.218 2.717-.416.016-.778-.191-1.09-.499l.858 2.503Z" mask="url(#b)"/>
    <path stroke="#4AC0B4" stroke-width=".4" d="M19.833 9H9.783a.228.228 0 0 1-.228-.228V6.944a.228.228 0 1 1 .457 0v1.6h9.592v-1.6a.228.228 0 1 1 .457 0v1.828a.228.228 0 0 1-.228.228Zm-7.348-7.437a.782.782 0 0 1 0-1.563.783.783 0 0 1 0 1.563Zm0-1.106a.325.325 0 1 0 0 .65.325.325 0 0 0 0-.65Zm4.425 1.106a.782.782 0 0 1 0-1.563.783.783 0 0 1 0 1.563Zm0-1.106a.325.325 0 1 0 0 .65.325.325 0 0 0 0-.65Zm4.425 2.213a.783.783 0 0 1 0-1.564.782.782 0 0 1 0 1.563Zm0-1.107a.325.325 0 1 0 0 .65.325.325 0 0 0 0-.65ZM8.281 2.67a.782.782 0 0 1 0-1.564.782.782 0 0 1 0 1.563Zm0-1.107a.325.325 0 1 0 0 .65.325.325 0 0 0 0-.65Z" mask="url(#b)"/>
  </g>
  <defs>
    <clipPath id="a">
      <path fill="#fff" d="M0 0h30v30H0z"/>
    </clipPath>
  </defs>
</svg>
