<svg xmlns="http://www.w3.org/2000/svg" width="30" height="30" fill="none" viewBox="0 0 30 30">
  <g clip-path="url(#a)">
    <path fill="#4AC0B4" d="M20.121 22.3a1.194 1.194 0 0 0-1.576.622A7.78 7.78 0 0 1 11.4 27.6c-4.301 0-7.8-3.5-7.8-7.8a7.799 7.799 0 0 1 3.919-6.758 1.2 1.2 0 0 0 .448-1.637 1.195 1.195 0 0 0-1.637-.447A10.2 10.2 0 0 0 1.2 19.8C1.2 25.424 5.775 30 11.4 30c4.064 0 7.732-2.404 9.345-6.122a1.199 1.199 0 0 0-.624-1.578Z"/>
    <path fill="#4AC0B4" d="M28.715 23.555a1.198 1.198 0 0 0-1.56-.67l-1.796.719-2.612-8.362A1.202 1.202 0 0 0 21.6 14.4h-8.57l-.374-2.4H17.4a1.199 1.199 0 1 0 0-2.4h-5.116l-.62-3.997A2.99 2.99 0 0 0 13.2 3c0-1.655-1.345-3-3-3-1.654 0-3 1.345-3 3 0 1.328.873 2.444 2.072 2.838l1.542 9.946A1.2 1.2 0 0 0 12 16.8h8.718l2.736 8.758a1.205 1.205 0 0 0 1.592.757l3-1.2a1.2 1.2 0 0 0 .669-1.56Z"/>
  </g>
  <defs>
    <clipPath id="a">
      <path fill="#fff" d="M0 0h30v30H0z"/>
    </clipPath>
  </defs>
</svg>
