<svg width="32" height="29" viewBox="0 0 32 29" fill="none" xmlns="http://www.w3.org/2000/svg">
<path d="M24.9894 27.2052L24.4311 26.0884C25.9572 25.9684 27.2586 24.8808 27.6466 23.4257L27.647 23.4244L28.9896 18.0999H29.5C30.4052 18.0999 31.1 17.4052 31.1 16.4999C31.1 15.5947 30.4052 14.9 29.5 14.9H29.1V4.5C29.1 1.94475 27.0553 -0.1 24.5 -0.1C22.2497 -0.1 20.6324 1.55539 20.4235 3.96244C19.2531 4.21908 18.4 5.24401 18.4 6.49998C18.4 6.6727 18.458 6.82441 18.5668 6.93318C18.6756 7.04196 18.8273 7.09996 19 7.09996H23C23.1727 7.09996 23.3244 7.04196 23.4332 6.93318C23.542 6.82441 23.6 6.6727 23.6 6.49998C23.6 5.26326 22.7729 4.25029 21.6301 3.97449C21.7148 3.22784 21.9821 2.52098 22.4391 1.99619C22.9118 1.45335 23.5916 1.09996 24.5 1.09996C26.3948 1.09996 27.9 2.60517 27.9 4.49994V14.8999H13.0326C12.7708 13.756 11.773 12.9211 10.5468 12.9004C10.0337 12.3019 9.31926 11.8999 8.50006 11.8999C7.54667 11.8999 6.6901 12.4321 6.25664 13.2176C5.87061 13.0351 5.43766 12.9 5.00002 12.9C3.75235 12.9 2.7324 13.7417 2.46735 14.9002C1.5781 14.9167 0.9 15.6056 0.9 16.4999C0.9 17.4052 1.59475 18.0999 2.5 18.0999H3.02297L4.35303 23.3744L4.35317 23.375C4.76442 24.9684 6.20371 26.1 7.85002 26.1H8.08824L7.51226 27.252C7.33878 27.5454 7.44915 27.9057 7.74621 28.0358C7.7907 28.0717 7.84429 28.0858 7.8836 28.0924C7.92933 28.1 7.97367 28.1 7.99842 28.1H8.00002C8.2388 28.1 8.41784 27.9784 8.53322 27.8054L8.53387 27.8059L8.53946 27.7947L9.3868 26.1H23.1382L23.9606 27.7447L24.05 27.7L23.9606 27.7447C24.0165 27.8565 24.0895 27.9464 24.1821 28.0082C24.2753 28.0703 24.3825 28.1 24.5 28.1C24.5027 28.1 24.5055 28.1 24.5083 28.1C24.5508 28.1001 24.6062 28.1002 24.6559 28.0803C24.7083 28.0593 24.745 28.0218 24.7737 27.9735C24.8878 27.9054 24.9676 27.7889 25.0078 27.6613C25.0517 27.5223 25.0521 27.361 24.9928 27.2128L24.9931 27.2127L24.9894 27.2052ZM7.147 14.3242L7.14711 14.3242L7.14804 14.3196C7.28992 13.6102 7.85364 13.1 8.54998 13.1C9.06967 13.1 9.53061 13.3348 9.76056 13.7947L9.76056 13.7947C9.88083 14.0352 10.1716 14.1534 10.4116 14.1H10.4117H10.412H10.4123H10.4126H10.4129H10.4132H10.4135H10.4138H10.4141H10.4144H10.4147H10.415H10.4152H10.4155H10.4158H10.4161H10.4164H10.4167H10.417H10.4173H10.4176H10.4179H10.4182H10.4185H10.4188H10.4191H10.4194H10.4196H10.4199H10.4202H10.4205H10.4208H10.4211H10.4214H10.4217H10.422H10.4223H10.4226H10.4229H10.4232H10.4235H10.4237H10.424H10.4243H10.4246H10.4249H10.4252H10.4255H10.4258H10.4261H10.4264H10.4267H10.427H10.4273H10.4276H10.4278H10.4281H10.4284H10.4287H10.429H10.4293H10.4296H10.4299H10.4302H10.4305H10.4308H10.4311H10.4314H10.4317H10.4319H10.4322H10.4325H10.4328H10.4331H10.4334H10.4337H10.434H10.4343H10.4346H10.4349H10.4352H10.4355H10.4358H10.436H10.4363H10.4366H10.4369H10.4372H10.4375H10.4378H10.4381H10.4384H10.4387H10.439H10.4393H10.4396H10.4399H10.4402H10.4404H10.4407H10.441H10.4413H10.4416H10.4419H10.4422H10.4425H10.4428H10.4431H10.4434H10.4437H10.444H10.4443H10.4445H10.4448H10.4451H10.4454H10.4457H10.446H10.4463H10.4466H10.4469H10.4472H10.4475H10.4478H10.4481H10.4484H10.4486H10.4489H10.4492H10.4495H10.4498H10.4501H10.4504H10.4507H10.451H10.4513H10.4516H10.4519H10.4522H10.4525H10.4528H10.453H10.4533H10.4536H10.4539H10.4542H10.4545H10.4548H10.4551H10.4554H10.4557H10.456H10.4563H10.4566H10.4569H10.4571H10.4574H10.4577H10.458H10.4583H10.4586H10.4589H10.4592H10.4595H10.4598H10.4601H10.4604H10.4607H10.461H10.4612H10.4615H10.4618H10.4621H10.4624H10.4627H10.463H10.4633H10.4636H10.4639H10.4642H10.4645H10.4648H10.4651H10.4653H10.4656H10.4659H10.4662H10.4665H10.4668H10.4671H10.4674H10.4677H10.468H10.4683H10.4686H10.4689H10.4692H10.4695H10.4697H10.47H10.4703H10.4706H10.4709H10.4712H10.4715H10.4718H10.4721H10.4724H10.4727H10.473H10.4733H10.4736H10.4738H10.4741H10.4744H10.4747H10.475H10.4753H10.4756H10.4759H10.4762H10.4765H10.4768H10.4771H10.4774H10.4777H10.478H10.4782H10.4785H10.4788H10.4791H10.4794H10.4797H10.48H10.4803H10.4806H10.4809H10.4812H10.4815H10.4818H10.4821H10.4823H10.4826H10.4829H10.4832H10.4835H10.4838H10.4841H10.4844H10.4847H10.485H10.4853H10.4856H10.4859H10.4862H10.4864H10.4867H10.487H10.4873H10.4876H10.4879H10.4882H10.4885H10.4888H10.4891H10.4894H10.4897H10.49H10.4903H10.4906H10.4908H10.4911H10.4914H10.4917H10.492H10.4923H10.4926H10.4929H10.4932H10.4935H10.4938H10.4941H10.4944H10.4947H10.4949H10.4952H10.4955H10.4958H10.4961H10.4964H10.4967H10.497H10.4973H10.4976H10.4979H10.4982H10.4985H10.4988H10.499H10.4993H10.4996H10.4999H10.5002H10.5005H10.5008H10.5011H10.5014H10.5017H10.502H10.5023H10.5026H10.5029H10.5031H10.5034H10.5037H10.504H10.5043H10.5046H10.5049H10.5052H10.5055H10.5058H10.5061H10.5064H10.5067H10.507H10.5073H10.5075H10.5078H10.5081H10.5084H10.5087H10.509H10.5093H10.5096H10.5099H10.5102H10.5105H10.5108H10.5111H10.5114H10.5116H10.5119H10.5122H10.5125H10.5128H10.5131H10.5134H10.5137H10.514H10.5143H10.5146H10.5149H10.5152H10.5155H10.5157H10.516H10.5163H10.5166H10.5169H10.5172H10.5175H10.5178H10.5181H10.5184H10.5187H10.519H10.5193H10.5196H10.5198H10.5201H10.5204H10.5207H10.521H10.5213H10.5216H10.5219H10.5222H10.5225H10.5228H10.5231H10.5234H10.5237H10.524H10.5242H10.5245H10.5248H10.5251H10.5254H10.5257H10.526H10.5263H10.5266H10.5269H10.5272H10.5275H10.5278H10.5281H10.5283H10.5286H10.5289H10.5292H10.5295H10.5298H10.5301H10.5304H10.5307H10.531H10.5313H10.5316H10.5319H10.5322H10.5324H10.5327H10.533H10.5333H10.5336H10.5339H10.5342H10.5345H10.5348H10.5351H10.5354H10.5357H10.536H10.5363H10.5365H10.5368H10.5371H10.5374H10.5377H10.538H10.5383H10.5386H10.5389H10.5392H10.5395H10.5398H10.5401H10.5404H10.5406H10.5409H10.5412H10.5415H10.5418H10.5421H10.5424H10.5427H10.543H10.5433H10.5436H10.5439H10.5442H10.5445H10.5447H10.545H10.5453H10.5456H10.5459H10.5462H10.5465H10.5468H10.5471H10.5474H10.5477H10.548H10.5483H10.5486H10.5488H10.5491H10.5494H10.5497H10.55C11.1082 14.1 11.5856 14.415 11.8038 14.9H3.74622C3.9644 14.415 4.44175 14.1 5.00002 14.1C5.41459 14.1 5.78832 14.2821 6.12279 14.6142C6.25544 14.8036 6.50189 14.8526 6.72425 14.797C6.97383 14.7346 7.09213 14.5438 7.147 14.3242ZM21.05 5.09998C21.6083 5.09998 22.0856 5.41498 22.3038 5.9H19.7472C19.971 5.4177 20.4884 5.09998 21.05 5.09998ZM26.5531 23.0754C26.2638 24.1329 25.3023 24.9 24.2 24.9H7.9C6.79732 24.9 5.83564 24.1325 5.54672 23.0745C5.54664 23.0742 5.54657 23.074 5.5465 23.0737L4.27869 18.1H27.7237L26.5531 23.0754ZM29.5 16.9H28.5H3.50002H2.5C2.37272 16.9 2.27444 16.858 2.20822 16.7918C2.142 16.7256 2.10002 16.6273 2.10002 16.5C2.10002 16.3727 2.142 16.2744 2.20822 16.2082C2.27444 16.142 2.37272 16.1 2.5 16.1H2.99998H12.5H29.5C29.6273 16.1 29.7256 16.142 29.7918 16.2082C29.858 16.2744 29.9 16.3727 29.9 16.5C29.9 16.6273 29.858 16.7256 29.7918 16.7918C29.7256 16.858 29.6273 16.9 29.5 16.9Z" fill="url(#paint0_linear_686_29714)" stroke="url(#paint1_linear_686_29714)" stroke-width="0.2"/>
<path d="M19 9.34998C19.1727 9.34998 19.3244 9.29197 19.4332 9.1832C19.542 9.07443 19.6 8.92272 19.6 8.75V8.49998C19.6 8.32726 19.542 8.17555 19.4332 8.06678C19.3244 7.958 19.1727 7.9 19 7.9C18.8273 7.9 18.6756 7.958 18.5668 8.06678C18.458 8.17555 18.4 8.32726 18.4 8.49998V8.75C18.4 8.92272 18.458 9.07443 18.5668 9.1832C18.6756 9.29197 18.8273 9.34998 19 9.34998Z" fill="url(#paint2_linear_686_29714)" stroke="url(#paint3_linear_686_29714)" stroke-width="0.2"/>
<path d="M19 11.65C19.3616 11.65 19.6 11.3486 19.6 11.05V10.5C19.6 10.3273 19.542 10.1756 19.4332 10.0668C19.3244 9.95801 19.1727 9.9 19 9.9C18.8273 9.9 18.6756 9.95801 18.5668 10.0668C18.458 10.1756 18.4 10.3273 18.4 10.5V11.05C18.4 11.2227 18.458 11.3744 18.5668 11.4832C18.6755 11.592 18.8273 11.65 19 11.65Z" fill="url(#paint4_linear_686_29714)" stroke="url(#paint5_linear_686_29714)" stroke-width="0.2"/>
<path d="M19 13.6C19.1727 13.6 19.3244 13.542 19.4332 13.4332C19.542 13.3244 19.6 13.1727 19.6 13V12.75C19.6 12.5773 19.542 12.4256 19.4332 12.3168C19.3244 12.208 19.1727 12.15 19 12.15C18.8273 12.15 18.6756 12.208 18.5668 12.3168C18.458 12.4256 18.4 12.5773 18.4 12.75V13C18.4 13.1727 18.458 13.3244 18.5668 13.4332C18.6755 13.542 18.8273 13.6 19 13.6Z" fill="url(#paint6_linear_686_29714)" stroke="url(#paint7_linear_686_29714)" stroke-width="0.2"/>
<path d="M21 9.34998C21.1727 9.34998 21.3244 9.29197 21.4332 9.1832C21.542 9.07443 21.6 8.92272 21.6 8.75V8.49998C21.6 8.32726 21.542 8.17555 21.4332 8.06678C21.3244 7.958 21.1727 7.9 21 7.9C20.8273 7.9 20.6756 7.958 20.5668 8.06678C20.458 8.17555 20.4 8.32726 20.4 8.49998V8.75C20.4 8.92272 20.458 9.07443 20.5668 9.1832C20.6756 9.29197 20.8273 9.34998 21 9.34998Z" fill="url(#paint8_linear_686_29714)" stroke="url(#paint9_linear_686_29714)" stroke-width="0.2"/>
<path d="M20.4 11.05C20.4 11.2227 20.458 11.3744 20.5668 11.4832C20.6756 11.592 20.8273 11.65 21 11.65C21.3616 11.65 21.6 11.3486 21.6 11.05V10.5C21.6 10.3273 21.542 10.1756 21.4332 10.0668C21.3244 9.95801 21.1727 9.9 21 9.9C20.8273 9.9 20.6756 9.95801 20.5668 10.0668C20.458 10.1756 20.4 10.3273 20.4 10.5V11.05Z" fill="url(#paint10_linear_686_29714)" stroke="url(#paint11_linear_686_29714)" stroke-width="0.2"/>
<path d="M20.4 13C20.4 13.1727 20.458 13.3244 20.5668 13.4332C20.6756 13.542 20.8273 13.6 21 13.6C21.1727 13.6 21.3244 13.542 21.4332 13.4332C21.542 13.3244 21.6 13.1727 21.6 13V12.75C21.6 12.5773 21.542 12.4256 21.4332 12.3168C21.3244 12.208 21.1727 12.15 21 12.15C20.8273 12.15 20.6756 12.208 20.5668 12.3168C20.458 12.4256 20.4 12.5773 20.4 12.75V13Z" fill="url(#paint12_linear_686_29714)" stroke="url(#paint13_linear_686_29714)" stroke-width="0.2"/>
<path d="M23 9.34998C23.1727 9.34998 23.3244 9.29197 23.4332 9.1832C23.542 9.07443 23.6 8.92272 23.6 8.75V8.49998C23.6 8.32726 23.542 8.17555 23.4332 8.06678C23.3244 7.958 23.1727 7.9 23 7.9C22.8273 7.9 22.6756 7.958 22.5668 8.06678C22.458 8.17555 22.4 8.32726 22.4 8.49998V8.74998C22.4 8.74999 22.4 8.74999 22.4 8.75C22.4 8.92273 22.458 9.07443 22.5668 9.1832C22.6755 9.29198 22.8273 9.34998 23 9.34998Z" fill="url(#paint14_linear_686_29714)" stroke="url(#paint15_linear_686_29714)" stroke-width="0.2"/>
<path d="M22.4 11.05V11.05C22.4 11.2227 22.458 11.3744 22.5668 11.4832C22.6756 11.592 22.8273 11.65 23 11.65C23.3616 11.65 23.6 11.3487 23.6 11.05V10.5C23.6 10.3273 23.542 10.1756 23.4332 10.0668C23.3245 9.95801 23.1728 9.9 23 9.9C22.8273 9.9 22.6756 9.95801 22.5668 10.0668C22.4581 10.1756 22.4001 10.3273 22.4001 10.5C22.4001 10.5 22.4001 10.5 22.4001 10.5L22.4 11.05Z" fill="url(#paint16_linear_686_29714)" stroke="url(#paint17_linear_686_29714)" stroke-width="0.2"/>
<path d="M22.4 13C22.4 13.1727 22.458 13.3244 22.5668 13.4332C22.6756 13.542 22.8273 13.6 23 13.6C23.1727 13.6 23.3244 13.542 23.4332 13.4332C23.542 13.3244 23.6 13.1727 23.6 13V12.75C23.6 12.5773 23.542 12.4256 23.4332 12.3168C23.3244 12.208 23.1727 12.15 23 12.15C22.8273 12.15 22.6756 12.208 22.5668 12.3168C22.458 12.4256 22.4 12.5773 22.4 12.75V13Z" fill="url(#paint18_linear_686_29714)" stroke="url(#paint19_linear_686_29714)" stroke-width="0.2"/>
<defs>
<linearGradient id="paint0_linear_686_29714" x1="4.34286" y1="3.44335e-06" x2="28.352" y2="0.570722" gradientUnits="userSpaceOnUse">
<stop stop-color="#4AC0B4"/>
<stop offset="1" stop-color="#3BB1A5"/>
</linearGradient>
<linearGradient id="paint1_linear_686_29714" x1="4.34286" y1="3.44335e-06" x2="28.352" y2="0.570722" gradientUnits="userSpaceOnUse">
<stop stop-color="#4AC0B4"/>
<stop offset="1" stop-color="#3BB1A5"/>
</linearGradient>
<linearGradient id="paint2_linear_686_29714" x1="18.6114" y1="8" x2="19.4119" y2="8.01421" gradientUnits="userSpaceOnUse">
<stop stop-color="#4AC0B4"/>
<stop offset="1" stop-color="#3BB1A5"/>
</linearGradient>
<linearGradient id="paint3_linear_686_29714" x1="18.6114" y1="8" x2="19.4119" y2="8.01421" gradientUnits="userSpaceOnUse">
<stop stop-color="#4AC0B4"/>
<stop offset="1" stop-color="#3BB1A5"/>
</linearGradient>
<linearGradient id="paint4_linear_686_29714" x1="18.6114" y1="10" x2="19.412" y2="10.0115" gradientUnits="userSpaceOnUse">
<stop stop-color="#4AC0B4"/>
<stop offset="1" stop-color="#3BB1A5"/>
</linearGradient>
<linearGradient id="paint5_linear_686_29714" x1="18.6114" y1="10" x2="19.412" y2="10.0115" gradientUnits="userSpaceOnUse">
<stop stop-color="#4AC0B4"/>
<stop offset="1" stop-color="#3BB1A5"/>
</linearGradient>
<linearGradient id="paint6_linear_686_29714" x1="18.6114" y1="12.25" x2="19.4119" y2="12.2642" gradientUnits="userSpaceOnUse">
<stop stop-color="#4AC0B4"/>
<stop offset="1" stop-color="#3BB1A5"/>
</linearGradient>
<linearGradient id="paint7_linear_686_29714" x1="18.6114" y1="12.25" x2="19.4119" y2="12.2642" gradientUnits="userSpaceOnUse">
<stop stop-color="#4AC0B4"/>
<stop offset="1" stop-color="#3BB1A5"/>
</linearGradient>
<linearGradient id="paint8_linear_686_29714" x1="20.6114" y1="8" x2="21.4119" y2="8.01421" gradientUnits="userSpaceOnUse">
<stop stop-color="#4AC0B4"/>
<stop offset="1" stop-color="#3BB1A5"/>
</linearGradient>
<linearGradient id="paint9_linear_686_29714" x1="20.6114" y1="8" x2="21.4119" y2="8.01421" gradientUnits="userSpaceOnUse">
<stop stop-color="#4AC0B4"/>
<stop offset="1" stop-color="#3BB1A5"/>
</linearGradient>
<linearGradient id="paint10_linear_686_29714" x1="20.6114" y1="10" x2="21.412" y2="10.0115" gradientUnits="userSpaceOnUse">
<stop stop-color="#4AC0B4"/>
<stop offset="1" stop-color="#3BB1A5"/>
</linearGradient>
<linearGradient id="paint11_linear_686_29714" x1="20.6114" y1="10" x2="21.412" y2="10.0115" gradientUnits="userSpaceOnUse">
<stop stop-color="#4AC0B4"/>
<stop offset="1" stop-color="#3BB1A5"/>
</linearGradient>
<linearGradient id="paint12_linear_686_29714" x1="20.6114" y1="12.25" x2="21.4119" y2="12.2642" gradientUnits="userSpaceOnUse">
<stop stop-color="#4AC0B4"/>
<stop offset="1" stop-color="#3BB1A5"/>
</linearGradient>
<linearGradient id="paint13_linear_686_29714" x1="20.6114" y1="12.25" x2="21.4119" y2="12.2642" gradientUnits="userSpaceOnUse">
<stop stop-color="#4AC0B4"/>
<stop offset="1" stop-color="#3BB1A5"/>
</linearGradient>
<linearGradient id="paint14_linear_686_29714" x1="22.6114" y1="8" x2="23.4119" y2="8.01421" gradientUnits="userSpaceOnUse">
<stop stop-color="#4AC0B4"/>
<stop offset="1" stop-color="#3BB1A5"/>
</linearGradient>
<linearGradient id="paint15_linear_686_29714" x1="22.6114" y1="8" x2="23.4119" y2="8.01421" gradientUnits="userSpaceOnUse">
<stop stop-color="#4AC0B4"/>
<stop offset="1" stop-color="#3BB1A5"/>
</linearGradient>
<linearGradient id="paint16_linear_686_29714" x1="22.6114" y1="10" x2="23.412" y2="10.0115" gradientUnits="userSpaceOnUse">
<stop stop-color="#4AC0B4"/>
<stop offset="1" stop-color="#3BB1A5"/>
</linearGradient>
<linearGradient id="paint17_linear_686_29714" x1="22.6114" y1="10" x2="23.412" y2="10.0115" gradientUnits="userSpaceOnUse">
<stop stop-color="#4AC0B4"/>
<stop offset="1" stop-color="#3BB1A5"/>
</linearGradient>
<linearGradient id="paint18_linear_686_29714" x1="22.6114" y1="12.25" x2="23.4119" y2="12.2642" gradientUnits="userSpaceOnUse">
<stop stop-color="#4AC0B4"/>
<stop offset="1" stop-color="#3BB1A5"/>
</linearGradient>
<linearGradient id="paint19_linear_686_29714" x1="22.6114" y1="12.25" x2="23.4119" y2="12.2642" gradientUnits="userSpaceOnUse">
<stop stop-color="#4AC0B4"/>
<stop offset="1" stop-color="#3BB1A5"/>
</linearGradient>
</defs>
</svg>
