<svg width="17" height="16" viewBox="0 0 17 16" fill="none" xmlns="http://www.w3.org/2000/svg">
<g clip-path="url(#clip0_686_31205)">
<path d="M16.0752 6.0953L13.5152 3.95111V2.22273C13.5152 2.08987 13.4628 1.96244 13.3694 1.86849C13.2759 1.77454 13.1493 1.72176 13.0172 1.72176C12.8851 1.72176 12.7584 1.77454 12.665 1.86849C12.5716 1.96244 12.5191 2.08987 12.5191 2.22273V3.11448L9.24192 0.369114C8.97344 0.144174 8.63507 0.0209961 8.28566 0.0209961C7.93624 0.0209961 7.59788 0.144174 7.32939 0.369114L0.496085 6.0953C0.394374 6.18033 0.330412 6.30253 0.31827 6.435C0.306127 6.56747 0.346799 6.69937 0.431338 6.80168C0.515877 6.90399 0.637358 6.96832 0.769057 6.98054C0.900756 6.99275 1.03188 6.95184 1.1336 6.8668L7.9669 1.13812C8.0564 1.06314 8.16919 1.02208 8.28566 1.02208C8.40213 1.02208 8.51492 1.06314 8.60441 1.13812L14.2623 5.87988V14.4967C14.2623 14.6296 14.2098 14.757 14.1164 14.851C14.023 14.9449 13.8963 14.9977 13.7643 14.9977H11.274V9.48692C11.274 9.08832 11.1166 8.70604 10.8364 8.42419C10.5561 8.14233 10.1761 7.98399 9.77982 7.98399H6.79149C6.39522 7.98399 6.01517 8.14233 5.73496 8.42419C5.45475 8.70604 5.29733 9.08832 5.29733 9.48692V14.9977H2.80706C2.67497 14.9977 2.54828 14.9449 2.45488 14.851C2.36148 14.757 2.309 14.6296 2.309 14.4967V8.48496C2.309 8.3521 2.25653 8.22467 2.16313 8.13072C2.06972 8.03677 1.94304 7.98399 1.81095 7.98399C1.67886 7.98399 1.55217 8.03677 1.45877 8.13072C1.36537 8.22467 1.31289 8.3521 1.31289 8.48496V14.4967C1.31289 14.8953 1.47032 15.2776 1.75053 15.5594C2.03074 15.8413 2.41078 15.9996 2.80706 15.9996H13.7643C14.1605 15.9996 14.5406 15.8413 14.8208 15.5594C15.101 15.2776 15.2584 14.8953 15.2584 14.4967V6.71651L15.4377 6.8668C15.5273 6.94149 15.6401 6.98226 15.7565 6.98203C15.859 6.98223 15.9591 6.95058 16.0432 6.89141C16.1272 6.83223 16.191 6.74841 16.2258 6.6514C16.2607 6.55439 16.2649 6.44892 16.238 6.34938C16.211 6.24985 16.1542 6.16112 16.0752 6.0953ZM6.29344 14.9977V9.48692C6.29344 9.35405 6.34591 9.22663 6.43932 9.13268C6.53272 9.03872 6.6594 8.98594 6.79149 8.98594H9.77982C9.91191 8.98594 10.0386 9.03872 10.132 9.13268C10.2254 9.22663 10.2779 9.35405 10.2779 9.48692V14.9977H6.29344Z" fill="#777777"/>
<path d="M7.78687 12.4932C8.06194 12.4932 8.28493 12.2689 8.28493 11.9922C8.28493 11.7155 8.06194 11.4912 7.78687 11.4912C7.5118 11.4912 7.28882 11.7155 7.28882 11.9922C7.28882 12.2689 7.5118 12.4932 7.78687 12.4932Z" fill="#777777"/>
</g>
<defs>
<clipPath id="clip0_686_31205">
<rect width="16" height="16" fill="white" transform="translate(0.285645)"/>
</clipPath>
</defs>
</svg>
