<svg width="36" height="30" viewBox="0 0 36 30" fill="none" xmlns="http://www.w3.org/2000/svg">
<path d="M23.7908 16.0466C22.2462 13.637 19.6156 12.1982 16.7537 12.1982C13.8921 12.1982 11.2613 13.637 9.71693 16.0466L5.99505 21.8528C5.37753 22.8163 5.0926 23.929 5.1709 25.0706C5.2492 26.2124 5.68367 27.2756 6.42715 28.1459C7.17116 29.0158 8.15427 29.6103 9.27016 29.8654C10.386 30.1202 11.5299 30.0115 12.578 29.5509L12.6464 29.5205C15.2838 28.3837 18.2983 28.3939 20.9292 29.5509C21.6077 29.8492 22.3266 30 23.052 30C23.4464 30 23.8432 29.9552 24.2362 29.8657C25.3521 29.6108 26.3352 29.0164 27.0795 28.1464C27.8233 27.2764 28.258 26.2129 28.3366 25.0711C28.4151 23.929 28.1302 22.8163 27.5127 21.8526L23.7908 16.0466ZM25.5504 26.8385C24.6037 27.9453 23.0722 28.2951 21.7392 27.709C20.1548 27.0122 18.4541 26.6639 16.7529 26.6639C15.0533 26.6639 13.3529 27.0119 11.7696 27.708L11.7245 27.7279C10.4018 28.2873 8.89278 27.933 7.95655 26.8385C7.01089 25.7316 6.90326 24.1645 7.68891 22.9386L11.4111 17.1324C12.5838 15.3029 14.5809 14.2106 16.7537 14.2106C18.9266 14.2106 20.924 15.3029 22.0969 17.1324L25.8185 22.9383C26.6045 24.1647 26.4966 25.7321 25.5504 26.8385Z" fill="url(#paint0_linear_686_29674)"/>
<path d="M6.99774 16.0393C8.10498 15.614 8.94615 14.7217 9.36647 13.5268C9.76611 12.3897 9.73337 11.1059 9.27377 9.91175C8.8139 8.71834 7.97744 7.74414 6.91865 7.16826C5.80591 6.56357 4.5837 6.4651 3.47829 6.89119C1.25438 7.74624 0.233826 10.4944 1.20358 13.0187C1.97823 15.0279 3.78496 16.2962 5.61159 16.2962C6.07801 16.2962 6.54573 16.2134 6.99774 16.0393ZM3.08128 12.2959C2.50985 10.8084 3.01188 9.22614 4.20109 8.76889C4.41584 8.68613 4.64289 8.64502 4.87465 8.64502C5.23239 8.64502 5.6019 8.7427 5.95754 8.93623C6.59706 9.28375 7.10799 9.88713 7.39606 10.6348C7.68387 11.383 7.70954 12.1728 7.46808 12.8592C7.24679 13.4883 6.82333 13.9508 6.27599 14.1611L6.27494 14.1616C5.0873 14.6194 3.65454 13.7821 3.08128 12.2959Z" fill="url(#paint1_linear_686_29674)"/>
<path d="M14.2192 11.4901C16.9994 11.4901 19.2613 8.91319 19.2613 5.74571C19.2613 2.57745 16.9994 0 14.2192 0C11.4394 0 9.17773 2.57745 9.17773 5.74571C9.17773 8.91319 11.4394 11.4901 14.2192 11.4901ZM14.2192 2.01205C15.8898 2.01205 17.2492 3.68705 17.2492 5.74571C17.2492 7.80359 15.8898 9.47807 14.2192 9.47807C12.5487 9.47807 11.1898 7.80359 11.1898 5.74571C11.1898 3.68705 12.5487 2.01205 14.2192 2.01205Z" fill="url(#paint2_linear_686_29674)"/>
<path d="M22.9268 12.9019H22.927C23.3547 13.0439 23.791 13.1117 24.2254 13.1117C26.2529 13.1117 28.2288 11.636 28.9828 9.36807C29.417 8.06258 29.3885 6.6822 28.9024 5.48146C28.3938 4.22469 27.4513 3.31228 26.2482 2.91213C25.0451 2.51249 23.7433 2.67905 22.5834 3.38142C21.4754 4.05263 20.6264 5.14101 20.193 6.4465C19.2777 9.20046 20.5041 12.0964 22.9268 12.9019ZM22.1024 7.08104C22.3854 6.22861 22.9265 5.52624 23.626 5.10252C24.2731 4.71048 24.9791 4.6107 25.6137 4.82152C26.248 5.03259 26.7534 5.53489 27.0373 6.23621C27.3439 6.9941 27.357 7.88083 27.0734 8.73326C26.508 10.4345 24.9325 11.4479 23.5616 10.9925C22.1917 10.5369 21.5369 8.78223 22.1024 7.08104Z" fill="url(#paint3_linear_686_29674)"/>
<path d="M33.5458 12.231L33.545 12.2302C31.6277 10.8139 28.7604 11.4278 27.1527 13.5993C25.5465 15.7719 25.7977 18.6927 27.7121 20.11C28.4102 20.6272 29.2352 20.8744 30.0795 20.8744C31.551 20.8744 33.082 20.1233 34.1051 18.7422C35.7113 16.5696 35.4604 13.6488 33.5458 12.231ZM32.488 17.5451C31.5387 18.8265 29.9336 19.2515 28.9094 18.4928C27.886 17.7352 27.8236 16.0764 28.7703 14.7958C29.3996 13.9458 30.3188 13.4728 31.166 13.4728C31.5945 13.4728 32.0046 13.5938 32.3492 13.8486C33.3719 14.607 33.4339 16.2653 32.488 17.5451Z" fill="url(#paint4_linear_686_29674)"/>
<defs>
<linearGradient id="paint0_linear_686_29674" x1="7.74236" y1="12.1982" x2="26.2973" y2="12.7345" gradientUnits="userSpaceOnUse">
<stop stop-color="#4AC0B4"/>
<stop offset="1" stop-color="#3BB1A5"/>
</linearGradient>
<linearGradient id="paint1_linear_686_29674" x1="1.81828" y1="6.63037" x2="8.86778" y2="6.77288" gradientUnits="userSpaceOnUse">
<stop stop-color="#4AC0B4"/>
<stop offset="1" stop-color="#3BB1A5"/>
</linearGradient>
<linearGradient id="paint2_linear_686_29674" x1="10.3013" y1="1.41302e-06" x2="18.3727" y2="0.157153" gradientUnits="userSpaceOnUse">
<stop stop-color="#4AC0B4"/>
<stop offset="1" stop-color="#3BB1A5"/>
</linearGradient>
<linearGradient id="paint3_linear_686_29674" x1="20.937" y1="2.69922" x2="28.4605" y2="2.8499" gradientUnits="userSpaceOnUse">
<stop stop-color="#4AC0B4"/>
<stop offset="1" stop-color="#3BB1A5"/>
</linearGradient>
<linearGradient id="paint4_linear_686_29674" x1="27.1052" y1="11.4678" x2="34.3635" y2="11.623" gradientUnits="userSpaceOnUse">
<stop stop-color="#4AC0B4"/>
<stop offset="1" stop-color="#3BB1A5"/>
</linearGradient>
</defs>
</svg>
