<svg xmlns="http://www.w3.org/2000/svg" width="30" height="30" fill="none" viewBox="0 0 30 30">
  <g clip-path="url(#a)">
    <mask id="b" width="30" height="30" x="-.063" y="-.063" fill="#000" maskUnits="userSpaceOnUse">
      <path fill="#fff" d="M-.063-.063h30v30h-30z"/>
      <path d="M7.969 16.875H5.625v-2.813h.938v1.407a.469.469 0 0 0 .937 0v-1.406h.469a.47.47 0 0 0 .439-.634L7 9.679a.469.469 0 0 0-.439-.304H3.75a.47.47 0 0 0-.439.304l-1.406 3.75a.468.468 0 0 0 .439.633h2.344v2.813H2.344a1.408 1.408 0 0 0-1.406 1.406v9.375a1.408 1.408 0 0 0 1.406 1.407h5.625a1.408 1.408 0 0 0 1.406-1.407v-9.375a1.408 1.408 0 0 0-1.406-1.406Zm-3.894-6.563h2.162l1.055 2.813H3.02l1.055-2.813Zm-1.731 7.5h5.625a.47.47 0 0 1 .468.47V22.5H1.875v-4.219a.47.47 0 0 1 .469-.468Zm5.625 10.313H2.344a.47.47 0 0 1-.469-.469v-4.218h6.563v4.218a.47.47 0 0 1-.47.469ZM3.75 20.156a.469.469 0 0 1 .469-.468h1.875a.469.469 0 0 1 0 .937H4.219a.47.47 0 0 1-.469-.469Zm2.813 5.625a.469.469 0 0 1-.47.469H4.22a.469.469 0 0 1 0-.938h1.875a.47.47 0 0 1 .468.47Zm21.562-5.156v-.469a2.334 2.334 0 0 0-.938-1.863v-6.105a.939.939 0 0 0-.937-.938h-.938a.939.939 0 0 0-.937.938v.117a10.33 10.33 0 0 0-4.688-1.055A10.33 10.33 0 0 0 15 12.305v-.117a.939.939 0 0 0-.938-.938h-.937a.939.939 0 0 0-.938.938v6.105a2.335 2.335 0 0 0-.937 1.863v.469a.939.939 0 0 0-.938.938v7.03a.47.47 0 0 0 .47.47h1.874a.47.47 0 0 0 .469-.47v-1.405H26.25v1.406a.47.47 0 0 0 .469.468h1.875a.47.47 0 0 0 .468-.468v-7.032a.939.939 0 0 0-.937-.937Zm-1.875-8.438v5.673a2.343 2.343 0 0 0-.469-.047h-.468v-5.625h.937Zm-6.563 0a9.134 9.134 0 0 1 4.688 1.19v4.435h-1.406v-1.406A1.408 1.408 0 0 0 21.562 15h-3.75a1.408 1.408 0 0 0-1.406 1.406v1.407H15v-4.435a9.134 9.134 0 0 1 4.688-1.19Zm2.344 5.626h-4.687v-1.407a.469.469 0 0 1 .468-.468h3.75a.47.47 0 0 1 .47.468v1.407Zm-8.906-5.625h.938v5.624h-.47c-.157 0-.314.016-.468.048v-5.672Zm-.938 15.937h-.937v-6.563h.938v6.563Zm0-7.5v-.469a1.408 1.408 0 0 1 1.407-1.406H25.78a1.408 1.408 0 0 1 1.407 1.406v.469a.939.939 0 0 0-.938.938v.937H13.125v-.938a.939.939 0 0 0-.938-.937Zm.938 5.625v-2.813H26.25v2.813H13.125Zm15 1.875h-.938v-6.563h.938v6.563ZM14.531 9.375h10.313a.469.469 0 0 0 .468-.469v-7.5a.47.47 0 0 0-.468-.468H14.53a.469.469 0 0 0-.469.468v7.5a.47.47 0 0 0 .47.469Zm.469-4.2a8.901 8.901 0 0 1 6.08 3.263H15V5.175Zm7.269 3.263a11.249 11.249 0 0 0-.674-.845 5.62 5.62 0 0 1 2.78-1.008v1.853h-2.106Zm2.106-6.563v3.768a6.555 6.555 0 0 0-3.443 1.265A9.452 9.452 0 0 0 15 4.235v-2.36h9.375ZM19.687 3.75a1.408 1.408 0 0 1 .83-1.28.469.469 0 1 1 .385.854.467.467 0 1 0 .617.618.47.47 0 1 1 .856.385 1.405 1.405 0 0 1-2.688-.577Z"/>
    </mask>
    <path fill="#4AC0B4" d="M7.969 16.875H5.625v-2.813h.938v1.407a.469.469 0 0 0 .937 0v-1.406h.469a.47.47 0 0 0 .439-.634L7 9.679a.469.469 0 0 0-.439-.304H3.75a.47.47 0 0 0-.439.304l-1.406 3.75a.468.468 0 0 0 .439.633h2.344v2.813H2.344a1.408 1.408 0 0 0-1.406 1.406v9.375a1.408 1.408 0 0 0 1.406 1.407h5.625a1.408 1.408 0 0 0 1.406-1.407v-9.375a1.408 1.408 0 0 0-1.406-1.406Zm-3.894-6.563h2.162l1.055 2.813H3.02l1.055-2.813Zm-1.731 7.5h5.625a.47.47 0 0 1 .468.47V22.5H1.875v-4.219a.47.47 0 0 1 .469-.468Zm5.625 10.313H2.344a.47.47 0 0 1-.469-.469v-4.218h6.563v4.218a.47.47 0 0 1-.47.469ZM3.75 20.156a.469.469 0 0 1 .469-.468h1.875a.469.469 0 0 1 0 .937H4.219a.47.47 0 0 1-.469-.469Zm2.813 5.625a.469.469 0 0 1-.47.469H4.22a.469.469 0 0 1 0-.938h1.875a.47.47 0 0 1 .468.47Zm21.562-5.156v-.469a2.334 2.334 0 0 0-.938-1.863v-6.105a.939.939 0 0 0-.937-.938h-.938a.939.939 0 0 0-.937.938v.117a10.33 10.33 0 0 0-4.688-1.055A10.33 10.33 0 0 0 15 12.305v-.117a.939.939 0 0 0-.938-.938h-.937a.939.939 0 0 0-.938.938v6.105a2.335 2.335 0 0 0-.937 1.863v.469a.939.939 0 0 0-.938.938v7.03a.47.47 0 0 0 .47.47h1.874a.47.47 0 0 0 .469-.47v-1.405H26.25v1.406a.47.47 0 0 0 .469.468h1.875a.47.47 0 0 0 .468-.468v-7.032a.939.939 0 0 0-.937-.937Zm-1.875-8.438v5.673a2.343 2.343 0 0 0-.469-.047h-.468v-5.625h.937Zm-6.563 0a9.134 9.134 0 0 1 4.688 1.19v4.435h-1.406v-1.406A1.408 1.408 0 0 0 21.562 15h-3.75a1.408 1.408 0 0 0-1.406 1.406v1.407H15v-4.435a9.134 9.134 0 0 1 4.688-1.19Zm2.344 5.626h-4.687v-1.407a.469.469 0 0 1 .468-.468h3.75a.47.47 0 0 1 .47.468v1.407Zm-8.906-5.625h.938v5.624h-.47c-.157 0-.314.016-.468.048v-5.672Zm-.938 15.937h-.937v-6.563h.938v6.563Zm0-7.5v-.469a1.408 1.408 0 0 1 1.407-1.406H25.78a1.408 1.408 0 0 1 1.407 1.406v.469a.939.939 0 0 0-.938.938v.937H13.125v-.938a.939.939 0 0 0-.938-.937Zm.938 5.625v-2.813H26.25v2.813H13.125Zm15 1.875h-.938v-6.563h.938v6.563ZM14.531 9.375h10.313a.469.469 0 0 0 .468-.469v-7.5a.47.47 0 0 0-.468-.468H14.53a.469.469 0 0 0-.469.468v7.5a.47.47 0 0 0 .47.469Zm.469-4.2a8.901 8.901 0 0 1 6.08 3.263H15V5.175Zm7.269 3.263a11.249 11.249 0 0 0-.674-.845 5.62 5.62 0 0 1 2.78-1.008v1.853h-2.106Zm2.106-6.563v3.768a6.555 6.555 0 0 0-3.443 1.265A9.452 9.452 0 0 0 15 4.235v-2.36h9.375ZM19.687 3.75a1.408 1.408 0 0 1 .83-1.28.469.469 0 1 1 .385.854.467.467 0 1 0 .617.618.47.47 0 1 1 .856.385 1.405 1.405 0 0 1-2.688-.577Z"/>
    <path stroke="#4AC0B4" stroke-width=".5" d="M7.969 16.875H5.625v-2.813h.938v1.407a.469.469 0 0 0 .937 0v-1.406h.469a.47.47 0 0 0 .439-.634L7 9.679a.469.469 0 0 0-.439-.304H3.75a.47.47 0 0 0-.439.304l-1.406 3.75a.468.468 0 0 0 .439.633h2.344v2.813H2.344a1.408 1.408 0 0 0-1.406 1.406v9.375a1.408 1.408 0 0 0 1.406 1.407h5.625a1.408 1.408 0 0 0 1.406-1.407v-9.375a1.408 1.408 0 0 0-1.406-1.406Zm-3.894-6.563h2.162l1.055 2.813H3.02l1.055-2.813Zm-1.731 7.5h5.625a.47.47 0 0 1 .468.47V22.5H1.875v-4.219a.47.47 0 0 1 .469-.468Zm5.625 10.313H2.344a.47.47 0 0 1-.469-.469v-4.218h6.563v4.218a.47.47 0 0 1-.47.469ZM3.75 20.156a.469.469 0 0 1 .469-.468h1.875a.469.469 0 0 1 0 .937H4.219a.47.47 0 0 1-.469-.469Zm2.813 5.625a.469.469 0 0 1-.47.469H4.22a.469.469 0 0 1 0-.938h1.875a.47.47 0 0 1 .468.47Zm21.562-5.156v-.469a2.334 2.334 0 0 0-.938-1.863v-6.105a.939.939 0 0 0-.937-.938h-.938a.939.939 0 0 0-.937.938v.117a10.33 10.33 0 0 0-4.688-1.055A10.33 10.33 0 0 0 15 12.305v-.117a.939.939 0 0 0-.938-.938h-.937a.939.939 0 0 0-.938.938v6.105a2.335 2.335 0 0 0-.937 1.863v.469a.939.939 0 0 0-.938.938v7.03a.47.47 0 0 0 .47.47h1.874a.47.47 0 0 0 .469-.47v-1.405H26.25v1.406a.47.47 0 0 0 .469.468h1.875a.47.47 0 0 0 .468-.468v-7.032a.939.939 0 0 0-.937-.937Zm-1.875-8.438v5.673a2.343 2.343 0 0 0-.469-.047h-.468v-5.625h.937Zm-6.563 0a9.134 9.134 0 0 1 4.688 1.19v4.435h-1.406v-1.406A1.408 1.408 0 0 0 21.562 15h-3.75a1.408 1.408 0 0 0-1.406 1.406v1.407H15v-4.435a9.134 9.134 0 0 1 4.688-1.19Zm2.344 5.626h-4.687v-1.407a.469.469 0 0 1 .468-.468h3.75a.47.47 0 0 1 .47.468v1.407Zm-8.906-5.625h.938v5.624h-.47c-.157 0-.314.016-.468.048v-5.672Zm-.938 15.937h-.937v-6.563h.938v6.563Zm0-7.5v-.469a1.408 1.408 0 0 1 1.407-1.406H25.78a1.408 1.408 0 0 1 1.407 1.406v.469a.939.939 0 0 0-.938.938v.937H13.125v-.938a.939.939 0 0 0-.938-.937Zm.938 5.625v-2.813H26.25v2.813H13.125Zm15 1.875h-.938v-6.563h.938v6.563ZM14.531 9.375h10.313a.469.469 0 0 0 .468-.469v-7.5a.47.47 0 0 0-.468-.468H14.53a.469.469 0 0 0-.469.468v7.5a.47.47 0 0 0 .47.469Zm.469-4.2a8.901 8.901 0 0 1 6.08 3.263H15V5.175Zm7.269 3.263a11.249 11.249 0 0 0-.674-.845 5.62 5.62 0 0 1 2.78-1.008v1.853h-2.106Zm2.106-6.563v3.768a6.555 6.555 0 0 0-3.443 1.265A9.452 9.452 0 0 0 15 4.235v-2.36h9.375ZM19.687 3.75a1.408 1.408 0 0 1 .83-1.28.469.469 0 1 1 .385.854.467.467 0 1 0 .617.618.47.47 0 1 1 .856.385 1.405 1.405 0 0 1-2.688-.577Z" mask="url(#b)"/>
  </g>
  <defs>
    <clipPath id="a">
      <path fill="#fff" d="M0 0h30v30H0z"/>
    </clipPath>
  </defs>
</svg>
