<svg xmlns="http://www.w3.org/2000/svg" width="31" height="30" fill="none" viewBox="0 0 31 30">
  <g clip-path="url(#a)">
    <mask id="b" width="30" height="32" x=".489" y="-1" fill="#000" maskUnits="userSpaceOnUse">
      <path fill="#fff" d="M.489-1h30v32h-30z"/>
      <path d="M23.209 22.168a.44.44 0 0 0 .401.782c1.796-.922 2.702-2.035 2.691-3.308-.012-1.468-.971-2.59-2.932-3.43-1.59-.682-3.608-1.08-5.388-1.433-.366-.072-.711-.14-1.047-.21a.44.44 0 0 0-.177.861c.339.07.686.139 1.053.212 3.382.668 7.591 1.5 7.612 4.007.008.914-.737 1.76-2.213 2.519Z"/>
      <path d="M28.538 16.343v-5.409a1.34 1.34 0 0 0 .898-1.263V6.356a1.34 1.34 0 0 0-.898-1.263V4.75a.44.44 0 1 0-.879 0v.343a1.34 1.34 0 0 0-.898 1.263v.9c-1.119.46-2.085 1.334-2.784 2.49V6.624a1.34 1.34 0 0 0 .898-1.263V2.045a1.34 1.34 0 0 0-.898-1.263V.44a.44.44 0 0 0-.88 0v.343a1.34 1.34 0 0 0-.897 1.263v.592a.44.44 0 1 0 .879 0v-.592a.46.46 0 0 1 .917 0v3.316a.46.46 0 0 1-.917 0v-.673a.44.44 0 0 0-.88 0v.673c0 .583.377 1.08.899 1.263v3.522c-.907-1.296-2.174-2.184-3.608-2.404a.61.61 0 0 0-.65.346.613.613 0 0 0 .151.725c1.141 1.008 1.888 2.552 2.095 4.297-.878-.206-1.755-.39-2.595-.568-.747-.157-1.453-.306-2.127-.461-2.744-.633-3.223-1.4-3.265-1.8-.097-.943 1.761-2.442 4.736-3.818a.554.554 0 0 0 .302-.657.554.554 0 0 0-.603-.4c-1.683.204-5.998.807-9.687 1.978a.44.44 0 0 0 .266.838c2.624-.833 5.58-1.374 7.64-1.685-.505.282-1.022.598-1.5.939-1.46 1.039-2.122 1.986-2.028 2.896.118 1.142 1.408 1.98 3.941 2.565.683.158 1.392.307 2.143.465 2.492.525 5.317 1.12 7.433 2.125 1.117.53 1.938 1.12 2.51 1.802.63.75.939 1.595.946 2.583.012 1.562-1.031 2.993-3.099 4.254-1.782 1.085-4.315 2.043-7.53 2.845-4.014 1.002-8.256 1.563-11.219 1.863 1.37-.522 3.007-1.204 4.577-2.005 3.745-1.91 5.816-3.826 6.155-5.697a.44.44 0 1 0-.864-.157c-.284 1.564-2.252 3.317-5.69 5.071-.477.243-.96.475-1.439.694v-.11c0-2.342.983-4.493 2.566-5.613a.44.44 0 0 0-.26-.798c-1.804.022-3.462 1.11-4.52 2.854v-3.127a1.34 1.34 0 0 0 .898-1.263v-1.822c.382.052.767.103 1.143.151 2.868.373 5.833.758 6.906 2.248a.44.44 0 1 0 .713-.514c-1.295-1.798-4.312-2.19-7.506-2.605-.414-.054-.838-.11-1.256-.167v-.606a1.34 1.34 0 0 0-.898-1.263v-.343a.44.44 0 0 0-.879 0v.343a1.34 1.34 0 0 0-.898 1.263v.124c-2.261-.555-3.405-1.405-3.684-2.72-.302-1.424.978-2.738 3.804-3.906a.44.44 0 0 0-.336-.813c-3.274 1.354-4.73 3.003-4.328 4.902.462 2.177 2.607 2.998 4.544 3.441v2.287c0 .584.376 1.08.898 1.263v3.515a6.7 6.7 0 0 0-.233-.317C5.69 21.826 4.26 21.068 2.737 21.05a.44.44 0 0 0-.26.798c1.584 1.12 2.567 3.27 2.567 5.612v1.31c-.274.094-.51.171-.698.232A.512.512 0 0 0 4.54 30c2.38-.168 8.533-.71 14.243-2.135 7.52-1.877 11.32-4.555 11.295-7.959-.01-1.386-.518-2.566-1.54-3.562Zm-6.547-3.012c-.142-1.716-.755-3.286-1.73-4.465 1.695.706 2.985 2.593 3.314 4.906a34.3 34.3 0 0 0-1.584-.44Zm3.321-.023v1.073a18.18 18.18 0 0 0-.816-.307 8.674 8.674 0 0 0-.497-2.197c.492-1.68 1.497-3 2.762-3.654v.268c-.935 1.328-1.449 3.032-1.449 4.817Zm2.347 2.31a10.36 10.36 0 0 0-1.468-.85v-1.46c0-1.13.227-2.22.651-3.178.137.375.439.672.817.804v4.685Zm.44-5.488a.46.46 0 0 1-.46-.459V6.356a.46.46 0 0 1 .918 0V9.67a.46.46 0 0 1-.458.459ZM10.973 21.44c-1.11 1.35-1.763 3.233-1.763 5.229v.501a49.48 49.48 0 0 1-.808.341 8.736 8.736 0 0 0-.504-2.278c.539-1.83 1.689-3.21 3.075-3.793Zm-3.996-2.718v-3.315a.46.46 0 0 1 .917 0v3.315a.46.46 0 0 1-.917 0Zm-2.821 3.503c.71.296 1.366.805 1.917 1.502.872 1.105 1.39 2.561 1.473 4.128-.588.23-1.137.434-1.624.608V27.46c0-1.999-.653-3.883-1.766-5.234Z"/>
    </mask>
    <path fill="#4AC0B4" d="M23.209 22.168a.44.44 0 0 0 .401.782c1.796-.922 2.702-2.035 2.691-3.308-.012-1.468-.971-2.59-2.932-3.43-1.59-.682-3.608-1.08-5.388-1.433-.366-.072-.711-.14-1.047-.21a.44.44 0 0 0-.177.861c.339.07.686.139 1.053.212 3.382.668 7.591 1.5 7.612 4.007.008.914-.737 1.76-2.213 2.519Z"/>
    <path fill="#4AC0B4" d="M28.538 16.343v-5.409a1.34 1.34 0 0 0 .898-1.263V6.356a1.34 1.34 0 0 0-.898-1.263V4.75a.44.44 0 1 0-.879 0v.343a1.34 1.34 0 0 0-.898 1.263v.9c-1.119.46-2.085 1.334-2.784 2.49V6.624a1.34 1.34 0 0 0 .898-1.263V2.045a1.34 1.34 0 0 0-.898-1.263V.44a.44.44 0 0 0-.88 0v.343a1.34 1.34 0 0 0-.897 1.263v.592a.44.44 0 1 0 .879 0v-.592a.46.46 0 0 1 .917 0v3.316a.46.46 0 0 1-.917 0v-.673a.44.44 0 0 0-.88 0v.673c0 .583.377 1.08.899 1.263v3.522c-.907-1.296-2.174-2.184-3.608-2.404a.61.61 0 0 0-.65.346.613.613 0 0 0 .151.725c1.141 1.008 1.888 2.552 2.095 4.297-.878-.206-1.755-.39-2.595-.568-.747-.157-1.453-.306-2.127-.461-2.744-.633-3.223-1.4-3.265-1.8-.097-.943 1.761-2.442 4.736-3.818a.554.554 0 0 0 .302-.657.554.554 0 0 0-.603-.4c-1.683.204-5.998.807-9.687 1.978a.44.44 0 0 0 .266.838c2.624-.833 5.58-1.374 7.64-1.685-.505.282-1.022.598-1.5.939-1.46 1.039-2.122 1.986-2.028 2.896.118 1.142 1.408 1.98 3.941 2.565.683.158 1.392.307 2.143.465 2.492.525 5.317 1.12 7.433 2.125 1.117.53 1.938 1.12 2.51 1.802.63.75.939 1.595.946 2.583.012 1.562-1.031 2.993-3.099 4.254-1.782 1.085-4.315 2.043-7.53 2.845-4.014 1.002-8.256 1.563-11.219 1.863 1.37-.522 3.007-1.204 4.577-2.005 3.745-1.91 5.816-3.826 6.155-5.697a.44.44 0 1 0-.864-.157c-.284 1.564-2.252 3.317-5.69 5.071-.477.243-.96.475-1.439.694v-.11c0-2.342.983-4.493 2.566-5.613a.44.44 0 0 0-.26-.798c-1.804.022-3.462 1.11-4.52 2.854v-3.127a1.34 1.34 0 0 0 .898-1.263v-1.822c.382.052.767.103 1.143.151 2.868.373 5.833.758 6.906 2.248a.44.44 0 1 0 .713-.514c-1.295-1.798-4.312-2.19-7.506-2.605-.414-.054-.838-.11-1.256-.167v-.606a1.34 1.34 0 0 0-.898-1.263v-.343a.44.44 0 0 0-.879 0v.343a1.34 1.34 0 0 0-.898 1.263v.124c-2.261-.555-3.405-1.405-3.684-2.72-.302-1.424.978-2.738 3.804-3.906a.44.44 0 0 0-.336-.813c-3.274 1.354-4.73 3.003-4.328 4.902.462 2.177 2.607 2.998 4.544 3.441v2.287c0 .584.376 1.08.898 1.263v3.515a6.7 6.7 0 0 0-.233-.317C5.69 21.826 4.26 21.068 2.737 21.05a.44.44 0 0 0-.26.798c1.584 1.12 2.567 3.27 2.567 5.612v1.31c-.274.094-.51.171-.698.232A.512.512 0 0 0 4.54 30c2.38-.168 8.533-.71 14.243-2.135 7.52-1.877 11.32-4.555 11.295-7.959-.01-1.386-.518-2.566-1.54-3.562Zm-6.547-3.012c-.142-1.716-.755-3.286-1.73-4.465 1.695.706 2.985 2.593 3.314 4.906a34.3 34.3 0 0 0-1.584-.44Zm3.321-.023v1.073a18.18 18.18 0 0 0-.816-.307 8.674 8.674 0 0 0-.497-2.197c.492-1.68 1.497-3 2.762-3.654v.268c-.935 1.328-1.449 3.032-1.449 4.817Zm2.347 2.31a10.36 10.36 0 0 0-1.468-.85v-1.46c0-1.13.227-2.22.651-3.178.137.375.439.672.817.804v4.685Zm.44-5.488a.46.46 0 0 1-.46-.459V6.356a.46.46 0 0 1 .918 0V9.67a.46.46 0 0 1-.458.459ZM10.973 21.44c-1.11 1.35-1.763 3.233-1.763 5.229v.501a49.48 49.48 0 0 1-.808.341 8.736 8.736 0 0 0-.504-2.278c.539-1.83 1.689-3.21 3.075-3.793Zm-3.996-2.718v-3.315a.46.46 0 0 1 .917 0v3.315a.46.46 0 0 1-.917 0Zm-2.821 3.503c.71.296 1.366.805 1.917 1.502.872 1.105 1.39 2.561 1.473 4.128-.588.23-1.137.434-1.624.608V27.46c0-1.999-.653-3.883-1.766-5.234Z"/>
    <path stroke="#4AC0B4" stroke-width=".5" d="M23.209 22.168a.44.44 0 0 0 .401.782c1.796-.922 2.702-2.035 2.691-3.308-.012-1.468-.971-2.59-2.932-3.43-1.59-.682-3.608-1.08-5.388-1.433-.366-.072-.711-.14-1.047-.21a.44.44 0 0 0-.177.861c.339.07.686.139 1.053.212 3.382.668 7.591 1.5 7.612 4.007.008.914-.737 1.76-2.213 2.519Z" mask="url(#b)"/>
    <path stroke="#4AC0B4" stroke-width=".5" d="M28.538 16.343v-5.409a1.34 1.34 0 0 0 .898-1.263V6.356a1.34 1.34 0 0 0-.898-1.263V4.75a.44.44 0 1 0-.879 0v.343a1.34 1.34 0 0 0-.898 1.263v.9c-1.119.46-2.085 1.334-2.784 2.49V6.624a1.34 1.34 0 0 0 .898-1.263V2.045a1.34 1.34 0 0 0-.898-1.263V.44a.44.44 0 0 0-.88 0v.343a1.34 1.34 0 0 0-.897 1.263v.592a.44.44 0 1 0 .879 0v-.592a.46.46 0 0 1 .917 0v3.316a.46.46 0 0 1-.917 0v-.673a.44.44 0 0 0-.88 0v.673c0 .583.377 1.08.899 1.263v3.522c-.907-1.296-2.174-2.184-3.608-2.404a.61.61 0 0 0-.65.346.613.613 0 0 0 .151.725c1.141 1.008 1.888 2.552 2.095 4.297-.878-.206-1.755-.39-2.595-.568-.747-.157-1.453-.306-2.127-.461-2.744-.633-3.223-1.4-3.265-1.8-.097-.943 1.761-2.442 4.736-3.818a.554.554 0 0 0 .302-.657.554.554 0 0 0-.603-.4c-1.683.204-5.998.807-9.687 1.978a.44.44 0 0 0 .266.838c2.624-.833 5.58-1.374 7.64-1.685-.505.282-1.022.598-1.5.939-1.46 1.039-2.122 1.986-2.028 2.896.118 1.142 1.408 1.98 3.941 2.565.683.158 1.392.307 2.143.465 2.492.525 5.317 1.12 7.433 2.125 1.117.53 1.938 1.12 2.51 1.802.63.75.939 1.595.946 2.583.012 1.562-1.031 2.993-3.099 4.254-1.782 1.085-4.315 2.043-7.53 2.845-4.014 1.002-8.256 1.563-11.219 1.863 1.37-.522 3.007-1.204 4.577-2.005 3.745-1.91 5.816-3.826 6.155-5.697a.44.44 0 1 0-.864-.157c-.284 1.564-2.252 3.317-5.69 5.071-.477.243-.96.475-1.439.694v-.11c0-2.342.983-4.493 2.566-5.613a.44.44 0 0 0-.26-.798c-1.804.022-3.462 1.11-4.52 2.854v-3.127a1.34 1.34 0 0 0 .898-1.263v-1.822c.382.052.767.103 1.143.151 2.868.373 5.833.758 6.906 2.248a.44.44 0 1 0 .713-.514c-1.295-1.798-4.312-2.19-7.506-2.605-.414-.054-.838-.11-1.256-.167v-.606a1.34 1.34 0 0 0-.898-1.263v-.343a.44.44 0 0 0-.879 0v.343a1.34 1.34 0 0 0-.898 1.263v.124c-2.261-.555-3.405-1.405-3.684-2.72-.302-1.424.978-2.738 3.804-3.906a.44.44 0 0 0-.336-.813c-3.274 1.354-4.73 3.003-4.328 4.902.462 2.177 2.607 2.998 4.544 3.441v2.287c0 .584.376 1.08.898 1.263v3.515a6.7 6.7 0 0 0-.233-.317C5.69 21.826 4.26 21.068 2.737 21.05a.44.44 0 0 0-.26.798c1.584 1.12 2.567 3.27 2.567 5.612v1.31c-.274.094-.51.171-.698.232A.512.512 0 0 0 4.54 30c2.38-.168 8.533-.71 14.243-2.135 7.52-1.877 11.32-4.555 11.295-7.959-.01-1.386-.518-2.566-1.54-3.562Zm-6.547-3.012c-.142-1.716-.755-3.286-1.73-4.465 1.695.706 2.985 2.593 3.314 4.906a34.3 34.3 0 0 0-1.584-.44Zm3.321-.023v1.073a18.18 18.18 0 0 0-.816-.307 8.674 8.674 0 0 0-.497-2.197c.492-1.68 1.497-3 2.762-3.654v.268c-.935 1.328-1.449 3.032-1.449 4.817Zm2.347 2.31a10.36 10.36 0 0 0-1.468-.85v-1.46c0-1.13.227-2.22.651-3.178.137.375.439.672.817.804v4.685Zm.44-5.488a.46.46 0 0 1-.46-.459V6.356a.46.46 0 0 1 .918 0V9.67a.46.46 0 0 1-.458.459ZM10.973 21.44c-1.11 1.35-1.763 3.233-1.763 5.229v.501a49.48 49.48 0 0 1-.808.341 8.736 8.736 0 0 0-.504-2.278c.539-1.83 1.689-3.21 3.075-3.793Zm-3.996-2.718v-3.315a.46.46 0 0 1 .917 0v3.315a.46.46 0 0 1-.917 0Zm-2.821 3.503c.71.296 1.366.805 1.917 1.502.872 1.105 1.39 2.561 1.473 4.128-.588.23-1.137.434-1.624.608V27.46c0-1.999-.653-3.883-1.766-5.234Z" mask="url(#b)"/>
  </g>
  <defs>
    <clipPath id="a">
      <path fill="#fff" d="M.783 0h30v30h-30z"/>
    </clipPath>
  </defs>
</svg>
