<svg width="21" height="20" viewBox="0 0 21 20" fill="none" xmlns="http://www.w3.org/2000/svg">
<g clip-path="url(#clip0_860_27798)">
<path d="M10.6065 19.1809C10.3252 19.1809 10.054 19.079 9.84259 18.8939C9.04428 18.1958 8.27461 17.5398 7.59555 16.9612L7.59209 16.9581C5.6012 15.2616 3.882 13.7964 2.68581 12.3531C1.34865 10.7396 0.72583 9.20975 0.72583 7.53849C0.72583 5.91473 1.28261 4.4167 2.29351 3.32017C3.31647 2.21067 4.72011 1.59961 6.24633 1.59961C7.38704 1.59961 8.43171 1.96025 9.35124 2.67142C9.8153 3.03039 10.2359 3.46973 10.6065 3.98219C10.9773 3.46973 11.3978 3.03039 11.862 2.67142C12.7815 1.96025 13.8262 1.59961 14.9669 1.59961C16.4929 1.59961 17.8967 2.21067 18.9197 3.32017C19.9306 4.4167 20.4872 5.91473 20.4872 7.53849C20.4872 9.20975 19.8646 10.7396 18.5274 12.353C17.3312 13.7964 15.6122 15.2614 13.6216 16.9578C12.9413 17.5374 12.1704 18.1944 11.3703 18.8942C11.1591 19.079 10.8877 19.1809 10.6065 19.1809ZM6.24633 2.7572C5.04728 2.7572 3.94577 3.23574 3.14444 4.10476C2.3312 4.9869 1.88327 6.20631 1.88327 7.53849C1.88327 8.9441 2.40568 10.2012 3.57699 11.6145C4.70911 12.9806 6.39303 14.4156 8.34276 16.0772L8.34638 16.0802C9.028 16.6611 9.80068 17.3197 10.6049 18.0229C11.4139 17.3183 12.1878 16.6587 12.8708 16.0769C14.8203 14.4153 16.5041 12.9806 17.6362 11.6145C18.8074 10.2012 19.3298 8.9441 19.3298 7.53849C19.3298 6.20631 18.8819 4.9869 18.0686 4.10476C17.2674 3.23574 16.1658 2.7572 14.9669 2.7572C14.0885 2.7572 13.2821 3.03642 12.57 3.58703C11.9354 4.07793 11.4933 4.69849 11.2342 5.1327C11.1009 5.35598 10.8663 5.48926 10.6065 5.48926C10.3468 5.48926 10.1122 5.35598 9.97889 5.1327C9.71987 4.69849 9.27782 4.07793 8.64309 3.58703C7.93101 3.03642 7.12455 2.7572 6.24633 2.7572Z" fill="#4AC0B4" stroke="#4AC0B4" stroke-width="0.25"/>
</g>
<defs>
<clipPath id="clip0_860_27798">
<rect width="20" height="20" fill="white" transform="translate(0.72583)"/>
</clipPath>
</defs>
</svg>
