<svg width="31" height="28" viewBox="0 0 31 28" fill="none" xmlns="http://www.w3.org/2000/svg">
<path d="M7.08982 11.586V11.586H6.96482C6.64541 11.586 6.33131 11.6092 6.024 11.6534V10.162C6.024 9.14984 6.84765 8.32619 7.85979 8.32619H12.9532C13.9654 8.32619 14.789 9.14984 14.789 10.162V11.586H7.08982ZM28.7111 13.537V4.15951C28.7111 1.79688 26.7892 -0.125 24.4266 -0.125H6.45383C4.0912 -0.125 2.16932 1.79694 2.16932 4.15951V13.6605C1.05756 14.8406 0.375 16.43 0.375 18.1758V25.3256C0.375 26.707 1.49872 27.8308 2.88025 27.8308C4.26173 27.8308 5.38545 26.707 5.38545 25.3256V24.7122H25.6146V25.3256C25.6146 26.707 26.7383 27.8308 28.1198 27.8308C29.5013 27.8308 30.625 26.7071 30.625 25.3256V18.1758C30.625 16.3683 29.8933 14.7285 28.7111 13.537ZM6.45383 1.29688H24.4266C26.005 1.29688 27.2892 2.58118 27.2892 4.15951V12.4472C27.0046 12.2849 26.7069 12.1431 26.3979 12.024V10.162C26.3979 8.36559 24.9366 6.90432 23.1402 6.90432H18.0468C17.0164 6.90432 16.0971 7.38563 15.5001 8.13401C14.9031 7.38563 13.9838 6.90432 12.9533 6.90432H7.8599C6.06352 6.90432 4.60225 8.36553 4.60225 10.162V12.024C4.24968 12.1599 3.91168 12.3252 3.59125 12.517V4.15951C3.59119 2.58118 4.87544 1.29688 6.45383 1.29688ZM16.2109 10.1619C16.2109 9.14978 17.0346 8.32613 18.0467 8.32613H23.1402C24.1523 8.32613 24.9759 9.14978 24.9759 10.1619V11.6534C24.6686 11.6091 24.3545 11.5859 24.0351 11.5859H16.2109V10.1619ZM6.96482 13.0078H24.0351C26.8846 13.0078 29.2031 15.3263 29.2031 18.1758V19.7891H23.4513C23.0587 19.7891 22.7404 20.1074 22.7404 20.5C22.7404 20.8926 23.0587 21.211 23.4513 21.211H29.2031V23.2904H1.79688V21.211H17.592C17.9846 21.211 18.3029 20.8926 18.3029 20.5C18.3029 20.1074 17.9846 19.7891 17.592 19.7891H1.79688V18.1758C1.79688 15.3263 4.1153 13.0078 6.96482 13.0078ZM3.96357 25.3256C3.96357 25.9228 3.47748 26.4089 2.88025 26.4089C2.28302 26.4089 1.79688 25.9228 1.79688 25.3256V24.7122H3.96357V25.3256ZM28.1197 26.4089C27.5225 26.4089 27.0364 25.9228 27.0364 25.3256V24.7122H29.2031V25.3256C29.2031 25.9228 28.717 26.4089 28.1197 26.4089Z" fill="url(#paint0_linear_686_29729)" stroke="url(#paint1_linear_686_29729)" stroke-width="0.25"/>
<path d="M20.9823 20.4998C20.9823 20.7545 20.7758 20.961 20.521 20.961C20.2663 20.961 20.0598 20.7545 20.0598 20.4998C20.0598 20.2451 20.2663 20.0386 20.521 20.0386C20.7758 20.0386 20.9823 20.2451 20.9823 20.4998Z" fill="url(#paint2_linear_686_29729)" stroke="url(#paint3_linear_686_29729)" stroke-width="0.25"/>
<defs>
<linearGradient id="paint0_linear_686_29729" x1="3.84286" y1="3.40717e-06" x2="27.8517" y2="0.576774" gradientUnits="userSpaceOnUse">
<stop stop-color="#4AC0B4"/>
<stop offset="1" stop-color="#3BB1A5"/>
</linearGradient>
<linearGradient id="paint1_linear_686_29729" x1="3.84286" y1="3.40717e-06" x2="27.8517" y2="0.576774" gradientUnits="userSpaceOnUse">
<stop stop-color="#4AC0B4"/>
<stop offset="1" stop-color="#3BB1A5"/>
</linearGradient>
<linearGradient id="paint2_linear_686_29729" x1="20.0655" y1="19.9136" x2="21.0039" y2="19.9344" gradientUnits="userSpaceOnUse">
<stop stop-color="#4AC0B4"/>
<stop offset="1" stop-color="#3BB1A5"/>
</linearGradient>
<linearGradient id="paint3_linear_686_29729" x1="20.0655" y1="19.9136" x2="21.0039" y2="19.9344" gradientUnits="userSpaceOnUse">
<stop stop-color="#4AC0B4"/>
<stop offset="1" stop-color="#3BB1A5"/>
</linearGradient>
</defs>
</svg>
