<svg xmlns="http://www.w3.org/2000/svg" width="30" height="30" fill="none" viewBox="0 0 30 30">
  <g clip-path="url(#a)">
    <mask id="b" width="32" height="32" x="-.972" y="-1" fill="#000" maskUnits="userSpaceOnUse">
      <path fill="#fff" d="M-.972-1h32v32h-32z"/>
      <path d="m26.264 12.745 3.707-11.409-.836-.272-1.217 3.743-3.431-1.113L25.67.29 24.84 0l-3.262 9.386a1.46 1.46 0 0 1-.762.84 1.626 1.626 0 0 1-1.242.086c-2.177-.763-6.057-1.725-9.82-2.154-4.43-.505-7.284-.148-8.481 1.062-.914.924-1.338 2.304-1.226 3.99.18 2.695 1.7 5.725 3.616 7.205.978.756 2.805 1.139 5.432 1.139l.27-.001c2.027-.02 4.541-.267 7.118-.698a6.846 6.846 0 0 0 1.73 2.879v2.453l2.815 1.174V30h.88v-3.227L19.092 25.6v-1.26h7.978v1.26l-2.816 1.174V30h.88v-2.64l2.815-1.172v-2.454a6.854 6.854 0 0 0 2.024-4.879 6.9 6.9 0 0 0-3.708-6.11Zm-9.982 7.252c-4.746.788-10.283 1.112-12.082-.278-1.707-1.318-3.115-4.141-3.276-6.567-.066-.996.049-2.379.973-3.313.97-.98 3.725-1.266 7.758-.806 3.694.42 7.497 1.363 9.628 2.11a2.51 2.51 0 0 0 1.92-.127A2.332 2.332 0 0 0 22.41 9.67l1.788-5.145 3.449 1.119-2.191 6.742a6.859 6.859 0 0 0-2.376-.422 6.9 6.9 0 0 0-6.798 8.033Zm10.663 3.463h-7.73a5.983 5.983 0 0 1-2.147-4.605 6.019 6.019 0 0 1 6.012-6.012 6.019 6.019 0 0 1 6.012 6.012c0 1.789-.78 3.458-2.147 4.605Z"/>
      <path d="M19.736 16.587h.88v.88h-.88v-.88Zm2.992 0h.88v.88h-.88v-.88Zm2.992 0h.88v.88h-.88v-.88Zm-5.984 4.615h.88v.88h-.88v-.88Zm2.992 0h.88v.88h-.88v-.88Zm2.992 0h.88v.88h-.88v-.88Zm-4.458-6.922h.88v.88h-.88v-.88Zm2.991 0h.88v.88h-.88v-.88Zm-5.983 4.615h.88v.88h-.88v-.88Zm2.992 0h.88v.88h-.88v-.88Zm2.991 0h.88v.88h-.88v-.88Zm2.991 0h.88v.88h-.88v-.88ZM8.27 11.494h.88v.88h-.88v-.88Zm1.76 0h.879v.88h-.88v-.88Zm-7.567 0H7.39v.88H2.463v-.88Zm9.326 0h1.583v.88H11.79v-.88ZM2.463 13.9h10.264v.879H2.463v-.88Zm11.144 0h.88v.879h-.88v-.88Zm-2.874 2.404h.88v.88h-.88v-.88Zm-7.097 0h6.217v.88H3.636v-.88Zm8.857 0h.88v.88h-.88v-.88Z"/>
    </mask>
    <path fill="#4AC0B4" d="m26.264 12.745 3.707-11.409-.836-.272-1.217 3.743-3.431-1.113L25.67.29 24.84 0l-3.262 9.386a1.46 1.46 0 0 1-.762.84 1.626 1.626 0 0 1-1.242.086c-2.177-.763-6.057-1.725-9.82-2.154-4.43-.505-7.284-.148-8.481 1.062-.914.924-1.338 2.304-1.226 3.99.18 2.695 1.7 5.725 3.616 7.205.978.756 2.805 1.139 5.432 1.139l.27-.001c2.027-.02 4.541-.267 7.118-.698a6.846 6.846 0 0 0 1.73 2.879v2.453l2.815 1.174V30h.88v-3.227L19.092 25.6v-1.26h7.978v1.26l-2.816 1.174V30h.88v-2.64l2.815-1.172v-2.454a6.854 6.854 0 0 0 2.024-4.879 6.9 6.9 0 0 0-3.708-6.11Zm-9.982 7.252c-4.746.788-10.283 1.112-12.082-.278-1.707-1.318-3.115-4.141-3.276-6.567-.066-.996.049-2.379.973-3.313.97-.98 3.725-1.266 7.758-.806 3.694.42 7.497 1.363 9.628 2.11a2.51 2.51 0 0 0 1.92-.127A2.332 2.332 0 0 0 22.41 9.67l1.788-5.145 3.449 1.119-2.191 6.742a6.859 6.859 0 0 0-2.376-.422 6.9 6.9 0 0 0-6.798 8.033Zm10.663 3.463h-7.73a5.983 5.983 0 0 1-2.147-4.605 6.019 6.019 0 0 1 6.012-6.012 6.019 6.019 0 0 1 6.012 6.012c0 1.789-.78 3.458-2.147 4.605Z"/>
    <path fill="#4AC0B4" d="M19.736 16.587h.88v.88h-.88v-.88Zm2.992 0h.88v.88h-.88v-.88Zm2.992 0h.88v.88h-.88v-.88Zm-5.984 4.615h.88v.88h-.88v-.88Zm2.992 0h.88v.88h-.88v-.88Zm2.992 0h.88v.88h-.88v-.88Zm-4.458-6.922h.88v.88h-.88v-.88Zm2.991 0h.88v.88h-.88v-.88Zm-5.983 4.615h.88v.88h-.88v-.88Zm2.992 0h.88v.88h-.88v-.88Zm2.991 0h.88v.88h-.88v-.88Zm2.991 0h.88v.88h-.88v-.88ZM8.27 11.494h.88v.88h-.88v-.88Zm1.76 0h.879v.88h-.88v-.88Zm-7.567 0H7.39v.88H2.463v-.88Zm9.326 0h1.583v.88H11.79v-.88ZM2.463 13.9h10.264v.879H2.463v-.88Zm11.144 0h.88v.879h-.88v-.88Zm-2.874 2.404h.88v.88h-.88v-.88Zm-7.097 0h6.217v.88H3.636v-.88Zm8.857 0h.88v.88h-.88v-.88Z"/>
    <path stroke="#4AC0B4" stroke-width=".5" d="m26.264 12.745 3.707-11.409-.836-.272-1.217 3.743-3.431-1.113L25.67.29 24.84 0l-3.262 9.386a1.46 1.46 0 0 1-.762.84 1.626 1.626 0 0 1-1.242.086c-2.177-.763-6.057-1.725-9.82-2.154-4.43-.505-7.284-.148-8.481 1.062-.914.924-1.338 2.304-1.226 3.99.18 2.695 1.7 5.725 3.616 7.205.978.756 2.805 1.139 5.432 1.139l.27-.001c2.027-.02 4.541-.267 7.118-.698a6.846 6.846 0 0 0 1.73 2.879v2.453l2.815 1.174V30h.88v-3.227L19.092 25.6v-1.26h7.978v1.26l-2.816 1.174V30h.88v-2.64l2.815-1.172v-2.454a6.854 6.854 0 0 0 2.024-4.879 6.9 6.9 0 0 0-3.708-6.11Zm-9.982 7.252c-4.746.788-10.283 1.112-12.082-.278-1.707-1.318-3.115-4.141-3.276-6.567-.066-.996.049-2.379.973-3.313.97-.98 3.725-1.266 7.758-.806 3.694.42 7.497 1.363 9.628 2.11a2.51 2.51 0 0 0 1.92-.127A2.332 2.332 0 0 0 22.41 9.67l1.788-5.145 3.449 1.119-2.191 6.742a6.859 6.859 0 0 0-2.376-.422 6.9 6.9 0 0 0-6.798 8.033Zm10.663 3.463h-7.73a5.983 5.983 0 0 1-2.147-4.605 6.019 6.019 0 0 1 6.012-6.012 6.019 6.019 0 0 1 6.012 6.012c0 1.789-.78 3.458-2.147 4.605Z" mask="url(#b)"/>
    <path stroke="#4AC0B4" stroke-width=".5" d="M19.736 16.587h.88v.88h-.88v-.88Zm2.992 0h.88v.88h-.88v-.88Zm2.992 0h.88v.88h-.88v-.88Zm-5.984 4.615h.88v.88h-.88v-.88Zm2.992 0h.88v.88h-.88v-.88Zm2.992 0h.88v.88h-.88v-.88Zm-4.458-6.922h.88v.88h-.88v-.88Zm2.991 0h.88v.88h-.88v-.88Zm-5.983 4.615h.88v.88h-.88v-.88Zm2.992 0h.88v.88h-.88v-.88Zm2.991 0h.88v.88h-.88v-.88Zm2.991 0h.88v.88h-.88v-.88ZM8.27 11.494h.88v.88h-.88v-.88Zm1.76 0h.879v.88h-.88v-.88Zm-7.567 0H7.39v.88H2.463v-.88Zm9.326 0h1.583v.88H11.79v-.88ZM2.463 13.9h10.264v.879H2.463v-.88Zm11.144 0h.88v.879h-.88v-.88Zm-2.874 2.404h.88v.88h-.88v-.88Zm-7.097 0h6.217v.88H3.636v-.88Zm8.857 0h.88v.88h-.88v-.88Z" mask="url(#b)"/>
  </g>
  <defs>
    <clipPath id="a">
      <path fill="#fff" d="M0 0h30v30H0z"/>
    </clipPath>
  </defs>
</svg>
