<svg xmlns="http://www.w3.org/2000/svg" width="30" height="30" fill="none" viewBox="0 0 30 30">
  <g clip-path="url(#a)">
    <mask id="b" width="32" height="25" x="-1" y="2.14" fill="#000" maskUnits="userSpaceOnUse">
      <path fill="#fff" d="M-1 2.14h32v25H-1z"/>
      <path d="M29.806 19.163a.441.441 0 0 0-.61.117c-.038.054-.923 1.321-2.549 1.321-1.625 0-2.51-1.267-2.546-1.32-.162-.256-.57-.256-.732 0-.009.014-.904 1.32-2.544 1.32-1.375 0-2.22-.906-2.47-1.218V12.56H29.56a.44.44 0 1 0 0-.88h-3.541V8.47c0-2.911-2.34-5.302-5.217-5.33a5.23 5.23 0 0 0-3.758 1.526 5.273 5.273 0 0 0-1.133 1.655c-.814-1.853-2.644-3.16-4.767-3.181h-.052c-1.396 0-2.71.54-3.706 1.526A5.231 5.231 0 0 0 5.823 8.41v3.27H.473a.44.44 0 1 0 0 .881h5.35v1.74a.44.44 0 1 0 .88 0V8.408c0-1.178.463-2.285 1.303-3.117a4.345 4.345 0 0 1 3.13-1.271c2.395.023 4.345 2.019 4.345 4.45v3.209h-1.113v-3.27a3.29 3.29 0 0 0-3.275-3.276c-.85 0-1.655.333-2.273.94a3.368 3.368 0 0 0-1.003 2.386v11.818a3.441 3.441 0 0 1-1.113-.899V16.06a.44.44 0 1 0-.881 0v3.323c-.25.312-1.096 1.218-2.47 1.218-1.626 0-2.511-1.267-2.547-1.32a.44.44 0 0 0-.731.492c.047.07 1.173 1.709 3.278 1.709 1.438 0 2.42-.767 2.912-1.274.492.508 1.474 1.274 2.912 1.274 1.439 0 2.42-.766 2.91-1.273.493.507 1.475 1.273 2.913 1.273 1.439 0 2.42-.767 2.912-1.274.492.508 1.474 1.274 2.913 1.274 1.438 0 2.419-.766 2.91-1.273.492.507 1.474 1.273 2.912 1.273 2.105 0 3.231-1.64 3.278-1.71a.44.44 0 0 0-.119-.609ZM8.697 15.62h6.784v1.233H8.697V15.62Zm6.784-.88H8.697v-2.18h6.784v2.18ZM9.438 6.7a2.35 2.35 0 0 1 1.696-.687 2.406 2.406 0 0 1 2.353 2.395v3.27h-4.79V8.46c0-.655.27-1.295.74-1.758Zm3.015 12.58c-.162-.255-.567-.255-.73 0-.037.053-.92 1.32-2.545 1.32-.169 0-.328-.014-.48-.039v-2.829h6.783v2.83a3.04 3.04 0 0 1-.48.038c-1.627 0-2.512-1.267-2.548-1.32Zm3.908.996V8.409c0-1.178.463-2.285 1.302-3.117a4.346 4.346 0 0 1 3.13-1.271c2.396.023 4.345 2.019 4.345 4.45v3.209h-1.113v-.98a.44.44 0 1 0-.88 0v.98h-4.79V8.459c0-.655.27-1.296.74-1.758a2.347 2.347 0 0 1 1.696-.687 2.406 2.406 0 0 1 2.354 2.395v.53a.44.44 0 1 0 .88 0v-.53a3.29 3.29 0 0 0-3.274-3.276c-.85 0-1.655.333-2.273.94a3.368 3.368 0 0 0-1.004 2.386v10.919c-.15.188-.526.604-1.113.899ZM12.09 25.98c-1.626 0-2.511-1.268-2.547-1.32-.162-.255-.567-.255-.73-.002-.037.054-.922 1.322-2.548 1.322s-2.51-1.268-2.547-1.32a.44.44 0 0 0-.73.491c.046.07 1.173 1.71 3.277 1.71 1.439 0 2.42-.767 2.912-1.274.492.507 1.474 1.273 2.913 1.273a.44.44 0 1 0 0-.88Zm14.804-1.438a.441.441 0 0 0-.611.117c-.037.054-.92 1.32-2.546 1.32s-2.51-1.267-2.547-1.32c-.162-.255-.569-.255-.73 0-.01.014-.907 1.32-2.548 1.32-1.625 0-2.51-1.267-2.547-1.32-.161-.254-.567-.255-.73 0a3.414 3.414 0 0 1-1.014.902.44.44 0 0 0 .444.76 4.42 4.42 0 0 0 .935-.734c.492.507 1.473 1.273 2.912 1.273 1.44 0 2.42-.766 2.913-1.273.492.507 1.473 1.273 2.912 1.273 2.105 0 3.23-1.64 3.276-1.71a.44.44 0 0 0-.12-.608Z"/>
    </mask>
    <path fill="#4AC0B4" d="M29.806 19.163a.441.441 0 0 0-.61.117c-.038.054-.923 1.321-2.549 1.321-1.625 0-2.51-1.267-2.546-1.32-.162-.256-.57-.256-.732 0-.009.014-.904 1.32-2.544 1.32-1.375 0-2.22-.906-2.47-1.218V12.56H29.56a.44.44 0 1 0 0-.88h-3.541V8.47c0-2.911-2.34-5.302-5.217-5.33a5.23 5.23 0 0 0-3.758 1.526 5.273 5.273 0 0 0-1.133 1.655c-.814-1.853-2.644-3.16-4.767-3.181h-.052c-1.396 0-2.71.54-3.706 1.526A5.231 5.231 0 0 0 5.823 8.41v3.27H.473a.44.44 0 1 0 0 .881h5.35v1.74a.44.44 0 1 0 .88 0V8.408c0-1.178.463-2.285 1.303-3.117a4.345 4.345 0 0 1 3.13-1.271c2.395.023 4.345 2.019 4.345 4.45v3.209h-1.113v-3.27a3.29 3.29 0 0 0-3.275-3.276c-.85 0-1.655.333-2.273.94a3.368 3.368 0 0 0-1.003 2.386v11.818a3.441 3.441 0 0 1-1.113-.899V16.06a.44.44 0 1 0-.881 0v3.323c-.25.312-1.096 1.218-2.47 1.218-1.626 0-2.511-1.267-2.547-1.32a.44.44 0 0 0-.731.492c.047.07 1.173 1.709 3.278 1.709 1.438 0 2.42-.767 2.912-1.274.492.508 1.474 1.274 2.912 1.274 1.439 0 2.42-.766 2.91-1.273.493.507 1.475 1.273 2.913 1.273 1.439 0 2.42-.767 2.912-1.274.492.508 1.474 1.274 2.913 1.274 1.438 0 2.419-.766 2.91-1.273.492.507 1.474 1.273 2.912 1.273 2.105 0 3.231-1.64 3.278-1.71a.44.44 0 0 0-.119-.609ZM8.697 15.62h6.784v1.233H8.697V15.62Zm6.784-.88H8.697v-2.18h6.784v2.18ZM9.438 6.7a2.35 2.35 0 0 1 1.696-.687 2.406 2.406 0 0 1 2.353 2.395v3.27h-4.79V8.46c0-.655.27-1.295.74-1.758Zm3.015 12.58c-.162-.255-.567-.255-.73 0-.037.053-.92 1.32-2.545 1.32-.169 0-.328-.014-.48-.039v-2.829h6.783v2.83a3.04 3.04 0 0 1-.48.038c-1.627 0-2.512-1.267-2.548-1.32Zm3.908.996V8.409c0-1.178.463-2.285 1.302-3.117a4.346 4.346 0 0 1 3.13-1.271c2.396.023 4.345 2.019 4.345 4.45v3.209h-1.113v-.98a.44.44 0 1 0-.88 0v.98h-4.79V8.459c0-.655.27-1.296.74-1.758a2.347 2.347 0 0 1 1.696-.687 2.406 2.406 0 0 1 2.354 2.395v.53a.44.44 0 1 0 .88 0v-.53a3.29 3.29 0 0 0-3.274-3.276c-.85 0-1.655.333-2.273.94a3.368 3.368 0 0 0-1.004 2.386v10.919c-.15.188-.526.604-1.113.899ZM12.09 25.98c-1.626 0-2.511-1.268-2.547-1.32-.162-.255-.567-.255-.73-.002-.037.054-.922 1.322-2.548 1.322s-2.51-1.268-2.547-1.32a.44.44 0 0 0-.73.491c.046.07 1.173 1.71 3.277 1.71 1.439 0 2.42-.767 2.912-1.274.492.507 1.474 1.273 2.913 1.273a.44.44 0 1 0 0-.88Zm14.804-1.438a.441.441 0 0 0-.611.117c-.037.054-.92 1.32-2.546 1.32s-2.51-1.267-2.547-1.32c-.162-.255-.569-.255-.73 0-.01.014-.907 1.32-2.548 1.32-1.625 0-2.51-1.267-2.547-1.32-.161-.254-.567-.255-.73 0a3.414 3.414 0 0 1-1.014.902.44.44 0 0 0 .444.76 4.42 4.42 0 0 0 .935-.734c.492.507 1.473 1.273 2.912 1.273 1.44 0 2.42-.766 2.913-1.273.492.507 1.473 1.273 2.912 1.273 2.105 0 3.23-1.64 3.276-1.71a.44.44 0 0 0-.12-.608Z"/>
    <path stroke="#4AC0B4" stroke-width=".5" d="M29.806 19.163a.441.441 0 0 0-.61.117c-.038.054-.923 1.321-2.549 1.321-1.625 0-2.51-1.267-2.546-1.32-.162-.256-.57-.256-.732 0-.009.014-.904 1.32-2.544 1.32-1.375 0-2.22-.906-2.47-1.218V12.56H29.56a.44.44 0 1 0 0-.88h-3.541V8.47c0-2.911-2.34-5.302-5.217-5.33a5.23 5.23 0 0 0-3.758 1.526 5.273 5.273 0 0 0-1.133 1.655c-.814-1.853-2.644-3.16-4.767-3.181h-.052c-1.396 0-2.71.54-3.706 1.526A5.231 5.231 0 0 0 5.823 8.41v3.27H.473a.44.44 0 1 0 0 .881h5.35v1.74a.44.44 0 1 0 .88 0V8.408c0-1.178.463-2.285 1.303-3.117a4.345 4.345 0 0 1 3.13-1.271c2.395.023 4.345 2.019 4.345 4.45v3.209h-1.113v-3.27a3.29 3.29 0 0 0-3.275-3.276c-.85 0-1.655.333-2.273.94a3.368 3.368 0 0 0-1.003 2.386v11.818a3.441 3.441 0 0 1-1.113-.899V16.06a.44.44 0 1 0-.881 0v3.323c-.25.312-1.096 1.218-2.47 1.218-1.626 0-2.511-1.267-2.547-1.32a.44.44 0 0 0-.731.492c.047.07 1.173 1.709 3.278 1.709 1.438 0 2.42-.767 2.912-1.274.492.508 1.474 1.274 2.912 1.274 1.439 0 2.42-.766 2.91-1.273.493.507 1.475 1.273 2.913 1.273 1.439 0 2.42-.767 2.912-1.274.492.508 1.474 1.274 2.913 1.274 1.438 0 2.419-.766 2.91-1.273.492.507 1.474 1.273 2.912 1.273 2.105 0 3.231-1.64 3.278-1.71a.44.44 0 0 0-.119-.609ZM8.697 15.62h6.784v1.233H8.697V15.62Zm6.784-.88H8.697v-2.18h6.784v2.18ZM9.438 6.7a2.35 2.35 0 0 1 1.696-.687 2.406 2.406 0 0 1 2.353 2.395v3.27h-4.79V8.46c0-.655.27-1.295.74-1.758Zm3.015 12.58c-.162-.255-.567-.255-.73 0-.037.053-.92 1.32-2.545 1.32-.169 0-.328-.014-.48-.039v-2.829h6.783v2.83a3.04 3.04 0 0 1-.48.038c-1.627 0-2.512-1.267-2.548-1.32Zm3.908.996V8.409c0-1.178.463-2.285 1.302-3.117a4.346 4.346 0 0 1 3.13-1.271c2.396.023 4.345 2.019 4.345 4.45v3.209h-1.113v-.98a.44.44 0 1 0-.88 0v.98h-4.79V8.459c0-.655.27-1.296.74-1.758a2.347 2.347 0 0 1 1.696-.687 2.406 2.406 0 0 1 2.354 2.395v.53a.44.44 0 1 0 .88 0v-.53a3.29 3.29 0 0 0-3.274-3.276c-.85 0-1.655.333-2.273.94a3.368 3.368 0 0 0-1.004 2.386v10.919c-.15.188-.526.604-1.113.899ZM12.09 25.98c-1.626 0-2.511-1.268-2.547-1.32-.162-.255-.567-.255-.73-.002-.037.054-.922 1.322-2.548 1.322s-2.51-1.268-2.547-1.32a.44.44 0 0 0-.73.491c.046.07 1.173 1.71 3.277 1.71 1.439 0 2.42-.767 2.912-1.274.492.507 1.474 1.273 2.913 1.273a.44.44 0 1 0 0-.88Zm14.804-1.438a.441.441 0 0 0-.611.117c-.037.054-.92 1.32-2.546 1.32s-2.51-1.267-2.547-1.32c-.162-.255-.569-.255-.73 0-.01.014-.907 1.32-2.548 1.32-1.625 0-2.51-1.267-2.547-1.32-.161-.254-.567-.255-.73 0a3.414 3.414 0 0 1-1.014.902.44.44 0 0 0 .444.76 4.42 4.42 0 0 0 .935-.734c.492.507 1.473 1.273 2.912 1.273 1.44 0 2.42-.766 2.913-1.273.492.507 1.473 1.273 2.912 1.273 2.105 0 3.23-1.64 3.276-1.71a.44.44 0 0 0-.12-.608Z" mask="url(#b)"/>
  </g>
  <defs>
    <clipPath id="a">
      <path fill="#fff" d="M0 0h30v30H0z"/>
    </clipPath>
  </defs>
</svg>
