<svg width="15" height="10" viewBox="0 0 15 10" fill="none" xmlns="http://www.w3.org/2000/svg">
<g clip-path="url(#clip0_686_30098)">
<path d="M13.6276 4.37609H2.22434L5.65648 1.07441C5.71841 1.01687 5.76781 0.948041 5.80179 0.871937C5.83578 0.795833 5.85367 0.71398 5.85441 0.631155C5.85516 0.54833 5.83876 0.46619 5.80615 0.38953C5.77355 0.312869 5.7254 0.243223 5.66452 0.184654C5.60363 0.126086 5.53124 0.0797681 5.45155 0.0484039C5.37186 0.0170396 5.28647 0.00125695 5.20037 0.00197668C5.11428 0.00269641 5.02919 0.0199042 4.95008 0.052596C4.87097 0.0852878 4.79942 0.132809 4.7396 0.192386L0.200594 4.55886C0.0790318 4.67583 0.0107422 4.83447 0.0107422 4.99987C0.0107422 5.16528 0.0790318 5.32391 0.200594 5.44089L4.7396 9.80736C4.8619 9.92098 5.02569 9.98386 5.19571 9.98244C5.36572 9.98102 5.52836 9.91541 5.64858 9.79976C5.76881 9.6841 5.837 9.52765 5.83848 9.3641C5.83995 9.20054 5.7746 9.04298 5.65648 8.92533L2.22434 5.62365H13.6276C13.7996 5.62365 13.9645 5.55793 14.0861 5.44095C14.2077 5.32397 14.2761 5.16531 14.2761 4.99987C14.2761 4.83443 14.2077 4.67577 14.0861 4.55879C13.9645 4.44181 13.7996 4.37609 13.6276 4.37609Z" fill="#777777"/>
</g>
<defs>
<clipPath id="clip0_686_30098">
<rect width="14.2857" height="10" fill="white"/>
</clipPath>
</defs>
</svg>
