<svg xmlns="http://www.w3.org/2000/svg" width="31" height="30" fill="none" viewBox="0 0 31 30">
  <g clip-path="url(#a)">
    <path fill="#4AC0B4" stroke="#4AC0B4" stroke-width=".25" d="m10.507 8.645-.07.103a.747.747 0 0 0 1.04-.208c.633-.95.783-1.78.7-2.52-.084-.73-.396-1.36-.664-1.901l-.002-.004c-.259-.524-.477-.968-.528-1.444-.05-.468.06-.98.495-1.631A.75.75 0 0 0 11.27 0m-.763 8.645-.07.103a.749.749 0 0 1-.207-1.039c.405-.608.509-1.081.46-1.522-.052-.45-.262-.88-.523-1.407l-.003-.006c-.274-.555-.593-1.198-.674-1.95-.083-.761.078-1.623.74-2.615A.751.751 0 0 1 11.27 0m-.763 8.645a.624.624 0 0 1-.173-.867L11.4 4.171c.54 1.09 1.21 2.447-.026 4.3a.62.62 0 0 1-.866.174ZM11.27 0l-.07.104M11.27 0l-.07.104m0 0a.626.626 0 0 0-.866.174L11.2.104Zm4.287 8.54-.07.104a.75.75 0 0 0 1.04-.208c.633-.95.783-1.78.7-2.52-.084-.73-.396-1.36-.664-1.901l-.002-.004c-.26-.524-.478-.968-.529-1.444-.05-.468.06-.98.495-1.631A.75.75 0 0 0 16.25 0m-.762 8.645-.07.103a.75.75 0 0 1-.208-1.039c.405-.608.509-1.08.459-1.52-.05-.45-.261-.88-.522-1.408l-.004-.008c-.274-.554-.591-1.197-.673-1.948-.082-.761.078-1.623.74-2.616A.751.751 0 0 1 16.249 0m-.762 8.645a.626.626 0 0 1-.174-.867l1.04.693a.624.624 0 0 1-.866.174ZM16.249 0l-.07.104M16.25 0l-.07.104m0 0a.626.626 0 0 1 .174.867l-1.096 3.753c-.551-1.116-1.237-2.506.056-4.446a.626.626 0 0 1 .866-.174Zm5.291 4.011.002.004c.268.542.58 1.171.663 1.902.084.738-.066 1.57-.7 2.52a.746.746 0 0 1-1.039.207.75.75 0 0 1-.208-1.039c.405-.608.508-1.08.459-1.52-.05-.45-.262-.88-.522-1.408l-.005-.009c-.273-.553-.59-1.196-.672-1.947-.082-.761.078-1.623.74-2.616m1.282 3.906L20.292.278m1.178 3.837c-.26-.524-.478-.968-.529-1.444-.05-.468.06-.98.495-1.631A.75.75 0 0 0 21.228 0m.242 4.115-.312-4.01m-.97.104.104.07m-.104-.07.104.07m-.104-.07A.751.751 0 0 1 21.228 0m-.936.278a.626.626 0 0 1 .866-.174m.07-.104-.07.104m.07-.104-.07.104m5.25 9.77H5.158a3.254 3.254 0 0 0-3.25 3.25v11.25a3.254 3.254 0 0 0 3.25 3.25h1.75v1.751a.75.75 0 0 0 1.5 0v-1.75h14.75v1.75a.75.75 0 0 0 1.5 0v-1.75h1.75a3.254 3.254 0 0 0 3.25-3.25v-11.25a3.254 3.254 0 0 0-3.25-3.25Zm1.75 14.5c0 .966-.785 1.75-1.75 1.75H5.158c-.965 0-1.75-.784-1.75-1.75v-11.25c0-.964.785-1.75 1.75-1.75h21.25c.965 0 1.75.786 1.75 1.75v11.25Zm-21.75-12a.75.75 0 0 0-.75.75v11.25a.75.75 0 0 0 1.5 0v-11.25a.75.75 0 0 0-.75-.75Zm3.75 0a.75.75 0 0 0-.75.75v11.25a.75.75 0 0 0 1.5 0v-11.25a.75.75 0 0 0-.75-.75Zm3.75 0a.75.75 0 0 0-.75.75v11.25a.75.75 0 0 0 1.5 0v-11.25a.75.75 0 0 0-.75-.75Zm3.75 0a.75.75 0 0 0-.75.75v11.25a.75.75 0 0 0 1.5 0v-11.25a.75.75 0 0 0-.75-.75Zm3.75 0a.75.75 0 0 0-.75.75v11.25a.75.75 0 0 0 1.5 0v-11.25a.75.75 0 0 0-.75-.75Zm3.75 0a.75.75 0 0 0-.75.75v11.25a.75.75 0 0 0 1.5 0v-11.25a.75.75 0 0 0-.75-.75Z"/>
  </g>
  <defs>
    <clipPath id="a">
      <path fill="#fff" d="M.783 0h30v30h-30z"/>
    </clipPath>
  </defs>
</svg>
