<svg width="20" height="20" viewBox="0 0 20 20" fill="none" xmlns="http://www.w3.org/2000/svg">
<g clip-path="url(#clip0_859_14859)">
<path d="M1.27417 10.5L9.77417 18.5L12.7742 16.5L16.2742 13.5L19.2742 9.5L18.2742 3.5L14.2742 2L9.77417 4.5L8.77417 3.5L4.77417 2.5L0.77417 5L1.27417 10.5Z" fill="#CD4141"/>
<path d="M9.8807 19.1809C9.59937 19.1809 9.32814 19.079 9.11676 18.8939C8.31845 18.1958 7.54878 17.5398 6.86972 16.9612L6.86625 16.9581C4.87537 15.2616 3.15617 13.7964 1.95998 12.3531C0.622821 10.7396 0 9.20975 0 7.53849C0 5.91473 0.556785 4.4167 1.56768 3.32017C2.59064 2.21067 3.99428 1.59961 5.5205 1.59961C6.66121 1.59961 7.70588 1.96025 8.62541 2.67142C9.08947 3.03039 9.51011 3.46973 9.8807 3.98219C10.2514 3.46973 10.6719 3.03039 11.1361 2.67142C12.0557 1.96025 13.1003 1.59961 14.241 1.59961C15.7671 1.59961 17.1709 2.21067 18.1939 3.32017C19.2048 4.4167 19.7614 5.91473 19.7614 7.53849C19.7614 9.20975 19.1387 10.7396 17.8016 12.353C16.6054 13.7964 14.8863 15.2614 12.8958 16.9578C12.2155 17.5374 11.4446 18.1944 10.6445 18.8942C10.4333 19.079 10.1619 19.1809 9.8807 19.1809ZM5.5205 2.7572C4.32145 2.7572 3.21994 3.23574 2.41861 4.10476C1.60537 4.9869 1.15744 6.20631 1.15744 7.53849C1.15744 8.9441 1.67985 10.2012 2.85116 11.6145C3.98328 12.9806 5.6672 14.4156 7.61693 16.0772L7.62054 16.0802C8.30217 16.6611 9.07485 17.3197 9.87904 18.0229C10.6881 17.3183 11.462 16.6587 12.1449 16.0769C14.0945 14.4153 15.7783 12.9806 16.9104 11.6145C18.0816 10.2012 18.604 8.9441 18.604 7.53849C18.604 6.20631 18.156 4.9869 17.3428 4.10476C16.5416 3.23574 15.44 2.7572 14.241 2.7572C13.3627 2.7572 12.5562 3.03642 11.8441 3.58703C11.2096 4.07793 10.7675 4.69849 10.5083 5.1327C10.3751 5.35598 10.1405 5.48926 9.8807 5.48926C9.62093 5.48926 9.38633 5.35598 9.25306 5.1327C8.99404 4.69849 8.55199 4.07793 7.91726 3.58703C7.20518 3.03642 6.39873 2.7572 5.5205 2.7572Z" fill="#CD4141" stroke="#CD4141" stroke-width="0.25"/>
</g>
<defs>
<clipPath id="clip0_859_14859">
<rect width="20" height="20" fill="white"/>
</clipPath>
</defs>
</svg>
