<svg xmlns="http://www.w3.org/2000/svg" width="31" height="30" fill="none" viewBox="0 0 31 30">
  <g clip-path="url(#a)">
    <path fill="#4AC0B4" stroke="#4AC0B4" stroke-width=".2" d="M19.783 27.5a.5.5 0 0 1-1 0m1 0-.416-1.777a2.872 2.872 0 0 0-.584 1.777m1 0c-.01-.444.138-.877.416-1.223l-.416 1.223Zm-1 0h-.1m.1 0-.1.001m0 0a2.97 2.97 0 0 1 .604-1.839 1.906 1.906 0 0 0 0-2.325v-.001a3.096 3.096 0 0 1 0-3.673l.002-.004a1.79 1.79 0 0 0 .394-1.157V18.5a.6.6 0 0 1 1.2 0c.01.662-.204 1.31-.605 1.837a1.905 1.905 0 0 0 0 2.323l.001.002a3.1 3.1 0 0 1 0 3.674l-.002.004a1.792 1.792 0 0 0-.394 1.158v.002a.6.6 0 0 1-1.2 0Zm9.6-25.601h-25a2.603 2.603 0 0 0-2.6 2.6v10a2.603 2.603 0 0 0 2.6 2.6h25a2.603 2.603 0 0 0 2.6-2.6v-10a2.603 2.603 0 0 0-2.6-2.6ZM3.183 12v3.896a1.4 1.4 0 0 1-1.3-1.396v-10a1.4 1.4 0 0 1 1.3-1.396V4.5a2.603 2.603 0 0 0 2.6 2.6h20a2.603 2.603 0 0 0 2.6-2.6V3.104a1.4 1.4 0 0 1 1.3 1.396v10a1.4 1.4 0 0 1-1.3 1.396V12a.6.6 0 0 0-.6-.6h-24a.6.6 0 0 0-.6.6Zm12.5 6.5v.002c.008.42-.131.83-.394 1.157l-.003.004a3.096 3.096 0 0 0 0 3.673l.001.002a1.906 1.906 0 0 1 0 2.323v.001a2.972 2.972 0 0 0-.604 1.839.6.6 0 0 0 1.2-.001v-.002c-.009-.42.13-.83.394-1.158l.002-.004a3.1 3.1 0 0 0 0-3.674l-.001-.002a1.905 1.905 0 0 1 0-2.323 2.969 2.969 0 0 0 .605-1.838.6.6 0 0 0-1.2.001Zm-4 0v.002c.008.42-.131.83-.394 1.157l-.003.004a3.096 3.096 0 0 0 0 3.673l.001.002a1.906 1.906 0 0 1 0 2.323v.001a2.972 2.972 0 0 0-.604 1.839.6.6 0 0 0 1.2-.001v-.002c-.009-.42.13-.83.394-1.158l.002-.004a3.1 3.1 0 0 0 0-3.674l-.001-.002a1.905 1.905 0 0 1 0-2.323 2.969 2.969 0 0 0 .605-1.838.6.6 0 0 0-1.2.001Zm-7.3-15.4h22.8v1.4a1.4 1.4 0 0 1-1.4 1.4h-20a1.4 1.4 0 0 1-1.4-1.4V3.1Zm22.8 12.8h-22.8v-.3h22.8v.3Zm0-1.5h-22.8v-.3h22.8v.3Zm0-1.5h-22.8v-.3h22.8v.3Zm-9.9-3h-4a.6.6 0 0 0 0 1.2h4a.6.6 0 1 0 0-1.2Zm9-2h-.5a.6.6 0 0 0 0 1.2h.5a.6.6 0 1 0 0-1.2Zm2 0h-.5a.6.6 0 0 0 0 1.2h.5a.6.6 0 1 0 0-1.2Z"/>
  </g>
  <defs>
    <clipPath id="a">
      <path fill="#fff" d="M.783 0h30v30h-30z"/>
    </clipPath>
  </defs>
</svg>
