<svg width="31" height="31" viewBox="0 0 31 31" fill="none" xmlns="http://www.w3.org/2000/svg">
<path d="M12.3728 18.1129L12.3725 18.1127C12.0315 17.7717 11.4773 17.7717 11.1363 18.1127L6.63379 22.6152V18.7316C6.63379 18.2489 6.24215 17.8573 5.75952 17.8573C5.27689 17.8573 4.88525 18.2489 4.88525 18.7316V24.7257C4.88525 24.8395 4.90796 24.9533 4.95336 25.0602C5.04116 25.2738 5.21246 25.4446 5.42692 25.5335L5.42692 25.5335L5.42838 25.5341C5.53129 25.5753 5.64442 25.6 5.75952 25.6H11.7537C12.2363 25.6 12.6279 25.2084 12.6279 24.7257C12.6279 24.2431 12.2363 23.8515 11.7537 23.8515H7.87003L12.371 19.3504C12.7135 19.008 12.7135 18.4554 12.3728 18.1129Z" fill="url(#paint0_linear_686_29734)" stroke="url(#paint1_linear_686_29734)" stroke-width="0.25"/>
<path d="M25.5749 4.4372L25.5749 4.43722C25.7877 4.52618 25.9589 4.69695 26.0466 4.91044C26.0468 4.91071 26.0469 4.91098 26.047 4.91125L25.9313 4.95865C25.9703 5.05006 25.9898 5.14747 25.9898 5.24487V11.239C25.9898 11.6526 25.6541 11.9883 25.2405 11.9883C24.8269 11.9883 24.4912 11.6526 24.4912 11.239L25.5749 4.4372ZM25.5749 4.4372L25.5725 4.43623C25.4686 4.39536 25.3557 4.37061 25.2405 4.37061H19.2463C18.7637 4.37061 18.3721 4.76224 18.3721 5.24487C18.3721 5.72751 18.7637 6.11914 19.2463 6.11914H23.13L18.629 10.6201C18.288 10.9611 18.2879 11.5151 18.6287 11.8562C18.7986 12.0276 19.0228 12.1133 19.2463 12.1133C19.47 12.1133 19.6938 12.0276 19.8648 11.8583L19.8652 11.8579L24.3662 7.35545L25.5749 4.4372Z" fill="url(#paint2_linear_686_29734)" stroke="url(#paint3_linear_686_29734)" stroke-width="0.25"/>
<path d="M26.739 -0.125H4.26099C2.127 -0.125 0.389648 1.61079 0.389648 3.74634V26.2244C0.389648 28.3599 2.127 30.0957 4.26099 30.0957H26.739C28.873 30.0957 30.6104 28.3599 30.6104 26.2244V3.74634C30.6104 1.61079 28.873 -0.125 26.739 -0.125ZM28.8618 26.2244C28.8618 27.3946 27.9093 28.3472 26.739 28.3472H4.26099C3.09074 28.3472 2.13818 27.3946 2.13818 26.2244V3.74634C2.13818 2.57609 3.09074 1.62354 4.26099 1.62354H26.739C27.9093 1.62354 28.8618 2.57609 28.8618 3.74634V26.2244Z" fill="url(#paint4_linear_686_29734)" stroke="url(#paint5_linear_686_29734)" stroke-width="0.25"/>
<defs>
<linearGradient id="paint0_linear_686_29734" x1="5.84517" y1="17.9819" x2="11.8422" y2="18.115" gradientUnits="userSpaceOnUse">
<stop stop-color="#4AC0B4"/>
<stop offset="1" stop-color="#3BB1A5"/>
</linearGradient>
<linearGradient id="paint1_linear_686_29734" x1="5.84517" y1="17.9819" x2="11.8422" y2="18.115" gradientUnits="userSpaceOnUse">
<stop stop-color="#4AC0B4"/>
<stop offset="1" stop-color="#3BB1A5"/>
</linearGradient>
<linearGradient id="paint2_linear_686_29734" x1="19.332" y1="4.49561" x2="25.3288" y2="4.62865" gradientUnits="userSpaceOnUse">
<stop stop-color="#4AC0B4"/>
<stop offset="1" stop-color="#3BB1A5"/>
</linearGradient>
<linearGradient id="paint3_linear_686_29734" x1="19.332" y1="4.49561" x2="25.3288" y2="4.62865" gradientUnits="userSpaceOnUse">
<stop stop-color="#4AC0B4"/>
<stop offset="1" stop-color="#3BB1A5"/>
</linearGradient>
<linearGradient id="paint4_linear_686_29734" x1="3.85424" y1="3.68571e-06" x2="27.8417" y2="0.532193" gradientUnits="userSpaceOnUse">
<stop stop-color="#4AC0B4"/>
<stop offset="1" stop-color="#3BB1A5"/>
</linearGradient>
<linearGradient id="paint5_linear_686_29734" x1="3.85424" y1="3.68571e-06" x2="27.8417" y2="0.532193" gradientUnits="userSpaceOnUse">
<stop stop-color="#4AC0B4"/>
<stop offset="1" stop-color="#3BB1A5"/>
</linearGradient>
</defs>
</svg>
