<svg xmlns="http://www.w3.org/2000/svg" width="30" height="30" fill="none" viewBox="0 0 30 30">
  <g clip-path="url(#a)">
    <mask id="b" width="32" height="19" x="-1" y="5.211" fill="#000" maskUnits="userSpaceOnUse">
      <path fill="#fff" d="M-1 5.211h32v19H-1z"/>
      <path d="M29.04 11.896a3.282 3.282 0 0 0-.9-.639v-.966c0-2.25-1.83-4.08-4.08-4.08h-5.597c-1.48 0-2.778.793-3.494 1.976a4.082 4.082 0 0 0-3.494-1.976H5.878c-2.25 0-4.08 1.83-4.08 4.08v1A3.28 3.28 0 0 0 0 14.213v7.817c0 .97.789 1.758 1.758 1.758h26.484A1.76 1.76 0 0 0 30 22.031v-7.817c0-.876-.34-1.699-.96-2.318ZM18.464 7.383h5.596a2.912 2.912 0 0 1 2.909 2.908v.655a3.324 3.324 0 0 0-.23-.01h-.016c-.855 0-1.667.34-2.287.956-.63.627-.99 1.49-.99 2.37v.848a4.108 4.108 0 0 0-2.312-.708h-.108v-.58a2.92 2.92 0 0 0-2.918-2.918h-2.553v-.613a2.911 2.911 0 0 1 2.909-2.908Zm-8.318 7.019v-.58c0-.963.783-1.746 1.745-1.746h6.217c.963 0 1.746.783 1.746 1.746v.58h-9.708ZM2.97 10.29a2.912 2.912 0 0 1 2.908-2.908h5.597a2.912 2.912 0 0 1 2.909 2.908v.613H11.89a2.92 2.92 0 0 0-2.917 2.918v.58h-.11c-.854 0-1.65.26-2.309.708v-.896c0-.876-.341-1.698-.96-2.318a3.257 3.257 0 0 0-2.625-.945v-.66ZM1.172 22.03v-7.817a2.107 2.107 0 0 1 3.594-1.489c.398.398.617.927.617 1.489v2.1a4.105 4.105 0 0 0-.649 2.218v4.085H1.758a.587.587 0 0 1-.586-.586Zm4.734.586V20.88h8.256a.586.586 0 0 0 0-1.172H5.906v-1.175a2.962 2.962 0 0 1 2.959-2.959h12.27a2.962 2.962 0 0 1 2.958 2.96v1.174h-4.071a.586.586 0 0 0 0 1.172h4.072v1.738H5.905Zm22.922-.586a.587.587 0 0 1-.586.586h-2.977v-4.085c0-.815-.238-1.576-.648-2.217v-2.053c0-.57.235-1.131.646-1.54a2.063 2.063 0 0 1 1.46-.614h.01c.22 0 .433.036.636.101l.017.005c.307.102.59.275.826.51.397.398.616.927.616 1.49v7.817Z"/>
      <path d="M17.092 20.88a.586.586 0 1 0 0-1.173.586.586 0 0 0 0 1.172ZM6.498 10.319a.586.586 0 1 0 0-1.173.586.586 0 0 0 0 1.173Zm4.102 0a.586.586 0 1 0 0-1.173.586.586 0 0 0 0 1.173Zm8.795 0a.586.586 0 1 0 0-1.173.586.586 0 0 0 0 1.173Zm4.101 0a.586.586 0 1 0 0-1.173.586.586 0 0 0 0 1.173Z"/>
    </mask>
    <path fill="#4AC0B4" d="M29.04 11.896a3.282 3.282 0 0 0-.9-.639v-.966c0-2.25-1.83-4.08-4.08-4.08h-5.597c-1.48 0-2.778.793-3.494 1.976a4.082 4.082 0 0 0-3.494-1.976H5.878c-2.25 0-4.08 1.83-4.08 4.08v1A3.28 3.28 0 0 0 0 14.213v7.817c0 .97.789 1.758 1.758 1.758h26.484A1.76 1.76 0 0 0 30 22.031v-7.817c0-.876-.34-1.699-.96-2.318ZM18.464 7.383h5.596a2.912 2.912 0 0 1 2.909 2.908v.655a3.324 3.324 0 0 0-.23-.01h-.016c-.855 0-1.667.34-2.287.956-.63.627-.99 1.49-.99 2.37v.848a4.108 4.108 0 0 0-2.312-.708h-.108v-.58a2.92 2.92 0 0 0-2.918-2.918h-2.553v-.613a2.911 2.911 0 0 1 2.909-2.908Zm-8.318 7.019v-.58c0-.963.783-1.746 1.745-1.746h6.217c.963 0 1.746.783 1.746 1.746v.58h-9.708ZM2.97 10.29a2.912 2.912 0 0 1 2.908-2.908h5.597a2.912 2.912 0 0 1 2.909 2.908v.613H11.89a2.92 2.92 0 0 0-2.917 2.918v.58h-.11c-.854 0-1.65.26-2.309.708v-.896c0-.876-.341-1.698-.96-2.318a3.257 3.257 0 0 0-2.625-.945v-.66ZM1.172 22.03v-7.817a2.107 2.107 0 0 1 3.594-1.489c.398.398.617.927.617 1.489v2.1a4.105 4.105 0 0 0-.649 2.218v4.085H1.758a.587.587 0 0 1-.586-.586Zm4.734.586V20.88h8.256a.586.586 0 0 0 0-1.172H5.906v-1.175a2.962 2.962 0 0 1 2.959-2.959h12.27a2.962 2.962 0 0 1 2.958 2.96v1.174h-4.071a.586.586 0 0 0 0 1.172h4.072v1.738H5.905Zm22.922-.586a.587.587 0 0 1-.586.586h-2.977v-4.085c0-.815-.238-1.576-.648-2.217v-2.053c0-.57.235-1.131.646-1.54a2.063 2.063 0 0 1 1.46-.614h.01c.22 0 .433.036.636.101l.017.005c.307.102.59.275.826.51.397.398.616.927.616 1.49v7.817Z"/>
    <path fill="#4AC0B4" d="M17.092 20.88a.586.586 0 1 0 0-1.173.586.586 0 0 0 0 1.172ZM6.498 10.319a.586.586 0 1 0 0-1.173.586.586 0 0 0 0 1.173Zm4.102 0a.586.586 0 1 0 0-1.173.586.586 0 0 0 0 1.173Zm8.795 0a.586.586 0 1 0 0-1.173.586.586 0 0 0 0 1.173Zm4.101 0a.586.586 0 1 0 0-1.173.586.586 0 0 0 0 1.173Z"/>
    <path stroke="#4AC0B4" stroke-width=".5" d="M29.04 11.896a3.282 3.282 0 0 0-.9-.639v-.966c0-2.25-1.83-4.08-4.08-4.08h-5.597c-1.48 0-2.778.793-3.494 1.976a4.082 4.082 0 0 0-3.494-1.976H5.878c-2.25 0-4.08 1.83-4.08 4.08v1A3.28 3.28 0 0 0 0 14.213v7.817c0 .97.789 1.758 1.758 1.758h26.484A1.76 1.76 0 0 0 30 22.031v-7.817c0-.876-.34-1.699-.96-2.318ZM18.464 7.383h5.596a2.912 2.912 0 0 1 2.909 2.908v.655a3.324 3.324 0 0 0-.23-.01h-.016c-.855 0-1.667.34-2.287.956-.63.627-.99 1.49-.99 2.37v.848a4.108 4.108 0 0 0-2.312-.708h-.108v-.58a2.92 2.92 0 0 0-2.918-2.918h-2.553v-.613a2.911 2.911 0 0 1 2.909-2.908Zm-8.318 7.019v-.58c0-.963.783-1.746 1.745-1.746h6.217c.963 0 1.746.783 1.746 1.746v.58h-9.708ZM2.97 10.29a2.912 2.912 0 0 1 2.908-2.908h5.597a2.912 2.912 0 0 1 2.909 2.908v.613H11.89a2.92 2.92 0 0 0-2.917 2.918v.58h-.11c-.854 0-1.65.26-2.309.708v-.896c0-.876-.341-1.698-.96-2.318a3.257 3.257 0 0 0-2.625-.945v-.66ZM1.172 22.03v-7.817a2.107 2.107 0 0 1 3.594-1.489c.398.398.617.927.617 1.489v2.1a4.105 4.105 0 0 0-.649 2.218v4.085H1.758a.587.587 0 0 1-.586-.586Zm4.734.586V20.88h8.256a.586.586 0 0 0 0-1.172H5.906v-1.175a2.962 2.962 0 0 1 2.959-2.959h12.27a2.962 2.962 0 0 1 2.958 2.96v1.174h-4.071a.586.586 0 0 0 0 1.172h4.072v1.738H5.905Zm22.922-.586a.587.587 0 0 1-.586.586h-2.977v-4.085c0-.815-.238-1.576-.648-2.217v-2.053c0-.57.235-1.131.646-1.54a2.063 2.063 0 0 1 1.46-.614h.01c.22 0 .433.036.636.101l.017.005c.307.102.59.275.826.51.397.398.616.927.616 1.49v7.817Z" mask="url(#b)"/>
    <path stroke="#4AC0B4" stroke-width=".5" d="M17.092 20.88a.586.586 0 1 0 0-1.173.586.586 0 0 0 0 1.172ZM6.498 10.319a.586.586 0 1 0 0-1.173.586.586 0 0 0 0 1.173Zm4.102 0a.586.586 0 1 0 0-1.173.586.586 0 0 0 0 1.173Zm8.795 0a.586.586 0 1 0 0-1.173.586.586 0 0 0 0 1.173Zm4.101 0a.586.586 0 1 0 0-1.173.586.586 0 0 0 0 1.173Z" mask="url(#b)"/>
  </g>
  <defs>
    <clipPath id="a">
      <path fill="#fff" d="M0 0h30v30H0z"/>
    </clipPath>
  </defs>
</svg>
