<svg width="22" height="22" viewBox="0 0 22 22" fill="none" xmlns="http://www.w3.org/2000/svg">
<path d="M15.5703 10.0859C15.9586 10.0859 16.2734 9.77114 16.2734 9.38281C16.2734 8.99449 15.9586 8.67969 15.5703 8.67969C15.182 8.67969 14.8672 8.99449 14.8672 9.38281C14.8672 9.77114 15.182 10.0859 15.5703 10.0859Z" fill="#4AC0B4"/>
<path d="M17.1875 3.40625H16.2734V2.70312C16.2734 2.31479 15.9586 2 15.5703 2C15.182 2 14.8672 2.31479 14.8672 2.70312V3.40625H11.668V2.70312C11.668 2.31479 11.3532 2 10.9648 2C10.5765 2 10.2617 2.31479 10.2617 2.70312V3.40625H7.09766V2.70312C7.09766 2.31479 6.78287 2 6.39453 2C6.0062 2 5.69141 2.31479 5.69141 2.70312V3.40625H4.8125C3.26169 3.40625 2 4.66794 2 6.21875V17.1875C2 18.7383 3.26169 20 4.8125 20H10.1914C10.5797 20 10.8945 19.6852 10.8945 19.2969C10.8945 18.9085 10.5797 18.5938 10.1914 18.5938H4.8125C4.03709 18.5938 3.40625 17.9629 3.40625 17.1875V6.21875C3.40625 5.44334 4.03709 4.8125 4.8125 4.8125H5.69141V5.51562C5.69141 5.90396 6.0062 6.21875 6.39453 6.21875C6.78287 6.21875 7.09766 5.90396 7.09766 5.51562V4.8125H10.2617V5.51562C10.2617 5.90396 10.5765 6.21875 10.9648 6.21875C11.3532 6.21875 11.668 5.90396 11.668 5.51562V4.8125H14.8672V5.51562C14.8672 5.90396 15.182 6.21875 15.5703 6.21875C15.9586 6.21875 16.2734 5.90396 16.2734 5.51562V4.8125H17.1875C17.9629 4.8125 18.5938 5.44334 18.5938 6.21875V10.2266C18.5938 10.6149 18.9085 10.9297 19.2969 10.9297C19.6852 10.9297 20 10.6149 20 10.2266V6.21875C20 4.66794 18.7383 3.40625 17.1875 3.40625Z" fill="#4AC0B4"/>
<path d="M15.7461 11.4922C13.4005 11.4922 11.4922 13.4005 11.4922 15.7461C11.4922 18.0917 13.4005 20 15.7461 20C18.0917 20 20 18.0917 20 15.7461C20 13.4005 18.0917 11.4922 15.7461 11.4922ZM15.7461 18.5938C14.1759 18.5938 12.8984 17.3163 12.8984 15.7461C12.8984 14.1759 14.1759 12.8984 15.7461 12.8984C17.3163 12.8984 18.5938 14.1759 18.5938 15.7461C18.5938 17.3163 17.3163 18.5938 15.7461 18.5938Z" fill="#4AC0B4"/>
<path d="M16.7656 15.043H16.4492V14.3047C16.4492 13.9164 16.1344 13.6016 15.7461 13.6016C15.3578 13.6016 15.043 13.9164 15.043 14.3047V15.7461C15.043 16.1344 15.3578 16.4492 15.7461 16.4492H16.7656C17.154 16.4492 17.4688 16.1344 17.4688 15.7461C17.4688 15.3578 17.154 15.043 16.7656 15.043Z" fill="#4AC0B4"/>
<path d="M12.5117 10.0859C12.9 10.0859 13.2148 9.77114 13.2148 9.38281C13.2148 8.99449 12.9 8.67969 12.5117 8.67969C12.1234 8.67969 11.8086 8.99449 11.8086 9.38281C11.8086 9.77114 12.1234 10.0859 12.5117 10.0859Z" fill="#4AC0B4"/>
<path d="M9.45312 13.1445C9.84145 13.1445 10.1562 12.8297 10.1562 12.4414C10.1562 12.0531 9.84145 11.7383 9.45312 11.7383C9.0648 11.7383 8.75 12.0531 8.75 12.4414C8.75 12.8297 9.0648 13.1445 9.45312 13.1445Z" fill="#4AC0B4"/>
<path d="M6.39453 10.0859C6.78286 10.0859 7.09766 9.77114 7.09766 9.38281C7.09766 8.99449 6.78286 8.67969 6.39453 8.67969C6.00621 8.67969 5.69141 8.99449 5.69141 9.38281C5.69141 9.77114 6.00621 10.0859 6.39453 10.0859Z" fill="#4AC0B4"/>
<path d="M6.39453 13.1445C6.78286 13.1445 7.09766 12.8297 7.09766 12.4414C7.09766 12.0531 6.78286 11.7383 6.39453 11.7383C6.00621 11.7383 5.69141 12.0531 5.69141 12.4414C5.69141 12.8297 6.00621 13.1445 6.39453 13.1445Z" fill="#4AC0B4"/>
<path d="M6.39453 16.2031C6.78286 16.2031 7.09766 15.8883 7.09766 15.5C7.09766 15.1117 6.78286 14.7969 6.39453 14.7969C6.00621 14.7969 5.69141 15.1117 5.69141 15.5C5.69141 15.8883 6.00621 16.2031 6.39453 16.2031Z" fill="#4AC0B4"/>
<path d="M9.45312 16.2031C9.84145 16.2031 10.1562 15.8883 10.1562 15.5C10.1562 15.1117 9.84145 14.7969 9.45312 14.7969C9.0648 14.7969 8.75 15.1117 8.75 15.5C8.75 15.8883 9.0648 16.2031 9.45312 16.2031Z" fill="#4AC0B4"/>
<path d="M9.45312 10.0859C9.84145 10.0859 10.1562 9.77114 10.1562 9.38281C10.1562 8.99449 9.84145 8.67969 9.45312 8.67969C9.0648 8.67969 8.75 8.99449 8.75 9.38281C8.75 9.77114 9.0648 10.0859 9.45312 10.0859Z" fill="#4AC0B4"/>
</svg>
