<svg width="19" height="18" viewBox="0 0 19 18" fill="none" xmlns="http://www.w3.org/2000/svg">
<g clip-path="url(#clip0_1155_14172)">
<path d="M9.20041 0.450586C4.47838 0.450586 0.650415 4.27855 0.650415 9.00059C0.650415 13.7226 4.47838 17.5506 9.20041 17.5506C13.9225 17.5506 17.7504 13.7226 17.7504 9.00059C17.7504 4.27855 13.9225 0.450586 9.20041 0.450586ZM9.20041 16.2006C5.22396 16.2006 2.00041 12.977 2.00041 9.00059C2.00041 5.02413 5.22396 1.80059 9.20041 1.80059C13.1769 1.80059 16.4004 5.02413 16.4004 9.00059C16.4004 12.977 13.1769 16.2006 9.20041 16.2006Z" fill="#777777" stroke="#777777" stroke-width="0.3"/>
<path d="M9.201 10.2002C9.86374 10.2002 10.401 9.66294 10.401 9.0002C10.401 8.33745 9.86374 7.8002 9.201 7.8002C8.53826 7.8002 8.001 8.33745 8.001 9.0002C8.001 9.66294 8.53826 10.2002 9.201 10.2002Z" fill="#777777" stroke="#777777" stroke-width="0.3"/>
<path d="M12.8758 10.2002C13.5385 10.2002 14.0758 9.66294 14.0758 9.0002C14.0758 8.33745 13.5385 7.8002 12.8758 7.8002C12.2131 7.8002 11.6758 8.33745 11.6758 9.0002C11.6758 9.66294 12.2131 10.2002 12.8758 10.2002Z" fill="#777777" stroke="#777777" stroke-width="0.3"/>
<path d="M5.52571 10.2002C6.18845 10.2002 6.72571 9.66294 6.72571 9.0002C6.72571 8.33745 6.18845 7.8002 5.52571 7.8002C4.86297 7.8002 4.32571 8.33745 4.32571 9.0002C4.32571 9.66294 4.86297 10.2002 5.52571 10.2002Z" fill="#777777" stroke="#777777" stroke-width="0.3"/>
</g>
<defs>
<clipPath id="clip0_1155_14172">
<rect width="18" height="18" fill="white" transform="translate(0.500122)"/>
</clipPath>
</defs>
</svg>
