<svg xmlns="http://www.w3.org/2000/svg" width="30" height="30" fill="none" viewBox="0 0 30 30">
  <g clip-path="url(#a)">
    <path fill="#4AC0B4" stroke="#4AC0B4" stroke-width=".25" d="M28.211 14.684V5.307a4.29 4.29 0 0 0-4.284-4.285H5.954a4.29 4.29 0 0 0-4.285 4.285v9.5a6.567 6.567 0 0 0-1.794 4.516v7.15a2.508 2.508 0 0 0 2.505 2.505 2.508 2.508 0 0 0 2.505-2.505v-.614h20.23v.614a2.508 2.508 0 0 0 2.505 2.505 2.508 2.508 0 0 0 2.505-2.505v-7.15a6.569 6.569 0 0 0-1.914-4.639ZM5.954 2.444h17.973a2.866 2.866 0 0 1 2.862 2.863v8.287a6.554 6.554 0 0 0-.891-.423V11.31a3.261 3.261 0 0 0-3.258-3.257h-5.093c-1.03 0-1.95.48-2.547 1.23a3.252 3.252 0 0 0-2.547-1.23H7.36a3.261 3.261 0 0 0-3.258 3.257v1.862c-.352.136-.69.301-1.01.493V5.307a2.866 2.866 0 0 1 2.862-2.863Zm.51 10.29a6.48 6.48 0 0 0-.94.067v-1.492c0-1.012.824-1.836 1.836-1.836h5.093c1.012 0 1.836.824 1.836 1.836v1.424H6.465Zm9.247-1.425c0-1.012.824-1.836 1.836-1.836h5.093c1.012 0 1.836.824 1.836 1.836v1.492a6.605 6.605 0 0 0-.94-.068H15.71V11.31Zm-9.246 2.846h17.07a5.174 5.174 0 0 1 5.168 5.168v1.613h-5.752a.711.711 0 0 0 0 1.422h5.752v2.08H1.297v-2.08h15.795a.711.711 0 0 0 0-1.422H1.297v-1.613a5.174 5.174 0 0 1 5.168-5.168ZM3.464 26.473a1.085 1.085 0 0 1-2.167 0v-.614h2.167v.614Zm24.156 1.083a1.085 1.085 0 0 1-1.084-1.083v-.614h2.167v.614c0 .597-.486 1.083-1.083 1.083Zm-7.599-5.198a.711.711 0 1 0 0-1.422.711.711 0 0 0 0 1.422Z"/>
  </g>
  <defs>
    <clipPath id="a">
      <path fill="#fff" d="M0 0h30v30H0z"/>
    </clipPath>
  </defs>
</svg>
