<svg width="39" height="31" viewBox="0 0 39 31" fill="none" xmlns="http://www.w3.org/2000/svg">
<mask id="path-1-outside-1_686_29697" maskUnits="userSpaceOnUse" x="-0.5" y="-1" width="40" height="32" fill="black">
<rect fill="white" x="-0.5" y="-1" width="40" height="32"/>
<path d="M37.8562 28.7466H29.7498V24.8987C31.52 24.6604 33.0889 23.5537 34.0012 21.8759C35.2133 21.5986 36.3144 20.8961 37.1289 19.8739C38.0132 18.7642 38.5002 17.3459 38.5002 15.8803C38.5002 13.6508 37.3598 11.5873 35.5654 10.5154C35.3784 6.7975 32.5153 3.833 29.0282 3.833C27.9306 3.833 26.8446 4.13204 25.8876 4.69779C25.5898 4.87379 25.491 5.25804 25.6668 5.55604C25.8427 5.85418 26.2266 5.95307 26.5242 5.77706C27.2885 5.3252 28.1544 5.08642 29.0282 5.08642C31.9423 5.08642 34.3174 7.69067 34.3229 10.8917C34.3234 11.1276 34.456 11.3433 34.6663 11.4498C36.2347 12.2444 37.248 13.9834 37.248 15.8802C37.248 18.2741 35.6285 20.3468 33.4807 20.7014C33.2796 20.7347 33.1072 20.8637 33.0187 21.0476C32.347 22.442 31.1334 23.3846 29.7498 23.6299V18.0842L32.8311 15.2479C33.0856 15.0136 33.1022 14.6171 32.8681 14.3624C32.6339 14.1076 32.238 14.0909 31.9835 14.3253L29.7498 16.3814V12.1977C29.7498 11.8516 29.4695 11.571 29.1237 11.571C28.7779 11.571 28.4976 11.8516 28.4976 12.1977V19.7832L26.2639 17.7271C26.0094 17.4927 25.6133 17.5094 25.3793 17.7642C25.1452 18.0189 25.1618 18.4154 25.4163 18.6497L28.4976 21.486V23.6593C27.0213 23.4689 25.7192 22.491 25.0206 21.0114C24.9371 20.8345 24.7759 20.7068 24.5847 20.6662C22.5072 20.2244 20.9994 18.2117 20.9994 15.8802C20.9994 14.0419 21.9255 12.3781 23.4162 11.5383C23.6157 11.4259 23.738 11.2135 23.7352 10.9844C23.7351 10.9671 23.7345 10.9498 23.7339 10.9327C23.7335 10.9227 23.7331 10.9128 23.7331 10.9029C23.7331 9.59736 24.118 8.36377 24.8462 7.33569C25.0462 7.05329 24.9797 6.66206 24.6976 6.46198C24.4155 6.26169 24.0247 6.32848 23.8248 6.61072C22.9953 7.7819 22.5348 9.16935 22.4855 10.6384C20.7875 11.7468 19.7473 13.721 19.7473 15.8803C19.7473 18.6889 21.5285 21.1354 24.0251 21.8195C24.9648 23.5911 26.6269 24.7375 28.4978 24.921V28.7466H28.1012C28.009 27.1064 26.8889 25.6795 25.3292 25.1977C24.8398 24.1554 23.8892 23.3997 22.7714 23.1547C22.4049 21.4871 20.9053 20.2437 19.1578 20.2437C17.8103 20.2437 16.5885 20.9686 15.9371 22.1226C14.6544 22.1714 13.5011 22.8574 12.8386 23.9201C12.4257 22.7831 11.3681 21.9552 10.1298 21.8662V20.2184C11.82 19.9832 13.3167 18.925 14.1911 17.3241C15.3527 17.0554 16.4077 16.3808 17.1887 15.4007C18.0391 14.3336 18.5074 12.9698 18.5074 11.5606C18.5074 9.4218 17.4157 7.44163 15.6969 6.40871C15.5104 2.84176 12.7605 0 9.41214 0C8.12778 0 6.89241 0.414637 5.83946 1.19926C5.56218 1.40587 5.50466 1.79859 5.71106 2.07623C5.91747 2.3538 6.30972 2.41138 6.58715 2.20476C7.42226 1.58232 8.39913 1.25342 9.41214 1.25342C12.1873 1.25342 14.4493 3.73471 14.4546 6.78464C14.455 7.02053 14.5877 7.23621 14.7979 7.34275C16.2906 8.09899 17.255 9.75464 17.255 11.5606C17.255 13.8396 15.7141 15.8126 13.6706 16.15C13.4695 16.1833 13.2971 16.3123 13.2086 16.4962C12.5744 17.8127 11.433 18.7063 10.1297 18.9485V13.6825L13.0711 10.975C13.3256 10.7407 13.3422 10.3442 13.1082 10.0895C12.8742 9.83465 12.4781 9.81801 12.2236 10.0524L10.1297 11.9798V8.03517C10.1297 7.68903 9.84937 7.40842 9.50358 7.40842C9.1578 7.40842 8.87747 7.68903 8.87747 8.03517V15.2366L6.78368 13.3093C6.52911 13.0749 6.13307 13.0916 5.89906 13.3463C5.66498 13.6011 5.6816 13.9976 5.9361 14.2318L8.8774 16.9394V18.9779C7.48534 18.7872 6.25954 17.8599 5.59937 16.4619C5.51587 16.285 5.35459 16.1573 5.16348 16.1167C3.1868 15.6961 1.75207 13.7801 1.75207 11.5606C1.75207 9.81014 2.63343 8.22618 4.05227 7.42692C4.25162 7.31459 4.37394 7.10255 4.37126 6.87358C4.37112 6.85664 4.3706 6.8397 4.37 6.82283C4.36978 6.81369 4.36933 6.80463 4.36933 6.79534C4.36933 6.02015 4.51206 5.27052 4.7935 4.56733C4.87721 4.35841 4.97363 4.15321 5.08028 3.95722C5.24564 3.65321 5.13357 3.27267 4.82986 3.10714C4.52616 2.94147 4.14593 3.05373 3.98065 3.35774C3.85069 3.59667 3.73313 3.84674 3.6313 4.10113C3.32285 4.87164 3.15192 5.6865 3.12201 6.52721C1.4958 7.5946 0.5 9.48911 0.5 11.5606C0.5 14.2573 2.20837 16.6071 4.60401 17.2694C5.50488 18.9599 7.09087 20.0568 8.87747 20.2404V22.0331C8.19228 22.2727 7.60588 22.7466 7.22862 23.3831C5.70817 23.4696 4.47962 24.5937 4.24153 26.0762C3.12015 26.5747 2.28645 27.5634 1.97948 28.7465H1.12611C0.780325 28.7465 0.5 29.0271 0.5 29.3732C0.5 29.7193 0.780325 30 1.12611 30H2.49768H16.6315H27.456H37.8562C38.202 30 38.4823 29.7193 38.4823 29.3732C38.4823 29.0271 38.2019 28.7466 37.8562 28.7466ZM3.29264 28.7466C3.5913 27.9847 4.21956 27.3778 5.01994 27.1183C5.27176 27.0366 5.44506 26.8054 5.45286 26.5406C5.4844 25.4699 6.34749 24.6312 7.41781 24.6312C7.4607 24.6312 7.50761 24.6332 7.56528 24.6375C7.83351 24.6568 8.08444 24.5035 8.18857 24.2552C8.4804 23.5603 9.15542 23.1111 9.9083 23.1111C10.8751 23.1111 11.6912 23.8661 11.7663 24.83C11.7903 25.1376 12.0345 25.382 12.3419 25.4061C12.5126 25.4194 12.6776 25.4569 12.8339 25.5141C12.8346 25.5144 12.8352 25.5147 12.8359 25.5149C12.8649 25.5256 12.8935 25.5372 12.9218 25.5492C12.9279 25.5518 12.9341 25.5544 12.9401 25.5571C12.9666 25.5686 12.9928 25.5807 13.0186 25.5934C13.0274 25.5978 13.036 25.6023 13.0446 25.6068C13.0803 25.6251 13.1153 25.6445 13.1496 25.6649C13.1683 25.6762 13.1871 25.687 13.2054 25.6989C13.2193 25.7078 13.2326 25.7174 13.2462 25.7265C13.2667 25.7406 13.2871 25.7548 13.3072 25.7697C13.3185 25.7782 13.3297 25.7866 13.3408 25.7953C13.365 25.8142 13.3889 25.8337 13.4121 25.8538C13.4186 25.8593 13.425 25.8646 13.4314 25.8701C13.4931 25.9248 13.5512 25.9837 13.6053 26.0463C13.6103 26.0521 13.6152 26.0579 13.6201 26.0638C13.6429 26.0907 13.6648 26.1184 13.6861 26.1467C13.6902 26.1522 13.6944 26.1575 13.6984 26.163C13.7471 26.2293 13.7914 26.2991 13.8311 26.372C13.8364 26.3817 13.8414 26.3915 13.8466 26.4014C13.8607 26.4283 13.8741 26.4558 13.887 26.4837C13.8921 26.4947 13.8972 26.5057 13.9021 26.5167C13.9179 26.5528 13.9329 26.5895 13.9465 26.6267C13.947 26.628 13.9474 26.6292 13.948 26.6306C14.0214 26.8335 14.194 26.9844 14.4048 27.0299C14.4607 27.0419 14.5156 27.0566 14.5695 27.0732C14.5871 27.0786 14.6042 27.0852 14.6217 27.0911C14.6576 27.1031 14.6933 27.1154 14.7283 27.1294C14.7485 27.1375 14.7682 27.1466 14.788 27.1553C14.8192 27.169 14.8503 27.1829 14.8807 27.198C14.9012 27.2082 14.9211 27.2192 14.9412 27.23C14.97 27.2456 14.9985 27.2616 15.0263 27.2785C15.0461 27.2904 15.0656 27.3028 15.085 27.3155C15.112 27.3331 15.1387 27.3514 15.1648 27.3703C15.1834 27.3837 15.2018 27.3972 15.2199 27.4112C15.2458 27.4313 15.2709 27.4522 15.2958 27.4733C15.3126 27.4877 15.3297 27.502 15.3461 27.5168C15.3716 27.54 15.3959 27.5641 15.4202 27.5884C15.4345 27.6028 15.4493 27.6168 15.4632 27.6317C15.4905 27.6607 15.5164 27.691 15.542 27.7215C15.5515 27.7329 15.5616 27.7436 15.5708 27.7551C15.605 27.7977 15.6376 27.8416 15.6683 27.8868C15.6747 27.8962 15.6803 27.9063 15.6865 27.9158C15.7102 27.952 15.7333 27.9884 15.7548 28.026C15.7644 28.043 15.7731 28.0606 15.7823 28.078C15.7989 28.109 15.8152 28.1401 15.8303 28.172C15.8397 28.1919 15.848 28.2121 15.8567 28.2322C15.8699 28.2627 15.8826 28.2933 15.8944 28.3245C15.9024 28.3459 15.9097 28.3675 15.9171 28.3892C15.9275 28.4201 15.9373 28.4512 15.9464 28.4827C15.9528 28.505 15.9587 28.5274 15.9644 28.5499C15.9724 28.5819 15.9793 28.6141 15.9858 28.6465C15.9903 28.669 15.9947 28.6916 15.9985 28.7145C16.0003 28.7251 16.0012 28.7359 16.0027 28.7466H3.29264ZM17.2652 28.7467V28.7466C17.2647 28.7407 17.2634 28.7348 17.263 28.7289C17.2558 28.6541 17.2465 28.5797 17.2342 28.5063C17.2335 28.502 17.2325 28.4976 17.2318 28.4933C17.219 28.4184 17.2038 28.3442 17.186 28.2708C17.1852 28.2676 17.1847 28.2644 17.1838 28.2613C17.166 28.1886 17.1452 28.1169 17.1227 28.046C17.1202 28.0384 17.118 28.0306 17.1155 28.0231C17.0932 27.9549 17.0684 27.8877 17.0418 27.8213C17.0379 27.8117 17.0342 27.802 17.0303 27.7925C17.0036 27.7275 16.9747 27.6636 16.944 27.6007C16.9391 27.5907 16.9343 27.5809 16.9293 27.571C16.898 27.5084 16.8649 27.4469 16.8299 27.3866C16.8245 27.3774 16.8192 27.3684 16.8138 27.3593C16.7777 27.2985 16.7399 27.2387 16.7001 27.1804C16.6953 27.1733 16.6902 27.1664 16.6853 27.1594C16.6437 27.0995 16.6006 27.0407 16.5554 26.9837C16.5525 26.9802 16.5495 26.9768 16.5467 26.9731C16.4993 26.914 16.4502 26.8563 16.3989 26.8005C16.3983 26.7999 16.3978 26.7993 16.3973 26.7987C16.3465 26.7436 16.2936 26.6903 16.2392 26.6386C16.2344 26.634 16.2298 26.6294 16.2251 26.6249C16.1728 26.5758 16.1186 26.5285 16.0631 26.4828C16.0556 26.4767 16.0483 26.4704 16.0408 26.4643C15.9862 26.4201 15.9301 26.3777 15.8725 26.3369C15.8636 26.3306 15.8547 26.3242 15.8458 26.318C15.7884 26.278 15.7295 26.2398 15.6694 26.2035C15.66 26.1979 15.6505 26.1922 15.641 26.1866C15.5801 26.1506 15.5181 26.1164 15.4548 26.0842C15.4461 26.0797 15.4372 26.0756 15.4285 26.0713C15.3632 26.039 15.2968 26.0083 15.2291 25.9803C15.223 25.9777 15.217 25.9756 15.211 25.9731C15.1399 25.9442 15.0679 25.9172 14.9944 25.8933C14.9942 25.8932 14.9939 25.893 14.9936 25.8929C14.9904 25.8864 14.9867 25.8804 14.9835 25.874C14.9582 25.8233 14.9317 25.7734 14.9038 25.7244C14.8896 25.6993 14.8744 25.6749 14.8595 25.6502C14.8415 25.6206 14.8233 25.591 14.8044 25.562C14.7862 25.534 14.7675 25.5065 14.7483 25.4791C14.7317 25.4554 14.7146 25.4321 14.6974 25.4089C14.6758 25.3795 14.654 25.3503 14.6313 25.3218C14.6179 25.3051 14.6039 25.289 14.5903 25.2727C14.5375 25.2092 14.4823 25.1479 14.4247 25.0887C14.4147 25.0785 14.4052 25.068 14.3952 25.058C14.3666 25.0294 14.3369 25.0021 14.3073 24.9747C14.2901 24.9589 14.273 24.9431 14.2555 24.9276C14.2272 24.9027 14.1984 24.8782 14.169 24.8541C14.1476 24.8366 14.1259 24.8197 14.104 24.8027C14.0768 24.7817 14.0498 24.7604 14.0218 24.7402C13.9825 24.7117 13.9423 24.6845 13.9016 24.6578C13.8907 24.6507 13.8804 24.6428 13.8694 24.6358C14.3257 23.8642 15.161 23.3736 16.0838 23.3736C16.1403 23.3736 16.2016 23.3762 16.2767 23.3817C16.5446 23.4017 16.7958 23.2477 16.9 22.9995C17.283 22.087 18.1693 21.4974 19.1578 21.4974C20.4272 21.4974 21.4987 22.4888 21.5973 23.7543C21.6212 24.062 21.8654 24.3064 22.1728 24.3304C23.1278 24.4049 23.9557 25.036 24.2819 25.9384C24.3553 26.1413 24.528 26.2922 24.7387 26.3377C25.8939 26.5869 26.7508 27.5812 26.8471 28.7469H17.2652V28.7467Z"/>
</mask>
<path d="M37.8562 28.7466H29.7498V24.8987C31.52 24.6604 33.0889 23.5537 34.0012 21.8759C35.2133 21.5986 36.3144 20.8961 37.1289 19.8739C38.0132 18.7642 38.5002 17.3459 38.5002 15.8803C38.5002 13.6508 37.3598 11.5873 35.5654 10.5154C35.3784 6.7975 32.5153 3.833 29.0282 3.833C27.9306 3.833 26.8446 4.13204 25.8876 4.69779C25.5898 4.87379 25.491 5.25804 25.6668 5.55604C25.8427 5.85418 26.2266 5.95307 26.5242 5.77706C27.2885 5.3252 28.1544 5.08642 29.0282 5.08642C31.9423 5.08642 34.3174 7.69067 34.3229 10.8917C34.3234 11.1276 34.456 11.3433 34.6663 11.4498C36.2347 12.2444 37.248 13.9834 37.248 15.8802C37.248 18.2741 35.6285 20.3468 33.4807 20.7014C33.2796 20.7347 33.1072 20.8637 33.0187 21.0476C32.347 22.442 31.1334 23.3846 29.7498 23.6299V18.0842L32.8311 15.2479C33.0856 15.0136 33.1022 14.6171 32.8681 14.3624C32.6339 14.1076 32.238 14.0909 31.9835 14.3253L29.7498 16.3814V12.1977C29.7498 11.8516 29.4695 11.571 29.1237 11.571C28.7779 11.571 28.4976 11.8516 28.4976 12.1977V19.7832L26.2639 17.7271C26.0094 17.4927 25.6133 17.5094 25.3793 17.7642C25.1452 18.0189 25.1618 18.4154 25.4163 18.6497L28.4976 21.486V23.6593C27.0213 23.4689 25.7192 22.491 25.0206 21.0114C24.9371 20.8345 24.7759 20.7068 24.5847 20.6662C22.5072 20.2244 20.9994 18.2117 20.9994 15.8802C20.9994 14.0419 21.9255 12.3781 23.4162 11.5383C23.6157 11.4259 23.738 11.2135 23.7352 10.9844C23.7351 10.9671 23.7345 10.9498 23.7339 10.9327C23.7335 10.9227 23.7331 10.9128 23.7331 10.9029C23.7331 9.59736 24.118 8.36377 24.8462 7.33569C25.0462 7.05329 24.9797 6.66206 24.6976 6.46198C24.4155 6.26169 24.0247 6.32848 23.8248 6.61072C22.9953 7.7819 22.5348 9.16935 22.4855 10.6384C20.7875 11.7468 19.7473 13.721 19.7473 15.8803C19.7473 18.6889 21.5285 21.1354 24.0251 21.8195C24.9648 23.5911 26.6269 24.7375 28.4978 24.921V28.7466H28.1012C28.009 27.1064 26.8889 25.6795 25.3292 25.1977C24.8398 24.1554 23.8892 23.3997 22.7714 23.1547C22.4049 21.4871 20.9053 20.2437 19.1578 20.2437C17.8103 20.2437 16.5885 20.9686 15.9371 22.1226C14.6544 22.1714 13.5011 22.8574 12.8386 23.9201C12.4257 22.7831 11.3681 21.9552 10.1298 21.8662V20.2184C11.82 19.9832 13.3167 18.925 14.1911 17.3241C15.3527 17.0554 16.4077 16.3808 17.1887 15.4007C18.0391 14.3336 18.5074 12.9698 18.5074 11.5606C18.5074 9.4218 17.4157 7.44163 15.6969 6.40871C15.5104 2.84176 12.7605 0 9.41214 0C8.12778 0 6.89241 0.414637 5.83946 1.19926C5.56218 1.40587 5.50466 1.79859 5.71106 2.07623C5.91747 2.3538 6.30972 2.41138 6.58715 2.20476C7.42226 1.58232 8.39913 1.25342 9.41214 1.25342C12.1873 1.25342 14.4493 3.73471 14.4546 6.78464C14.455 7.02053 14.5877 7.23621 14.7979 7.34275C16.2906 8.09899 17.255 9.75464 17.255 11.5606C17.255 13.8396 15.7141 15.8126 13.6706 16.15C13.4695 16.1833 13.2971 16.3123 13.2086 16.4962C12.5744 17.8127 11.433 18.7063 10.1297 18.9485V13.6825L13.0711 10.975C13.3256 10.7407 13.3422 10.3442 13.1082 10.0895C12.8742 9.83465 12.4781 9.81801 12.2236 10.0524L10.1297 11.9798V8.03517C10.1297 7.68903 9.84937 7.40842 9.50358 7.40842C9.1578 7.40842 8.87747 7.68903 8.87747 8.03517V15.2366L6.78368 13.3093C6.52911 13.0749 6.13307 13.0916 5.89906 13.3463C5.66498 13.6011 5.6816 13.9976 5.9361 14.2318L8.8774 16.9394V18.9779C7.48534 18.7872 6.25954 17.8599 5.59937 16.4619C5.51587 16.285 5.35459 16.1573 5.16348 16.1167C3.1868 15.6961 1.75207 13.7801 1.75207 11.5606C1.75207 9.81014 2.63343 8.22618 4.05227 7.42692C4.25162 7.31459 4.37394 7.10255 4.37126 6.87358C4.37112 6.85664 4.3706 6.8397 4.37 6.82283C4.36978 6.81369 4.36933 6.80463 4.36933 6.79534C4.36933 6.02015 4.51206 5.27052 4.7935 4.56733C4.87721 4.35841 4.97363 4.15321 5.08028 3.95722C5.24564 3.65321 5.13357 3.27267 4.82986 3.10714C4.52616 2.94147 4.14593 3.05373 3.98065 3.35774C3.85069 3.59667 3.73313 3.84674 3.6313 4.10113C3.32285 4.87164 3.15192 5.6865 3.12201 6.52721C1.4958 7.5946 0.5 9.48911 0.5 11.5606C0.5 14.2573 2.20837 16.6071 4.60401 17.2694C5.50488 18.9599 7.09087 20.0568 8.87747 20.2404V22.0331C8.19228 22.2727 7.60588 22.7466 7.22862 23.3831C5.70817 23.4696 4.47962 24.5937 4.24153 26.0762C3.12015 26.5747 2.28645 27.5634 1.97948 28.7465H1.12611C0.780325 28.7465 0.5 29.0271 0.5 29.3732C0.5 29.7193 0.780325 30 1.12611 30H2.49768H16.6315H27.456H37.8562C38.202 30 38.4823 29.7193 38.4823 29.3732C38.4823 29.0271 38.2019 28.7466 37.8562 28.7466ZM3.29264 28.7466C3.5913 27.9847 4.21956 27.3778 5.01994 27.1183C5.27176 27.0366 5.44506 26.8054 5.45286 26.5406C5.4844 25.4699 6.34749 24.6312 7.41781 24.6312C7.4607 24.6312 7.50761 24.6332 7.56528 24.6375C7.83351 24.6568 8.08444 24.5035 8.18857 24.2552C8.4804 23.5603 9.15542 23.1111 9.9083 23.1111C10.8751 23.1111 11.6912 23.8661 11.7663 24.83C11.7903 25.1376 12.0345 25.382 12.3419 25.4061C12.5126 25.4194 12.6776 25.4569 12.8339 25.5141C12.8346 25.5144 12.8352 25.5147 12.8359 25.5149C12.8649 25.5256 12.8935 25.5372 12.9218 25.5492C12.9279 25.5518 12.9341 25.5544 12.9401 25.5571C12.9666 25.5686 12.9928 25.5807 13.0186 25.5934C13.0274 25.5978 13.036 25.6023 13.0446 25.6068C13.0803 25.6251 13.1153 25.6445 13.1496 25.6649C13.1683 25.6762 13.1871 25.687 13.2054 25.6989C13.2193 25.7078 13.2326 25.7174 13.2462 25.7265C13.2667 25.7406 13.2871 25.7548 13.3072 25.7697C13.3185 25.7782 13.3297 25.7866 13.3408 25.7953C13.365 25.8142 13.3889 25.8337 13.4121 25.8538C13.4186 25.8593 13.425 25.8646 13.4314 25.8701C13.4931 25.9248 13.5512 25.9837 13.6053 26.0463C13.6103 26.0521 13.6152 26.0579 13.6201 26.0638C13.6429 26.0907 13.6648 26.1184 13.6861 26.1467C13.6902 26.1522 13.6944 26.1575 13.6984 26.163C13.7471 26.2293 13.7914 26.2991 13.8311 26.372C13.8364 26.3817 13.8414 26.3915 13.8466 26.4014C13.8607 26.4283 13.8741 26.4558 13.887 26.4837C13.8921 26.4947 13.8972 26.5057 13.9021 26.5167C13.9179 26.5528 13.9329 26.5895 13.9465 26.6267C13.947 26.628 13.9474 26.6292 13.948 26.6306C14.0214 26.8335 14.194 26.9844 14.4048 27.0299C14.4607 27.0419 14.5156 27.0566 14.5695 27.0732C14.5871 27.0786 14.6042 27.0852 14.6217 27.0911C14.6576 27.1031 14.6933 27.1154 14.7283 27.1294C14.7485 27.1375 14.7682 27.1466 14.788 27.1553C14.8192 27.169 14.8503 27.1829 14.8807 27.198C14.9012 27.2082 14.9211 27.2192 14.9412 27.23C14.97 27.2456 14.9985 27.2616 15.0263 27.2785C15.0461 27.2904 15.0656 27.3028 15.085 27.3155C15.112 27.3331 15.1387 27.3514 15.1648 27.3703C15.1834 27.3837 15.2018 27.3972 15.2199 27.4112C15.2458 27.4313 15.2709 27.4522 15.2958 27.4733C15.3126 27.4877 15.3297 27.502 15.3461 27.5168C15.3716 27.54 15.3959 27.5641 15.4202 27.5884C15.4345 27.6028 15.4493 27.6168 15.4632 27.6317C15.4905 27.6607 15.5164 27.691 15.542 27.7215C15.5515 27.7329 15.5616 27.7436 15.5708 27.7551C15.605 27.7977 15.6376 27.8416 15.6683 27.8868C15.6747 27.8962 15.6803 27.9063 15.6865 27.9158C15.7102 27.952 15.7333 27.9884 15.7548 28.026C15.7644 28.043 15.7731 28.0606 15.7823 28.078C15.7989 28.109 15.8152 28.1401 15.8303 28.172C15.8397 28.1919 15.848 28.2121 15.8567 28.2322C15.8699 28.2627 15.8826 28.2933 15.8944 28.3245C15.9024 28.3459 15.9097 28.3675 15.9171 28.3892C15.9275 28.4201 15.9373 28.4512 15.9464 28.4827C15.9528 28.505 15.9587 28.5274 15.9644 28.5499C15.9724 28.5819 15.9793 28.6141 15.9858 28.6465C15.9903 28.669 15.9947 28.6916 15.9985 28.7145C16.0003 28.7251 16.0012 28.7359 16.0027 28.7466H3.29264ZM17.2652 28.7467V28.7466C17.2647 28.7407 17.2634 28.7348 17.263 28.7289C17.2558 28.6541 17.2465 28.5797 17.2342 28.5063C17.2335 28.502 17.2325 28.4976 17.2318 28.4933C17.219 28.4184 17.2038 28.3442 17.186 28.2708C17.1852 28.2676 17.1847 28.2644 17.1838 28.2613C17.166 28.1886 17.1452 28.1169 17.1227 28.046C17.1202 28.0384 17.118 28.0306 17.1155 28.0231C17.0932 27.9549 17.0684 27.8877 17.0418 27.8213C17.0379 27.8117 17.0342 27.802 17.0303 27.7925C17.0036 27.7275 16.9747 27.6636 16.944 27.6007C16.9391 27.5907 16.9343 27.5809 16.9293 27.571C16.898 27.5084 16.8649 27.4469 16.8299 27.3866C16.8245 27.3774 16.8192 27.3684 16.8138 27.3593C16.7777 27.2985 16.7399 27.2387 16.7001 27.1804C16.6953 27.1733 16.6902 27.1664 16.6853 27.1594C16.6437 27.0995 16.6006 27.0407 16.5554 26.9837C16.5525 26.9802 16.5495 26.9768 16.5467 26.9731C16.4993 26.914 16.4502 26.8563 16.3989 26.8005C16.3983 26.7999 16.3978 26.7993 16.3973 26.7987C16.3465 26.7436 16.2936 26.6903 16.2392 26.6386C16.2344 26.634 16.2298 26.6294 16.2251 26.6249C16.1728 26.5758 16.1186 26.5285 16.0631 26.4828C16.0556 26.4767 16.0483 26.4704 16.0408 26.4643C15.9862 26.4201 15.9301 26.3777 15.8725 26.3369C15.8636 26.3306 15.8547 26.3242 15.8458 26.318C15.7884 26.278 15.7295 26.2398 15.6694 26.2035C15.66 26.1979 15.6505 26.1922 15.641 26.1866C15.5801 26.1506 15.5181 26.1164 15.4548 26.0842C15.4461 26.0797 15.4372 26.0756 15.4285 26.0713C15.3632 26.039 15.2968 26.0083 15.2291 25.9803C15.223 25.9777 15.217 25.9756 15.211 25.9731C15.1399 25.9442 15.0679 25.9172 14.9944 25.8933C14.9942 25.8932 14.9939 25.893 14.9936 25.8929C14.9904 25.8864 14.9867 25.8804 14.9835 25.874C14.9582 25.8233 14.9317 25.7734 14.9038 25.7244C14.8896 25.6993 14.8744 25.6749 14.8595 25.6502C14.8415 25.6206 14.8233 25.591 14.8044 25.562C14.7862 25.534 14.7675 25.5065 14.7483 25.4791C14.7317 25.4554 14.7146 25.4321 14.6974 25.4089C14.6758 25.3795 14.654 25.3503 14.6313 25.3218C14.6179 25.3051 14.6039 25.289 14.5903 25.2727C14.5375 25.2092 14.4823 25.1479 14.4247 25.0887C14.4147 25.0785 14.4052 25.068 14.3952 25.058C14.3666 25.0294 14.3369 25.0021 14.3073 24.9747C14.2901 24.9589 14.273 24.9431 14.2555 24.9276C14.2272 24.9027 14.1984 24.8782 14.169 24.8541C14.1476 24.8366 14.1259 24.8197 14.104 24.8027C14.0768 24.7817 14.0498 24.7604 14.0218 24.7402C13.9825 24.7117 13.9423 24.6845 13.9016 24.6578C13.8907 24.6507 13.8804 24.6428 13.8694 24.6358C14.3257 23.8642 15.161 23.3736 16.0838 23.3736C16.1403 23.3736 16.2016 23.3762 16.2767 23.3817C16.5446 23.4017 16.7958 23.2477 16.9 22.9995C17.283 22.087 18.1693 21.4974 19.1578 21.4974C20.4272 21.4974 21.4987 22.4888 21.5973 23.7543C21.6212 24.062 21.8654 24.3064 22.1728 24.3304C23.1278 24.4049 23.9557 25.036 24.2819 25.9384C24.3553 26.1413 24.528 26.2922 24.7387 26.3377C25.8939 26.5869 26.7508 27.5812 26.8471 28.7469H17.2652V28.7467Z" fill="url(#paint0_linear_686_29697)"/>
<path d="M37.8562 28.7466H29.7498V24.8987C31.52 24.6604 33.0889 23.5537 34.0012 21.8759C35.2133 21.5986 36.3144 20.8961 37.1289 19.8739C38.0132 18.7642 38.5002 17.3459 38.5002 15.8803C38.5002 13.6508 37.3598 11.5873 35.5654 10.5154C35.3784 6.7975 32.5153 3.833 29.0282 3.833C27.9306 3.833 26.8446 4.13204 25.8876 4.69779C25.5898 4.87379 25.491 5.25804 25.6668 5.55604C25.8427 5.85418 26.2266 5.95307 26.5242 5.77706C27.2885 5.3252 28.1544 5.08642 29.0282 5.08642C31.9423 5.08642 34.3174 7.69067 34.3229 10.8917C34.3234 11.1276 34.456 11.3433 34.6663 11.4498C36.2347 12.2444 37.248 13.9834 37.248 15.8802C37.248 18.2741 35.6285 20.3468 33.4807 20.7014C33.2796 20.7347 33.1072 20.8637 33.0187 21.0476C32.347 22.442 31.1334 23.3846 29.7498 23.6299V18.0842L32.8311 15.2479C33.0856 15.0136 33.1022 14.6171 32.8681 14.3624C32.6339 14.1076 32.238 14.0909 31.9835 14.3253L29.7498 16.3814V12.1977C29.7498 11.8516 29.4695 11.571 29.1237 11.571C28.7779 11.571 28.4976 11.8516 28.4976 12.1977V19.7832L26.2639 17.7271C26.0094 17.4927 25.6133 17.5094 25.3793 17.7642C25.1452 18.0189 25.1618 18.4154 25.4163 18.6497L28.4976 21.486V23.6593C27.0213 23.4689 25.7192 22.491 25.0206 21.0114C24.9371 20.8345 24.7759 20.7068 24.5847 20.6662C22.5072 20.2244 20.9994 18.2117 20.9994 15.8802C20.9994 14.0419 21.9255 12.3781 23.4162 11.5383C23.6157 11.4259 23.738 11.2135 23.7352 10.9844C23.7351 10.9671 23.7345 10.9498 23.7339 10.9327C23.7335 10.9227 23.7331 10.9128 23.7331 10.9029C23.7331 9.59736 24.118 8.36377 24.8462 7.33569C25.0462 7.05329 24.9797 6.66206 24.6976 6.46198C24.4155 6.26169 24.0247 6.32848 23.8248 6.61072C22.9953 7.7819 22.5348 9.16935 22.4855 10.6384C20.7875 11.7468 19.7473 13.721 19.7473 15.8803C19.7473 18.6889 21.5285 21.1354 24.0251 21.8195C24.9648 23.5911 26.6269 24.7375 28.4978 24.921V28.7466H28.1012C28.009 27.1064 26.8889 25.6795 25.3292 25.1977C24.8398 24.1554 23.8892 23.3997 22.7714 23.1547C22.4049 21.4871 20.9053 20.2437 19.1578 20.2437C17.8103 20.2437 16.5885 20.9686 15.9371 22.1226C14.6544 22.1714 13.5011 22.8574 12.8386 23.9201C12.4257 22.7831 11.3681 21.9552 10.1298 21.8662V20.2184C11.82 19.9832 13.3167 18.925 14.1911 17.3241C15.3527 17.0554 16.4077 16.3808 17.1887 15.4007C18.0391 14.3336 18.5074 12.9698 18.5074 11.5606C18.5074 9.4218 17.4157 7.44163 15.6969 6.40871C15.5104 2.84176 12.7605 0 9.41214 0C8.12778 0 6.89241 0.414637 5.83946 1.19926C5.56218 1.40587 5.50466 1.79859 5.71106 2.07623C5.91747 2.3538 6.30972 2.41138 6.58715 2.20476C7.42226 1.58232 8.39913 1.25342 9.41214 1.25342C12.1873 1.25342 14.4493 3.73471 14.4546 6.78464C14.455 7.02053 14.5877 7.23621 14.7979 7.34275C16.2906 8.09899 17.255 9.75464 17.255 11.5606C17.255 13.8396 15.7141 15.8126 13.6706 16.15C13.4695 16.1833 13.2971 16.3123 13.2086 16.4962C12.5744 17.8127 11.433 18.7063 10.1297 18.9485V13.6825L13.0711 10.975C13.3256 10.7407 13.3422 10.3442 13.1082 10.0895C12.8742 9.83465 12.4781 9.81801 12.2236 10.0524L10.1297 11.9798V8.03517C10.1297 7.68903 9.84937 7.40842 9.50358 7.40842C9.1578 7.40842 8.87747 7.68903 8.87747 8.03517V15.2366L6.78368 13.3093C6.52911 13.0749 6.13307 13.0916 5.89906 13.3463C5.66498 13.6011 5.6816 13.9976 5.9361 14.2318L8.8774 16.9394V18.9779C7.48534 18.7872 6.25954 17.8599 5.59937 16.4619C5.51587 16.285 5.35459 16.1573 5.16348 16.1167C3.1868 15.6961 1.75207 13.7801 1.75207 11.5606C1.75207 9.81014 2.63343 8.22618 4.05227 7.42692C4.25162 7.31459 4.37394 7.10255 4.37126 6.87358C4.37112 6.85664 4.3706 6.8397 4.37 6.82283C4.36978 6.81369 4.36933 6.80463 4.36933 6.79534C4.36933 6.02015 4.51206 5.27052 4.7935 4.56733C4.87721 4.35841 4.97363 4.15321 5.08028 3.95722C5.24564 3.65321 5.13357 3.27267 4.82986 3.10714C4.52616 2.94147 4.14593 3.05373 3.98065 3.35774C3.85069 3.59667 3.73313 3.84674 3.6313 4.10113C3.32285 4.87164 3.15192 5.6865 3.12201 6.52721C1.4958 7.5946 0.5 9.48911 0.5 11.5606C0.5 14.2573 2.20837 16.6071 4.60401 17.2694C5.50488 18.9599 7.09087 20.0568 8.87747 20.2404V22.0331C8.19228 22.2727 7.60588 22.7466 7.22862 23.3831C5.70817 23.4696 4.47962 24.5937 4.24153 26.0762C3.12015 26.5747 2.28645 27.5634 1.97948 28.7465H1.12611C0.780325 28.7465 0.5 29.0271 0.5 29.3732C0.5 29.7193 0.780325 30 1.12611 30H2.49768H16.6315H27.456H37.8562C38.202 30 38.4823 29.7193 38.4823 29.3732C38.4823 29.0271 38.2019 28.7466 37.8562 28.7466ZM3.29264 28.7466C3.5913 27.9847 4.21956 27.3778 5.01994 27.1183C5.27176 27.0366 5.44506 26.8054 5.45286 26.5406C5.4844 25.4699 6.34749 24.6312 7.41781 24.6312C7.4607 24.6312 7.50761 24.6332 7.56528 24.6375C7.83351 24.6568 8.08444 24.5035 8.18857 24.2552C8.4804 23.5603 9.15542 23.1111 9.9083 23.1111C10.8751 23.1111 11.6912 23.8661 11.7663 24.83C11.7903 25.1376 12.0345 25.382 12.3419 25.4061C12.5126 25.4194 12.6776 25.4569 12.8339 25.5141C12.8346 25.5144 12.8352 25.5147 12.8359 25.5149C12.8649 25.5256 12.8935 25.5372 12.9218 25.5492C12.9279 25.5518 12.9341 25.5544 12.9401 25.5571C12.9666 25.5686 12.9928 25.5807 13.0186 25.5934C13.0274 25.5978 13.036 25.6023 13.0446 25.6068C13.0803 25.6251 13.1153 25.6445 13.1496 25.6649C13.1683 25.6762 13.1871 25.687 13.2054 25.6989C13.2193 25.7078 13.2326 25.7174 13.2462 25.7265C13.2667 25.7406 13.2871 25.7548 13.3072 25.7697C13.3185 25.7782 13.3297 25.7866 13.3408 25.7953C13.365 25.8142 13.3889 25.8337 13.4121 25.8538C13.4186 25.8593 13.425 25.8646 13.4314 25.8701C13.4931 25.9248 13.5512 25.9837 13.6053 26.0463C13.6103 26.0521 13.6152 26.0579 13.6201 26.0638C13.6429 26.0907 13.6648 26.1184 13.6861 26.1467C13.6902 26.1522 13.6944 26.1575 13.6984 26.163C13.7471 26.2293 13.7914 26.2991 13.8311 26.372C13.8364 26.3817 13.8414 26.3915 13.8466 26.4014C13.8607 26.4283 13.8741 26.4558 13.887 26.4837C13.8921 26.4947 13.8972 26.5057 13.9021 26.5167C13.9179 26.5528 13.9329 26.5895 13.9465 26.6267C13.947 26.628 13.9474 26.6292 13.948 26.6306C14.0214 26.8335 14.194 26.9844 14.4048 27.0299C14.4607 27.0419 14.5156 27.0566 14.5695 27.0732C14.5871 27.0786 14.6042 27.0852 14.6217 27.0911C14.6576 27.1031 14.6933 27.1154 14.7283 27.1294C14.7485 27.1375 14.7682 27.1466 14.788 27.1553C14.8192 27.169 14.8503 27.1829 14.8807 27.198C14.9012 27.2082 14.9211 27.2192 14.9412 27.23C14.97 27.2456 14.9985 27.2616 15.0263 27.2785C15.0461 27.2904 15.0656 27.3028 15.085 27.3155C15.112 27.3331 15.1387 27.3514 15.1648 27.3703C15.1834 27.3837 15.2018 27.3972 15.2199 27.4112C15.2458 27.4313 15.2709 27.4522 15.2958 27.4733C15.3126 27.4877 15.3297 27.502 15.3461 27.5168C15.3716 27.54 15.3959 27.5641 15.4202 27.5884C15.4345 27.6028 15.4493 27.6168 15.4632 27.6317C15.4905 27.6607 15.5164 27.691 15.542 27.7215C15.5515 27.7329 15.5616 27.7436 15.5708 27.7551C15.605 27.7977 15.6376 27.8416 15.6683 27.8868C15.6747 27.8962 15.6803 27.9063 15.6865 27.9158C15.7102 27.952 15.7333 27.9884 15.7548 28.026C15.7644 28.043 15.7731 28.0606 15.7823 28.078C15.7989 28.109 15.8152 28.1401 15.8303 28.172C15.8397 28.1919 15.848 28.2121 15.8567 28.2322C15.8699 28.2627 15.8826 28.2933 15.8944 28.3245C15.9024 28.3459 15.9097 28.3675 15.9171 28.3892C15.9275 28.4201 15.9373 28.4512 15.9464 28.4827C15.9528 28.505 15.9587 28.5274 15.9644 28.5499C15.9724 28.5819 15.9793 28.6141 15.9858 28.6465C15.9903 28.669 15.9947 28.6916 15.9985 28.7145C16.0003 28.7251 16.0012 28.7359 16.0027 28.7466H3.29264ZM17.2652 28.7467V28.7466C17.2647 28.7407 17.2634 28.7348 17.263 28.7289C17.2558 28.6541 17.2465 28.5797 17.2342 28.5063C17.2335 28.502 17.2325 28.4976 17.2318 28.4933C17.219 28.4184 17.2038 28.3442 17.186 28.2708C17.1852 28.2676 17.1847 28.2644 17.1838 28.2613C17.166 28.1886 17.1452 28.1169 17.1227 28.046C17.1202 28.0384 17.118 28.0306 17.1155 28.0231C17.0932 27.9549 17.0684 27.8877 17.0418 27.8213C17.0379 27.8117 17.0342 27.802 17.0303 27.7925C17.0036 27.7275 16.9747 27.6636 16.944 27.6007C16.9391 27.5907 16.9343 27.5809 16.9293 27.571C16.898 27.5084 16.8649 27.4469 16.8299 27.3866C16.8245 27.3774 16.8192 27.3684 16.8138 27.3593C16.7777 27.2985 16.7399 27.2387 16.7001 27.1804C16.6953 27.1733 16.6902 27.1664 16.6853 27.1594C16.6437 27.0995 16.6006 27.0407 16.5554 26.9837C16.5525 26.9802 16.5495 26.9768 16.5467 26.9731C16.4993 26.914 16.4502 26.8563 16.3989 26.8005C16.3983 26.7999 16.3978 26.7993 16.3973 26.7987C16.3465 26.7436 16.2936 26.6903 16.2392 26.6386C16.2344 26.634 16.2298 26.6294 16.2251 26.6249C16.1728 26.5758 16.1186 26.5285 16.0631 26.4828C16.0556 26.4767 16.0483 26.4704 16.0408 26.4643C15.9862 26.4201 15.9301 26.3777 15.8725 26.3369C15.8636 26.3306 15.8547 26.3242 15.8458 26.318C15.7884 26.278 15.7295 26.2398 15.6694 26.2035C15.66 26.1979 15.6505 26.1922 15.641 26.1866C15.5801 26.1506 15.5181 26.1164 15.4548 26.0842C15.4461 26.0797 15.4372 26.0756 15.4285 26.0713C15.3632 26.039 15.2968 26.0083 15.2291 25.9803C15.223 25.9777 15.217 25.9756 15.211 25.9731C15.1399 25.9442 15.0679 25.9172 14.9944 25.8933C14.9942 25.8932 14.9939 25.893 14.9936 25.8929C14.9904 25.8864 14.9867 25.8804 14.9835 25.874C14.9582 25.8233 14.9317 25.7734 14.9038 25.7244C14.8896 25.6993 14.8744 25.6749 14.8595 25.6502C14.8415 25.6206 14.8233 25.591 14.8044 25.562C14.7862 25.534 14.7675 25.5065 14.7483 25.4791C14.7317 25.4554 14.7146 25.4321 14.6974 25.4089C14.6758 25.3795 14.654 25.3503 14.6313 25.3218C14.6179 25.3051 14.6039 25.289 14.5903 25.2727C14.5375 25.2092 14.4823 25.1479 14.4247 25.0887C14.4147 25.0785 14.4052 25.068 14.3952 25.058C14.3666 25.0294 14.3369 25.0021 14.3073 24.9747C14.2901 24.9589 14.273 24.9431 14.2555 24.9276C14.2272 24.9027 14.1984 24.8782 14.169 24.8541C14.1476 24.8366 14.1259 24.8197 14.104 24.8027C14.0768 24.7817 14.0498 24.7604 14.0218 24.7402C13.9825 24.7117 13.9423 24.6845 13.9016 24.6578C13.8907 24.6507 13.8804 24.6428 13.8694 24.6358C14.3257 23.8642 15.161 23.3736 16.0838 23.3736C16.1403 23.3736 16.2016 23.3762 16.2767 23.3817C16.5446 23.4017 16.7958 23.2477 16.9 22.9995C17.283 22.087 18.1693 21.4974 19.1578 21.4974C20.4272 21.4974 21.4987 22.4888 21.5973 23.7543C21.6212 24.062 21.8654 24.3064 22.1728 24.3304C23.1278 24.4049 23.9557 25.036 24.2819 25.9384C24.3553 26.1413 24.528 26.2922 24.7387 26.3377C25.8939 26.5869 26.7508 27.5812 26.8471 28.7469H17.2652V28.7467Z" stroke="url(#paint1_linear_686_29697)" stroke-width="0.5" mask="url(#path-1-outside-1_686_29697)"/>
<defs>
<linearGradient id="paint0_linear_686_29697" x1="4.73431" y1="3.6893e-06" x2="35.1392" y2="0.854462" gradientUnits="userSpaceOnUse">
<stop stop-color="#4AC0B4"/>
<stop offset="1" stop-color="#3BB1A5"/>
</linearGradient>
<linearGradient id="paint1_linear_686_29697" x1="4.73431" y1="3.6893e-06" x2="35.1392" y2="0.854462" gradientUnits="userSpaceOnUse">
<stop stop-color="#4AC0B4"/>
<stop offset="1" stop-color="#3BB1A5"/>
</linearGradient>
</defs>
</svg>
