<svg width="40" height="33" viewBox="0 0 40 33" fill="none" xmlns="http://www.w3.org/2000/svg">
<path d="M26 1.5H14C10.8174 1.5 7.76516 2.76428 5.51472 5.01472C3.26428 7.26516 2 10.3174 2 13.5C2 16.6826 3.26428 19.7348 5.51472 21.9853C7.76516 24.2357 10.8174 25.5 14 25.5H15.2V31.5L22.4 25.5H26C29.1826 25.5 32.2348 24.2357 34.4853 21.9853C36.7357 19.7348 38 16.6826 38 13.5C38 10.3174 36.7357 7.26516 34.4853 5.01472C32.2348 2.76428 29.1826 1.5 26 1.5Z" stroke="#3EA99E" stroke-width="2.304" stroke-miterlimit="10" stroke-linecap="round" stroke-linejoin="round"/>
<path d="M12.8006 14.7003C13.4633 14.7003 14.0006 14.163 14.0006 13.5003C14.0006 12.8376 13.4633 12.3003 12.8006 12.3003C12.1378 12.3003 11.6006 12.8376 11.6006 13.5003C11.6006 14.163 12.1378 14.7003 12.8006 14.7003Z" stroke="#4AC0B4" stroke-width="2.304" stroke-miterlimit="10" stroke-linecap="round" stroke-linejoin="round"/>
<path d="M20.0008 14.7003C20.6635 14.7003 21.2008 14.163 21.2008 13.5003C21.2008 12.8376 20.6635 12.3003 20.0008 12.3003C19.338 12.3003 18.8008 12.8376 18.8008 13.5003C18.8008 14.163 19.338 14.7003 20.0008 14.7003Z" stroke="#4AC0B4" stroke-width="2.304" stroke-miterlimit="10" stroke-linecap="round" stroke-linejoin="round"/>
<path d="M27.2 14.7003C27.8627 14.7003 28.4 14.163 28.4 13.5003C28.4 12.8376 27.8627 12.3003 27.2 12.3003C26.5373 12.3003 26 12.8376 26 13.5003C26 14.163 26.5373 14.7003 27.2 14.7003Z" stroke="#4AC0B4" stroke-width="2.304" stroke-miterlimit="10" stroke-linecap="round" stroke-linejoin="round"/>
</svg>
