<svg width="16" height="17" viewBox="0 0 16 17" fill="none" xmlns="http://www.w3.org/2000/svg">
<g clip-path="url(#clip0_1922_6324)">
<path d="M15.8206 6.61517L13.2506 4.47517V2.75017C13.2506 2.61756 13.1979 2.49039 13.1042 2.39662C13.0104 2.30285 12.8832 2.25017 12.7506 2.25017C12.618 2.25017 12.4908 2.30285 12.3971 2.39662C12.3033 2.49039 12.2506 2.61756 12.2506 2.75017V3.64017L8.96063 0.900172C8.69109 0.675672 8.35141 0.552734 8.00063 0.552734C7.64984 0.552734 7.31016 0.675672 7.04063 0.900172L0.180626 6.61517C0.0785177 6.70004 0.0143056 6.822 0.00211575 6.95421C-0.0100741 7.08642 0.0307568 7.21806 0.115626 7.32017C0.200495 7.42228 0.322451 7.48649 0.454664 7.49868C0.586877 7.51087 0.718518 7.47004 0.820626 7.38517L7.68063 1.66767C7.77047 1.59284 7.8837 1.55186 8.00063 1.55186C8.11755 1.55186 8.23078 1.59284 8.32063 1.66767L14.0006 6.40017V15.0002C14.0006 15.1328 13.9479 15.26 13.8542 15.3537C13.7604 15.4475 13.6332 15.5002 13.5006 15.5002H11.0006V10.0002C11.0006 9.60235 10.8426 9.22082 10.5613 8.93951C10.28 8.65821 9.89845 8.50017 9.50063 8.50017H6.50063C6.1028 8.50017 5.72127 8.65821 5.43997 8.93951C5.15866 9.22082 5.00063 9.60235 5.00063 10.0002V15.5002H2.50063C2.36802 15.5002 2.24084 15.4475 2.14707 15.3537C2.0533 15.26 2.00063 15.1328 2.00063 15.0002V9.00017C2.00063 8.86756 1.94795 8.74039 1.85418 8.64662C1.76041 8.55285 1.63323 8.50017 1.50063 8.50017C1.36802 8.50017 1.24084 8.55285 1.14707 8.64662C1.0533 8.74039 1.00063 8.86756 1.00063 9.00017V15.0002C1.00063 15.398 1.15866 15.7795 1.43997 16.0608C1.72127 16.3421 2.1028 16.5002 2.50063 16.5002H13.5006C13.8984 16.5002 14.28 16.3421 14.5613 16.0608C14.8426 15.7795 15.0006 15.398 15.0006 15.0002V7.23517L15.1806 7.38517C15.2706 7.45971 15.3838 7.5004 15.5006 7.50017C15.6036 7.50037 15.7041 7.46879 15.7884 7.40973C15.8728 7.35067 15.9368 7.26701 15.9718 7.17019C16.0068 7.07337 16.0111 6.9681 15.984 6.86876C15.957 6.76943 15.8999 6.68086 15.8206 6.61517ZM6.00063 15.5002V10.0002C6.00063 9.86756 6.0533 9.74039 6.14707 9.64662C6.24084 9.55285 6.36802 9.50017 6.50063 9.50017H9.50063C9.63323 9.50017 9.76041 9.55285 9.85418 9.64662C9.94795 9.74039 10.0006 9.86756 10.0006 10.0002V15.5002H6.00063Z" fill="#4AC0B4"/>
<path d="M7.5 13C7.77614 13 8 12.7761 8 12.5C8 12.2239 7.77614 12 7.5 12C7.22386 12 7 12.2239 7 12.5C7 12.7761 7.22386 13 7.5 13Z" fill="#4AC0B4"/>
</g>
<defs>
<clipPath id="clip0_1922_6324">
<rect width="16" height="16" fill="white" transform="translate(0 0.5)"/>
</clipPath>
</defs>
</svg>
