<svg xmlns="http://www.w3.org/2000/svg" width="30" height="30" fill="none" viewBox="0 0 30 30">
  <g clip-path="url(#a)">
    <mask id="b" width="32" height="32" x="-1" y="-.999" fill="#000" maskUnits="userSpaceOnUse">
      <path fill="#fff" d="M-1-.999h32v32H-1z"/>
      <path d="M25 18.026V13c0-1.973-6.285-2.5-10-2.5-3.714 0-10 .527-10 2.5v5.026A5.505 5.505 0 0 0 0 23.5a2 2 0 0 0 2 2v3A1.5 1.5 0 0 0 3.5 30h1a1.5 1.5 0 0 0 1.49-1.403C6.473 28.138 9.874 27.5 15 27.5c5.125 0 8.526.638 9.01 1.096A1.5 1.5 0 0 0 25.5 30h1a1.5 1.5 0 0 0 1.5-1.5v-3a2 2 0 0 0 2-2 5.505 5.505 0 0 0-5-5.474ZM15 11.5c5.544 0 8.794.98 9 1.51V18h-1.092c.06-.16.09-.33.092-.5V15a1.5 1.5 0 0 0-1.5-1.5H17a1.5 1.5 0 0 0-1.5 1.5v2.5c.002.17.033.34.092.5h-1.184c.06-.16.09-.33.092-.5V15a1.5 1.5 0 0 0-1.5-1.5H8.5A1.5 1.5 0 0 0 7 15v2.5c.002.17.033.34.092.5H6v-4.984c.182-.529 3.437-1.516 9-1.516Zm1.5 6V15a.5.5 0 0 1 .5-.5h4.5a.5.5 0 0 1 .5.5v2.5a.5.5 0 0 1-.5.5H17a.5.5 0 0 1-.5-.5Zm-8.5 0V15a.5.5 0 0 1 .5-.5H13a.5.5 0 0 1 .5.5v2.5a.5.5 0 0 1-.5.5H8.5a.5.5 0 0 1-.5-.5ZM4.5 29h-1a.5.5 0 0 1-.5-.5v-3h2v3a.5.5 0 0 1-.5.5ZM6 27.51V25.5h18v2.01c-2.263-.95-7.688-1.01-9-1.01-1.313 0-6.737.06-9 1.01Zm21 .99a.5.5 0 0 1-.5.5h-1a.5.5 0 0 1-.5-.5v-3h2v3Zm1-4H2a1 1 0 0 1-1-1A4.505 4.505 0 0 1 5.5 19h19a4.505 4.505 0 0 1 4.5 4.5 1 1 0 0 1-1 1Z"/>
      <path d="M5.5 20a3.49 3.49 0 0 0-3.45 2.917.5.5 0 0 0 .985.166A2.492 2.492 0 0 1 5.5 21a.5.5 0 0 0 0-1Zm2 1a.5.5 0 1 0 0-1 .5.5 0 0 0 0 1ZM21 9a1 1 0 0 0 1-1V1.553A1 1 0 0 0 20.186.97l-1.139 1.596L17.868.504a1 1 0 0 0-1.736 0L15 2.484 13.868.505a1 1 0 0 0-1.736 0l-1.179 2.063L9.813.97A1 1 0 0 0 8 1.553V8a1 1 0 0 0 1 1h12ZM9 1.55l1.594 2.23a.482.482 0 0 0 .431.21.5.5 0 0 0 .409-.25L13 1l1.566 2.74a.52.52 0 0 0 .868 0L17 1l1.566 2.74a.5.5 0 0 0 .84.041L21 1.553V8H9V1.55Z"/>
      <path d="M13.5 6a.5.5 0 1 0 0-1 .5.5 0 0 0 0 1Zm-3 0a.5.5 0 1 0 0-1 .5.5 0 0 0 0 1Zm9 0a.5.5 0 1 0 0-1 .5.5 0 0 0 0 1Zm-3 0a.5.5 0 1 0 0-1 .5.5 0 0 0 0 1Z"/>
    </mask>
    <path fill="#4AC0B4" d="M25 18.026V13c0-1.973-6.285-2.5-10-2.5-3.714 0-10 .527-10 2.5v5.026A5.505 5.505 0 0 0 0 23.5a2 2 0 0 0 2 2v3A1.5 1.5 0 0 0 3.5 30h1a1.5 1.5 0 0 0 1.49-1.403C6.473 28.138 9.874 27.5 15 27.5c5.125 0 8.526.638 9.01 1.096A1.5 1.5 0 0 0 25.5 30h1a1.5 1.5 0 0 0 1.5-1.5v-3a2 2 0 0 0 2-2 5.505 5.505 0 0 0-5-5.474ZM15 11.5c5.544 0 8.794.98 9 1.51V18h-1.092c.06-.16.09-.33.092-.5V15a1.5 1.5 0 0 0-1.5-1.5H17a1.5 1.5 0 0 0-1.5 1.5v2.5c.002.17.033.34.092.5h-1.184c.06-.16.09-.33.092-.5V15a1.5 1.5 0 0 0-1.5-1.5H8.5A1.5 1.5 0 0 0 7 15v2.5c.002.17.033.34.092.5H6v-4.984c.182-.529 3.437-1.516 9-1.516Zm1.5 6V15a.5.5 0 0 1 .5-.5h4.5a.5.5 0 0 1 .5.5v2.5a.5.5 0 0 1-.5.5H17a.5.5 0 0 1-.5-.5Zm-8.5 0V15a.5.5 0 0 1 .5-.5H13a.5.5 0 0 1 .5.5v2.5a.5.5 0 0 1-.5.5H8.5a.5.5 0 0 1-.5-.5ZM4.5 29h-1a.5.5 0 0 1-.5-.5v-3h2v3a.5.5 0 0 1-.5.5ZM6 27.51V25.5h18v2.01c-2.263-.95-7.688-1.01-9-1.01-1.313 0-6.737.06-9 1.01Zm21 .99a.5.5 0 0 1-.5.5h-1a.5.5 0 0 1-.5-.5v-3h2v3Zm1-4H2a1 1 0 0 1-1-1A4.505 4.505 0 0 1 5.5 19h19a4.505 4.505 0 0 1 4.5 4.5 1 1 0 0 1-1 1Z"/>
    <path fill="#4AC0B4" d="M5.5 20a3.49 3.49 0 0 0-3.45 2.917.5.5 0 0 0 .985.166A2.492 2.492 0 0 1 5.5 21a.5.5 0 0 0 0-1Zm2 1a.5.5 0 1 0 0-1 .5.5 0 0 0 0 1ZM21 9a1 1 0 0 0 1-1V1.553A1 1 0 0 0 20.186.97l-1.139 1.596L17.868.504a1 1 0 0 0-1.736 0L15 2.484 13.868.505a1 1 0 0 0-1.736 0l-1.179 2.063L9.813.97A1 1 0 0 0 8 1.553V8a1 1 0 0 0 1 1h12ZM9 1.55l1.594 2.23a.482.482 0 0 0 .431.21.5.5 0 0 0 .409-.25L13 1l1.566 2.74a.52.52 0 0 0 .868 0L17 1l1.566 2.74a.5.5 0 0 0 .84.041L21 1.553V8H9V1.55Z"/>
    <path fill="#4AC0B4" d="M13.5 6a.5.5 0 1 0 0-1 .5.5 0 0 0 0 1Zm-3 0a.5.5 0 1 0 0-1 .5.5 0 0 0 0 1Zm9 0a.5.5 0 1 0 0-1 .5.5 0 0 0 0 1Zm-3 0a.5.5 0 1 0 0-1 .5.5 0 0 0 0 1Z"/>
    <path stroke="#4AC0B4" stroke-width=".4" d="M25 18.026V13c0-1.973-6.285-2.5-10-2.5-3.714 0-10 .527-10 2.5v5.026A5.505 5.505 0 0 0 0 23.5a2 2 0 0 0 2 2v3A1.5 1.5 0 0 0 3.5 30h1a1.5 1.5 0 0 0 1.49-1.403C6.473 28.138 9.874 27.5 15 27.5c5.125 0 8.526.638 9.01 1.096A1.5 1.5 0 0 0 25.5 30h1a1.5 1.5 0 0 0 1.5-1.5v-3a2 2 0 0 0 2-2 5.505 5.505 0 0 0-5-5.474ZM15 11.5c5.544 0 8.794.98 9 1.51V18h-1.092c.06-.16.09-.33.092-.5V15a1.5 1.5 0 0 0-1.5-1.5H17a1.5 1.5 0 0 0-1.5 1.5v2.5c.002.17.033.34.092.5h-1.184c.06-.16.09-.33.092-.5V15a1.5 1.5 0 0 0-1.5-1.5H8.5A1.5 1.5 0 0 0 7 15v2.5c.002.17.033.34.092.5H6v-4.984c.182-.529 3.437-1.516 9-1.516Zm1.5 6V15a.5.5 0 0 1 .5-.5h4.5a.5.5 0 0 1 .5.5v2.5a.5.5 0 0 1-.5.5H17a.5.5 0 0 1-.5-.5Zm-8.5 0V15a.5.5 0 0 1 .5-.5H13a.5.5 0 0 1 .5.5v2.5a.5.5 0 0 1-.5.5H8.5a.5.5 0 0 1-.5-.5ZM4.5 29h-1a.5.5 0 0 1-.5-.5v-3h2v3a.5.5 0 0 1-.5.5ZM6 27.51V25.5h18v2.01c-2.263-.95-7.688-1.01-9-1.01-1.313 0-6.737.06-9 1.01Zm21 .99a.5.5 0 0 1-.5.5h-1a.5.5 0 0 1-.5-.5v-3h2v3Zm1-4H2a1 1 0 0 1-1-1A4.505 4.505 0 0 1 5.5 19h19a4.505 4.505 0 0 1 4.5 4.5 1 1 0 0 1-1 1Z" mask="url(#b)"/>
    <path stroke="#4AC0B4" stroke-width=".4" d="M5.5 20a3.49 3.49 0 0 0-3.45 2.917.5.5 0 0 0 .985.166A2.492 2.492 0 0 1 5.5 21a.5.5 0 0 0 0-1Zm2 1a.5.5 0 1 0 0-1 .5.5 0 0 0 0 1ZM21 9a1 1 0 0 0 1-1V1.553A1 1 0 0 0 20.186.97l-1.139 1.596L17.868.504a1 1 0 0 0-1.736 0L15 2.484 13.868.505a1 1 0 0 0-1.736 0l-1.179 2.063L9.813.97A1 1 0 0 0 8 1.553V8a1 1 0 0 0 1 1h12ZM9 1.55l1.594 2.23a.482.482 0 0 0 .431.21.5.5 0 0 0 .409-.25L13 1l1.566 2.74a.52.52 0 0 0 .868 0L17 1l1.566 2.74a.5.5 0 0 0 .84.041L21 1.553V8H9V1.55Z" mask="url(#b)"/>
    <path stroke="#4AC0B4" stroke-width=".4" d="M13.5 6a.5.5 0 1 0 0-1 .5.5 0 0 0 0 1Zm-3 0a.5.5 0 1 0 0-1 .5.5 0 0 0 0 1Zm9 0a.5.5 0 1 0 0-1 .5.5 0 0 0 0 1Zm-3 0a.5.5 0 1 0 0-1 .5.5 0 0 0 0 1Z" mask="url(#b)"/>
  </g>
  <defs>
    <clipPath id="a">
      <path fill="#fff" d="M0 0h30v30H0z"/>
    </clipPath>
  </defs>
</svg>
