<svg width="22" height="22" viewBox="0 0 22 22" fill="none" xmlns="http://www.w3.org/2000/svg">
<path d="M3.37601 2.7765C3.79795 2.37144 4.29584 2.15625 4.81061 2.15625C5.32538 2.15625 5.81483 2.37144 6.22411 2.7765C6.49837 3.02967 6.7642 3.29971 7.01736 3.56131L3.37601 2.7765ZM3.37601 2.7765L3.36757 2.78494L3.37601 2.7765ZM6.31048 2.68612C6.5869 2.94136 6.85421 3.21297 7.10719 3.47439L7.10857 3.47581L7.10855 3.47582C7.23352 3.60912 7.36709 3.74271 7.49816 3.87377L8.65005 5.02567C9.11253 5.48814 9.35122 6.02712 9.35122 6.57397C9.35122 7.12083 9.11253 7.6598 8.65005 8.12227C8.59144 8.18089 8.53276 8.24062 8.47362 8.30081L8.47346 8.30097C8.41462 8.36086 8.35533 8.42121 8.29597 8.48058C8.26593 8.51102 8.23579 8.54161 8.20552 8.57233C7.94233 8.83941 7.66983 9.11595 7.37991 9.38488C7.62867 9.91497 7.96787 10.4453 8.46505 11.0738C9.54622 12.4021 10.6711 13.4259 11.9067 14.2107C12.0231 14.2829 12.1608 14.3519 12.3138 14.4284L12.3155 14.4293C12.35 14.4473 12.3856 14.4655 12.4219 14.4841C12.4672 14.5074 12.5134 14.5311 12.5598 14.5554L13.8277 13.2915L6.31048 2.68612ZM6.31048 2.68612C5.8812 2.26195 5.36177 2.03125 4.81061 2.03125C4.25913 2.03125 3.73125 2.2622 3.28945 2.68633L3.28943 2.68631L3.28762 2.68812L3.2876 2.68814L3.28757 2.68817L3.28755 2.68819L3.28752 2.68821L3.2875 2.68824L3.28748 2.68826L3.28745 2.68829L3.28743 2.68831L3.2874 2.68833L3.28738 2.68836L3.28736 2.68838L3.28733 2.68841L3.28731 2.68843L3.28729 2.68845L3.28726 2.68848L3.28724 2.6885L3.28722 2.68852L3.28719 2.68855L3.28717 2.68857L3.28715 2.68859L3.28712 2.68861L3.2871 2.68864L3.28708 2.68866L3.28706 2.68868L3.28703 2.6887L3.28701 2.68873L3.28699 2.68875L3.28697 2.68877L3.28694 2.68879L3.28692 2.68882L3.2869 2.68884L3.28688 2.68886L3.28686 2.68888L3.28683 2.6889L3.28681 2.68892L3.28679 2.68895L3.28677 2.68897L3.28675 2.68899L3.28673 2.68901L3.28671 2.68903L3.28669 2.68905L3.28666 2.68907L3.28664 2.68909L3.28662 2.68912L3.2866 2.68914L3.28658 2.68916L3.28656 2.68918L3.28654 2.6892L3.28652 2.68922L3.2865 2.68924L3.28648 2.68926L3.28646 2.68928L3.28644 2.6893L3.28642 2.68932L3.2864 2.68934L3.28638 2.68936L3.28636 2.68938L3.28634 2.6894L3.28632 2.68942L3.2863 2.68944L3.28628 2.68946L3.28626 2.68948L3.28624 2.6895L3.28622 2.68952L3.2862 2.68954L3.28618 2.68956L3.28616 2.68957L3.28614 2.68959L3.28613 2.68961L3.28611 2.68963L3.28609 2.68965L3.28607 2.68967L3.28605 2.68969L3.28603 2.68971L3.28601 2.68973L3.28599 2.68974L3.28598 2.68976L3.28596 2.68978L3.28594 2.6898L3.28592 2.68982L3.2859 2.68984L3.28589 2.68985L3.28587 2.68987L3.28585 2.68989L3.28583 2.68991L3.28581 2.68993L3.2858 2.68994L3.28578 2.68996L3.28576 2.68998L3.28574 2.69L3.28572 2.69001L3.28571 2.69003L3.28569 2.69005L3.28567 2.69007L3.28566 2.69008L3.28564 2.6901L3.28562 2.69012L3.2856 2.69013L3.28559 2.69015L3.28557 2.69017L3.28555 2.69019L3.28554 2.6902L3.28552 2.69022L3.2855 2.69024L3.28549 2.69025L3.28547 2.69027L3.28545 2.69029L3.28544 2.6903L3.28542 2.69032L3.2854 2.69033L3.28539 2.69035L3.28537 2.69037L3.28535 2.69038L3.28534 2.6904L3.28532 2.69042L3.28531 2.69043L3.28529 2.69045L3.28527 2.69046L3.28526 2.69048L3.28524 2.6905L3.28523 2.69051L3.28521 2.69053L3.28519 2.69054L3.28518 2.69056L3.28516 2.69057L3.28515 2.69059L3.28513 2.69061L3.28512 2.69062L3.2851 2.69064L3.28509 2.69065L3.28507 2.69067L3.28506 2.69068L3.28504 2.6907L3.28503 2.69071L3.28501 2.69073L3.28499 2.69074L3.28498 2.69076L3.28496 2.69077L3.28495 2.69079L3.28493 2.6908L3.28492 2.69082L3.28491 2.69083L3.28489 2.69085L3.28488 2.69086L3.28486 2.69088L3.28485 2.69089L3.28483 2.69091L3.28482 2.69092L3.2848 2.69094L3.28479 2.69095L3.28477 2.69096L3.28476 2.69098L3.28474 2.69099L3.28473 2.69101L3.28472 2.69102L3.2847 2.69104L3.28469 2.69105L3.28467 2.69106L3.28466 2.69108L3.28465 2.69109L3.28463 2.69111L3.28462 2.69112L3.2846 2.69114L3.28459 2.69115L3.28458 2.69116L3.28456 2.69118L3.28455 2.69119L3.28453 2.6912L3.28452 2.69122L3.28451 2.69123L3.28449 2.69125L3.28448 2.69126L3.28446 2.69127L3.28445 2.69129L3.28444 2.6913L3.28442 2.69131L3.28441 2.69133L3.2844 2.69134L3.28438 2.69135L3.28437 2.69137L3.28436 2.69138L3.28434 2.6914L3.28433 2.69141L3.28432 2.69142L3.2843 2.69144L3.28429 2.69145L3.28428 2.69146L3.28426 2.69148L3.28425 2.69149L3.28424 2.6915L3.28422 2.69151L3.28421 2.69153L3.2842 2.69154L3.28418 2.69155L3.28417 2.69157L3.28416 2.69158L3.28415 2.69159L3.28413 2.69161L3.28412 2.69162L3.28411 2.69163L3.28409 2.69165L3.28408 2.69166L3.28407 2.69167L3.28405 2.69168L3.28404 2.6917L3.28403 2.69171L3.28402 2.69172L3.284 2.69174L3.28399 2.69175L3.28398 2.69176L3.28396 2.69177L3.28395 2.69179L3.28394 2.6918L3.28393 2.69181L3.28391 2.69182L3.2839 2.69184L3.28389 2.69185L3.28388 2.69186L3.28386 2.69187L3.28385 2.69189L3.28384 2.6919L3.28383 2.69191L3.28381 2.69193L3.2838 2.69194L3.28379 2.69195L3.28378 2.69196L3.28376 2.69198L3.28375 2.69199L3.28374 2.692L3.28373 2.69201L3.28371 2.69203L3.2837 2.69204L3.28369 2.69205L3.28368 2.69206L3.28366 2.69208L3.28365 2.69209L3.28364 2.6921L3.28363 2.69211L3.28361 2.69213L3.2836 2.69214L3.28359 2.69215L3.28358 2.69216L3.28356 2.69217L3.28355 2.69219L3.28354 2.6922L3.28353 2.69221L3.28351 2.69222L3.2835 2.69224L3.28349 2.69225L3.28348 2.69226L3.28346 2.69227L3.28345 2.69229L3.28344 2.6923L3.28343 2.69231L3.28342 2.69232L3.2834 2.69234L3.28339 2.69235L3.28338 2.69236L3.28337 2.69237L3.28335 2.69238L3.28334 2.6924L3.28333 2.69241L3.28332 2.69242L3.2833 2.69243L3.28329 2.69245L3.28328 2.69246L3.28327 2.69247L3.28325 2.69248L3.28324 2.6925L3.28323 2.69251L3.28322 2.69252L3.28321 2.69253L3.28319 2.69255L3.28318 2.69256L3.28317 2.69257L3.28316 2.69258L3.28314 2.6926L3.28313 2.69261L3.28312 2.69262L3.28311 2.69263L3.28309 2.69265L3.28308 2.69266L3.28307 2.69267L3.28306 2.69268L3.28304 2.6927L3.28303 2.69271L3.28302 2.69272L3.28301 2.69273L3.28299 2.69275L3.28298 2.69276L3.28297 2.69277L3.28295 2.69278L3.28294 2.6928L3.28293 2.69281L3.28292 2.69282L3.2829 2.69283L3.28289 2.69285L3.28288 2.69286L3.28287 2.69287L3.28285 2.69288L3.28284 2.6929L3.28283 2.69291L3.28282 2.69292L3.2828 2.69294L3.28279 2.69295L3.28278 2.69296L3.28276 2.69297L3.28275 2.69299L3.28274 2.693L3.28273 2.69301L3.28271 2.69303L3.2827 2.69304L3.28269 2.69305L3.28267 2.69306L3.28266 2.69308L3.28265 2.69309L3.28263 2.6931L3.28262 2.69312L3.28261 2.69313L3.2826 2.69314L3.28258 2.69316L3.28257 2.69317L3.28256 2.69318L3.28254 2.6932L3.28253 2.69321L3.28252 2.69322L3.2825 2.69324L3.28249 2.69325L3.28248 2.69326L3.28246 2.69328L3.28245 2.69329L3.28244 2.6933L3.28242 2.69332L3.28241 2.69333L3.2824 2.69334L3.28238 2.69336L3.28237 2.69337L3.28235 2.69338L3.28234 2.6934L3.28233 2.69341L3.28231 2.69342L3.2823 2.69344L3.28229 2.69345L3.28227 2.69347L3.28226 2.69348L3.28224 2.69349L3.28223 2.69351L3.28222 2.69352L3.2822 2.69354L3.28219 2.69355L3.28217 2.69356L3.28216 2.69358L3.28215 2.69359L3.28213 2.69361L3.28212 2.69362L3.2821 2.69363L3.28209 2.69365L3.28208 2.69366L3.28206 2.69368L3.28205 2.69369L3.28203 2.69371L3.28202 2.69372L3.282 2.69374L3.28199 2.69375L3.28197 2.69376L3.28196 2.69378L3.28194 2.69379L3.28193 2.69381L3.28192 2.69382L3.2819 2.69384L3.28189 2.69385L3.28187 2.69387L3.28186 2.69388L3.28184 2.6939L3.28183 2.69391L3.28181 2.69393L3.2818 2.69394L3.28178 2.69396L3.28177 2.69397L3.28175 2.69399L3.28173 2.694L3.28172 2.69402L3.2817 2.69403L3.28169 2.69405L3.28167 2.69407L3.28166 2.69408L3.28164 2.6941L3.28163 2.69411L3.28161 2.69413L3.2816 2.69414L3.28158 2.69416L3.28156 2.69417L3.28155 2.69419L3.28153 2.69421L3.28152 2.69422L3.2815 2.69424L3.28148 2.69425L3.28147 2.69427L3.28145 2.69429L3.28144 2.6943L3.28142 2.69432L3.2814 2.69434L3.28139 2.69435L3.28137 2.69437L3.28135 2.69439L3.28134 2.6944L3.28132 2.69442L3.2813 2.69444L3.28129 2.69445L3.28127 2.69447L3.28125 2.69449L3.28124 2.6945L3.28122 2.69452L3.2812 2.69454L3.28118 2.69455L3.28117 2.69457L3.28115 2.69459L3.28113 2.69461L3.28112 2.69462L3.2811 2.69464L3.28108 2.69466L3.28106 2.69468L3.28105 2.69469L3.28103 2.69471L3.28101 2.69473L3.28099 2.69475L3.28097 2.69476L3.28096 2.69478L3.28094 2.6948L3.28092 2.69482L3.2809 2.69484L3.28088 2.69485L3.28087 2.69487L3.28085 2.69489L3.28083 2.69491L3.28081 2.69493L3.28079 2.69495L3.28077 2.69496L3.28076 2.69498L3.28074 2.695L3.28072 2.69502L3.2807 2.69504L3.28068 2.69506L3.28066 2.69508L3.28064 2.6951L3.28062 2.69512L3.2806 2.69513L3.28058 2.69515L3.28057 2.69517L3.28055 2.69519L3.28053 2.69521L3.28051 2.69523L3.28049 2.69525L3.28047 2.69527L3.28045 2.69529L3.28043 2.69531L3.28041 2.69533L3.28039 2.69535L3.28037 2.69537L3.28035 2.69539L3.28033 2.69541L3.28031 2.69543L3.28029 2.69545L3.28027 2.69547L3.28025 2.69549L3.28022 2.69551L3.2802 2.69553L3.28018 2.69556L3.28016 2.69558L3.28014 2.6956L3.28012 2.69562L3.2801 2.69564L3.28008 2.69566L3.28006 2.69568L3.28004 2.6957L3.28001 2.69572L3.27999 2.69575L3.27997 2.69577L3.27995 2.69579L3.27993 2.69581L3.27991 2.69583L3.27988 2.69585L3.27986 2.69588L3.27984 2.6959L3.27982 2.69592L3.27979 2.69594L3.27977 2.69597L3.27975 2.69599L3.27973 2.69601L3.2797 2.69603L3.27968 2.69606L3.27966 2.69608L3.27964 2.6961L3.27961 2.69613L3.27959 2.69615L3.27957 2.69617L3.27954 2.69619L3.27952 2.69622L3.2795 2.69624L3.27947 2.69627L3.27945 2.69629L3.27943 2.69631L3.2794 2.69634L3.27938 2.69636L3.27935 2.69638L3.27933 2.69641L3.27931 2.69643L3.27928 2.69646L3.27926 2.69648L3.27923 2.69651L3.27921 2.69653L3.27918 2.69655L3.2788 2.69694L1.84459 4.14381C1.84452 4.14388 1.84445 4.14394 1.84439 4.14401C1.28369 4.7048 0.962936 5.39035 0.892848 6.18322H0.892845L0.892782 6.18399C0.789181 7.44447 1.16032 8.61355 1.44024 9.36848C2.12956 11.2279 3.15867 12.9489 4.68919 14.7889L4.68946 14.7893C6.54866 17.0093 8.78631 18.763 11.3427 19.9988L11.3436 19.9992C12.317 20.4605 13.6302 21.0136 15.1022 21.108L15.1042 21.1081C15.1925 21.1123 15.2882 21.1167 15.376 21.1167C16.3842 21.1167 17.2366 20.7529 17.9025 20.03L17.9145 20.017L17.9159 20.0143C17.9169 20.0131 17.918 20.0119 17.9191 20.0106C17.9221 20.0071 17.9255 20.0027 17.929 19.9975C18.1263 19.7595 18.3517 19.5416 18.595 19.3062C18.614 19.2878 18.6331 19.2694 18.6523 19.2508C18.8344 19.0771 19.0215 18.8943 19.2048 18.7025M6.31048 2.68612L13.8278 13.2914C14.2734 12.8458 14.8018 12.6051 15.3591 12.6051C15.9209 12.6051 16.4456 12.8503 16.8747 13.2967L16.8738 13.2959L16.7853 13.3841M19.2048 18.7025C19.2047 18.7026 19.2046 18.7027 19.2045 18.7028L19.1144 18.6162L19.2048 18.7025ZM19.2048 18.7025C19.6411 18.2485 19.8765 17.7123 19.8765 17.1563C19.8765 16.5952 19.6362 16.0624 19.1899 15.6204L19.1903 15.6208L19.1017 15.709M19.1017 15.709L19.1897 15.6202L16.8754 13.2975L16.7853 13.3841M19.1017 15.709L16.7853 13.3841M19.1017 15.709L16.7853 13.3841M18.2165 17.7292C18.2087 17.7353 18.2007 17.7429 18.1934 17.7525C18.1923 17.754 18.191 17.7557 18.1897 17.7577C18.0616 17.8947 17.931 18.0217 17.7909 18.1579C17.7592 18.1887 17.727 18.22 17.6942 18.252C17.4201 18.5135 17.1387 18.7905 16.8734 19.1025C16.4724 19.5304 16.0043 19.7317 15.3802 19.7317C15.3161 19.7317 15.2529 19.7316 15.1945 19.7277L15.1941 19.7277C13.9663 19.6492 12.82 19.1689 11.9494 18.7526C9.57757 17.6044 7.49458 15.9742 5.76311 13.9074C4.3315 12.1818 3.37764 10.5906 2.74641 8.88502L2.74628 8.88467C2.35785 7.84469 2.21991 7.0453 2.28117 6.29749C2.32089 5.83319 2.49801 5.45153 2.82727 5.12228L4.26467 3.68488C4.45663 3.50512 4.64645 3.42049 4.81905 3.42049C5.03471 3.42049 5.21945 3.55199 5.3467 3.67924L5.35302 3.68556L5.35935 3.69189L5.3593 3.69194L5.3624 3.69484C5.61737 3.93309 5.86029 4.18016 6.11743 4.44573L6.11746 4.44576C6.18326 4.51369 6.25007 4.58156 6.317 4.64954L6.31836 4.65092C6.38495 4.71856 6.45167 4.78633 6.51834 4.85508L6.51833 4.85509L6.51969 4.85645L7.67159 6.00835C7.88334 6.2201 7.97042 6.40532 7.97042 6.57397C7.97042 6.74262 7.88334 6.92784 7.67159 7.13959C7.62952 7.18166 7.58851 7.22315 7.54796 7.26418C7.46844 7.34463 7.39071 7.42327 7.31028 7.50092L7.31025 7.50089L7.30769 7.50351C6.95374 7.86588 6.61852 8.20104 6.25459 8.52731L6.25447 8.52718L6.25097 8.53067L6.2493 8.53205L6.24456 8.53603C6.23981 8.5401 6.23012 8.54854 6.2202 8.56151C6.02587 8.75909 5.9406 8.96105 5.91851 9.1519C5.89649 9.34207 5.93852 9.51087 5.97833 9.63693L5.97832 9.63693L5.97895 9.63882L5.9916 9.67679L5.99131 9.67688L5.99465 9.68496C6.29988 10.4244 6.72878 11.1179 7.37486 11.9382L7.37943 11.944L7.38432 11.9489C8.55486 13.39 9.79127 14.5161 11.1572 15.38C11.3356 15.4931 11.5175 15.5841 11.685 15.6678L11.6872 15.6689C11.8404 15.7455 11.9784 15.8146 12.0949 15.8869L12.0946 15.8874L12.1049 15.8925C12.1063 15.8932 12.1081 15.8942 12.1116 15.8964C12.1137 15.8976 12.1164 15.8993 12.1199 15.9015L12.1212 15.9023C12.1288 15.9071 12.1417 15.9151 12.1556 15.9221C12.314 16.0013 12.4681 16.0407 12.6292 16.0407C13.0312 16.0407 13.2819 15.7901 13.3575 15.7144L13.3589 15.713L14.802 14.27C14.9398 14.1321 15.1368 13.9901 15.3507 13.9901C15.5602 13.9901 15.7443 14.124 15.8659 14.2573L15.8658 14.2574L15.8699 14.2615L15.8783 14.2699L15.8783 14.27L18.2032 16.5949L18.2037 16.5953C18.4065 16.7962 18.4927 16.9846 18.4931 17.1608C18.4935 17.3344 18.4108 17.5237 18.2165 17.7292ZM18.2958 17.8271V17.704C18.3062 17.7043 18.3178 17.7058 18.3302 17.7097C18.3458 17.7146 18.3624 17.7232 18.3771 17.7366C18.352 17.7668 18.3249 17.797 18.2958 17.8271Z" fill="#4AC0B4" stroke="#4AC0B4" stroke-width="0.25"/>
<path d="M16.8853 10.7656L16.8854 10.7657L16.8898 10.7649C17.2722 10.7029 17.5229 10.3417 17.4616 9.96332L17.4616 9.96332L17.4614 9.96233C17.2292 8.599 16.584 7.35611 15.5996 6.37173C14.6152 5.38735 13.3723 4.74213 12.009 4.50989L12.009 4.50989L12.008 4.50973C11.6288 4.44823 11.2736 4.6997 11.2067 5.07533C11.1401 5.44916 11.3856 5.81638 11.7693 5.8788C12.8485 6.06011 13.8291 6.5708 14.6127 7.35441C15.3961 8.13782 15.9028 9.11848 16.0884 10.1983C16.1453 10.5388 16.4395 10.775 16.7728 10.775C16.8115 10.775 16.8463 10.7706 16.8753 10.7669C16.8787 10.7664 16.8821 10.766 16.8853 10.7656Z" fill="#4AC0B4" stroke="#4AC0B4" stroke-width="0.25"/>
<path d="M11.367 1.4509L11.367 1.4509L11.3667 1.45281C11.3051 1.83258 11.5572 2.18748 11.9368 2.25416L11.9368 2.25416L11.9375 2.25429C13.8777 2.58321 15.6475 3.50328 17.0557 4.9072C18.4636 6.31511 19.3795 8.08472 19.7085 10.025C19.7653 10.3657 20.0596 10.602 20.393 10.602C20.4317 10.602 20.4666 10.5976 20.4955 10.5939C20.499 10.5935 20.5023 10.593 20.5056 10.5926L20.5056 10.5927L20.5087 10.5922C20.8866 10.5352 21.1442 10.1739 21.0773 9.79729C20.6973 7.56924 19.6471 5.54172 18.0341 3.92873C16.4211 2.31573 14.3936 1.26552 12.1655 0.88554C11.7871 0.818416 11.4334 1.07766 11.367 1.4509Z" fill="#4AC0B4" stroke="#4AC0B4" stroke-width="0.25"/>
</svg>
