<svg xmlns="http://www.w3.org/2000/svg" width="31" height="30" fill="none" viewBox="0 0 31 30">
  <g clip-path="url(#a)">
    <mask id="b" width="25" height="32" x="3.033" y="-1" fill="#000" maskUnits="userSpaceOnUse">
      <path fill="#fff" d="M3.033-1h25v32h-25z"/>
      <path d="M26.033 0a1.5 1.5 0 0 0-1.5 1.5V2h-11a2.503 2.503 0 0 0-2.5 2.5V7h-1a1.5 1.5 0 0 0-1.5 1.5v1.723a7.364 7.364 0 0 0-3.5 6.277v.592a1.5 1.5 0 0 0-1 1.408v1a.5.5 0 0 0 .5.5h16a.5.5 0 0 0 .5-.5v-1a1.5 1.5 0 0 0-1-1.408V16.5a7.47 7.47 0 0 0-2.2-5.306 6.744 6.744 0 0 0-1.3-.98V8.5a1.5 1.5 0 0 0-1.5-1.5h-1V5.5a.5.5 0 0 1 .5-.5h10v1a1.5 1.5 0 0 0 1.5 1.5h1.5V0h-1.5Zm-6 18.5v.5h-15v-.5a.5.5 0 0 1 .5-.5h14a.5.5 0 0 1 .5.5Zm-2.905-6.597a6.474 6.474 0 0 1 1.905 4.597v.5h-13v-.5A6.383 6.383 0 0 1 9.169 11h6.73c.448.246.861.55 1.23.903ZM15.033 8a.5.5 0 0 1 .5.5V10h-6V8.5a.5.5 0 0 1 .5-.5h5Zm9.5-4h-10a1.5 1.5 0 0 0-1.5 1.5V7h-1V4.5a1.5 1.5 0 0 1 1.5-1.5h11v1Zm2 2.5h-.5a.5.5 0 0 1-.5-.5V1.5a.5.5 0 0 1 .5-.5h.5v5.5Zm-14 14.5a.5.5 0 0 0-.5.5v2a.5.5 0 0 0 1 0v-2a.5.5 0 0 0-.5-.5Zm0 4a.5.5 0 0 0-.5.5v2a.5.5 0 0 0 1 0v-2a.5.5 0 0 0-.5-.5Zm6-2a.5.5 0 0 0-.5.5v2a.5.5 0 0 0 1 0v-2a.5.5 0 0 0-.5-.5Zm-4 0a.5.5 0 0 0-.5.5v2a.5.5 0 0 0 1 0v-2a.5.5 0 0 0-.5-.5Zm-4 0a.5.5 0 0 0-.5.5v2a.5.5 0 0 0 1 0v-2a.5.5 0 0 0-.5-.5Zm-4 0a.5.5 0 0 0-.5.5v2a.5.5 0 0 0 1 0v-2a.5.5 0 0 0-.5-.5Zm2-2a.5.5 0 0 0-.5.5v2a.5.5 0 0 0 1 0v-2a.5.5 0 0 0-.5-.5Zm8 0a.5.5 0 0 0-.5.5v2a.5.5 0 0 0 1 0v-2a.5.5 0 0 0-.5-.5Zm0 4a.5.5 0 0 0-.5.5v2a.5.5 0 0 0 1 0v-2a.5.5 0 0 0-.5-.5Zm-8 0a.5.5 0 0 0-.5.5v2a.5.5 0 0 0 1 0v-2a.5.5 0 0 0-.5-.5Zm2 2a.5.5 0 0 0-.5.5v2a.5.5 0 0 0 1 0v-2a.5.5 0 0 0-.5-.5Zm4 0a.5.5 0 0 0-.5.5v2a.5.5 0 0 0 1 0v-2a.5.5 0 0 0-.5-.5Z"/>
    </mask>
    <path fill="#4AC0B4" d="M26.033 0a1.5 1.5 0 0 0-1.5 1.5V2h-11a2.503 2.503 0 0 0-2.5 2.5V7h-1a1.5 1.5 0 0 0-1.5 1.5v1.723a7.364 7.364 0 0 0-3.5 6.277v.592a1.5 1.5 0 0 0-1 1.408v1a.5.5 0 0 0 .5.5h16a.5.5 0 0 0 .5-.5v-1a1.5 1.5 0 0 0-1-1.408V16.5a7.47 7.47 0 0 0-2.2-5.306 6.744 6.744 0 0 0-1.3-.98V8.5a1.5 1.5 0 0 0-1.5-1.5h-1V5.5a.5.5 0 0 1 .5-.5h10v1a1.5 1.5 0 0 0 1.5 1.5h1.5V0h-1.5Zm-6 18.5v.5h-15v-.5a.5.5 0 0 1 .5-.5h14a.5.5 0 0 1 .5.5Zm-2.905-6.597a6.474 6.474 0 0 1 1.905 4.597v.5h-13v-.5A6.383 6.383 0 0 1 9.169 11h6.73c.448.246.861.55 1.23.903ZM15.033 8a.5.5 0 0 1 .5.5V10h-6V8.5a.5.5 0 0 1 .5-.5h5Zm9.5-4h-10a1.5 1.5 0 0 0-1.5 1.5V7h-1V4.5a1.5 1.5 0 0 1 1.5-1.5h11v1Zm2 2.5h-.5a.5.5 0 0 1-.5-.5V1.5a.5.5 0 0 1 .5-.5h.5v5.5Zm-14 14.5a.5.5 0 0 0-.5.5v2a.5.5 0 0 0 1 0v-2a.5.5 0 0 0-.5-.5Zm0 4a.5.5 0 0 0-.5.5v2a.5.5 0 0 0 1 0v-2a.5.5 0 0 0-.5-.5Zm6-2a.5.5 0 0 0-.5.5v2a.5.5 0 0 0 1 0v-2a.5.5 0 0 0-.5-.5Zm-4 0a.5.5 0 0 0-.5.5v2a.5.5 0 0 0 1 0v-2a.5.5 0 0 0-.5-.5Zm-4 0a.5.5 0 0 0-.5.5v2a.5.5 0 0 0 1 0v-2a.5.5 0 0 0-.5-.5Zm-4 0a.5.5 0 0 0-.5.5v2a.5.5 0 0 0 1 0v-2a.5.5 0 0 0-.5-.5Zm2-2a.5.5 0 0 0-.5.5v2a.5.5 0 0 0 1 0v-2a.5.5 0 0 0-.5-.5Zm8 0a.5.5 0 0 0-.5.5v2a.5.5 0 0 0 1 0v-2a.5.5 0 0 0-.5-.5Zm0 4a.5.5 0 0 0-.5.5v2a.5.5 0 0 0 1 0v-2a.5.5 0 0 0-.5-.5Zm-8 0a.5.5 0 0 0-.5.5v2a.5.5 0 0 0 1 0v-2a.5.5 0 0 0-.5-.5Zm2 2a.5.5 0 0 0-.5.5v2a.5.5 0 0 0 1 0v-2a.5.5 0 0 0-.5-.5Zm4 0a.5.5 0 0 0-.5.5v2a.5.5 0 0 0 1 0v-2a.5.5 0 0 0-.5-.5Z"/>
    <path stroke="#4AC0B4" stroke-width=".5" d="M26.033 0a1.5 1.5 0 0 0-1.5 1.5V2h-11a2.503 2.503 0 0 0-2.5 2.5V7h-1a1.5 1.5 0 0 0-1.5 1.5v1.723a7.364 7.364 0 0 0-3.5 6.277v.592a1.5 1.5 0 0 0-1 1.408v1a.5.5 0 0 0 .5.5h16a.5.5 0 0 0 .5-.5v-1a1.5 1.5 0 0 0-1-1.408V16.5a7.47 7.47 0 0 0-2.2-5.306 6.744 6.744 0 0 0-1.3-.98V8.5a1.5 1.5 0 0 0-1.5-1.5h-1V5.5a.5.5 0 0 1 .5-.5h10v1a1.5 1.5 0 0 0 1.5 1.5h1.5V0h-1.5Zm-6 18.5v.5h-15v-.5a.5.5 0 0 1 .5-.5h14a.5.5 0 0 1 .5.5Zm-2.905-6.597a6.474 6.474 0 0 1 1.905 4.597v.5h-13v-.5A6.383 6.383 0 0 1 9.169 11h6.73c.448.246.861.55 1.23.903ZM15.033 8a.5.5 0 0 1 .5.5V10h-6V8.5a.5.5 0 0 1 .5-.5h5Zm9.5-4h-10a1.5 1.5 0 0 0-1.5 1.5V7h-1V4.5a1.5 1.5 0 0 1 1.5-1.5h11v1Zm2 2.5h-.5a.5.5 0 0 1-.5-.5V1.5a.5.5 0 0 1 .5-.5h.5v5.5Zm-14 14.5a.5.5 0 0 0-.5.5v2a.5.5 0 0 0 1 0v-2a.5.5 0 0 0-.5-.5Zm0 4a.5.5 0 0 0-.5.5v2a.5.5 0 0 0 1 0v-2a.5.5 0 0 0-.5-.5Zm6-2a.5.5 0 0 0-.5.5v2a.5.5 0 0 0 1 0v-2a.5.5 0 0 0-.5-.5Zm-4 0a.5.5 0 0 0-.5.5v2a.5.5 0 0 0 1 0v-2a.5.5 0 0 0-.5-.5Zm-4 0a.5.5 0 0 0-.5.5v2a.5.5 0 0 0 1 0v-2a.5.5 0 0 0-.5-.5Zm-4 0a.5.5 0 0 0-.5.5v2a.5.5 0 0 0 1 0v-2a.5.5 0 0 0-.5-.5Zm2-2a.5.5 0 0 0-.5.5v2a.5.5 0 0 0 1 0v-2a.5.5 0 0 0-.5-.5Zm8 0a.5.5 0 0 0-.5.5v2a.5.5 0 0 0 1 0v-2a.5.5 0 0 0-.5-.5Zm0 4a.5.5 0 0 0-.5.5v2a.5.5 0 0 0 1 0v-2a.5.5 0 0 0-.5-.5Zm-8 0a.5.5 0 0 0-.5.5v2a.5.5 0 0 0 1 0v-2a.5.5 0 0 0-.5-.5Zm2 2a.5.5 0 0 0-.5.5v2a.5.5 0 0 0 1 0v-2a.5.5 0 0 0-.5-.5Zm4 0a.5.5 0 0 0-.5.5v2a.5.5 0 0 0 1 0v-2a.5.5 0 0 0-.5-.5Z" mask="url(#b)"/>
  </g>
  <defs>
    <clipPath id="a">
      <path fill="#fff" d="M.783 0h30v30h-30z"/>
    </clipPath>
  </defs>
</svg>
