<svg xmlns="http://www.w3.org/2000/svg" width="31" height="30" fill="none" viewBox="0 0 31 30">
  <g clip-path="url(#a)">
    <path fill="#4AC0B4" d="M17.308 7.28h-5.364v15.44h1.758v-4.895h3.606a5.19 5.19 0 0 0 5.183-5.183v-.18a5.19 5.19 0 0 0-5.183-5.184Zm3.425 5.363a3.43 3.43 0 0 1-3.425 3.425h-3.606v-7.03h3.606a3.43 3.43 0 0 1 3.425 3.424v.181Z"/>
    <path fill="#4AC0B4" d="M26.418 4.393A14.902 14.902 0 0 0 15.812 0C11.805 0 8.038 1.56 5.205 4.393A14.902 14.902 0 0 0 .812 15c0 4.007 1.56 7.773 4.393 10.607A14.902 14.902 0 0 0 15.812 30c4.006 0 7.773-1.56 10.606-4.393A14.902 14.902 0 0 0 30.811 15c0-4.007-1.56-7.773-4.393-10.607Zm-1.243 19.97a13.156 13.156 0 0 1-9.364 3.88 13.155 13.155 0 0 1-9.363-3.88A13.155 13.155 0 0 1 2.569 15c0-3.537 1.378-6.863 3.879-9.364a13.156 13.156 0 0 1 9.364-3.878c3.537 0 6.862 1.377 9.363 3.878A13.156 13.156 0 0 1 29.054 15c0 3.537-1.378 6.863-3.879 9.364Z"/>
  </g>
  <defs>
    <clipPath id="a">
      <path fill="#fff" d="M.812 0h30v30h-30z"/>
    </clipPath>
  </defs>
</svg>
