<svg xmlns="http://www.w3.org/2000/svg" width="31" height="30" fill="none" viewBox="0 0 31 30">
  <g clip-path="url(#a)">
    <mask id="b" width="32" height="22" x="-.217" y="4.115" fill="#000" maskUnits="userSpaceOnUse">
      <path fill="#fff" d="M-.217 4.115h32v22h-32z"/>
      <path d="M30.013 16.968c.19-.096.35-.252.45-.451a1.02 1.02 0 0 0-.086-1.07l-.802-1.097a1.02 1.02 0 0 0 .359-.399 1.02 1.02 0 0 0-.087-1.069l-.803-1.097c.15-.097.275-.233.36-.4a1.02 1.02 0 0 0-.087-1.069l-1.745-2.384a1.015 1.015 0 0 0-.827-.42c-.33 0-.633.153-.828.42l-.881 1.205-1.718-3.5a.955.955 0 0 0-.873-.522c-.403 0-.763.223-.939.581l-2.845 5.795-1.364-2.778a1.018 1.018 0 0 0-.92-.573c-.394 0-.746.22-.92.573l-.917 1.867a5.73 5.73 0 0 1-.52.86l-.451-.616a.986.986 0 0 0 .236-1.395l-1.627-2.224a.977.977 0 0 0-.796-.404.976.976 0 0 0-.796.404L8.959 9.43a.986.986 0 0 0 .236 1.395l-.73.999a.986.986 0 0 0 .236 1.395l-.593.808c-.558.1-1.09.213-1.589.335-1.39.342-2.53.767-3.387 1.265-2.044 1.187-2.35 2.714-2.35 3.519 0 .804.306 2.331 2.35 3.518.756.44 1.736.823 2.913 1.142a.44.44 0 0 0 .539-.309.44.44 0 0 0-.31-.539c-1.102-.299-2.01-.653-2.7-1.054-.714-.415-1.912-1.324-1.912-2.758s1.198-2.346 1.912-2.76c.784-.456 1.846-.85 3.155-1.171a29.559 29.559 0 0 1 3.471-.613 6.57 6.57 0 0 0 5.13-3.635l.916-1.867a.14.14 0 0 1 .13-.082.14.14 0 0 1 .132.082l1.66 3.383-.578 1.117a.44.44 0 1 0 .78.405l.681-1.315.003-.005.002-.003 3.24-6.599a.163.163 0 0 1 .15-.09c.038 0 .074.014.083.031l2.715 5.53a.44.44 0 0 0 .789-.386l-.56-1.14 1.154-1.577a.144.144 0 0 1 .118-.06c.028 0 .08.008.118.06l1.744 2.384a.14.14 0 0 1 .012.153.14.14 0 0 1-.13.08h-.192a.44.44 0 0 0-.355.7l1.195 1.633a.14.14 0 0 1 .013.153.141.141 0 0 1-.13.08h-.193a.44.44 0 0 0-.354.699l1.195 1.633a.14.14 0 0 1 .012.153.141.141 0 0 1-.13.08h-.286a6.247 6.247 0 0 0-.835-.576 1.175 1.175 0 0 1-.469-.53l-1.05-2.14a.44.44 0 1 0-.79.387l1.051 2.14c.199.404.466.7.82.906.715.415 1.913 1.325 1.913 2.759s-1.198 2.343-1.912 2.758c-.785.456-1.846.85-3.156 1.172-2.445.6-5.66.93-9.053.93-2.747 0-5.373-.214-7.594-.62a.44.44 0 0 0-.159.864c2.273.416 4.954.636 7.753.636 3.461 0 6.751-.34 9.263-.957 1.39-.342 2.53-.767 3.387-1.265 2.044-1.187 2.35-2.714 2.35-3.518 0-.52-.128-1.34-.77-2.177ZM10.095 13.73c-.256.03-.506.064-.753.098l.452-.617a.44.44 0 0 0-.355-.699H9.26a.102.102 0 0 1-.096-.059.102.102 0 0 1 .01-.111l1.114-1.524a.44.44 0 0 0-.354-.7h-.18a.102.102 0 0 1-.095-.058.102.102 0 0 1 .01-.112l1.626-2.224a.104.104 0 0 1 .087-.044c.025 0 .06.008.086.044l1.627 2.224a.102.102 0 0 1 .01.112.102.102 0 0 1-.096.059h-.18a.44.44 0 0 0-.354.699l.956 1.306a5.706 5.706 0 0 1-3.336 1.606Z"/>
      <path d="M4.137 19.145c0 1.037 1.214 1.884 3.61 2.516 2.152.569 5.006.881 8.036.881 3.03 0 5.884-.313 8.036-.88 2.395-.633 3.61-1.48 3.61-2.517 0-2.162-5.531-3.271-10.67-3.387a.44.44 0 0 0-.02.879c6.317.142 9.81 1.573 9.81 2.508 0 .409-.773 1.09-2.954 1.666-2.081.55-4.856.852-7.812.852-2.957 0-5.731-.302-7.812-.852-2.181-.575-2.955-1.257-2.955-1.666 0-.93 3.473-2.356 9.752-2.507a.44.44 0 0 0-.021-.879c-2.81.068-5.417.41-7.342.963-2.169.624-3.268 1.439-3.268 2.423Zm18.574-5.172a.44.44 0 1 0 0-.88h-.06a.44.44 0 1 0 0 .88h.06Zm-7.602-.61h-.06a.44.44 0 1 0 0 .88h.06a.44.44 0 0 0 0-.88Zm9.266 2.122a.44.44 0 1 0 0-.88h-.06a.44.44 0 1 0 0 .88h.06Z"/>
      <path d="M11.43 17.788c-.413 0-.81.045-1.15.13a.44.44 0 1 0 .212.852c.271-.068.596-.103.938-.103.343 0 .667.035.938.103a.44.44 0 1 0 .213-.853 4.845 4.845 0 0 0-1.15-.13Zm2.735 1.652a.44.44 0 1 0 .213.852c.271-.068.595-.104.938-.104.343 0 .667.036.938.104a.44.44 0 0 0 .533-.32.44.44 0 0 0-.32-.533 4.842 4.842 0 0 0-1.15-.13c-.414 0-.812.045-1.152.13Zm7.608-.056c.271-.067.596-.103.938-.103.343 0 .667.036.938.103a.44.44 0 0 0 .533-.32.44.44 0 0 0-.32-.532 4.844 4.844 0 0 0-1.15-.13c-.414 0-.812.045-1.152.13a.44.44 0 1 0 .213.852Z"/>
    </mask>
    <path fill="#4AC0B4" d="M30.013 16.968c.19-.096.35-.252.45-.451a1.02 1.02 0 0 0-.086-1.07l-.802-1.097a1.02 1.02 0 0 0 .359-.399 1.02 1.02 0 0 0-.087-1.069l-.803-1.097c.15-.097.275-.233.36-.4a1.02 1.02 0 0 0-.087-1.069l-1.745-2.384a1.015 1.015 0 0 0-.827-.42c-.33 0-.633.153-.828.42l-.881 1.205-1.718-3.5a.955.955 0 0 0-.873-.522c-.403 0-.763.223-.939.581l-2.845 5.795-1.364-2.778a1.018 1.018 0 0 0-.92-.573c-.394 0-.746.22-.92.573l-.917 1.867a5.73 5.73 0 0 1-.52.86l-.451-.616a.986.986 0 0 0 .236-1.395l-1.627-2.224a.977.977 0 0 0-.796-.404.976.976 0 0 0-.796.404L8.959 9.43a.986.986 0 0 0 .236 1.395l-.73.999a.986.986 0 0 0 .236 1.395l-.593.808c-.558.1-1.09.213-1.589.335-1.39.342-2.53.767-3.387 1.265-2.044 1.187-2.35 2.714-2.35 3.519 0 .804.306 2.331 2.35 3.518.756.44 1.736.823 2.913 1.142a.44.44 0 0 0 .539-.309.44.44 0 0 0-.31-.539c-1.102-.299-2.01-.653-2.7-1.054-.714-.415-1.912-1.324-1.912-2.758s1.198-2.346 1.912-2.76c.784-.456 1.846-.85 3.155-1.171a29.559 29.559 0 0 1 3.471-.613 6.57 6.57 0 0 0 5.13-3.635l.916-1.867a.14.14 0 0 1 .13-.082.14.14 0 0 1 .132.082l1.66 3.383-.578 1.117a.44.44 0 1 0 .78.405l.681-1.315.003-.005.002-.003 3.24-6.599a.163.163 0 0 1 .15-.09c.038 0 .074.014.083.031l2.715 5.53a.44.44 0 0 0 .789-.386l-.56-1.14 1.154-1.577a.144.144 0 0 1 .118-.06c.028 0 .08.008.118.06l1.744 2.384a.14.14 0 0 1 .012.153.14.14 0 0 1-.13.08h-.192a.44.44 0 0 0-.355.7l1.195 1.633a.14.14 0 0 1 .013.153.141.141 0 0 1-.13.08h-.193a.44.44 0 0 0-.354.699l1.195 1.633a.14.14 0 0 1 .012.153.141.141 0 0 1-.13.08h-.286a6.247 6.247 0 0 0-.835-.576 1.175 1.175 0 0 1-.469-.53l-1.05-2.14a.44.44 0 1 0-.79.387l1.051 2.14c.199.404.466.7.82.906.715.415 1.913 1.325 1.913 2.759s-1.198 2.343-1.912 2.758c-.785.456-1.846.85-3.156 1.172-2.445.6-5.66.93-9.053.93-2.747 0-5.373-.214-7.594-.62a.44.44 0 0 0-.159.864c2.273.416 4.954.636 7.753.636 3.461 0 6.751-.34 9.263-.957 1.39-.342 2.53-.767 3.387-1.265 2.044-1.187 2.35-2.714 2.35-3.518 0-.52-.128-1.34-.77-2.177ZM10.095 13.73c-.256.03-.506.064-.753.098l.452-.617a.44.44 0 0 0-.355-.699H9.26a.102.102 0 0 1-.096-.059.102.102 0 0 1 .01-.111l1.114-1.524a.44.44 0 0 0-.354-.7h-.18a.102.102 0 0 1-.095-.058.102.102 0 0 1 .01-.112l1.626-2.224a.104.104 0 0 1 .087-.044c.025 0 .06.008.086.044l1.627 2.224a.102.102 0 0 1 .01.112.102.102 0 0 1-.096.059h-.18a.44.44 0 0 0-.354.699l.956 1.306a5.706 5.706 0 0 1-3.336 1.606Z"/>
    <path fill="#4AC0B4" d="M4.137 19.145c0 1.037 1.214 1.884 3.61 2.516 2.152.569 5.006.881 8.036.881 3.03 0 5.884-.313 8.036-.88 2.395-.633 3.61-1.48 3.61-2.517 0-2.162-5.531-3.271-10.67-3.387a.44.44 0 0 0-.02.879c6.317.142 9.81 1.573 9.81 2.508 0 .409-.773 1.09-2.954 1.666-2.081.55-4.856.852-7.812.852-2.957 0-5.731-.302-7.812-.852-2.181-.575-2.955-1.257-2.955-1.666 0-.93 3.473-2.356 9.752-2.507a.44.44 0 0 0-.021-.879c-2.81.068-5.417.41-7.342.963-2.169.624-3.268 1.439-3.268 2.423Zm18.574-5.172a.44.44 0 1 0 0-.88h-.06a.44.44 0 1 0 0 .88h.06Zm-7.602-.61h-.06a.44.44 0 1 0 0 .88h.06a.44.44 0 0 0 0-.88Zm9.266 2.122a.44.44 0 1 0 0-.88h-.06a.44.44 0 1 0 0 .88h.06Z"/>
    <path fill="#4AC0B4" d="M11.43 17.788c-.413 0-.81.045-1.15.13a.44.44 0 1 0 .212.852c.271-.068.596-.103.938-.103.343 0 .667.035.938.103a.44.44 0 1 0 .213-.853 4.845 4.845 0 0 0-1.15-.13Zm2.735 1.652a.44.44 0 1 0 .213.852c.271-.068.595-.104.938-.104.343 0 .667.036.938.104a.44.44 0 0 0 .533-.32.44.44 0 0 0-.32-.533 4.842 4.842 0 0 0-1.15-.13c-.414 0-.812.045-1.152.13Zm7.608-.056c.271-.067.596-.103.938-.103.343 0 .667.036.938.103a.44.44 0 0 0 .533-.32.44.44 0 0 0-.32-.532 4.844 4.844 0 0 0-1.15-.13c-.414 0-.812.045-1.152.13a.44.44 0 1 0 .213.852Z"/>
    <path stroke="#4AC0B4" stroke-width=".5" d="M30.013 16.968c.19-.096.35-.252.45-.451a1.02 1.02 0 0 0-.086-1.07l-.802-1.097a1.02 1.02 0 0 0 .359-.399 1.02 1.02 0 0 0-.087-1.069l-.803-1.097c.15-.097.275-.233.36-.4a1.02 1.02 0 0 0-.087-1.069l-1.745-2.384a1.015 1.015 0 0 0-.827-.42c-.33 0-.633.153-.828.42l-.881 1.205-1.718-3.5a.955.955 0 0 0-.873-.522c-.403 0-.763.223-.939.581l-2.845 5.795-1.364-2.778a1.018 1.018 0 0 0-.92-.573c-.394 0-.746.22-.92.573l-.917 1.867a5.73 5.73 0 0 1-.52.86l-.451-.616a.986.986 0 0 0 .236-1.395l-1.627-2.224a.977.977 0 0 0-.796-.404.976.976 0 0 0-.796.404L8.959 9.43a.986.986 0 0 0 .236 1.395l-.73.999a.986.986 0 0 0 .236 1.395l-.593.808c-.558.1-1.09.213-1.589.335-1.39.342-2.53.767-3.387 1.265-2.044 1.187-2.35 2.714-2.35 3.519 0 .804.306 2.331 2.35 3.518.756.44 1.736.823 2.913 1.142a.44.44 0 0 0 .539-.309.44.44 0 0 0-.31-.539c-1.102-.299-2.01-.653-2.7-1.054-.714-.415-1.912-1.324-1.912-2.758s1.198-2.346 1.912-2.76c.784-.456 1.846-.85 3.155-1.171a29.559 29.559 0 0 1 3.471-.613 6.57 6.57 0 0 0 5.13-3.635l.916-1.867a.14.14 0 0 1 .13-.082.14.14 0 0 1 .132.082l1.66 3.383-.578 1.117a.44.44 0 1 0 .78.405l.681-1.315.003-.005.002-.003 3.24-6.599a.163.163 0 0 1 .15-.09c.038 0 .074.014.083.031l2.715 5.53a.44.44 0 0 0 .789-.386l-.56-1.14 1.154-1.577a.144.144 0 0 1 .118-.06c.028 0 .08.008.118.06l1.744 2.384a.14.14 0 0 1 .012.153.14.14 0 0 1-.13.08h-.192a.44.44 0 0 0-.355.7l1.195 1.633a.14.14 0 0 1 .013.153.141.141 0 0 1-.13.08h-.193a.44.44 0 0 0-.354.699l1.195 1.633a.14.14 0 0 1 .012.153.141.141 0 0 1-.13.08h-.286a6.247 6.247 0 0 0-.835-.576 1.175 1.175 0 0 1-.469-.53l-1.05-2.14a.44.44 0 1 0-.79.387l1.051 2.14c.199.404.466.7.82.906.715.415 1.913 1.325 1.913 2.759s-1.198 2.343-1.912 2.758c-.785.456-1.846.85-3.156 1.172-2.445.6-5.66.93-9.053.93-2.747 0-5.373-.214-7.594-.62a.44.44 0 0 0-.159.864c2.273.416 4.954.636 7.753.636 3.461 0 6.751-.34 9.263-.957 1.39-.342 2.53-.767 3.387-1.265 2.044-1.187 2.35-2.714 2.35-3.518 0-.52-.128-1.34-.77-2.177ZM10.095 13.73c-.256.03-.506.064-.753.098l.452-.617a.44.44 0 0 0-.355-.699H9.26a.102.102 0 0 1-.096-.059.102.102 0 0 1 .01-.111l1.114-1.524a.44.44 0 0 0-.354-.7h-.18a.102.102 0 0 1-.095-.058.102.102 0 0 1 .01-.112l1.626-2.224a.104.104 0 0 1 .087-.044c.025 0 .06.008.086.044l1.627 2.224a.102.102 0 0 1 .01.112.102.102 0 0 1-.096.059h-.18a.44.44 0 0 0-.354.699l.956 1.306a5.706 5.706 0 0 1-3.336 1.606Z" mask="url(#b)"/>
    <path stroke="#4AC0B4" stroke-width=".5" d="M4.137 19.145c0 1.037 1.214 1.884 3.61 2.516 2.152.569 5.006.881 8.036.881 3.03 0 5.884-.313 8.036-.88 2.395-.633 3.61-1.48 3.61-2.517 0-2.162-5.531-3.271-10.67-3.387a.44.44 0 0 0-.02.879c6.317.142 9.81 1.573 9.81 2.508 0 .409-.773 1.09-2.954 1.666-2.081.55-4.856.852-7.812.852-2.957 0-5.731-.302-7.812-.852-2.181-.575-2.955-1.257-2.955-1.666 0-.93 3.473-2.356 9.752-2.507a.44.44 0 0 0-.021-.879c-2.81.068-5.417.41-7.342.963-2.169.624-3.268 1.439-3.268 2.423Zm18.574-5.172a.44.44 0 1 0 0-.88h-.06a.44.44 0 1 0 0 .88h.06Zm-7.602-.61h-.06a.44.44 0 1 0 0 .88h.06a.44.44 0 0 0 0-.88Zm9.266 2.122a.44.44 0 1 0 0-.88h-.06a.44.44 0 1 0 0 .88h.06Z" mask="url(#b)"/>
    <path stroke="#4AC0B4" stroke-width=".5" d="M11.43 17.788c-.413 0-.81.045-1.15.13a.44.44 0 1 0 .212.852c.271-.068.596-.103.938-.103.343 0 .667.035.938.103a.44.44 0 1 0 .213-.853 4.845 4.845 0 0 0-1.15-.13Zm2.735 1.652a.44.44 0 1 0 .213.852c.271-.068.595-.104.938-.104.343 0 .667.036.938.104a.44.44 0 0 0 .533-.32.44.44 0 0 0-.32-.533 4.842 4.842 0 0 0-1.15-.13c-.414 0-.812.045-1.152.13Zm7.608-.056c.271-.067.596-.103.938-.103.343 0 .667.036.938.103a.44.44 0 0 0 .533-.32.44.44 0 0 0-.32-.532 4.844 4.844 0 0 0-1.15-.13c-.414 0-.812.045-1.152.13a.44.44 0 1 0 .213.852Z" mask="url(#b)"/>
  </g>
  <defs>
    <clipPath id="a">
      <path fill="#fff" d="M.783 0h30v30h-30z"/>
    </clipPath>
  </defs>
</svg>
