<svg xmlns="http://www.w3.org/2000/svg" width="31" height="30" fill="none" viewBox="0 0 31 30">
  <g clip-path="url(#a)">
    <path fill="#4AC0B4" stroke="#4AC0B4" stroke-width=".25" d="M16.94 12.09a.752.752 0 0 1 .502-.933.752.752 0 0 1 .934.502l1.157 3.856 1.156-3.854a.75.75 0 1 1 1.437.432l-5.187-.002Zm0 0 1.874 6.25a.75.75 0 0 0 1.437.002l1.875-6.25-5.187-.001Zm-6.636-8.388a.747.747 0 0 0 1.056-.099c1.194-1.441 2.765-2.228 4.423-2.228s3.229.787 4.42 2.228h.001a.752.752 0 0 0 1.057.1.75.75 0 0 0 .1-1.056C19.883.862 17.903-.125 15.782-.125c-2.121 0-4.102.987-5.578 2.772a.75.75 0 0 0 .1 1.055Zm0 0 .08-.096-.08.097Zm2.401.82a.748.748 0 0 0 .1 1.054c.32.267.793.22 1.055-.097 1.045-1.261 2.799-1.261 3.845 0a.747.747 0 0 0 1.057.099.75.75 0 0 0 .098-1.057c-1.63-1.962-4.525-1.962-6.155 0ZM2.658 25.124h10.5v3.5h-3a.75.75 0 0 0 0 1.5h11.25a.75.75 0 0 0 0-1.5h-3v-3.5h10.5c1.102 0 2-.897 2-2V6.875c0-1.103-.898-2-2-2h-5.35a.75.75 0 0 0 0 1.5h5.35a.5.5 0 0 1 .5.5v16.25a.5.5 0 0 1-.5.5H2.658a.5.5 0 0 1-.5-.5V6.875a.5.5 0 0 1 .5-.5h5.35a.75.75 0 0 0 0-1.5h-5.35c-1.103 0-2 .897-2 2v16.25c0 1.103.897 2 2 2Zm12 0h2.25v3.5h-2.25v-3.5Zm-1.875-7v-5.5h1.125a.75.75 0 0 0 0-1.5h-3.75a.75.75 0 0 0 0 1.5h1.125v5.5a.75.75 0 0 0 1.5 0ZM14.72 7.187a1.063 1.063 0 1 0 2.126 0 1.063 1.063 0 0 0-2.126 0Z"/>
  </g>
  <defs>
    <clipPath id="a">
      <path fill="#fff" d="M.783 0h30v30h-30z"/>
    </clipPath>
  </defs>
</svg>
