<svg width="16" height="17" viewBox="0 0 16 17" fill="none" xmlns="http://www.w3.org/2000/svg">
<path d="M14.475 14.111H10.6613C10.4936 14.111 10.3573 13.9749 10.3573 13.807C10.3573 13.6392 10.4936 13.503 10.6613 13.503H14.4752C14.5781 13.503 14.6618 13.4216 14.6618 13.3216V12.3271C14.6618 10.6263 13.2619 9.24283 11.5412 9.24283C10.8225 9.24283 10.1209 9.4903 9.56559 9.93981C9.43525 10.0454 9.24389 10.0253 9.13805 9.89483C9.0325 9.76434 9.05239 9.57284 9.18318 9.46714C9.84631 8.93048 10.6837 8.63477 11.5412 8.63477C13.5971 8.63477 15.2697 10.291 15.2697 12.3271V13.3216C15.2697 13.7568 14.9133 14.111 14.475 14.111Z" fill="white" stroke="white" stroke-width="0.330579"/>
<path d="M11.5459 8.19255C10.3402 8.19255 9.35938 7.22063 9.35938 6.02604C9.35938 4.83144 10.3402 3.85938 11.5459 3.85938C12.7518 3.85938 13.7328 4.83129 13.7328 6.02604C13.7328 7.22078 12.7517 8.19255 11.5459 8.19255ZM11.5459 4.46744C10.6756 4.46744 9.96743 5.16665 9.96743 6.02604C9.96743 6.88543 10.6756 7.58449 11.5459 7.58449C12.4166 7.58449 13.1247 6.88543 13.1247 6.02604C13.1247 5.16665 12.4164 4.46744 11.5459 4.46744Z" fill="white" stroke="white" stroke-width="0.330579"/>
<path d="M9.97349 15.3301H1.72075C1.17251 15.3301 0.726562 14.8874 0.726562 14.3432V12.9445C0.726562 10.1491 3.02341 7.875 5.84712 7.875C8.67083 7.875 10.9677 10.1491 10.9677 12.9445V14.3432C10.9677 14.8874 10.5217 15.3301 9.97349 15.3301ZM5.84712 8.48321C3.35891 8.48321 1.33462 10.4846 1.33462 12.9446V14.3434C1.33462 14.5522 1.50787 14.7222 1.72075 14.7222H9.97335C10.1862 14.7222 10.3595 14.5522 10.3595 14.3434V12.9446C10.3596 10.4846 8.33533 8.48321 5.84712 8.48321Z" fill="white" stroke="white" stroke-width="0.330579"/>
<path d="M5.73959 7.52009C4.19034 7.52009 2.92969 6.27146 2.92969 4.73646C2.92969 3.20161 4.19019 1.95312 5.73959 1.95312C7.28913 1.95312 8.54964 3.20176 8.54964 4.73661C8.54964 6.27161 7.28898 7.52009 5.73959 7.52009ZM5.73959 2.56119C4.52555 2.56119 3.53775 3.53711 3.53775 4.73661C3.53775 5.93625 4.52555 6.91218 5.73959 6.91218C6.95378 6.91218 7.94158 5.93625 7.94158 4.73661C7.94158 3.53711 6.95378 2.56119 5.73959 2.56119Z" fill="white" stroke="white" stroke-width="0.330579"/>
</svg>
