<svg width="31" height="30" viewBox="0 0 31 30" fill="none" xmlns="http://www.w3.org/2000/svg">
<g clip-path="url(#clip0_3500_74333)">
<mask id="path-1-outside-1_3500_74333" maskUnits="userSpaceOnUse" x="-0.217285" y="3.91431" width="32" height="22" fill="black">
<rect fill="white" x="-0.217285" y="3.91431" width="32" height="22"/>
<path d="M30.6538 13.8532L22.2562 5.45577C21.9071 5.10661 21.4429 4.91431 20.9491 4.91431C20.4554 4.91431 19.9912 5.10661 19.642 5.45577L16.0174 9.0804L14.2715 7.3345C13.9224 6.98534 13.4582 6.7931 12.9644 6.7931C12.4706 6.7931 12.0064 6.98534 11.6573 7.3345L0.911429 18.0804C0.73981 18.252 0.73981 18.5303 0.911429 18.7019C0.99721 18.7876 1.10971 18.8306 1.22215 18.8306C1.33459 18.8306 1.44709 18.7877 1.53287 18.7019L9.18731 11.0474L10.1352 11.9953C10.4896 12.3497 11.0663 12.3497 11.4209 11.9953L12.2636 11.1526C12.2658 11.1504 12.2724 11.1438 12.285 11.1438C12.2974 11.1438 12.3041 11.1504 12.3063 11.1526L13.1258 11.9721L12.9253 12.1727C12.7536 12.3443 12.7536 12.6225 12.9253 12.7941C13.0969 12.9657 13.3751 12.9657 13.5467 12.7941L14.8432 11.4976L15.5121 12.1666C15.7809 12.4354 16.1341 12.5697 16.4871 12.5697C16.8402 12.5697 17.1933 12.4354 17.4621 12.1666L18.3244 11.3043C18.496 11.1327 18.496 10.8544 18.3244 10.6829C18.1528 10.5112 17.8745 10.5112 17.7029 10.6829L16.8407 11.5451C16.6457 11.7401 16.3286 11.7401 16.1336 11.5451L15.4647 10.8762L20.2636 6.07726C20.4467 5.89416 20.6902 5.79326 20.9492 5.79326C21.2082 5.79326 21.4517 5.89416 21.6348 6.07726L25.7439 10.1863L25.5446 10.3855C25.3503 10.5799 25.0344 10.5804 24.8394 10.3873L24.8368 10.3847C24.5061 10.054 23.9681 10.054 23.6374 10.3847L22.7853 11.2369C22.5903 11.4319 22.2732 11.4318 22.0782 11.2369L20.2133 9.3719C20.0531 9.21171 19.8401 9.12347 19.6136 9.12347C19.3871 9.12347 19.1741 9.21171 19.0139 9.3719C18.8423 9.54352 18.8423 9.82178 19.0139 9.99334C19.1782 10.1576 19.4402 10.1646 19.6128 10.0144L21.4568 11.8582C21.7255 12.1271 22.0787 12.2614 22.4318 12.2614C22.7848 12.2614 23.1379 12.1271 23.4068 11.8582L24.2374 11.0277C24.7765 11.5445 25.6356 11.5376 26.1662 11.0069L26.3654 10.8077L30.0324 14.4747C30.1181 14.5604 30.2306 14.6034 30.3431 14.6034C30.4555 14.6034 30.568 14.5605 30.6538 14.4747C30.8254 14.303 30.8254 14.0248 30.6538 13.8532ZM13.7473 11.3506L12.9278 10.5312C12.7561 10.3594 12.5278 10.2649 12.285 10.2649C12.0421 10.2649 11.8137 10.3594 11.6421 10.5312L10.7994 11.3738C10.7876 11.3856 10.7684 11.3856 10.7567 11.3738L9.8088 10.4259L12.2788 7.956C12.6568 7.57795 13.272 7.57795 13.6501 7.956L15.396 9.7019L13.7473 11.3506Z"/>
<path d="M30.5161 20.8054C30.4706 20.7859 30.0799 20.6216 29.3734 20.4103V19.3003H30.343C30.4871 19.3003 30.622 19.2296 30.7042 19.1111C30.7863 18.9927 30.8051 18.8415 30.7545 18.7066L29.3454 14.949C29.2811 14.7775 29.1171 14.6639 28.934 14.6639C28.7508 14.6639 28.5868 14.7775 28.5225 14.949L27.4488 17.8122L26.3596 17.0861C26.212 16.9877 26.0197 16.9877 25.8721 17.0861L25.1463 17.57V16.982C25.1463 16.8655 25.1 16.7537 25.0175 16.6713L22.1994 13.8532C22.0278 13.6815 21.7495 13.6815 21.5779 13.8532L18.9103 16.5208L18.548 15.434C18.4882 15.2545 18.3203 15.1335 18.1311 15.1335C17.942 15.1335 17.7741 15.2546 17.7143 15.434L16.8787 17.9408L15.7299 14.4946C15.6701 14.3152 15.5022 14.1942 15.313 14.1942C15.1239 14.1942 14.956 14.3152 14.8962 14.4946L13.4871 18.7218C13.4837 18.7322 13.4813 18.7428 13.4787 18.7534L12.8057 18.0804C12.6341 17.9087 12.3558 17.9087 12.1842 18.0804L10.7752 19.4894C10.6927 19.5718 10.6465 19.6836 10.6465 19.8001V21.8808C10.3178 21.9897 9.9847 22.0991 9.64662 22.2083V20.2698C9.64662 20.1533 9.60033 20.0415 9.51789 19.9591L7.94982 18.3911L12.27 14.071C12.4416 13.8993 12.4416 13.6211 12.27 13.4495C12.0983 13.2779 11.8201 13.2779 11.6485 13.4495L7.32838 17.7696L7.16941 17.6107C7.08697 17.5282 6.97524 17.482 6.8587 17.482C6.74215 17.482 6.63036 17.5282 6.54798 17.6107L5.19447 18.9642L4.92172 18.2368C4.85739 18.0653 4.69344 17.9516 4.51028 17.9516C4.32712 17.9516 4.16312 18.0653 4.09884 18.2368L2.68979 21.9943C2.63917 22.1293 2.65797 22.2804 2.74006 22.3989C2.82215 22.5174 2.95715 22.5881 3.10129 22.5881H4.07089V23.7331C3.17102 23.9221 2.24214 24.0849 1.28215 24.2103C1.04151 24.2417 0.871879 24.4622 0.903285 24.7029C0.932171 24.9243 1.12108 25.0855 1.33852 25.0855C1.35744 25.0855 1.3766 25.0843 1.39594 25.0818C5.42381 24.556 8.88842 23.3969 11.9452 22.3743C13.9839 21.6922 15.857 21.0657 17.6919 20.6702V21.6789C17.6919 21.9216 17.8887 22.1183 18.1314 22.1183C18.3741 22.1183 18.5708 21.9216 18.5708 21.6789V20.4989C19.5192 20.3343 20.4627 20.2395 21.4192 20.2395C26.8844 20.2395 30.1384 21.5995 30.1702 21.6131C30.3934 21.7087 30.6516 21.6053 30.7473 21.3823C30.8425 21.1593 30.7392 20.901 30.5161 20.8054ZM3.73503 21.7092L4.50999 19.6427L5.28494 21.7092H3.73503ZM8.76749 22.4872C7.55677 22.8642 6.28601 23.2273 4.94944 23.5385V22.5881H5.91904C6.06318 22.5881 6.19812 22.5175 6.28026 22.399C6.36235 22.2805 6.38116 22.1293 6.33054 21.9944L5.5332 19.8682L6.85846 18.5429L8.76749 20.4519V22.4872ZM13.4643 20.9456C12.8699 21.1382 12.271 21.3384 11.666 21.5408C11.6192 21.5565 11.572 21.5722 11.5251 21.5879V19.9822L12.4947 19.0126L13.4643 19.9822V20.9456ZM15.3129 16.0233L16.1123 18.4214H14.5135L15.3129 16.0233ZM14.8734 20.5048C14.697 20.5577 14.5203 20.6117 14.3433 20.6666V19.8002C14.3433 19.6837 14.297 19.5719 14.2145 19.4895L14.0253 19.3003H14.8734V20.5048ZM16.3654 20.0571C16.3716 20.0657 16.3786 20.0735 16.3854 20.0816C16.1747 20.1358 15.9637 20.1923 15.7523 20.2509V19.3002H16.4254L16.305 19.6612C16.2604 19.7953 16.2828 19.9426 16.3654 20.0571ZM17.3317 19.3607L18.131 16.9626L18.9304 19.3607H17.3317ZM24.2672 19.482C23.3989 19.4067 22.4481 19.3607 21.4188 19.3607C20.9052 19.3607 20.3933 19.3876 19.8822 19.437L19.5098 18.3198V17.164L21.8885 14.7853L24.2672 17.164V19.482ZM27.0854 19.8631C26.5068 19.7547 25.8591 19.6536 25.1461 19.5709V18.6263L26.1158 17.9799L27.0854 18.6263V19.8631ZM28.9339 16.3549L29.7089 18.4214H28.159L28.9339 16.3549ZM28.4945 20.1699C28.3276 20.1282 28.1508 20.0861 27.9643 20.0441V19.3002H28.4945V20.1699Z"/>
<path d="M7.32814 20.7698C7.08545 20.7698 6.8887 20.9666 6.8887 21.2092V21.6789C6.8887 21.9216 7.08545 22.1184 7.32814 22.1184C7.57084 22.1184 7.76759 21.9216 7.76759 21.6789V21.2092C7.76759 20.9666 7.57084 20.7698 7.32814 20.7698Z"/>
<path d="M20.9491 17.0123C20.7064 17.0123 20.5097 17.2091 20.5097 17.4518V17.9215C20.5097 18.1642 20.7064 18.3609 20.9491 18.3609C21.1918 18.3609 21.3886 18.1642 21.3886 17.9215V17.4518C21.3886 17.209 21.1918 17.0123 20.9491 17.0123Z"/>
<path d="M22.8279 17.0123C22.5852 17.0123 22.3885 17.2091 22.3885 17.4518V17.9215C22.3885 18.1642 22.5852 18.3609 22.8279 18.3609C23.0706 18.3609 23.2674 18.1642 23.2674 17.9215V17.4518C23.2674 17.209 23.0706 17.0123 22.8279 17.0123Z"/>
</mask>
<path d="M30.6538 13.8532L22.2562 5.45577C21.9071 5.10661 21.4429 4.91431 20.9491 4.91431C20.4554 4.91431 19.9912 5.10661 19.642 5.45577L16.0174 9.0804L14.2715 7.3345C13.9224 6.98534 13.4582 6.7931 12.9644 6.7931C12.4706 6.7931 12.0064 6.98534 11.6573 7.3345L0.911429 18.0804C0.73981 18.252 0.73981 18.5303 0.911429 18.7019C0.99721 18.7876 1.10971 18.8306 1.22215 18.8306C1.33459 18.8306 1.44709 18.7877 1.53287 18.7019L9.18731 11.0474L10.1352 11.9953C10.4896 12.3497 11.0663 12.3497 11.4209 11.9953L12.2636 11.1526C12.2658 11.1504 12.2724 11.1438 12.285 11.1438C12.2974 11.1438 12.3041 11.1504 12.3063 11.1526L13.1258 11.9721L12.9253 12.1727C12.7536 12.3443 12.7536 12.6225 12.9253 12.7941C13.0969 12.9657 13.3751 12.9657 13.5467 12.7941L14.8432 11.4976L15.5121 12.1666C15.7809 12.4354 16.1341 12.5697 16.4871 12.5697C16.8402 12.5697 17.1933 12.4354 17.4621 12.1666L18.3244 11.3043C18.496 11.1327 18.496 10.8544 18.3244 10.6829C18.1528 10.5112 17.8745 10.5112 17.7029 10.6829L16.8407 11.5451C16.6457 11.7401 16.3286 11.7401 16.1336 11.5451L15.4647 10.8762L20.2636 6.07726C20.4467 5.89416 20.6902 5.79326 20.9492 5.79326C21.2082 5.79326 21.4517 5.89416 21.6348 6.07726L25.7439 10.1863L25.5446 10.3855C25.3503 10.5799 25.0344 10.5804 24.8394 10.3873L24.8368 10.3847C24.5061 10.054 23.9681 10.054 23.6374 10.3847L22.7853 11.2369C22.5903 11.4319 22.2732 11.4318 22.0782 11.2369L20.2133 9.3719C20.0531 9.21171 19.8401 9.12347 19.6136 9.12347C19.3871 9.12347 19.1741 9.21171 19.0139 9.3719C18.8423 9.54352 18.8423 9.82178 19.0139 9.99334C19.1782 10.1576 19.4402 10.1646 19.6128 10.0144L21.4568 11.8582C21.7255 12.1271 22.0787 12.2614 22.4318 12.2614C22.7848 12.2614 23.1379 12.1271 23.4068 11.8582L24.2374 11.0277C24.7765 11.5445 25.6356 11.5376 26.1662 11.0069L26.3654 10.8077L30.0324 14.4747C30.1181 14.5604 30.2306 14.6034 30.3431 14.6034C30.4555 14.6034 30.568 14.5605 30.6538 14.4747C30.8254 14.303 30.8254 14.0248 30.6538 13.8532ZM13.7473 11.3506L12.9278 10.5312C12.7561 10.3594 12.5278 10.2649 12.285 10.2649C12.0421 10.2649 11.8137 10.3594 11.6421 10.5312L10.7994 11.3738C10.7876 11.3856 10.7684 11.3856 10.7567 11.3738L9.8088 10.4259L12.2788 7.956C12.6568 7.57795 13.272 7.57795 13.6501 7.956L15.396 9.7019L13.7473 11.3506Z" fill="#777777"/>
<path d="M30.5161 20.8054C30.4706 20.7859 30.0799 20.6216 29.3734 20.4103V19.3003H30.343C30.4871 19.3003 30.622 19.2296 30.7042 19.1111C30.7863 18.9927 30.8051 18.8415 30.7545 18.7066L29.3454 14.949C29.2811 14.7775 29.1171 14.6639 28.934 14.6639C28.7508 14.6639 28.5868 14.7775 28.5225 14.949L27.4488 17.8122L26.3596 17.0861C26.212 16.9877 26.0197 16.9877 25.8721 17.0861L25.1463 17.57V16.982C25.1463 16.8655 25.1 16.7537 25.0175 16.6713L22.1994 13.8532C22.0278 13.6815 21.7495 13.6815 21.5779 13.8532L18.9103 16.5208L18.548 15.434C18.4882 15.2545 18.3203 15.1335 18.1311 15.1335C17.942 15.1335 17.7741 15.2546 17.7143 15.434L16.8787 17.9408L15.7299 14.4946C15.6701 14.3152 15.5022 14.1942 15.313 14.1942C15.1239 14.1942 14.956 14.3152 14.8962 14.4946L13.4871 18.7218C13.4837 18.7322 13.4813 18.7428 13.4787 18.7534L12.8057 18.0804C12.6341 17.9087 12.3558 17.9087 12.1842 18.0804L10.7752 19.4894C10.6927 19.5718 10.6465 19.6836 10.6465 19.8001V21.8808C10.3178 21.9897 9.9847 22.0991 9.64662 22.2083V20.2698C9.64662 20.1533 9.60033 20.0415 9.51789 19.9591L7.94982 18.3911L12.27 14.071C12.4416 13.8993 12.4416 13.6211 12.27 13.4495C12.0983 13.2779 11.8201 13.2779 11.6485 13.4495L7.32838 17.7696L7.16941 17.6107C7.08697 17.5282 6.97524 17.482 6.8587 17.482C6.74215 17.482 6.63036 17.5282 6.54798 17.6107L5.19447 18.9642L4.92172 18.2368C4.85739 18.0653 4.69344 17.9516 4.51028 17.9516C4.32712 17.9516 4.16312 18.0653 4.09884 18.2368L2.68979 21.9943C2.63917 22.1293 2.65797 22.2804 2.74006 22.3989C2.82215 22.5174 2.95715 22.5881 3.10129 22.5881H4.07089V23.7331C3.17102 23.9221 2.24214 24.0849 1.28215 24.2103C1.04151 24.2417 0.871879 24.4622 0.903285 24.7029C0.932171 24.9243 1.12108 25.0855 1.33852 25.0855C1.35744 25.0855 1.3766 25.0843 1.39594 25.0818C5.42381 24.556 8.88842 23.3969 11.9452 22.3743C13.9839 21.6922 15.857 21.0657 17.6919 20.6702V21.6789C17.6919 21.9216 17.8887 22.1183 18.1314 22.1183C18.3741 22.1183 18.5708 21.9216 18.5708 21.6789V20.4989C19.5192 20.3343 20.4627 20.2395 21.4192 20.2395C26.8844 20.2395 30.1384 21.5995 30.1702 21.6131C30.3934 21.7087 30.6516 21.6053 30.7473 21.3823C30.8425 21.1593 30.7392 20.901 30.5161 20.8054ZM3.73503 21.7092L4.50999 19.6427L5.28494 21.7092H3.73503ZM8.76749 22.4872C7.55677 22.8642 6.28601 23.2273 4.94944 23.5385V22.5881H5.91904C6.06318 22.5881 6.19812 22.5175 6.28026 22.399C6.36235 22.2805 6.38116 22.1293 6.33054 21.9944L5.5332 19.8682L6.85846 18.5429L8.76749 20.4519V22.4872ZM13.4643 20.9456C12.8699 21.1382 12.271 21.3384 11.666 21.5408C11.6192 21.5565 11.572 21.5722 11.5251 21.5879V19.9822L12.4947 19.0126L13.4643 19.9822V20.9456ZM15.3129 16.0233L16.1123 18.4214H14.5135L15.3129 16.0233ZM14.8734 20.5048C14.697 20.5577 14.5203 20.6117 14.3433 20.6666V19.8002C14.3433 19.6837 14.297 19.5719 14.2145 19.4895L14.0253 19.3003H14.8734V20.5048ZM16.3654 20.0571C16.3716 20.0657 16.3786 20.0735 16.3854 20.0816C16.1747 20.1358 15.9637 20.1923 15.7523 20.2509V19.3002H16.4254L16.305 19.6612C16.2604 19.7953 16.2828 19.9426 16.3654 20.0571ZM17.3317 19.3607L18.131 16.9626L18.9304 19.3607H17.3317ZM24.2672 19.482C23.3989 19.4067 22.4481 19.3607 21.4188 19.3607C20.9052 19.3607 20.3933 19.3876 19.8822 19.437L19.5098 18.3198V17.164L21.8885 14.7853L24.2672 17.164V19.482ZM27.0854 19.8631C26.5068 19.7547 25.8591 19.6536 25.1461 19.5709V18.6263L26.1158 17.9799L27.0854 18.6263V19.8631ZM28.9339 16.3549L29.7089 18.4214H28.159L28.9339 16.3549ZM28.4945 20.1699C28.3276 20.1282 28.1508 20.0861 27.9643 20.0441V19.3002H28.4945V20.1699Z" fill="#777777"/>
<path d="M7.32814 20.7698C7.08545 20.7698 6.8887 20.9666 6.8887 21.2092V21.6789C6.8887 21.9216 7.08545 22.1184 7.32814 22.1184C7.57084 22.1184 7.76759 21.9216 7.76759 21.6789V21.2092C7.76759 20.9666 7.57084 20.7698 7.32814 20.7698Z" fill="#777777"/>
<path d="M20.9491 17.0123C20.7064 17.0123 20.5097 17.2091 20.5097 17.4518V17.9215C20.5097 18.1642 20.7064 18.3609 20.9491 18.3609C21.1918 18.3609 21.3886 18.1642 21.3886 17.9215V17.4518C21.3886 17.209 21.1918 17.0123 20.9491 17.0123Z" fill="#777777"/>
<path d="M22.8279 17.0123C22.5852 17.0123 22.3885 17.2091 22.3885 17.4518V17.9215C22.3885 18.1642 22.5852 18.3609 22.8279 18.3609C23.0706 18.3609 23.2674 18.1642 23.2674 17.9215V17.4518C23.2674 17.209 23.0706 17.0123 22.8279 17.0123Z" fill="#777777"/>
<path d="M30.6538 13.8532L22.2562 5.45577C21.9071 5.10661 21.4429 4.91431 20.9491 4.91431C20.4554 4.91431 19.9912 5.10661 19.642 5.45577L16.0174 9.0804L14.2715 7.3345C13.9224 6.98534 13.4582 6.7931 12.9644 6.7931C12.4706 6.7931 12.0064 6.98534 11.6573 7.3345L0.911429 18.0804C0.73981 18.252 0.73981 18.5303 0.911429 18.7019C0.99721 18.7876 1.10971 18.8306 1.22215 18.8306C1.33459 18.8306 1.44709 18.7877 1.53287 18.7019L9.18731 11.0474L10.1352 11.9953C10.4896 12.3497 11.0663 12.3497 11.4209 11.9953L12.2636 11.1526C12.2658 11.1504 12.2724 11.1438 12.285 11.1438C12.2974 11.1438 12.3041 11.1504 12.3063 11.1526L13.1258 11.9721L12.9253 12.1727C12.7536 12.3443 12.7536 12.6225 12.9253 12.7941C13.0969 12.9657 13.3751 12.9657 13.5467 12.7941L14.8432 11.4976L15.5121 12.1666C15.7809 12.4354 16.1341 12.5697 16.4871 12.5697C16.8402 12.5697 17.1933 12.4354 17.4621 12.1666L18.3244 11.3043C18.496 11.1327 18.496 10.8544 18.3244 10.6829C18.1528 10.5112 17.8745 10.5112 17.7029 10.6829L16.8407 11.5451C16.6457 11.7401 16.3286 11.7401 16.1336 11.5451L15.4647 10.8762L20.2636 6.07726C20.4467 5.89416 20.6902 5.79326 20.9492 5.79326C21.2082 5.79326 21.4517 5.89416 21.6348 6.07726L25.7439 10.1863L25.5446 10.3855C25.3503 10.5799 25.0344 10.5804 24.8394 10.3873L24.8368 10.3847C24.5061 10.054 23.9681 10.054 23.6374 10.3847L22.7853 11.2369C22.5903 11.4319 22.2732 11.4318 22.0782 11.2369L20.2133 9.3719C20.0531 9.21171 19.8401 9.12347 19.6136 9.12347C19.3871 9.12347 19.1741 9.21171 19.0139 9.3719C18.8423 9.54352 18.8423 9.82178 19.0139 9.99334C19.1782 10.1576 19.4402 10.1646 19.6128 10.0144L21.4568 11.8582C21.7255 12.1271 22.0787 12.2614 22.4318 12.2614C22.7848 12.2614 23.1379 12.1271 23.4068 11.8582L24.2374 11.0277C24.7765 11.5445 25.6356 11.5376 26.1662 11.0069L26.3654 10.8077L30.0324 14.4747C30.1181 14.5604 30.2306 14.6034 30.3431 14.6034C30.4555 14.6034 30.568 14.5605 30.6538 14.4747C30.8254 14.303 30.8254 14.0248 30.6538 13.8532ZM13.7473 11.3506L12.9278 10.5312C12.7561 10.3594 12.5278 10.2649 12.285 10.2649C12.0421 10.2649 11.8137 10.3594 11.6421 10.5312L10.7994 11.3738C10.7876 11.3856 10.7684 11.3856 10.7567 11.3738L9.8088 10.4259L12.2788 7.956C12.6568 7.57795 13.272 7.57795 13.6501 7.956L15.396 9.7019L13.7473 11.3506Z" stroke="#777777" stroke-width="0.5" mask="url(#path-1-outside-1_3500_74333)"/>
<path d="M30.5161 20.8054C30.4706 20.7859 30.0799 20.6216 29.3734 20.4103V19.3003H30.343C30.4871 19.3003 30.622 19.2296 30.7042 19.1111C30.7863 18.9927 30.8051 18.8415 30.7545 18.7066L29.3454 14.949C29.2811 14.7775 29.1171 14.6639 28.934 14.6639C28.7508 14.6639 28.5868 14.7775 28.5225 14.949L27.4488 17.8122L26.3596 17.0861C26.212 16.9877 26.0197 16.9877 25.8721 17.0861L25.1463 17.57V16.982C25.1463 16.8655 25.1 16.7537 25.0175 16.6713L22.1994 13.8532C22.0278 13.6815 21.7495 13.6815 21.5779 13.8532L18.9103 16.5208L18.548 15.434C18.4882 15.2545 18.3203 15.1335 18.1311 15.1335C17.942 15.1335 17.7741 15.2546 17.7143 15.434L16.8787 17.9408L15.7299 14.4946C15.6701 14.3152 15.5022 14.1942 15.313 14.1942C15.1239 14.1942 14.956 14.3152 14.8962 14.4946L13.4871 18.7218C13.4837 18.7322 13.4813 18.7428 13.4787 18.7534L12.8057 18.0804C12.6341 17.9087 12.3558 17.9087 12.1842 18.0804L10.7752 19.4894C10.6927 19.5718 10.6465 19.6836 10.6465 19.8001V21.8808C10.3178 21.9897 9.9847 22.0991 9.64662 22.2083V20.2698C9.64662 20.1533 9.60033 20.0415 9.51789 19.9591L7.94982 18.3911L12.27 14.071C12.4416 13.8993 12.4416 13.6211 12.27 13.4495C12.0983 13.2779 11.8201 13.2779 11.6485 13.4495L7.32838 17.7696L7.16941 17.6107C7.08697 17.5282 6.97524 17.482 6.8587 17.482C6.74215 17.482 6.63036 17.5282 6.54798 17.6107L5.19447 18.9642L4.92172 18.2368C4.85739 18.0653 4.69344 17.9516 4.51028 17.9516C4.32712 17.9516 4.16312 18.0653 4.09884 18.2368L2.68979 21.9943C2.63917 22.1293 2.65797 22.2804 2.74006 22.3989C2.82215 22.5174 2.95715 22.5881 3.10129 22.5881H4.07089V23.7331C3.17102 23.9221 2.24214 24.0849 1.28215 24.2103C1.04151 24.2417 0.871879 24.4622 0.903285 24.7029C0.932171 24.9243 1.12108 25.0855 1.33852 25.0855C1.35744 25.0855 1.3766 25.0843 1.39594 25.0818C5.42381 24.556 8.88842 23.3969 11.9452 22.3743C13.9839 21.6922 15.857 21.0657 17.6919 20.6702V21.6789C17.6919 21.9216 17.8887 22.1183 18.1314 22.1183C18.3741 22.1183 18.5708 21.9216 18.5708 21.6789V20.4989C19.5192 20.3343 20.4627 20.2395 21.4192 20.2395C26.8844 20.2395 30.1384 21.5995 30.1702 21.6131C30.3934 21.7087 30.6516 21.6053 30.7473 21.3823C30.8425 21.1593 30.7392 20.901 30.5161 20.8054ZM3.73503 21.7092L4.50999 19.6427L5.28494 21.7092H3.73503ZM8.76749 22.4872C7.55677 22.8642 6.28601 23.2273 4.94944 23.5385V22.5881H5.91904C6.06318 22.5881 6.19812 22.5175 6.28026 22.399C6.36235 22.2805 6.38116 22.1293 6.33054 21.9944L5.5332 19.8682L6.85846 18.5429L8.76749 20.4519V22.4872ZM13.4643 20.9456C12.8699 21.1382 12.271 21.3384 11.666 21.5408C11.6192 21.5565 11.572 21.5722 11.5251 21.5879V19.9822L12.4947 19.0126L13.4643 19.9822V20.9456ZM15.3129 16.0233L16.1123 18.4214H14.5135L15.3129 16.0233ZM14.8734 20.5048C14.697 20.5577 14.5203 20.6117 14.3433 20.6666V19.8002C14.3433 19.6837 14.297 19.5719 14.2145 19.4895L14.0253 19.3003H14.8734V20.5048ZM16.3654 20.0571C16.3716 20.0657 16.3786 20.0735 16.3854 20.0816C16.1747 20.1358 15.9637 20.1923 15.7523 20.2509V19.3002H16.4254L16.305 19.6612C16.2604 19.7953 16.2828 19.9426 16.3654 20.0571ZM17.3317 19.3607L18.131 16.9626L18.9304 19.3607H17.3317ZM24.2672 19.482C23.3989 19.4067 22.4481 19.3607 21.4188 19.3607C20.9052 19.3607 20.3933 19.3876 19.8822 19.437L19.5098 18.3198V17.164L21.8885 14.7853L24.2672 17.164V19.482ZM27.0854 19.8631C26.5068 19.7547 25.8591 19.6536 25.1461 19.5709V18.6263L26.1158 17.9799L27.0854 18.6263V19.8631ZM28.9339 16.3549L29.7089 18.4214H28.159L28.9339 16.3549ZM28.4945 20.1699C28.3276 20.1282 28.1508 20.0861 27.9643 20.0441V19.3002H28.4945V20.1699Z" stroke="#777777" stroke-width="0.5" mask="url(#path-1-outside-1_3500_74333)"/>
<path d="M7.32814 20.7698C7.08545 20.7698 6.8887 20.9666 6.8887 21.2092V21.6789C6.8887 21.9216 7.08545 22.1184 7.32814 22.1184C7.57084 22.1184 7.76759 21.9216 7.76759 21.6789V21.2092C7.76759 20.9666 7.57084 20.7698 7.32814 20.7698Z" stroke="#777777" stroke-width="0.5" mask="url(#path-1-outside-1_3500_74333)"/>
<path d="M20.9491 17.0123C20.7064 17.0123 20.5097 17.2091 20.5097 17.4518V17.9215C20.5097 18.1642 20.7064 18.3609 20.9491 18.3609C21.1918 18.3609 21.3886 18.1642 21.3886 17.9215V17.4518C21.3886 17.209 21.1918 17.0123 20.9491 17.0123Z" stroke="#777777" stroke-width="0.5" mask="url(#path-1-outside-1_3500_74333)"/>
<path d="M22.8279 17.0123C22.5852 17.0123 22.3885 17.2091 22.3885 17.4518V17.9215C22.3885 18.1642 22.5852 18.3609 22.8279 18.3609C23.0706 18.3609 23.2674 18.1642 23.2674 17.9215V17.4518C23.2674 17.209 23.0706 17.0123 22.8279 17.0123Z" stroke="#777777" stroke-width="0.5" mask="url(#path-1-outside-1_3500_74333)"/>
</g>
<defs>
<clipPath id="clip0_3500_74333">
<rect width="30" height="30" fill="white" transform="translate(0.782715)"/>
</clipPath>
</defs>
</svg>
