<svg width="30" height="30" viewBox="0 0 30 30" fill="none" xmlns="http://www.w3.org/2000/svg">
<g clip-path="url(#clip0_3500_74486)">
<path d="M22.0865 11.4314L22.0874 11.4307C22.3285 11.2406 22.6708 11.125 23 11.125H23.009C23.2883 11.125 23.5502 11.0184 23.7456 10.8241L23.7459 10.8239C23.8063 10.7635 23.8563 10.6957 23.8995 10.625H25.0005C25.621 10.625 26.1255 10.1205 26.1255 9.5V7C26.1255 6.37946 25.621 5.875 25.0005 5.875H23.9312C23.7303 5.57558 23.3904 5.375 23.001 5.375C21.7488 5.375 20.5775 5.91727 19.7052 6.89685C18.8465 7.86063 18.3755 9.14075 18.3755 10.5V23.75C18.3755 25.473 16.9735 26.875 15.2505 26.875C13.5275 26.875 12.1255 25.473 12.1255 23.75V20.125H14.0005C15.724 20.125 17.1255 18.7235 17.1255 17V2V1.99994C17.125 0.827963 16.172 -0.125 15 -0.125H6C4.82796 -0.125 3.875 0.827964 3.875 2V17C3.875 18.7235 5.27646 20.125 7 20.125H8.875V23.75C8.875 27.2655 11.7345 30.125 15.25 30.125C18.7655 30.125 21.625 27.2655 21.625 23.75V12.5C21.625 12.0175 21.7839 11.6653 22.0865 11.4314ZM20.6383 7.72815L20.6384 7.72809C21.2439 7.04751 22.0345 6.66235 22.875 6.62542V9.7225C22.875 9.7889 22.8704 9.84029 22.8645 9.87863C22.3016 9.9068 21.7444 10.1098 21.3171 10.4459C20.9766 10.7098 20.5909 11.1613 20.442 11.875H19.625V10.5C19.625 9.4433 19.9862 8.46006 20.6383 7.72815ZM10.2206 10.0593L10.2212 10.0596C10.3105 10.1036 10.4054 10.125 10.4995 10.125C10.7285 10.125 10.9492 9.99892 11.0592 9.77953L11.0593 9.7794L12.0593 7.7794C12.1561 7.58577 12.1462 7.35566 12.0317 7.17111C11.9176 6.98716 11.7171 6.8745 11.5 6.8745H10.5112L11.0588 5.7789C11.0588 5.7789 11.0588 5.77889 11.0588 5.77888C11.2131 5.47021 11.0882 5.0946 10.7794 4.9402L10.7789 4.93997C10.4703 4.78719 10.0959 4.91052 9.94079 5.21942L9.9407 5.2196L8.9407 7.2196C8.84388 7.41323 8.85379 7.64334 8.96828 7.82789C9.08226 8.01163 9.28265 8.125 9.5 8.125H10.4888L9.9412 9.2206C9.94119 9.2206 9.94119 9.22061 9.94119 9.22062C9.78686 9.52929 9.91179 9.9049 10.2206 10.0593ZM15.125 16.5V12.5C15.125 11.604 14.396 10.875 13.5 10.875H7.5C6.60396 10.875 5.875 11.604 5.875 12.5V16.5C5.875 17.396 6.60396 18.125 7.5 18.125H13.5C14.396 18.125 15.125 17.396 15.125 16.5ZM13.875 16.5C13.875 16.707 13.707 16.875 13.5 16.875H7.5C7.29304 16.875 7.125 16.707 7.125 16.5V12.5C7.125 12.293 7.29304 12.125 7.5 12.125H13.5C13.707 12.125 13.875 12.293 13.875 12.5V16.5ZM24.875 9.375H24.125V7.125H24.875V9.375ZM15.25 28.125C17.6625 28.125 19.625 26.1625 19.625 23.75V13.125H20.375V23.75C20.375 26.576 18.076 28.875 15.25 28.875C12.424 28.875 10.125 26.576 10.125 23.75V20.125H10.875V23.75C10.875 26.1625 12.8375 28.125 15.25 28.125ZM6 1.125H15C15.3854 1.125 15.713 1.37693 15.8289 1.725C15.2787 2.08281 13.701 2.875 10.5 2.875C7.2988 2.875 5.7211 2.08314 5.17108 1.72504C5.28688 1.37661 5.61448 1.125 6 1.125ZM5.125 17V3.12689C6.09513 3.59403 7.79233 4.125 10.5 4.125C13.2077 4.125 14.9049 3.59403 15.875 3.12689V17C15.875 18.034 15.034 18.875 14 18.875H7C5.96604 18.875 5.125 18.034 5.125 17Z" fill="#777777" stroke="#777777" stroke-width="0.25"/>
</g>
<defs>
<clipPath id="clip0_3500_74486">
<rect width="30" height="30" fill="white"/>
</clipPath>
</defs>
</svg>
