<svg width="31" height="30" viewBox="0 0 31 30" fill="none" xmlns="http://www.w3.org/2000/svg">
<path d="M24.2202 3.71246H22.814V2.8125C22.814 2.29431 22.3947 1.875 21.8765 1.875C21.3583 1.875 20.939 2.29431 20.939 2.8125V3.71246H10.6265V2.8125C10.6265 2.29431 10.2072 1.875 9.68896 1.875C9.17078 1.875 8.75146 2.29431 8.75146 2.8125V3.71246H7.34521C4.76068 3.71246 2.65771 5.81543 2.65771 8.39996V23.4375C2.65771 26.022 4.76068 28.125 7.34521 28.125H24.2202C26.8047 28.125 28.9077 26.022 28.9077 23.4375V8.39996C28.9077 5.81543 26.8047 3.71246 24.2202 3.71246ZM4.53271 8.39996C4.53271 6.84906 5.79431 5.58746 7.34521 5.58746H8.75146V6.48743C8.75146 7.00562 9.17078 7.42493 9.68896 7.42493C10.2072 7.42493 10.6265 7.00562 10.6265 6.48743V5.58746H20.939V6.48743C20.939 7.00562 21.3583 7.42493 21.8765 7.42493C22.3947 7.42493 22.814 7.00562 22.814 6.48743V5.58746H24.2202C25.7711 5.58746 27.0327 6.84906 27.0327 8.39996V9.34662H4.53271V8.39996ZM24.2202 26.25H7.34521C5.79431 26.25 4.53271 24.9884 4.53271 23.4375V11.2216H27.0327V23.4375C27.0327 24.9884 25.7711 26.25 24.2202 26.25Z" fill="#777777"/>
<path d="M17.4178 13.2477C16.4565 12.5208 15.1098 12.5208 14.1467 13.2477L9.68256 16.6241C9.28339 16.9244 9.12225 17.4435 9.28064 17.9169C9.4317 18.3719 9.84552 18.6832 10.3198 18.707V22.0615C10.3198 23.5565 11.5365 24.7733 13.0316 24.7733H18.5339C20.0289 24.7733 21.2457 23.5565 21.2457 22.0615V18.707C21.7199 18.6832 22.1337 18.3719 22.2848 17.9169C22.4432 17.4435 22.282 16.9244 21.8829 16.6241L17.4178 13.2477ZM19.3707 17.7713V22.0615C19.3707 22.5229 18.9953 22.8983 18.5339 22.8983H13.0316C12.5701 22.8983 12.1948 22.5229 12.1948 22.0615V17.7713C12.1948 17.5626 12.1261 17.3694 12.0107 17.2137L15.2773 14.7437C15.5758 14.5184 15.9905 14.5184 16.2872 14.7437L19.5547 17.2137C19.4393 17.3694 19.3707 17.5626 19.3707 17.7713Z" fill="#777777"/>
</svg>
