<svg width="30" height="30" viewBox="0 0 30 30" fill="none" xmlns="http://www.w3.org/2000/svg">
<g clip-path="url(#clip0_3500_74539)">
<path d="M27.6684 11.8192C28.2116 11.2897 28.4034 10.5126 28.1691 9.7911C27.9346 9.06964 27.3227 8.55372 26.572 8.44468L20.0077 7.49083C19.8789 7.47214 19.7675 7.39122 19.7098 7.27438L16.7742 1.32624C16.4385 0.645967 15.7587 0.223389 15.0001 0.223389C14.2415 0.223389 13.5617 0.645967 13.226 1.32624L10.2904 7.27444C10.2327 7.39122 10.1214 7.47214 9.99245 7.49089L3.42831 8.44468C2.67761 8.55372 2.06571 9.06964 1.83122 9.7911C1.59673 10.5126 1.78856 11.2897 2.33184 11.8192L7.08175 16.4492C7.17497 16.5402 7.21757 16.6711 7.19553 16.7995L6.07423 23.3372C5.94602 24.0849 6.24755 24.8263 6.86126 25.2722C7.47497 25.7182 8.27348 25.7758 8.94485 25.4229L14.816 22.3362C14.9313 22.2756 15.069 22.2756 15.1843 22.3362L21.0555 25.4229C21.3476 25.5764 21.6636 25.6523 21.978 25.6522C22.3864 25.6522 22.7923 25.5242 23.139 25.2721C23.7527 24.8261 24.0542 24.0847 23.926 23.3371L22.8047 16.7994C22.7827 16.6711 22.8252 16.5401 22.9185 16.4492L27.6684 11.8192ZM21.2449 17.0671L22.3662 23.6049C22.4037 23.8237 22.2686 23.9484 22.2088 23.9918C22.1489 24.0352 21.9885 24.1252 21.7921 24.0219L15.9208 20.9352C15.6326 20.7838 15.3165 20.7079 15.0002 20.7079C14.684 20.7079 14.3678 20.7838 14.0796 20.9352L8.20845 24.0218C8.01192 24.1251 7.85155 24.0351 7.79173 23.9917C7.7319 23.9483 7.59678 23.8235 7.63434 23.6048L8.75565 17.0671C8.86575 16.4252 8.65311 15.7706 8.18665 15.316L3.43675 10.6859C3.27778 10.5309 3.31376 10.3506 3.33667 10.2803C3.35946 10.2099 3.43639 10.0429 3.65606 10.011L10.2201 9.05716C10.8646 8.96353 11.4216 8.55899 11.7098 7.97487L14.6454 2.02667C14.7437 1.82763 14.9263 1.80612 15.0003 1.80612C15.0742 1.80612 15.2567 1.82757 15.3551 2.02667L18.2907 7.97493C18.5789 8.55905 19.1358 8.96358 19.7802 9.05722L26.3444 10.0111C26.5641 10.0429 26.641 10.21 26.6638 10.2804C26.6867 10.3507 26.7227 10.5311 26.5637 10.686L21.8138 15.316C21.3474 15.7706 21.1348 16.4252 21.2449 17.0671Z" fill="#777777"/>
<path d="M24.2451 1.32583C23.8914 1.06895 23.3966 1.14735 23.1397 1.50091L22.2997 2.65708C22.0428 3.01063 22.1211 3.50558 22.4747 3.76245C22.6153 3.86446 22.778 3.91362 22.9393 3.91362C23.184 3.91362 23.4253 3.80048 23.5801 3.58743L24.4202 2.43126C24.677 2.07765 24.5987 1.5827 24.2451 1.32583Z" fill="#777777"/>
<path d="M7.69686 2.65239L6.8568 1.49622C6.59999 1.14278 6.10511 1.06438 5.75143 1.32114C5.39788 1.57802 5.31948 2.07296 5.57636 2.42651L6.41641 3.58269C6.57128 3.79591 6.81257 3.90899 7.05737 3.90899C7.21868 3.90899 7.38145 3.85983 7.52184 3.75776C7.8754 3.50095 7.9538 3.00601 7.69686 2.65239Z" fill="#777777"/>
<path d="M2.90343 17.9784C2.76837 17.5628 2.32194 17.3353 1.90622 17.4703L0.547019 17.912C0.131297 18.0471 -0.0961056 18.4936 0.038953 18.9092C0.147586 19.2437 0.45784 19.4563 0.791414 19.4563C0.872449 19.4563 0.95489 19.4437 1.03616 19.4173L2.39536 18.9756C2.81102 18.8406 3.03848 18.3941 2.90343 17.9784Z" fill="#777777"/>
<path d="M15.0003 26.765C14.5632 26.765 14.2089 27.1193 14.2089 27.5563V28.9855C14.2089 29.4226 14.5632 29.7769 15.0003 29.7769C15.4373 29.7769 15.7916 29.4226 15.7916 28.9855V27.5563C15.7916 27.1192 15.4374 26.765 15.0003 26.765Z" fill="#777777"/>
<path d="M29.453 17.9131L28.0938 17.4715C27.6782 17.3365 27.2316 17.5639 27.0965 17.9796C26.9615 18.3953 27.1889 18.8417 27.6046 18.9768L28.9638 19.4185C29.0451 19.4448 29.1275 19.4574 29.2085 19.4574C29.5421 19.4574 29.8524 19.2447 29.961 18.9103C30.0961 18.4946 29.8686 18.0482 29.453 17.9131Z" fill="#777777"/>
</g>
<defs>
<clipPath id="clip0_3500_74539">
<rect width="30" height="30" fill="white"/>
</clipPath>
</defs>
</svg>
