<svg width="30" height="30" viewBox="0 0 30 30" fill="none" xmlns="http://www.w3.org/2000/svg">
<path d="M13.3139 10.4064L13.314 10.4064L16.6598 10.7113L16.7476 10.6222C16.7475 10.6222 16.7475 10.6222 16.7475 10.6222C16.1382 10.0221 15.3823 9.5922 14.555 9.37549C13.7277 9.15877 12.858 9.16278 12.0328 9.38712C11.2075 9.61147 10.4555 10.0483 9.85181 10.654C9.27074 11.2371 8.8466 11.9569 8.61804 12.7466L7.31119 12.7466L7.31079 12.7466C7.15324 12.7471 7.00231 12.8101 6.89108 12.9216C6.77985 13.0332 6.71739 13.1843 6.71739 13.3419C6.71739 13.4995 6.77985 13.6506 6.89108 13.7622C7.00231 13.8737 7.15324 13.9367 7.31079 13.9372H7.31119H8.42533C8.42174 13.9939 8.41884 14.0525 8.41884 14.1112C8.41884 14.1698 8.42174 14.2284 8.42533 14.2851H7.31119V14.2851L7.30872 14.2852C7.15288 14.2882 7.00446 14.3523 6.89534 14.4636C6.78622 14.5749 6.7251 14.7246 6.72511 14.8804C6.72511 15.0363 6.78624 15.186 6.89537 15.2972C7.0045 15.4085 7.15292 15.4726 7.30876 15.4757L7.30876 15.4757H7.31122H8.61609C9.54308 18.9172 14.1433 20.2226 16.7222 17.6245C16.8345 17.5145 16.8987 17.3645 16.9008 17.2073C16.903 17.0498 16.8426 16.8978 16.7328 16.7847C16.6231 16.6716 16.4731 16.6067 16.3155 16.604C16.158 16.6014 16.0058 16.6614 15.8924 16.7708L15.8922 16.771C15.4444 17.2053 14.8941 17.5194 14.2924 17.6841C13.6907 17.8488 13.0571 17.8588 12.4505 17.713C11.844 17.5673 11.2841 17.2706 10.8228 16.8505C10.4051 16.4701 10.0807 15.9996 9.87341 15.4757H12.3699V15.4757L12.3723 15.4757C12.5282 15.4726 12.6766 15.4086 12.7858 15.2973C12.8949 15.186 12.9561 15.0363 12.9561 14.8804C12.9561 14.7245 12.8949 14.5748 12.7858 14.4635C12.6766 14.3522 12.5281 14.2882 12.3723 14.2852V14.2851H12.3699H9.61576C9.61199 14.2266 9.60939 14.169 9.60939 14.1112C9.60939 14.0533 9.61199 13.9957 9.61576 13.9372H12.3699V13.9372L12.3723 13.9372C12.5282 13.9341 12.6767 13.8701 12.7858 13.7588C12.895 13.6475 12.9561 13.4978 12.9561 13.3419C12.9561 13.186 12.8949 13.0363 12.7858 12.925C12.6766 12.8137 12.5282 12.7497 12.3723 12.7467V12.7466H12.3699H9.87363C10.1357 12.0863 10.5825 11.5139 11.1622 11.099C11.7899 10.6498 12.5421 10.4077 13.3139 10.4064ZM12.6724 3.13306V3.13294L12.6669 3.13316C-1.88897 3.73511 -1.889 24.4872 12.667 25.0888L12.667 25.0889L12.6723 25.0889C14.3453 25.0875 15.9952 24.7031 17.4957 23.9657C17.9912 24.8286 18.7015 25.5497 19.5584 26.0582C20.4499 26.5872 21.4672 26.8668 22.5038 26.8676L22.5038 26.8676L22.5076 26.8675C29.5617 26.655 30.355 16.8383 23.5585 15.4221C23.7384 13.9121 23.6029 12.3807 23.1602 10.925C22.7062 9.43198 21.9394 8.05282 20.9109 6.87925C19.8824 5.70567 18.6157 4.76461 17.1952 4.11867C15.7747 3.47274 14.2328 3.13675 12.6724 3.13306ZM21.695 15.3775C21.755 14.9582 21.7857 14.5352 21.787 14.1115L21.7872 14.1115L21.7869 14.106C21.2872 2.02006 4.05591 2.02197 3.55677 14.1061L3.55674 14.1061L3.55668 14.109C3.43955 20.8228 10.9748 25.372 16.8444 22.2166C16.8883 22.4392 16.9455 22.6589 17.0156 22.8747C15.6674 23.5462 14.1817 23.8967 12.6746 23.8983C-0.311194 23.3587 -0.30979 4.86262 12.6747 4.32355C15.2686 4.3273 17.7553 5.35942 19.5895 7.19371C21.4242 9.02853 22.4562 11.5161 22.4592 14.1109C22.4569 14.5149 22.4285 14.9184 22.374 15.3187C22.1467 15.3249 21.92 15.3445 21.695 15.3775ZM4.74731 14.1127L4.74731 14.111C4.74706 12.9999 4.98053 11.9011 5.43256 10.886C5.88459 9.871 6.54507 8.96239 7.37111 8.21922C8.19715 7.47604 9.17027 6.91493 10.2273 6.57232C11.2843 6.22971 12.4015 6.11326 13.5065 6.23054C14.6114 6.34782 15.6793 6.6962 16.6409 7.25306C17.6024 7.80992 18.4361 8.5628 19.0877 9.46282C19.7393 10.3628 20.1944 11.3898 20.4233 12.4772C20.6475 13.5423 20.6498 14.6421 20.4302 15.7077C19.3722 16.116 18.4571 16.8269 17.7998 17.7522C17.1421 18.6779 16.7721 19.7765 16.7352 20.9104C11.5991 24.0913 4.66707 20.1776 4.74731 14.1127ZM24.7798 19.3851L24.7798 19.3851L24.7778 19.3864L21.4549 21.4708L20.4189 19.8016L20.419 19.8016L20.4176 19.7995C20.3328 19.6687 20.2001 19.5764 20.048 19.5424C19.8959 19.5084 19.7365 19.5354 19.6041 19.6176C19.4717 19.6998 19.3768 19.8306 19.3398 19.982C19.3028 20.1334 19.3266 20.2933 19.4061 20.4273L19.4061 20.4273L19.4074 20.4294L20.759 22.6067L20.7593 22.6073C20.8433 22.7411 20.9768 22.8362 21.1307 22.8718C21.2847 22.9074 21.4464 22.8805 21.5806 22.7972L21.581 22.7969L25.4103 20.3945L25.4103 20.3945L25.4124 20.3932C25.5428 20.3078 25.6345 20.1747 25.6678 20.0225C25.7011 19.8702 25.6734 19.7109 25.5905 19.5789C25.5077 19.4469 25.3764 19.3526 25.2248 19.3164C25.0732 19.2802 24.9134 19.3048 24.7798 19.3851ZM22.5038 25.677C21.2882 25.6757 20.1227 25.1922 19.263 24.3326C18.4039 23.4736 17.9204 22.3091 17.9183 21.0944C18.1726 15.0087 26.8355 15.0099 27.089 21.0944C27.0869 22.3091 26.6034 23.4735 25.7445 24.3325C24.8849 25.192 23.7195 25.6756 22.5038 25.677Z" fill="white" stroke="white" stroke-width="0.25"/>
</svg>
