<svg width="30" height="30" viewBox="0 0 30 30" fill="none" xmlns="http://www.w3.org/2000/svg">
<g clip-path="url(#clip0_3500_74417)">
<mask id="path-1-outside-1_3500_74417" maskUnits="userSpaceOnUse" x="-1" y="-0.992432" width="32" height="32" fill="black">
<rect fill="white" x="-1" y="-0.992432" width="32" height="32"/>
<path d="M29.6346 14.2456C24.8091 13.3521 19.8958 12.7868 14.9883 12.7868C13.1957 12.7868 11.4004 12.853 9.60914 12.9833L9.0629 9.03347L15.5451 8.13698C15.8069 8.0754 15.932 7.91023 15.9202 7.64148C15.3572 3.57044 11.6005 0.714447 7.54652 1.27527C5.78013 1.51954 4.16081 2.39412 2.98684 3.73777C2.61297 4.1656 3.27487 4.74395 3.64867 4.316C3.96664 3.95204 4.32194 3.62756 4.70641 3.34586C4.58448 3.54899 4.47052 3.76519 4.36559 3.99469C3.73035 5.38422 3.48614 7.10901 3.66473 8.89279L2.0399 9.11749C1.96631 8.08454 2.13587 7.04825 2.53715 6.09563C2.75769 5.572 1.94791 5.23089 1.7272 5.75445C1.20791 6.98714 1.03079 8.34292 1.21506 9.67515C1.24523 9.89322 1.4919 10.0805 1.71056 10.0502L8.1923 9.15381L8.73151 13.0524C5.91847 13.2905 3.1179 13.6875 0.355774 14.2428C-0.200777 14.3547 -0.0220762 15.2155 0.515374 15.1071C3.26444 14.554 6.05211 14.1595 8.85209 13.9244L9.03278 15.2307C9.10907 15.7821 9.98206 15.6791 9.90338 15.1103L9.72989 13.8558C11.4811 13.7298 13.236 13.6655 14.9883 13.6655C19.8378 13.6655 24.7072 14.1505 29.4613 15.1071C30.0307 15.2025 30.2401 14.3577 29.6346 14.2456ZM7.1931 4.1383C7.29024 2.74244 7.55994 2.24243 7.6678 2.15214C7.79617 2.20973 8.19148 2.61782 8.66378 3.93487C9.06471 5.05278 9.41034 6.50617 9.64874 8.06526L7.36624 8.38095C7.17248 6.81565 7.11066 5.32305 7.1931 4.1383ZM10.676 3.59798C11.5591 4.63866 12.1909 6.07365 12.4787 7.67388L10.5195 7.94486C10.2571 6.22394 9.86975 4.63602 9.41661 3.4358C9.24312 2.97639 9.06723 2.59168 8.88795 2.2794C9.51117 2.49864 10.1219 2.94487 10.676 3.59798ZM14.9751 7.3286L13.3501 7.55336C13.0377 5.78803 12.3346 4.19431 11.3461 3.02936C11.1836 2.83782 11.016 2.66141 10.8443 2.49958C12.8975 3.27169 14.5069 5.05776 14.9751 7.3286ZM5.16493 4.36018C5.52111 3.5811 5.98772 2.98582 6.5281 2.60569C6.44033 2.95489 6.37541 3.37293 6.33317 3.86222C6.22273 5.14037 6.28085 6.77387 6.49546 8.50135L4.5362 8.77233C4.37877 7.15406 4.59743 5.60148 5.16493 4.36018Z"/>
<path d="M29.593 15.7336C26.6944 15.4354 23.7111 16.0261 20.966 17.442C20.4713 17.6973 20.8758 18.4775 21.3689 18.2231C23.9617 16.8856 26.7743 16.327 29.503 16.6078C30.068 16.6662 30.1583 15.7917 29.593 15.7336Z"/>
<path d="M0.539337 20.1559C1.75485 19.8397 3.04613 19.7669 4.37748 19.9396C5.47775 20.1237 6.52324 20.4471 7.4018 20.7398C9.15002 21.3839 10.9444 22.0443 12.8446 22.0442C13.3861 22.0442 13.9366 21.9905 14.4966 21.8676C14.5007 21.8667 14.5048 21.8657 14.5089 21.8647C16.2729 21.4237 17.7429 20.54 19.0687 19.6506C19.5406 19.3342 19.0509 18.6042 18.5792 18.9208C17.3212 19.7645 15.9323 20.6016 14.3019 21.0105C12.0276 21.5075 9.92506 20.7328 7.6992 19.9128C7.69493 19.9112 7.69059 19.9097 7.68626 19.9082C6.77195 19.6034 5.68006 19.2657 4.51423 19.0714C4.50907 19.0705 4.50392 19.0698 4.49876 19.0691C3.05234 18.8804 1.64564 18.9599 0.317983 19.3054C-0.23183 19.4485 -0.0105339 20.299 0.539337 20.1559Z"/>
<path d="M29.5903 21.146C22.9252 20.5016 19.8879 21.5667 17.4474 22.4226C15.4324 23.1293 13.8407 23.6874 10.8062 22.9899C8.02473 22.3507 4.957 21.6993 2.08659 22.0964C1.49665 22.1781 0.871252 22.2968 0.353899 22.6052C-0.105919 22.8793 0.29273 23.6292 0.788405 23.3676C1.28701 23.1044 1.85633 23.0083 2.42003 22.9451C5.12873 22.6414 7.98729 23.2438 10.6095 23.8464C11.6135 24.0771 12.5153 24.1908 13.3708 24.1908C13.7962 24.1908 14.2102 24.1627 14.6197 24.1069C15.7321 23.9555 16.7066 23.6137 17.7384 23.2519C20.0974 22.4246 23.0334 21.3949 29.5058 22.0207C30.0711 22.0744 30.156 21.2007 29.5903 21.146Z"/>
<path d="M20.8975 29.1137H17.9164C17.3482 29.1137 17.3482 29.9926 17.9164 29.9926H20.8975C21.4657 29.9926 21.4657 29.1137 20.8975 29.1137Z"/>
<path d="M6.30065 24.7965H3.31957C2.75142 24.7965 2.75142 25.6754 3.31957 25.6754H6.30065C6.86886 25.6754 6.86886 24.7965 6.30065 24.7965Z"/>
<path d="M26.6005 26.41H20.9501C20.3819 26.41 20.3819 27.2889 20.9501 27.2889H26.6005C27.1686 27.2889 27.1686 26.41 26.6005 26.41Z"/>
<path d="M4.04688 16.2528C3.48133 16.2528 3.48039 17.1317 4.04688 17.1317C4.61242 17.1317 4.61336 16.2528 4.04688 16.2528Z"/>
<path d="M14.4224 18.3624C13.8569 18.3624 13.8559 19.2413 14.4224 19.2413C14.9879 19.2413 14.9888 18.3624 14.4224 18.3624Z"/>
<path d="M18.9005 16.0188C19.466 16.0188 19.467 15.1399 18.9005 15.1399C18.3349 15.1399 18.334 16.0188 18.9005 16.0188Z"/>
<path d="M27.2872 5.81246C27.2872 4.0933 25.8885 2.69463 24.1693 2.69463C22.4501 2.69463 21.0514 4.0933 21.0514 5.81246C21.0514 7.53162 22.4501 8.93029 24.1693 8.93029C25.8885 8.93029 27.2872 7.53162 27.2872 5.81246ZM24.1693 8.05143C22.9347 8.05143 21.9303 7.04702 21.9303 5.81246C21.9303 4.5779 22.9347 3.57348 24.1693 3.57348C25.4038 3.57348 26.4083 4.5779 26.4083 5.81246C26.4083 7.04702 25.4038 8.05143 24.1693 8.05143Z"/>
<path d="M24.1693 1.94449C24.412 1.94449 24.6087 1.74775 24.6087 1.50507V0.433682C24.6087 -0.134469 23.7298 -0.134469 23.7298 0.433682V1.50507C23.7298 1.74775 23.9265 1.94449 24.1693 1.94449Z"/>
<path d="M21.635 2.30184C21.9371 2.82534 22.6681 2.33348 22.3961 1.86241L21.8604 0.934572C21.5764 0.44247 20.8152 0.881957 21.0993 1.374L21.635 2.30184Z"/>
<path d="M19.2914 3.50359L20.2193 4.03928C20.69 4.31102 21.164 3.56985 20.6587 3.27819L19.7309 2.7425C19.2388 2.45851 18.7994 3.21954 19.2914 3.50359Z"/>
<path d="M18.7905 6.25189H19.8619C20.43 6.25189 20.43 5.37303 19.8619 5.37303H18.7905C18.2223 5.37303 18.2223 6.25189 18.7905 6.25189Z"/>
<path d="M20.2193 7.58558L19.2914 8.12127C18.7862 8.41305 19.2603 9.15428 19.7309 8.88236L20.6587 8.34667C21.1507 8.06257 20.7113 7.30142 20.2193 7.58558Z"/>
<path d="M21.2602 10.8511C21.4824 10.9663 21.6825 10.9127 21.8605 10.6903L22.3961 9.76245C22.6802 9.27041 21.919 8.83092 21.6351 9.32302C21.4514 9.64105 20.7135 10.5355 21.2602 10.8511Z"/>
<path d="M23.7298 10.1198V11.1912C23.7298 11.7593 24.6087 11.7593 24.6087 11.1912V10.1198C24.6087 9.55164 23.7298 9.55164 23.7298 10.1198Z"/>
<path d="M26.4781 10.6903C26.7802 11.2138 27.5111 10.7219 27.2392 10.2509L26.7035 9.32302C26.4194 8.83098 25.6583 9.27041 25.9424 9.76245L26.4781 10.6903Z"/>
<path d="M27.6799 8.34667L28.6077 8.88236C29.0783 9.15422 29.5524 8.41299 29.0472 8.12127L28.1193 7.58558C27.6273 7.3013 27.1879 8.06257 27.6799 8.34667Z"/>
<path d="M28.0372 5.81246C28.0372 6.05514 28.2339 6.25189 28.4767 6.25189H29.548C30.1162 6.25189 30.1162 5.37303 29.548 5.37303H28.4767C28.2339 5.37303 28.0372 5.56978 28.0372 5.81246Z"/>
<path d="M27.9 4.09822C27.9745 4.09822 28.0502 4.07924 28.1193 4.03928L29.0472 3.50359C29.5392 3.21954 29.0998 2.45833 28.6077 2.7425L27.6799 3.27819C27.3279 3.48144 27.4479 4.09822 27.9 4.09822Z"/>
<path d="M26.1033 2.46267C26.3255 2.57786 26.5256 2.52425 26.7035 2.30184L27.2392 1.374C27.5233 0.881957 26.7621 0.44247 26.4781 0.934572L25.9424 1.86241C25.8211 2.07263 25.8931 2.34139 26.1033 2.46267Z"/>
</mask>
<path d="M29.6346 14.2456C24.8091 13.3521 19.8958 12.7868 14.9883 12.7868C13.1957 12.7868 11.4004 12.853 9.60914 12.9833L9.0629 9.03347L15.5451 8.13698C15.8069 8.0754 15.932 7.91023 15.9202 7.64148C15.3572 3.57044 11.6005 0.714447 7.54652 1.27527C5.78013 1.51954 4.16081 2.39412 2.98684 3.73777C2.61297 4.1656 3.27487 4.74395 3.64867 4.316C3.96664 3.95204 4.32194 3.62756 4.70641 3.34586C4.58448 3.54899 4.47052 3.76519 4.36559 3.99469C3.73035 5.38422 3.48614 7.10901 3.66473 8.89279L2.0399 9.11749C1.96631 8.08454 2.13587 7.04825 2.53715 6.09563C2.75769 5.572 1.94791 5.23089 1.7272 5.75445C1.20791 6.98714 1.03079 8.34292 1.21506 9.67515C1.24523 9.89322 1.4919 10.0805 1.71056 10.0502L8.1923 9.15381L8.73151 13.0524C5.91847 13.2905 3.1179 13.6875 0.355774 14.2428C-0.200777 14.3547 -0.0220762 15.2155 0.515374 15.1071C3.26444 14.554 6.05211 14.1595 8.85209 13.9244L9.03278 15.2307C9.10907 15.7821 9.98206 15.6791 9.90338 15.1103L9.72989 13.8558C11.4811 13.7298 13.236 13.6655 14.9883 13.6655C19.8378 13.6655 24.7072 14.1505 29.4613 15.1071C30.0307 15.2025 30.2401 14.3577 29.6346 14.2456ZM7.1931 4.1383C7.29024 2.74244 7.55994 2.24243 7.6678 2.15214C7.79617 2.20973 8.19148 2.61782 8.66378 3.93487C9.06471 5.05278 9.41034 6.50617 9.64874 8.06526L7.36624 8.38095C7.17248 6.81565 7.11066 5.32305 7.1931 4.1383ZM10.676 3.59798C11.5591 4.63866 12.1909 6.07365 12.4787 7.67388L10.5195 7.94486C10.2571 6.22394 9.86975 4.63602 9.41661 3.4358C9.24312 2.97639 9.06723 2.59168 8.88795 2.2794C9.51117 2.49864 10.1219 2.94487 10.676 3.59798ZM14.9751 7.3286L13.3501 7.55336C13.0377 5.78803 12.3346 4.19431 11.3461 3.02936C11.1836 2.83782 11.016 2.66141 10.8443 2.49958C12.8975 3.27169 14.5069 5.05776 14.9751 7.3286ZM5.16493 4.36018C5.52111 3.5811 5.98772 2.98582 6.5281 2.60569C6.44033 2.95489 6.37541 3.37293 6.33317 3.86222C6.22273 5.14037 6.28085 6.77387 6.49546 8.50135L4.5362 8.77233C4.37877 7.15406 4.59743 5.60148 5.16493 4.36018Z" fill="white"/>
<path d="M29.593 15.7336C26.6944 15.4354 23.7111 16.0261 20.966 17.442C20.4713 17.6973 20.8758 18.4775 21.3689 18.2231C23.9617 16.8856 26.7743 16.327 29.503 16.6078C30.068 16.6662 30.1583 15.7917 29.593 15.7336Z" fill="white"/>
<path d="M0.539337 20.1559C1.75485 19.8397 3.04613 19.7669 4.37748 19.9396C5.47775 20.1237 6.52324 20.4471 7.4018 20.7398C9.15002 21.3839 10.9444 22.0443 12.8446 22.0442C13.3861 22.0442 13.9366 21.9905 14.4966 21.8676C14.5007 21.8667 14.5048 21.8657 14.5089 21.8647C16.2729 21.4237 17.7429 20.54 19.0687 19.6506C19.5406 19.3342 19.0509 18.6042 18.5792 18.9208C17.3212 19.7645 15.9323 20.6016 14.3019 21.0105C12.0276 21.5075 9.92506 20.7328 7.6992 19.9128C7.69493 19.9112 7.69059 19.9097 7.68626 19.9082C6.77195 19.6034 5.68006 19.2657 4.51423 19.0714C4.50907 19.0705 4.50392 19.0698 4.49876 19.0691C3.05234 18.8804 1.64564 18.9599 0.317983 19.3054C-0.23183 19.4485 -0.0105339 20.299 0.539337 20.1559Z" fill="white"/>
<path d="M29.5903 21.146C22.9252 20.5016 19.8879 21.5667 17.4474 22.4226C15.4324 23.1293 13.8407 23.6874 10.8062 22.9899C8.02473 22.3507 4.957 21.6993 2.08659 22.0964C1.49665 22.1781 0.871252 22.2968 0.353899 22.6052C-0.105919 22.8793 0.29273 23.6292 0.788405 23.3676C1.28701 23.1044 1.85633 23.0083 2.42003 22.9451C5.12873 22.6414 7.98729 23.2438 10.6095 23.8464C11.6135 24.0771 12.5153 24.1908 13.3708 24.1908C13.7962 24.1908 14.2102 24.1627 14.6197 24.1069C15.7321 23.9555 16.7066 23.6137 17.7384 23.2519C20.0974 22.4246 23.0334 21.3949 29.5058 22.0207C30.0711 22.0744 30.156 21.2007 29.5903 21.146Z" fill="white"/>
<path d="M20.8975 29.1137H17.9164C17.3482 29.1137 17.3482 29.9926 17.9164 29.9926H20.8975C21.4657 29.9926 21.4657 29.1137 20.8975 29.1137Z" fill="white"/>
<path d="M6.30065 24.7965H3.31957C2.75142 24.7965 2.75142 25.6754 3.31957 25.6754H6.30065C6.86886 25.6754 6.86886 24.7965 6.30065 24.7965Z" fill="white"/>
<path d="M26.6005 26.41H20.9501C20.3819 26.41 20.3819 27.2889 20.9501 27.2889H26.6005C27.1686 27.2889 27.1686 26.41 26.6005 26.41Z" fill="white"/>
<path d="M4.04688 16.2528C3.48133 16.2528 3.48039 17.1317 4.04688 17.1317C4.61242 17.1317 4.61336 16.2528 4.04688 16.2528Z" fill="white"/>
<path d="M14.4224 18.3624C13.8569 18.3624 13.8559 19.2413 14.4224 19.2413C14.9879 19.2413 14.9888 18.3624 14.4224 18.3624Z" fill="white"/>
<path d="M18.9005 16.0188C19.466 16.0188 19.467 15.1399 18.9005 15.1399C18.3349 15.1399 18.334 16.0188 18.9005 16.0188Z" fill="white"/>
<path d="M27.2872 5.81246C27.2872 4.0933 25.8885 2.69463 24.1693 2.69463C22.4501 2.69463 21.0514 4.0933 21.0514 5.81246C21.0514 7.53162 22.4501 8.93029 24.1693 8.93029C25.8885 8.93029 27.2872 7.53162 27.2872 5.81246ZM24.1693 8.05143C22.9347 8.05143 21.9303 7.04702 21.9303 5.81246C21.9303 4.5779 22.9347 3.57348 24.1693 3.57348C25.4038 3.57348 26.4083 4.5779 26.4083 5.81246C26.4083 7.04702 25.4038 8.05143 24.1693 8.05143Z" fill="white"/>
<path d="M24.1693 1.94449C24.412 1.94449 24.6087 1.74775 24.6087 1.50507V0.433682C24.6087 -0.134469 23.7298 -0.134469 23.7298 0.433682V1.50507C23.7298 1.74775 23.9265 1.94449 24.1693 1.94449Z" fill="white"/>
<path d="M21.635 2.30184C21.9371 2.82534 22.6681 2.33348 22.3961 1.86241L21.8604 0.934572C21.5764 0.44247 20.8152 0.881957 21.0993 1.374L21.635 2.30184Z" fill="white"/>
<path d="M19.2914 3.50359L20.2193 4.03928C20.69 4.31102 21.164 3.56985 20.6587 3.27819L19.7309 2.7425C19.2388 2.45851 18.7994 3.21954 19.2914 3.50359Z" fill="white"/>
<path d="M18.7905 6.25189H19.8619C20.43 6.25189 20.43 5.37303 19.8619 5.37303H18.7905C18.2223 5.37303 18.2223 6.25189 18.7905 6.25189Z" fill="white"/>
<path d="M20.2193 7.58558L19.2914 8.12127C18.7862 8.41305 19.2603 9.15428 19.7309 8.88236L20.6587 8.34667C21.1507 8.06257 20.7113 7.30142 20.2193 7.58558Z" fill="white"/>
<path d="M21.2602 10.8511C21.4824 10.9663 21.6825 10.9127 21.8605 10.6903L22.3961 9.76245C22.6802 9.27041 21.919 8.83092 21.6351 9.32302C21.4514 9.64105 20.7135 10.5355 21.2602 10.8511Z" fill="white"/>
<path d="M23.7298 10.1198V11.1912C23.7298 11.7593 24.6087 11.7593 24.6087 11.1912V10.1198C24.6087 9.55164 23.7298 9.55164 23.7298 10.1198Z" fill="white"/>
<path d="M26.4781 10.6903C26.7802 11.2138 27.5111 10.7219 27.2392 10.2509L26.7035 9.32302C26.4194 8.83098 25.6583 9.27041 25.9424 9.76245L26.4781 10.6903Z" fill="white"/>
<path d="M27.6799 8.34667L28.6077 8.88236C29.0783 9.15422 29.5524 8.41299 29.0472 8.12127L28.1193 7.58558C27.6273 7.3013 27.1879 8.06257 27.6799 8.34667Z" fill="white"/>
<path d="M28.0372 5.81246C28.0372 6.05514 28.2339 6.25189 28.4767 6.25189H29.548C30.1162 6.25189 30.1162 5.37303 29.548 5.37303H28.4767C28.2339 5.37303 28.0372 5.56978 28.0372 5.81246Z" fill="white"/>
<path d="M27.9 4.09822C27.9745 4.09822 28.0502 4.07924 28.1193 4.03928L29.0472 3.50359C29.5392 3.21954 29.0998 2.45833 28.6077 2.7425L27.6799 3.27819C27.3279 3.48144 27.4479 4.09822 27.9 4.09822Z" fill="white"/>
<path d="M26.1033 2.46267C26.3255 2.57786 26.5256 2.52425 26.7035 2.30184L27.2392 1.374C27.5233 0.881957 26.7621 0.44247 26.4781 0.934572L25.9424 1.86241C25.8211 2.07263 25.8931 2.34139 26.1033 2.46267Z" fill="white"/>
<path d="M29.6346 14.2456C24.8091 13.3521 19.8958 12.7868 14.9883 12.7868C13.1957 12.7868 11.4004 12.853 9.60914 12.9833L9.0629 9.03347L15.5451 8.13698C15.8069 8.0754 15.932 7.91023 15.9202 7.64148C15.3572 3.57044 11.6005 0.714447 7.54652 1.27527C5.78013 1.51954 4.16081 2.39412 2.98684 3.73777C2.61297 4.1656 3.27487 4.74395 3.64867 4.316C3.96664 3.95204 4.32194 3.62756 4.70641 3.34586C4.58448 3.54899 4.47052 3.76519 4.36559 3.99469C3.73035 5.38422 3.48614 7.10901 3.66473 8.89279L2.0399 9.11749C1.96631 8.08454 2.13587 7.04825 2.53715 6.09563C2.75769 5.572 1.94791 5.23089 1.7272 5.75445C1.20791 6.98714 1.03079 8.34292 1.21506 9.67515C1.24523 9.89322 1.4919 10.0805 1.71056 10.0502L8.1923 9.15381L8.73151 13.0524C5.91847 13.2905 3.1179 13.6875 0.355774 14.2428C-0.200777 14.3547 -0.0220762 15.2155 0.515374 15.1071C3.26444 14.554 6.05211 14.1595 8.85209 13.9244L9.03278 15.2307C9.10907 15.7821 9.98206 15.6791 9.90338 15.1103L9.72989 13.8558C11.4811 13.7298 13.236 13.6655 14.9883 13.6655C19.8378 13.6655 24.7072 14.1505 29.4613 15.1071C30.0307 15.2025 30.2401 14.3577 29.6346 14.2456ZM7.1931 4.1383C7.29024 2.74244 7.55994 2.24243 7.6678 2.15214C7.79617 2.20973 8.19148 2.61782 8.66378 3.93487C9.06471 5.05278 9.41034 6.50617 9.64874 8.06526L7.36624 8.38095C7.17248 6.81565 7.11066 5.32305 7.1931 4.1383ZM10.676 3.59798C11.5591 4.63866 12.1909 6.07365 12.4787 7.67388L10.5195 7.94486C10.2571 6.22394 9.86975 4.63602 9.41661 3.4358C9.24312 2.97639 9.06723 2.59168 8.88795 2.2794C9.51117 2.49864 10.1219 2.94487 10.676 3.59798ZM14.9751 7.3286L13.3501 7.55336C13.0377 5.78803 12.3346 4.19431 11.3461 3.02936C11.1836 2.83782 11.016 2.66141 10.8443 2.49958C12.8975 3.27169 14.5069 5.05776 14.9751 7.3286ZM5.16493 4.36018C5.52111 3.5811 5.98772 2.98582 6.5281 2.60569C6.44033 2.95489 6.37541 3.37293 6.33317 3.86222C6.22273 5.14037 6.28085 6.77387 6.49546 8.50135L4.5362 8.77233C4.37877 7.15406 4.59743 5.60148 5.16493 4.36018Z" stroke="white" stroke-width="0.5" mask="url(#path-1-outside-1_3500_74417)"/>
<path d="M29.593 15.7336C26.6944 15.4354 23.7111 16.0261 20.966 17.442C20.4713 17.6973 20.8758 18.4775 21.3689 18.2231C23.9617 16.8856 26.7743 16.327 29.503 16.6078C30.068 16.6662 30.1583 15.7917 29.593 15.7336Z" stroke="white" stroke-width="0.5" mask="url(#path-1-outside-1_3500_74417)"/>
<path d="M0.539337 20.1559C1.75485 19.8397 3.04613 19.7669 4.37748 19.9396C5.47775 20.1237 6.52324 20.4471 7.4018 20.7398C9.15002 21.3839 10.9444 22.0443 12.8446 22.0442C13.3861 22.0442 13.9366 21.9905 14.4966 21.8676C14.5007 21.8667 14.5048 21.8657 14.5089 21.8647C16.2729 21.4237 17.7429 20.54 19.0687 19.6506C19.5406 19.3342 19.0509 18.6042 18.5792 18.9208C17.3212 19.7645 15.9323 20.6016 14.3019 21.0105C12.0276 21.5075 9.92506 20.7328 7.6992 19.9128C7.69493 19.9112 7.69059 19.9097 7.68626 19.9082C6.77195 19.6034 5.68006 19.2657 4.51423 19.0714C4.50907 19.0705 4.50392 19.0698 4.49876 19.0691C3.05234 18.8804 1.64564 18.9599 0.317983 19.3054C-0.23183 19.4485 -0.0105339 20.299 0.539337 20.1559Z" stroke="white" stroke-width="0.5" mask="url(#path-1-outside-1_3500_74417)"/>
<path d="M29.5903 21.146C22.9252 20.5016 19.8879 21.5667 17.4474 22.4226C15.4324 23.1293 13.8407 23.6874 10.8062 22.9899C8.02473 22.3507 4.957 21.6993 2.08659 22.0964C1.49665 22.1781 0.871252 22.2968 0.353899 22.6052C-0.105919 22.8793 0.29273 23.6292 0.788405 23.3676C1.28701 23.1044 1.85633 23.0083 2.42003 22.9451C5.12873 22.6414 7.98729 23.2438 10.6095 23.8464C11.6135 24.0771 12.5153 24.1908 13.3708 24.1908C13.7962 24.1908 14.2102 24.1627 14.6197 24.1069C15.7321 23.9555 16.7066 23.6137 17.7384 23.2519C20.0974 22.4246 23.0334 21.3949 29.5058 22.0207C30.0711 22.0744 30.156 21.2007 29.5903 21.146Z" stroke="white" stroke-width="0.5" mask="url(#path-1-outside-1_3500_74417)"/>
<path d="M20.8975 29.1137H17.9164C17.3482 29.1137 17.3482 29.9926 17.9164 29.9926H20.8975C21.4657 29.9926 21.4657 29.1137 20.8975 29.1137Z" stroke="white" stroke-width="0.5" mask="url(#path-1-outside-1_3500_74417)"/>
<path d="M6.30065 24.7965H3.31957C2.75142 24.7965 2.75142 25.6754 3.31957 25.6754H6.30065C6.86886 25.6754 6.86886 24.7965 6.30065 24.7965Z" stroke="white" stroke-width="0.5" mask="url(#path-1-outside-1_3500_74417)"/>
<path d="M26.6005 26.41H20.9501C20.3819 26.41 20.3819 27.2889 20.9501 27.2889H26.6005C27.1686 27.2889 27.1686 26.41 26.6005 26.41Z" stroke="white" stroke-width="0.5" mask="url(#path-1-outside-1_3500_74417)"/>
<path d="M4.04688 16.2528C3.48133 16.2528 3.48039 17.1317 4.04688 17.1317C4.61242 17.1317 4.61336 16.2528 4.04688 16.2528Z" stroke="white" stroke-width="0.5" mask="url(#path-1-outside-1_3500_74417)"/>
<path d="M14.4224 18.3624C13.8569 18.3624 13.8559 19.2413 14.4224 19.2413C14.9879 19.2413 14.9888 18.3624 14.4224 18.3624Z" stroke="white" stroke-width="0.5" mask="url(#path-1-outside-1_3500_74417)"/>
<path d="M18.9005 16.0188C19.466 16.0188 19.467 15.1399 18.9005 15.1399C18.3349 15.1399 18.334 16.0188 18.9005 16.0188Z" stroke="white" stroke-width="0.5" mask="url(#path-1-outside-1_3500_74417)"/>
<path d="M27.2872 5.81246C27.2872 4.0933 25.8885 2.69463 24.1693 2.69463C22.4501 2.69463 21.0514 4.0933 21.0514 5.81246C21.0514 7.53162 22.4501 8.93029 24.1693 8.93029C25.8885 8.93029 27.2872 7.53162 27.2872 5.81246ZM24.1693 8.05143C22.9347 8.05143 21.9303 7.04702 21.9303 5.81246C21.9303 4.5779 22.9347 3.57348 24.1693 3.57348C25.4038 3.57348 26.4083 4.5779 26.4083 5.81246C26.4083 7.04702 25.4038 8.05143 24.1693 8.05143Z" stroke="white" stroke-width="0.5" mask="url(#path-1-outside-1_3500_74417)"/>
<path d="M24.1693 1.94449C24.412 1.94449 24.6087 1.74775 24.6087 1.50507V0.433682C24.6087 -0.134469 23.7298 -0.134469 23.7298 0.433682V1.50507C23.7298 1.74775 23.9265 1.94449 24.1693 1.94449Z" stroke="white" stroke-width="0.5" mask="url(#path-1-outside-1_3500_74417)"/>
<path d="M21.635 2.30184C21.9371 2.82534 22.6681 2.33348 22.3961 1.86241L21.8604 0.934572C21.5764 0.44247 20.8152 0.881957 21.0993 1.374L21.635 2.30184Z" stroke="white" stroke-width="0.5" mask="url(#path-1-outside-1_3500_74417)"/>
<path d="M19.2914 3.50359L20.2193 4.03928C20.69 4.31102 21.164 3.56985 20.6587 3.27819L19.7309 2.7425C19.2388 2.45851 18.7994 3.21954 19.2914 3.50359Z" stroke="white" stroke-width="0.5" mask="url(#path-1-outside-1_3500_74417)"/>
<path d="M18.7905 6.25189H19.8619C20.43 6.25189 20.43 5.37303 19.8619 5.37303H18.7905C18.2223 5.37303 18.2223 6.25189 18.7905 6.25189Z" stroke="white" stroke-width="0.5" mask="url(#path-1-outside-1_3500_74417)"/>
<path d="M20.2193 7.58558L19.2914 8.12127C18.7862 8.41305 19.2603 9.15428 19.7309 8.88236L20.6587 8.34667C21.1507 8.06257 20.7113 7.30142 20.2193 7.58558Z" stroke="white" stroke-width="0.5" mask="url(#path-1-outside-1_3500_74417)"/>
<path d="M21.2602 10.8511C21.4824 10.9663 21.6825 10.9127 21.8605 10.6903L22.3961 9.76245C22.6802 9.27041 21.919 8.83092 21.6351 9.32302C21.4514 9.64105 20.7135 10.5355 21.2602 10.8511Z" stroke="white" stroke-width="0.5" mask="url(#path-1-outside-1_3500_74417)"/>
<path d="M23.7298 10.1198V11.1912C23.7298 11.7593 24.6087 11.7593 24.6087 11.1912V10.1198C24.6087 9.55164 23.7298 9.55164 23.7298 10.1198Z" stroke="white" stroke-width="0.5" mask="url(#path-1-outside-1_3500_74417)"/>
<path d="M26.4781 10.6903C26.7802 11.2138 27.5111 10.7219 27.2392 10.2509L26.7035 9.32302C26.4194 8.83098 25.6583 9.27041 25.9424 9.76245L26.4781 10.6903Z" stroke="white" stroke-width="0.5" mask="url(#path-1-outside-1_3500_74417)"/>
<path d="M27.6799 8.34667L28.6077 8.88236C29.0783 9.15422 29.5524 8.41299 29.0472 8.12127L28.1193 7.58558C27.6273 7.3013 27.1879 8.06257 27.6799 8.34667Z" stroke="white" stroke-width="0.5" mask="url(#path-1-outside-1_3500_74417)"/>
<path d="M28.0372 5.81246C28.0372 6.05514 28.2339 6.25189 28.4767 6.25189H29.548C30.1162 6.25189 30.1162 5.37303 29.548 5.37303H28.4767C28.2339 5.37303 28.0372 5.56978 28.0372 5.81246Z" stroke="white" stroke-width="0.5" mask="url(#path-1-outside-1_3500_74417)"/>
<path d="M27.9 4.09822C27.9745 4.09822 28.0502 4.07924 28.1193 4.03928L29.0472 3.50359C29.5392 3.21954 29.0998 2.45833 28.6077 2.7425L27.6799 3.27819C27.3279 3.48144 27.4479 4.09822 27.9 4.09822Z" stroke="white" stroke-width="0.5" mask="url(#path-1-outside-1_3500_74417)"/>
<path d="M26.1033 2.46267C26.3255 2.57786 26.5256 2.52425 26.7035 2.30184L27.2392 1.374C27.5233 0.881957 26.7621 0.44247 26.4781 0.934572L25.9424 1.86241C25.8211 2.07263 25.8931 2.34139 26.1033 2.46267Z" stroke="white" stroke-width="0.5" mask="url(#path-1-outside-1_3500_74417)"/>
</g>
<defs>
<clipPath id="clip0_3500_74417">
<rect width="30" height="30" fill="white"/>
</clipPath>
</defs>
</svg>
