<svg width="30" height="30" viewBox="0 0 30 30" fill="none" xmlns="http://www.w3.org/2000/svg">
<g clip-path="url(#clip0_3509_75007)">
<path d="M20.1213 22.2996C19.5141 22.032 18.8061 22.314 18.5445 22.9224C17.3109 25.764 14.5065 27.6 11.3997 27.6C7.09893 27.6 3.59971 24.1008 3.59971 19.8C3.59971 17.0112 5.10211 14.4228 7.51893 13.0416C8.09613 12.714 8.29535 11.9808 7.96652 11.4048C7.63893 10.8288 6.90451 10.6248 6.32971 10.9584C3.16529 12.7644 1.19971 16.152 1.19971 19.8C1.19971 25.4244 5.77529 30 11.3997 30C15.4641 30 19.1325 27.5964 20.7453 23.8776C21.0093 23.2704 20.7309 22.5636 20.1213 22.2996Z" fill="white"/>
<path d="M28.7145 23.5548C28.4673 22.938 27.7737 22.638 27.1545 22.8852L25.3593 23.604L22.7469 15.2424C22.5897 14.7408 22.1253 14.4 21.5997 14.4H13.0293L12.6561 12H17.3997C18.0633 12 18.5997 11.4636 18.5997 10.8C18.5997 10.1364 18.0633 9.6 17.3997 9.6H12.2841L11.6637 5.60279C12.5757 5.08682 13.1997 4.12078 13.1997 3C13.1997 1.3452 11.8545 0 10.1997 0C8.54613 0 7.19971 1.3452 7.19971 3C7.19971 4.32838 8.07328 5.44441 9.27211 5.83799L10.8141 15.7836C10.9054 16.3692 11.4081 16.8 11.9997 16.8H20.7177L23.4537 25.5576C23.5545 25.8768 23.7825 26.1396 24.0849 26.2836C24.2469 26.3616 24.4245 26.4 24.5997 26.4C24.7509 26.4 24.9021 26.3724 25.0461 26.3148L28.0461 25.1148C28.6617 24.8688 28.9605 24.1704 28.7145 23.5548Z" fill="white"/>
</g>
<defs>
<clipPath id="clip0_3509_75007">
<rect width="30" height="30" fill="white"/>
</clipPath>
</defs>
</svg>
