<svg width="30" height="30" viewBox="0 0 30 30" fill="none" xmlns="http://www.w3.org/2000/svg">
<g clip-path="url(#clip0_3531_173)">
<path d="M2.96672 16.6999V7.32494C2.96672 6.67598 2.44064 6.1499 1.79174 6.1499C1.14278 6.1499 0.616699 6.67598 0.616699 7.32494V22.6749C0.616699 23.3239 1.14278 23.85 1.79174 23.85C2.44064 23.85 2.96672 23.3239 2.96672 22.6749V20.4736L27.0345 20.417V22.6183C27.0345 23.2673 27.5605 23.7934 28.2094 23.7934C28.8583 23.7934 29.3844 23.2673 29.3844 22.6183V20.417V17.3434V16.6433L2.96672 16.6999Z" fill="white"/>
<path d="M29.3845 15.6934H11.522V11.2684C11.522 9.9843 12.5629 8.94336 13.847 8.94336H24.6907C27.283 8.94336 29.3845 11.0448 29.3845 13.6371V15.6934Z" fill="white"/>
<path d="M7.34077 15.1872C8.92505 15.1872 10.2094 13.9028 10.2094 12.3186C10.2094 10.7343 8.92505 9.44995 7.34077 9.44995C5.75648 9.44995 4.47217 10.7343 4.47217 12.3186C4.47217 13.9028 5.75648 15.1872 7.34077 15.1872Z" fill="white"/>
</g>
<defs>
<clipPath id="clip0_3531_173">
<rect width="30" height="30" fill="white" transform="translate(0.000488281)"/>
</clipPath>
</defs>
</svg>
