<svg width="30" height="30" viewBox="0 0 30 30" fill="none" xmlns="http://www.w3.org/2000/svg">
<g clip-path="url(#clip0_3531_155)">
<path d="M16.5859 8.29014C16.5859 5.55084 18.8061 3.33032 21.5457 3.33032C24.2854 3.33032 26.5055 5.55084 26.5055 8.29014C26.5055 11.0294 24.2854 13.2499 21.5457 13.2499C18.8061 13.2499 16.5859 11.0291 16.5859 8.29014ZM23.6499 13.5881H19.4415C15.94 13.5881 13.0915 16.437 13.0915 19.9382V25.0864L13.1046 25.1662L13.4597 25.2771C16.801 26.3208 19.7046 26.6694 22.0939 26.6694C26.7612 26.6694 29.4663 25.3384 29.6334 25.2538L29.9648 25.0854L30 25.0857V19.9386C30.0003 16.437 27.1518 13.5881 23.6499 13.5881ZM8.45461 13.2499C11.1939 13.2499 13.4144 11.0294 13.4144 8.29014C13.4144 5.55084 11.1939 3.33032 8.45461 3.33032C5.71531 3.33032 3.4948 5.55084 3.4948 8.29014C3.4948 11.0294 5.71531 13.2499 8.45461 13.2499ZM11.9467 25.0864V19.9386C11.9467 17.8888 12.7736 16.0325 14.106 14.6737C13.0925 13.9889 11.8716 13.5885 10.5591 13.5885H6.35043C2.84886 13.5881 0 16.437 0 19.9386V25.0864L0.0131892 25.1662L0.368621 25.2771C3.70954 26.3208 6.61319 26.6694 9.00281 26.6694C10.5223 26.6694 11.8297 26.5274 12.9132 26.3346L12.0941 26.0783L11.9467 25.0864Z" fill="white"/>
</g>
<defs>
<clipPath id="clip0_3531_155">
<rect width="30.0003" height="30" fill="white"/>
</clipPath>
</defs>
</svg>
