<svg width="35" height="30" viewBox="0 0 35 30" fill="none" xmlns="http://www.w3.org/2000/svg">
<path d="M22.9539 16.0466C21.4093 13.637 18.7787 12.1982 15.9168 12.1982C13.0552 12.1982 10.4243 13.637 8.88002 16.0466L5.15813 21.8528C4.54061 22.8163 4.25568 23.929 4.33399 25.0706C4.41229 26.2124 4.84675 27.2756 5.59024 28.1459C6.33425 29.0158 7.31736 29.6103 8.43324 29.8654C9.54913 30.1202 10.693 30.0115 11.7411 29.5509L11.8094 29.5205C14.4469 28.3837 17.4614 28.3939 20.0923 29.5509C20.7708 29.8492 21.4897 30 22.2151 30C22.6095 30 23.0063 29.9552 23.3993 29.8657C24.5152 29.6108 25.4983 29.0164 26.2426 28.1464C26.9863 27.2764 27.4211 26.2129 27.4996 25.0711C27.5782 23.929 27.2933 22.8163 26.6758 21.8526L22.9539 16.0466ZM24.7135 26.8385C23.7668 27.9453 22.2353 28.2951 20.9023 27.709C19.3179 27.0122 17.6172 26.6639 15.916 26.6639C14.2164 26.6639 12.516 27.0119 10.9327 27.708L10.8876 27.7279C9.56484 28.2873 8.05587 27.933 7.11964 26.8385C6.17398 25.7316 6.06634 24.1645 6.85199 22.9386L10.5741 17.1324C11.7469 15.3029 13.744 14.2106 15.9168 14.2106C18.0897 14.2106 20.087 15.3029 21.26 17.1324L24.9816 22.9383C25.7675 24.1647 25.6596 25.7321 24.7135 26.8385Z" fill="white"/>
<path d="M6.16083 16.0392C7.26807 15.6139 8.10924 14.7216 8.52956 13.5267C8.92919 12.3896 8.89646 11.1058 8.43685 9.91162C7.97698 8.71822 7.14053 7.74402 6.08174 7.16814C4.969 6.56345 3.74679 6.46498 2.64138 6.89107C0.41747 7.74611 -0.603089 10.4943 0.366664 13.0186C1.14131 15.0278 2.94805 16.2961 4.77468 16.2961C5.24109 16.2961 5.70882 16.2133 6.16083 16.0392ZM2.24437 12.2958C1.67294 10.8083 2.17497 9.22601 3.36418 8.76877C3.57892 8.68601 3.80597 8.6449 4.03774 8.6449C4.39547 8.6449 4.76499 8.74258 5.12063 8.93611C5.76015 9.28363 6.27108 9.88701 6.55915 10.6347C6.84696 11.3829 6.87262 12.1727 6.63117 12.8591C6.40988 13.4882 5.98641 13.9506 5.43908 14.1609L5.43803 14.1615C4.25039 14.6192 2.81763 13.782 2.24437 12.2958Z" fill="white"/>
<path d="M13.3823 11.4901C16.1625 11.4901 18.4244 8.91319 18.4244 5.74571C18.4244 2.57745 16.1625 0 13.3823 0C10.6024 0 8.34082 2.57745 8.34082 5.74571C8.34082 8.91319 10.6024 11.4901 13.3823 11.4901ZM13.3823 2.01205C15.0529 2.01205 16.4123 3.68705 16.4123 5.74571C16.4123 7.80359 15.0529 9.47807 13.3823 9.47807C11.7118 9.47807 10.3529 7.80359 10.3529 5.74571C10.3529 3.68705 11.7118 2.01205 13.3823 2.01205Z" fill="white"/>
<path d="M22.0898 12.9019C22.5175 13.0439 22.9541 13.1117 23.3885 13.1117C25.416 13.1117 27.3919 11.636 28.1459 9.36807C28.5801 8.06258 28.5515 6.6822 28.0655 5.48146C27.5569 4.22469 26.6144 3.31228 25.4113 2.91213C24.2082 2.51249 22.9064 2.67905 21.7465 3.38142C20.6385 4.05263 19.7895 5.14101 19.3561 6.4465C18.4408 9.20046 19.6672 12.0964 22.0898 12.9019ZM21.2654 7.08104C21.5485 6.22861 22.0896 5.52624 22.7891 5.10252C23.4362 4.71048 24.1422 4.6107 24.7768 4.82152C25.411 5.03259 25.9165 5.53489 26.2004 6.23621C26.507 6.9941 26.5201 7.88083 26.2365 8.73326C25.6711 10.4345 24.0956 11.4479 22.7247 10.9925C21.3547 10.5369 20.7 8.78223 21.2654 7.08104Z" fill="white"/>
<path d="M32.7089 12.231L32.7081 12.2302C30.7908 10.8139 27.9235 11.4278 26.3158 13.5993C24.7096 15.7719 24.9608 18.6927 26.8751 20.11C27.5733 20.6272 28.3983 20.8744 29.2426 20.8744C30.7141 20.8744 32.2451 20.1233 33.2682 18.7422C34.8744 16.5696 34.6235 13.6488 32.7089 12.231ZM31.6511 17.5451C30.7018 18.8265 29.0967 19.2515 28.0725 18.4928C27.049 17.7352 26.9867 16.0764 27.9334 14.7958C28.5627 13.9458 29.4819 13.4728 30.3291 13.4728C30.7576 13.4728 31.1677 13.5938 31.5123 13.8486C32.535 14.607 32.597 16.2653 31.6511 17.5451Z" fill="white"/>
</svg>
